<svg width="703" height="654" viewBox="0 0 703 654" fill="none" xmlns="http://www.w3.org/2000/svg">
<path d="M456.934 340.237C446.173 346.867 412.051 351.255 397.551 352.062H462.946C461.223 347.985 459.216 344.03 456.934 340.237Z" fill="#B476E5"/>
<path d="M467.65 366.981H253.25L174.415 530.653C178.156 533.959 182.131 536.99 186.308 539.723L174.501 564.582C191.464 569.241 209.335 569.507 226.429 565.353L230.777 555.21C235.112 555.634 239.468 555.819 243.824 555.756L274.699 499.25L265.418 546.154C269.589 548.211 273.88 550.019 278.267 551.566L274.844 565.344C290.302 569.759 306.687 569.759 322.145 565.344L323.597 558.854C327.741 558.827 331.913 558.665 336.112 558.317L370.131 420.7L380.414 422.242L451.965 416.501C466.676 404.473 473.085 389.522 467.65 366.981Z" fill="#B476E5"/>
<path d="M195.923 230.477C195.664 233.621 194.496 236.621 192.561 239.111C190.625 241.601 188.006 243.473 185.024 244.499C182.042 245.526 178.825 245.661 175.767 244.889C172.709 244.117 169.942 242.471 167.804 240.152C165.667 237.834 164.251 234.942 163.729 231.832C163.207 228.721 163.603 225.526 164.868 222.637C166.133 219.748 168.211 217.289 170.85 215.562C173.489 213.835 176.574 212.914 179.728 212.911C184.204 213.094 188.425 215.047 191.462 218.341C194.499 221.635 196.104 226.001 195.923 230.477Z" fill="#B476E5"/>
<path d="M189.496 205.542C186.9 207.459 183.724 208.427 180.499 208.284C180.815 205.074 182.239 202.074 184.526 199.8C187.123 197.883 190.299 196.915 193.524 197.058C193.208 200.268 191.784 203.268 189.496 205.542Z" fill="#B476E5"/>
<path d="M377.928 188.25C377.784 190.502 377.328 192.722 376.575 194.848L384.801 187.136C382.564 187.793 380.255 188.167 377.928 188.25Z" fill="#47BDFF"/>
<path d="M410.661 260.897V300.829C412.889 300.486 415.117 300.143 417.345 299.715C416.155 286.618 413.918 273.638 410.661 260.897Z" fill="#47BDFF"/>
<path d="M360.704 320.109L350.25 316.253C349.051 315.225 347.851 314.111 346.737 312.997C349.488 301.086 356.848 305.542 360.704 320.109Z" fill="#47BDFF"/>
<path d="M280.842 172.722V281.034C280.839 284.988 279.268 288.779 276.472 291.575C273.676 294.37 269.885 295.942 265.932 295.944H260.276C264.23 295.942 268.021 294.37 270.816 291.575C273.612 288.779 275.184 284.988 275.186 281.034V172.722C275.184 168.768 273.612 164.977 270.816 162.182C268.021 159.386 264.23 157.815 260.276 157.812H265.932C269.885 157.815 273.676 159.386 276.472 162.182C279.268 164.977 280.839 168.768 280.842 172.722Z" fill="#47BDFF"/>
<path d="M226.772 348.301H215.632C213.845 348.319 212.115 347.669 210.781 346.483C209.446 345.293 208.603 343.651 208.416 341.874L203.721 296.039H198.065L204.321 353.108H231.484C231.497 352.482 231.383 351.859 231.152 351.277C230.921 350.696 230.575 350.163 230.137 349.717C229.698 349.27 229.174 348.914 228.597 348.671C228.019 348.427 227.398 348.301 226.772 348.301Z" fill="#47BDFF"/>
<path d="M417.088 157.298C418.099 156.082 418.644 154.545 418.622 152.964C418.599 151.382 418.018 149.861 416.971 148.672C415.929 147.485 414.495 146.708 412.93 146.482C411.365 146.257 409.769 146.598 408.434 147.444C409.16 146.14 409.421 144.63 409.182 143.158C408.948 141.685 408.222 140.336 407.121 139.327C406.021 138.317 404.618 137.707 403.13 137.594C401.642 137.481 400.162 137.872 398.922 138.704C402.918 131.51 391.463 125.363 387.196 132.277C384.558 140.083 381.261 147.651 377.342 154.899C388.31 139.565 395.68 155.842 394.994 165.439C395.08 167.324 396.022 167.838 399.107 165.61C405.448 160.983 409.99 171.78 398.165 177.093C394.52 184.102 393.456 192.172 395.165 199.886C395.08 198.686 393.709 174.779 420.701 169.809C422.099 169.513 423.353 168.748 424.255 167.641C425.157 166.535 425.653 165.153 425.662 163.725C425.671 162.682 425.436 161.652 424.972 160.717C424.512 159.782 423.835 158.97 423.001 158.344C422.167 157.719 421.197 157.298 420.169 157.116C419.141 156.935 418.085 156.997 417.088 157.298Z" fill="#47BDFF"/>
<path d="M390.011 227.735C390.011 228.553 389.686 229.338 389.109 229.916C388.527 230.495 387.742 230.82 386.926 230.82C386.109 230.82 385.325 230.495 384.743 229.916C384.166 229.338 383.841 228.553 383.841 227.735C383.841 226.917 384.166 226.132 384.743 225.554C385.325 224.975 386.109 224.65 386.926 224.65C387.742 224.65 388.527 224.975 389.109 225.554C389.686 226.132 390.011 226.917 390.011 227.735Z" fill="#47BDFF"/>
<path d="M360.362 256.27C360.362 257.088 360.037 257.873 359.46 258.451C358.878 259.03 358.093 259.355 357.277 259.355C356.461 259.355 355.676 259.03 355.094 258.451C354.517 257.873 354.193 257.088 354.193 256.27C354.193 255.452 354.517 254.667 355.094 254.089C355.676 253.51 356.461 253.185 357.277 253.185C358.093 253.185 358.878 253.51 359.46 254.089C360.037 254.667 360.362 255.452 360.362 256.27Z" fill="#47BDFF"/>
<path d="M383.413 288.575C383.413 289.393 383.088 290.178 382.511 290.756C381.929 291.335 381.144 291.66 380.328 291.66C379.511 291.66 378.727 291.335 378.145 290.756C377.568 290.178 377.243 289.393 377.243 288.575C377.243 287.757 377.568 286.972 378.145 286.393C378.727 285.815 379.511 285.49 380.328 285.49C381.144 285.49 381.929 285.815 382.511 286.393C383.088 286.972 383.413 287.757 383.413 288.575Z" fill="#47BDFF"/>
<path d="M552.889 298.258H522.04C520.949 298.258 519.903 298.691 519.132 299.463C518.36 300.234 517.927 301.28 517.927 302.371V347.958C517.927 349.05 518.36 350.096 519.132 350.867C519.903 351.638 520.949 352.071 522.04 352.071H552.889C553.976 352.058 555.013 351.616 555.78 350.849C556.551 350.082 556.988 349.045 557.002 347.958V302.353C556.997 301.266 556.56 300.223 555.793 299.456C555.022 298.689 553.976 298.258 552.889 298.258Z" fill="#47BDFF"/>
<path d="M548.379 81.3635L506.648 92.7603C505.904 92.9614 505.223 93.3551 504.677 93.9018C504.131 94.4488 503.739 95.1298 503.536 95.8767C503.338 96.6231 503.338 97.4092 503.536 98.1556C503.739 98.902 504.131 99.583 504.677 100.13L542.209 137.319C542.755 137.865 543.436 138.258 544.185 138.458C544.929 138.658 545.718 138.658 546.462 138.459C547.211 138.259 547.892 137.866 548.437 137.321C548.983 136.775 549.376 136.095 549.579 135.348L560.718 92.846L548.379 81.3635Z" fill="#47BDFF"/>
<path d="M577.292 63.9297C576.543 63.1914 575.655 62.6083 574.681 62.2132C573.711 61.8182 572.669 61.6193 571.619 61.6269C570.568 61.6351 569.526 61.8502 568.561 62.2597C567.591 62.6696 566.716 63.2663 565.981 64.0154L548.586 81.5818L560.312 92.4644L577.364 75.2408C578.835 73.7223 579.655 71.686 579.642 69.5704C579.628 67.4548 578.78 65.4289 577.292 63.9297Z" fill="#47BDFF"/>
<path d="M209.291 6.4977C209.288 7.5819 208.964 8.64129 208.359 9.54194C207.755 10.4421 206.897 11.143 205.894 11.5556C204.891 11.9683 203.789 12.0743 202.725 11.8605C201.662 11.6467 200.686 11.1222 199.921 10.3542C199.155 9.58568 198.635 8.60747 198.426 7.54356C198.216 6.47965 198.327 5.37741 198.744 4.37619C199.161 3.37497 199.865 2.51988 200.768 1.9187C201.671 1.31797 202.731 0.998206 203.816 1.00001C204.537 0.998657 205.251 1.14027 205.918 1.41628C206.584 1.69275 207.189 2.09775 207.698 2.60873C208.207 3.12016 208.61 3.72676 208.883 4.39424C209.156 5.06171 209.295 5.77655 209.291 6.4977Z" fill="#47BDFF"/>
<path d="M322.144 565.353C306.686 569.768 290.302 569.768 274.844 565.353C260.362 569.552 231.913 589.775 231.913 589.775H327.628C326.723 581.454 324.883 573.264 322.144 565.353Z" fill="#47BDFF"/>
<path d="M226.428 565.353C209.334 569.507 191.464 569.241 174.5 564.582C158.97 569.674 144.832 578.297 133.198 589.775H231.827C230.625 581.512 228.821 573.349 226.428 565.353Z" fill="#47BDFF"/>
<path d="M397.38 420.88L380.413 422.251L370.13 420.709L372.273 412.054L397.38 420.88Z" fill="#47BDFF"/>
<path d="M694.123 352.071H27.9709C25.9938 352.071 24.0978 352.856 22.6997 354.254C21.3016 355.652 20.5159 357.551 20.5159 359.526C20.5159 361.501 21.3016 363.4 22.6997 364.798C24.0978 366.196 25.9938 366.981 27.9709 366.981H119.267L67 656C66.9292 656.424 66.9003 656.857 66.9143 657.285H81.9957L134.47 366.981H587.782L630.028 601H645.109C645.023 600.572 645.023 600.143 644.938 599.647L602.918 366.999H694.123C696.099 366.999 697.998 366.214 699.396 364.816C700.794 363.418 701.578 361.52 701.578 359.544C701.578 357.569 700.794 355.67 699.396 354.272C697.998 352.874 696.099 352.089 694.123 352.089V352.071Z" fill="#47BDFF"/>
<path d="M209.291 6.4977C209.288 7.5819 208.964 8.64129 208.359 9.54194C207.755 10.4421 206.897 11.143 205.894 11.5556C204.891 11.9683 203.789 12.0743 202.725 11.8605C201.662 11.6467 200.686 11.1222 199.921 10.3542C199.155 9.58568 198.635 8.60747 198.426 7.54356C198.216 6.47965 198.327 5.37741 198.744 4.37619C199.161 3.37497 199.865 2.51988 200.768 1.9187C201.671 1.31797 202.731 0.998206 203.816 1.00001C204.537 0.998657 205.251 1.14027 205.918 1.41628C206.584 1.69275 207.189 2.09775 207.698 2.60873C208.207 3.12016 208.61 3.72676 208.883 4.39424C209.156 5.06171 209.295 5.77655 209.291 6.4977Z" stroke="white" stroke-width="2"/>
<path d="M577.292 63.9297C576.544 63.1914 575.655 62.6083 574.681 62.2132C573.711 61.8182 572.67 61.6193 571.619 61.6269C570.568 61.6351 569.526 61.8502 568.561 62.2597C567.591 62.6696 566.716 63.2663 565.981 64.0154L548.586 81.5818L560.312 92.4644L577.364 75.2408C578.835 73.7223 579.656 71.686 579.642 69.5704C579.628 67.4548 578.781 65.4289 577.292 63.9297Z" stroke="white" stroke-width="2" stroke-linejoin="round"/>
<path d="M694.124 352.071H27.971C25.9938 352.071 24.0978 352.856 22.6997 354.254C21.3016 355.652 20.516 357.551 20.516 359.526C20.516 361.501 21.3016 363.4 22.6997 364.798C24.0978 366.196 25.9938 366.981 27.971 366.981H119.267L67.5857 655.715C67.5149 656.139 67.486 656.572 67.5 657H82.5814L134.47 366.981H587.782L630.028 601H645.109C645.023 600.572 645.023 600.143 644.938 599.647L602.918 366.999H694.124C696.099 366.999 697.998 366.214 699.396 364.816C700.794 363.418 701.579 361.52 701.579 359.544C701.579 357.569 700.794 355.67 699.396 354.272C697.998 352.874 696.099 352.089 694.124 352.089V352.071Z" stroke="white" stroke-width="2" stroke-linejoin="round"/>
<path d="M341.253 340.417C337.696 345.234 332.806 348.905 327.187 350.975C321.568 353.045 315.466 353.429 309.633 352.071" stroke="white" stroke-width="2" stroke-linecap="round" stroke-linejoin="round"/>
<path d="M147.44 326.021C147.44 326.021 105.773 322.17 100.031 352.071" stroke="white" stroke-width="2" stroke-linecap="round" stroke-linejoin="round"/>
<path d="M162.247 332.705C160.961 332.02 159.924 331.352 158.905 330.734C154.061 327.807 152.307 325.85 148.022 323.022C143.902 320.289 140.082 317.132 136.626 313.596C127.109 303.832 130.285 302.114 140.996 308.541C141.061 308.55 141.121 308.581 141.167 308.626C148.279 312.934 155.697 316.717 163.361 319.942" stroke="white" stroke-width="2" stroke-linecap="round" stroke-linejoin="round"/>
<path d="M158.905 330.734C149.543 326.594 139.897 323.126 130.041 320.361C121.734 318.025 123.186 316.154 124.557 315.906C129.619 315.522 134.709 315.721 139.724 316.505" stroke="white" stroke-width="2" stroke-linecap="round" stroke-linejoin="round"/>
<path d="M160.704 348.301C158.819 348.044 157.02 347.926 155.477 347.872C140.662 347.331 145.885 344.034 151.022 342.56C153.682 341.797 158.048 340.931 161.561 339.732" stroke="white" stroke-width="2" stroke-linecap="round" stroke-linejoin="round"/>
<path d="M481.184 429.62L509.5 622.5" stroke="white" stroke-width="2" stroke-linecap="round" stroke-linejoin="round"/>
<path d="M507.662 305.199L467.559 302.285" stroke="white" stroke-width="2" stroke-linecap="round" stroke-linejoin="round"/>
<path d="M323.596 558.863L322.144 565.353" stroke="white" stroke-width="2" stroke-linecap="round" stroke-linejoin="round"/>
<path d="M274.757 565.353L278.266 551.575" stroke="white" stroke-width="2" stroke-linecap="round" stroke-linejoin="round"/>
<path d="M230.799 555.156L226.428 565.353" stroke="white" stroke-width="2" stroke-linecap="round" stroke-linejoin="round"/>
<path d="M174.415 564.668L186.308 539.723" stroke="white" stroke-width="2" stroke-linecap="round" stroke-linejoin="round"/>
<path d="M274.758 499.029L243.824 555.756C218.319 556.631 193.459 547.642 174.415 530.653L253.25 366.981" stroke="white" stroke-width="2" stroke-linecap="round" stroke-linejoin="round"/>
<path d="M311.518 558.521L343.138 408.627C343.598 406.435 344.488 404.36 345.756 402.516C347.024 400.675 348.647 399.101 350.528 397.888C352.409 396.675 354.512 395.85 356.713 395.457C358.918 395.065 361.178 395.115 363.36 395.602C389.965 401.55 439.981 407.016 445.014 367.18" stroke="white" stroke-width="2" stroke-linecap="round" stroke-linejoin="round"/>
<path d="M200.081 313.881L297.208 298.096C313.232 273.742 332.264 217.331 359.847 209.492C364.371 208.339 368.489 205.968 371.758 202.637" stroke="white" stroke-width="2" stroke-linecap="round" stroke-linejoin="round"/>
<path d="M377.928 188.25C380.201 188.169 382.456 187.836 384.652 187.258L376.534 194.848" stroke="white" stroke-width="2" stroke-linecap="round" stroke-linejoin="round"/>
<path d="M396.523 203.314C397.849 205.751 400.054 207.59 402.692 208.455C416.398 213.571 429.103 221.051 440.224 230.554C452.915 242.199 464.127 284.868 469.016 312.988C470.198 319.599 468.84 326.409 465.219 332.065C461.597 337.72 455.978 341.802 449.479 343.493C432.526 348.202 415.117 351.074 397.551 352.062" stroke="white" stroke-width="2" stroke-linecap="round" stroke-linejoin="round"/>
<path d="M427.114 297.744C402.241 302.542 377.026 305.348 351.707 306.141" stroke="white" stroke-width="2" stroke-linecap="round" stroke-linejoin="round"/>
<path d="M417.259 299.647C416.145 286.541 413.908 273.554 410.576 260.83V300.847" stroke="white" stroke-width="2" stroke-linecap="round" stroke-linejoin="round"/>
<path d="M214.86 311.454C222.667 323.424 225.438 337.986 222.572 351.985" stroke="white" stroke-width="2" stroke-linecap="round" stroke-linejoin="round"/>
<path d="M320.773 317.795C314.175 320.709 297.294 325.512 288.211 328.421C283.926 329.774 291.553 334.676 317.431 327.221" stroke="white" stroke-width="2" stroke-linecap="round" stroke-linejoin="round"/>
<path d="M322.058 324.479C315.803 328.421 306.724 332.958 298.494 337.333C294.638 339.385 298.151 343.845 320.944 334.419" stroke="white" stroke-width="2" stroke-linecap="round" stroke-linejoin="round"/>
<path d="M323.858 330.734C320.25 335.19 317.125 339.511 311.09 345.987C308.281 349.004 313.44 350.835 332.513 337.418C336.031 334.942 337.925 337.657 342.538 341.531C348.641 346.65 352.736 352.585 357.191 351.985" stroke="white" stroke-width="2" stroke-linecap="round" stroke-linejoin="round"/>
<path d="M334.997 310.769C328.142 294.984 332.598 294.082 334.997 298.087C339.064 304.653 343.989 310.642 349.641 315.906" stroke="white" stroke-width="2" stroke-linecap="round" stroke-linejoin="round"/>
<path d="M346.737 312.997C348.875 303.706 353.831 304.374 357.737 312.032C362.247 320.889 366.36 352.071 356.934 352.071" stroke="white" stroke-width="2" stroke-linecap="round" stroke-linejoin="round"/>
<path d="M360.389 319.992C350.309 316.23 334.136 309.655 329.77 309.655C328.142 309.655 309.547 315.067 300.55 317.538C294.637 319.171 291.814 321.899 301.407 321.566C305.434 321.426 309.89 320.88 313.918 320.366" stroke="white" stroke-width="2" stroke-linecap="round" stroke-linejoin="round"/>
<path d="M341.596 253.194C337.879 271.34 338.113 290.074 342.281 308.121" stroke="white" stroke-width="2" stroke-linecap="round" stroke-linejoin="round"/>
<path d="M204.321 351.986H160.276L165.76 296.03H198.151L204.321 351.986Z" stroke="white" stroke-width="2" stroke-linecap="round" stroke-linejoin="round"/>
<path d="M195.923 230.477C195.664 233.621 194.496 236.621 192.561 239.111C190.625 241.601 188.006 243.473 185.024 244.499C182.042 245.526 178.825 245.661 175.767 244.889C172.709 244.117 169.942 242.471 167.804 240.152C165.667 237.834 164.25 234.942 163.729 231.832C163.207 228.721 163.603 225.526 164.868 222.637C166.133 219.748 168.211 217.289 170.85 215.562C173.489 213.835 176.574 212.914 179.727 212.911C184.204 213.094 188.425 215.047 191.462 218.341C194.499 221.635 196.104 226.001 195.923 230.477Z" stroke="white" stroke-width="2" stroke-linecap="round" stroke-linejoin="round"/>
<path d="M189.496 205.542C186.9 207.459 183.724 208.427 180.499 208.284C180.815 205.074 182.239 202.074 184.526 199.8C187.123 197.883 190.299 196.915 193.524 197.058C193.208 200.268 191.784 203.268 189.496 205.542Z" stroke="white" stroke-width="2" stroke-linecap="round" stroke-linejoin="round"/>
<path d="M377.328 154.985C381.239 147.733 384.535 140.166 387.183 132.363C387.999 131.164 389.176 130.257 390.543 129.774C391.909 129.291 393.393 129.257 394.782 129.679C396.171 130.099 397.384 130.953 398.255 132.114C399.121 133.275 399.594 134.683 399.608 136.133C399.599 137.061 399.364 137.972 398.922 138.789C400.162 137.958 401.642 137.567 403.13 137.68C404.618 137.793 406.021 138.403 407.121 139.413C408.217 140.422 408.948 141.771 409.182 143.244C409.421 144.716 409.16 146.226 408.434 147.53C409.769 146.684 411.365 146.343 412.93 146.568C414.495 146.794 415.929 147.57 416.971 148.759C418.018 149.947 418.599 151.469 418.622 153.05C418.644 154.631 418.099 156.168 417.088 157.384C417.914 157.119 418.78 157.021 419.646 157.098C420.507 157.174 421.346 157.423 422.108 157.829C422.875 158.235 423.547 158.791 424.092 159.462C424.638 160.134 425.044 160.909 425.288 161.74C425.527 162.571 425.599 163.442 425.5 164.302C425.396 165.161 425.125 165.992 424.697 166.744C424.268 167.497 423.696 168.156 423.006 168.682C422.32 169.209 421.535 169.592 420.696 169.809C413.399 170.596 406.679 174.155 401.926 179.752C397.177 185.349 394.755 192.556 395.161 199.886" stroke="white" stroke-width="2" stroke-linecap="round" stroke-linejoin="round"/>
<path d="M396.523 203.314L394.895 216.167L381.785 205.799L366.96 213.254L371.759 202.628" stroke="white" stroke-width="2" stroke-linecap="round" stroke-linejoin="round"/>
<path d="M381.785 205.799C370.988 233.048 367.132 267.238 366.96 305.285" stroke="white" stroke-width="2" stroke-linecap="round" stroke-linejoin="round"/>
<path d="M557.02 312.911C560.271 312.911 563.388 314.201 565.683 316.501C567.984 318.796 569.273 321.913 569.273 325.165C569.273 328.416 567.984 331.533 565.683 333.828C563.388 336.128 560.271 337.418 557.02 337.418" stroke="white" stroke-width="2" stroke-linecap="round" stroke-linejoin="round"/>
<path d="M669.359 199.201C669.359 200.692 668.917 202.15 668.087 203.39C667.262 204.63 666.08 205.597 664.705 206.167C663.325 206.738 661.809 206.887 660.348 206.596C658.882 206.306 657.543 205.587 656.488 204.533C655.432 203.478 654.715 202.134 654.422 200.672C654.133 199.209 654.282 197.693 654.851 196.315C655.423 194.937 656.388 193.759 657.629 192.931C658.869 192.102 660.326 191.66 661.818 191.66C662.811 191.654 663.794 191.845 664.709 192.222C665.629 192.598 666.464 193.154 667.163 193.855C667.866 194.557 668.421 195.39 668.795 196.308C669.174 197.226 669.364 198.209 669.359 199.201Z" stroke="white" stroke-width="2" stroke-linecap="round" stroke-linejoin="round"/>
<path d="M608.776 330.306L661.818 206.741" stroke="white" stroke-width="2" stroke-linecap="round" stroke-linejoin="round"/>
<path d="M661.818 191.66L584.526 104.942" stroke="white" stroke-width="2" stroke-linecap="round" stroke-linejoin="round"/>
<path d="M575.272 99.0292L562.161 90.6316" stroke="white" stroke-width="2" stroke-linecap="round" stroke-linejoin="round"/>
<path d="M531.313 126.536C529.924 127.62 528.278 128.332 526.533 128.605C524.792 128.877 523.01 128.7 521.355 128.091C519.695 127.482 518.225 126.461 517.075 125.124C515.92 123.788 515.131 122.179 514.775 120.452C514.473 118.993 514.495 117.486 514.834 116.035C515.176 114.585 515.826 113.227 516.746 112.054" stroke="white" stroke-width="2" stroke-linecap="round" stroke-linejoin="round"/>
<path d="M585.812 101.428C585.812 102.53 585.487 103.607 584.874 104.523C584.26 105.439 583.39 106.153 582.375 106.574C581.356 106.996 580.237 107.106 579.155 106.891C578.077 106.676 577.08 106.146 576.305 105.367C575.524 104.588 574.992 103.596 574.78 102.515C574.564 101.435 574.676 100.315 575.096 99.2971C575.52 98.2791 576.232 97.4092 577.148 96.7972C578.063 96.1851 579.141 95.8586 580.242 95.8586C581.712 95.8776 583.119 96.4702 584.161 97.5106C585.198 98.5511 585.794 99.9573 585.812 101.428Z" stroke="white" stroke-width="2" stroke-linecap="round" stroke-linejoin="round"/>
<path d="M614.261 335.876C614.261 336.976 613.936 338.054 613.323 338.97C612.709 339.885 611.839 340.602 610.824 341.022C609.805 341.441 608.686 341.554 607.604 341.337C606.526 341.125 605.529 340.593 604.754 339.813C603.973 339.037 603.441 338.041 603.229 336.963C603.013 335.88 603.126 334.762 603.545 333.743C603.964 332.728 604.681 331.857 605.597 331.244C606.513 330.631 607.59 330.306 608.691 330.306C609.421 330.306 610.148 330.446 610.824 330.725C611.501 331.005 612.114 331.415 612.633 331.934C613.151 332.453 613.562 333.066 613.841 333.743C614.121 334.419 614.261 335.145 614.261 335.876Z" stroke="white" stroke-width="2" stroke-linecap="round" stroke-linejoin="round"/>
<path d="M380.413 441.36L365.5 641" stroke="white" stroke-width="2" stroke-linecap="round" stroke-linejoin="round"/>
<path d="M212.547 82.234H161.476V31.1628H212.547V82.234Z" stroke="white" stroke-width="2" stroke-linecap="round" stroke-linejoin="round"/>
<path d="M187.011 42.8167L201.921 11.3685" stroke="white" stroke-width="2" stroke-linecap="round" stroke-linejoin="round"/>
<path d="M40.0533 450.227H1.06445" stroke="white" stroke-width="2" stroke-linecap="round" stroke-linejoin="round"/>
<path d="M20.516 469.723V430.734" stroke="white" stroke-width="2" stroke-linecap="round" stroke-linejoin="round"/>
<path d="M670.902 425.507C671.105 427.744 670.64 429.99 669.567 431.961C668.493 433.936 666.856 435.547 664.867 436.588C662.878 437.635 660.628 438.063 658.395 437.829C656.159 437.59 654.048 436.697 652.321 435.258C650.598 433.819 649.335 431.902 648.699 429.751C648.063 427.595 648.081 425.3 648.749 423.158C649.416 421.011 650.706 419.112 652.451 417.701C654.201 416.289 656.325 415.427 658.562 415.225C660.051 415.071 661.552 415.22 662.987 415.657C664.416 416.095 665.742 416.812 666.892 417.773C668.042 418.729 668.989 419.906 669.679 421.236C670.365 422.562 670.78 424.015 670.902 425.507Z" stroke="white" stroke-width="2" stroke-linecap="round" stroke-linejoin="round"/>
<path d="M231.912 589.775H327.628" stroke="white" stroke-width="2" stroke-linecap="round" stroke-linejoin="round"/>
<path d="M133.112 589.775H231.741" stroke="white" stroke-width="2" stroke-linecap="round" stroke-linejoin="round"/>
<path d="M231.908 589.639C231 581.364 229.162 573.214 226.428 565.349C209.334 569.502 191.464 569.236 174.5 564.577C154.17 571.482 136.261 584.097 122.915 600.914C162.504 600.914 188.811 601 218.631 600.914" stroke="white" stroke-width="2" stroke-linecap="round" stroke-linejoin="round"/>
<path d="M322.144 565.353C306.686 569.768 290.301 569.768 274.843 565.353C253.502 571.541 226.194 593.351 218.631 600.914C263.875 600.914 292.324 600.486 327.885 600.486C328.199 588.516 326.251 576.596 322.144 565.353Z" stroke="white" stroke-width="2" stroke-linecap="round" stroke-linejoin="round"/>
<path d="M370.13 420.709L372.273 412.054L397.38 420.88" stroke="white" stroke-width="2" stroke-linecap="round" stroke-linejoin="round"/>
<path d="M370.13 420.709L380.413 422.251L472.945 414.692" stroke="white" stroke-width="2" stroke-linecap="round" stroke-linejoin="round"/>
<path d="M484.869 415.567L455.734 413.425" stroke="white" stroke-width="2" stroke-linecap="round" stroke-linejoin="round"/>
<path d="M215.717 552.585L288.211 430.991" stroke="white" stroke-width="2" stroke-linecap="round" stroke-linejoin="round"/>
<path d="M373.901 304.77C381.613 316.167 383.584 331.934 379.642 352.071" stroke="white" stroke-width="2" stroke-linecap="round" stroke-linejoin="round"/>
<path d="M365.417 439.646L380.413 441.36L474.221 433.562C476.192 433.409 478.063 432.638 479.57 431.361C481.076 430.085 482.145 428.367 482.618 426.45L523.15 229.963C523.592 227.854 523.569 225.675 523.082 223.575C522.6 221.475 521.666 219.506 520.344 217.803C519.023 216.1 517.35 214.705 515.438 213.712C513.525 212.719 511.419 212.154 509.268 212.054L399.436 206.741" stroke="white" stroke-width="2" stroke-linecap="round" stroke-linejoin="round"/>
<path d="M329.856 364.411C321.08 366.102 313.008 370.373 306.674 376.678C300.338 382.983 296.029 391.033 294.295 399.8L265.431 546.159C287.448 556.577 311.891 560.789 336.125 558.336C336.125 557.912 362.368 452.076 370.144 420.718" stroke="white" stroke-width="2" stroke-linecap="round" stroke-linejoin="round"/>
<path d="M260.276 157.812C264.23 157.815 268.021 159.386 270.816 162.182C273.612 164.978 275.184 168.769 275.186 172.722V281.12C275.186 285.075 273.616 288.869 270.819 291.666C268.024 294.464 264.231 296.037 260.276 296.039H112.118C108.161 296.038 104.365 294.468 101.562 291.673C98.7602 288.879 97.1799 285.087 97.1677 281.129V172.722C97.1641 170.766 97.5466 168.828 98.293 167.019C99.0394 165.21 100.135 163.566 101.517 162.181C102.9 160.796 104.542 159.698 106.349 158.948C108.156 158.198 110.094 157.812 112.051 157.812H260.276Z" stroke="white" stroke-width="2" stroke-linecap="round" stroke-linejoin="round"/>
<path d="M280.842 172.722V281.034C280.839 284.988 279.268 288.779 276.472 291.575C273.676 294.37 269.885 295.942 265.932 295.944H260.276C264.23 295.942 268.021 294.37 270.816 291.575C273.612 288.779 275.184 284.988 275.186 281.034V172.722C275.184 168.769 273.612 164.978 270.816 162.182C268.021 159.386 264.23 157.815 260.276 157.812H265.932C269.885 157.815 273.676 159.386 276.472 162.182C279.268 164.978 280.839 168.769 280.842 172.722Z" stroke="white" stroke-width="2" stroke-linecap="round" stroke-linejoin="round"/>
<path d="M399.098 165.7C405.412 161.046 409.922 171.802 398.155 177.183C396.518 177.931 391.472 194.406 396.527 203.341C388.454 205.997 378.704 207.58 371.763 202.655C375.43 198.716 377.608 193.623 377.928 188.25C355.649 188.593 376.9 154.917 377.328 154.917C388.22 139.687 395.562 155.711 394.994 165.254C394.827 168.073 396.802 167.383 399.098 165.7Z" stroke="white" stroke-width="2" stroke-linecap="round" stroke-linejoin="round"/>
<path d="M452.424 416.23C458.116 411.964 462.662 406.353 465.652 399.9C468.646 393.446 469.986 386.347 469.562 379.248C469.251 375.18 468.656 371.148 467.79 367.189" stroke="white" stroke-width="2" stroke-linecap="round" stroke-linejoin="round"/>
<path d="M456.934 340.237C459.261 344.03 461.286 347.985 463 352.067" stroke="white" stroke-width="2" stroke-linecap="round" stroke-linejoin="round"/>
<path d="M557.02 347.958C557.02 349.049 556.587 350.096 555.815 350.867C555.044 351.638 553.998 352.071 552.906 352.071H522.058C520.967 352.071 519.92 351.638 519.149 350.867C518.378 350.096 517.945 349.049 517.945 347.958V302.353C517.945 301.262 518.378 300.216 519.149 299.445C519.92 298.673 520.967 298.24 522.058 298.24H552.888C553.43 298.24 553.962 298.346 554.462 298.553C554.963 298.76 555.414 299.063 555.797 299.445C556.181 299.827 556.483 300.28 556.69 300.779C556.893 301.28 557.001 301.812 557.001 302.353L557.02 347.958Z" stroke="white" stroke-width="2" stroke-linecap="round" stroke-linejoin="round"/>
<path d="M647.508 341.36C647.846 341.369 648.167 341.495 648.41 341.712C648.649 341.928 648.785 342.221 648.794 342.532V350.889C648.785 351.201 648.649 351.494 648.41 351.71C648.167 351.927 647.846 352.053 647.508 352.062H569.959C569.621 352.053 569.301 351.927 569.057 351.71C568.818 351.494 568.683 351.201 568.674 350.889V342.532C568.683 342.221 568.818 341.928 569.057 341.712C569.301 341.495 569.621 341.369 569.959 341.36H647.508Z" stroke="white" stroke-width="2" stroke-linecap="round" stroke-linejoin="round"/>
<path d="M380.413 441.36V422.251" stroke="white" stroke-width="2" stroke-linecap="round" stroke-linejoin="round"/>
<path d="M548.379 81.3635L506.648 92.7603C505.904 92.9614 505.223 93.3551 504.677 93.9018C504.131 94.4488 503.739 95.1298 503.536 95.8767C503.338 96.6231 503.338 97.4092 503.536 98.1556C503.739 98.902 504.131 99.583 504.677 100.13L542.209 137.319C542.755 137.865 543.436 138.258 544.185 138.458C544.929 138.658 545.718 138.658 546.462 138.459C547.211 138.259 547.892 137.866 548.437 137.321C548.983 136.775 549.376 136.095 549.579 135.348L560.718 92.846L548.379 81.3635Z" stroke="white" stroke-width="2" stroke-linejoin="round"/>
</svg>
