<svg xmlns="http://www.w3.org/2000/svg" xmlns:xlink="http://www.w3.org/1999/xlink" width="500" zoomAndPan="magnify" viewBox="0 0 375 374.999991" height="500" preserveAspectRatio="xMidYMid meet" version="1.0"><defs><clipPath id="ae7302623b"><path d="M 17 17 L 358.023438 17 L 358.023438 358 L 17 358 Z M 17 17 " clip-rule="nonzero"/></clipPath><clipPath id="5d5db3f88a"><path d="M 203 202 L 358.023438 202 L 358.023438 358 L 203 358 Z M 203 202 " clip-rule="nonzero"/></clipPath></defs><g clip-path="url(#ae7302623b)"><path fill="#47bdff" d="M 290.320312 19.949219 L 19.328125 345.136719 C 18.855469 345.703125 18.472656 346.324219 18.179688 347 C 17.886719 347.671875 17.691406 348.375 17.597656 349.105469 C 17.503906 349.835938 17.515625 350.566406 17.628906 351.292969 C 17.742188 352.019531 17.957031 352.714844 18.269531 353.382812 C 18.582031 354.050781 18.980469 354.660156 19.46875 355.210938 C 19.957031 355.765625 20.507812 356.238281 21.132812 356.632812 C 21.753906 357.027344 22.417969 357.324219 23.125 357.53125 C 23.832031 357.734375 24.554688 357.835938 25.289062 357.835938 L 79.488281 357.835938 C 80.640625 357.835938 81.738281 357.59375 82.78125 357.105469 C 83.824219 356.617188 84.714844 355.933594 85.449219 355.046875 L 356.441406 29.859375 C 356.914062 29.292969 357.296875 28.671875 357.589844 27.996094 C 357.882812 27.324219 358.078125 26.621094 358.171875 25.890625 C 358.265625 25.160156 358.253906 24.429688 358.140625 23.703125 C 358.027344 22.976562 357.8125 22.277344 357.5 21.613281 C 357.1875 20.945312 356.789062 20.335938 356.300781 19.785156 C 355.816406 19.230469 355.261719 18.757812 354.636719 18.363281 C 354.015625 17.96875 353.351562 17.671875 352.644531 17.464844 C 351.9375 17.261719 351.214844 17.160156 350.480469 17.160156 L 296.28125 17.160156 C 295.128906 17.160156 294.03125 17.402344 292.988281 17.890625 C 291.945312 18.375 291.054688 19.0625 290.320312 19.949219 Z M 290.320312 19.949219 " fill-opacity="1" fill-rule="nonzero"/></g><g clip-path="url(#5d5db3f88a)"><path fill="#47bdff" d="M 280.796875 202.984375 C 279.527344 202.984375 278.261719 203.015625 276.996094 203.078125 C 275.730469 203.136719 274.46875 203.230469 273.207031 203.355469 C 271.945312 203.480469 270.6875 203.636719 269.433594 203.820312 C 268.183594 204.007812 266.933594 204.222656 265.691406 204.46875 C 264.449219 204.71875 263.210938 204.996094 261.984375 205.304688 C 260.753906 205.609375 259.535156 205.949219 258.320312 206.316406 C 257.109375 206.683594 255.90625 207.082031 254.710938 207.507812 C 253.519531 207.9375 252.335938 208.390625 251.167969 208.875 C 249.996094 209.363281 248.835938 209.875 247.691406 210.417969 C 246.546875 210.957031 245.414062 211.527344 244.296875 212.125 C 243.179688 212.722656 242.078125 213.347656 240.992188 214 C 239.90625 214.648438 238.835938 215.328125 237.78125 216.03125 C 236.726562 216.734375 235.691406 217.464844 234.671875 218.21875 C 233.65625 218.976562 232.65625 219.753906 231.675781 220.558594 C 230.699219 221.363281 229.738281 222.1875 228.800781 223.039062 C 227.859375 223.890625 226.945312 224.765625 226.046875 225.660156 C 225.152344 226.554688 224.277344 227.472656 223.425781 228.414062 C 222.578125 229.351562 221.75 230.3125 220.945312 231.289062 C 220.140625 232.269531 219.363281 233.269531 218.605469 234.285156 C 217.851562 235.304688 217.121094 236.339844 216.417969 237.394531 C 215.714844 238.445312 215.035156 239.515625 214.386719 240.605469 C 213.734375 241.691406 213.109375 242.792969 212.511719 243.910156 C 211.914062 245.027344 211.34375 246.160156 210.804688 247.304688 C 210.261719 248.449219 209.75 249.609375 209.265625 250.78125 C 208.777344 251.949219 208.324219 253.132812 207.894531 254.324219 C 207.46875 255.519531 207.070312 256.722656 206.703125 257.933594 C 206.335938 259.144531 206 260.367188 205.691406 261.597656 C 205.382812 262.824219 205.105469 264.0625 204.859375 265.304688 C 204.609375 266.546875 204.394531 267.796875 204.207031 269.046875 C 204.023438 270.300781 203.867188 271.558594 203.742188 272.820312 C 203.617188 274.082031 203.527344 275.34375 203.464844 276.609375 C 203.402344 277.875 203.371094 279.140625 203.371094 280.410156 C 203.371094 281.675781 203.402344 282.941406 203.464844 284.207031 C 203.527344 285.472656 203.617188 286.738281 203.742188 288 C 203.867188 289.257812 204.023438 290.515625 204.207031 291.769531 C 204.394531 293.023438 204.609375 294.269531 204.859375 295.515625 C 205.105469 296.757812 205.382812 297.992188 205.691406 299.222656 C 206 300.453125 206.335938 301.671875 206.703125 302.882812 C 207.070312 304.097656 207.46875 305.300781 207.894531 306.492188 C 208.324219 307.6875 208.777344 308.867188 209.265625 310.039062 C 209.75 311.210938 210.261719 312.367188 210.804688 313.511719 C 211.34375 314.660156 211.914062 315.789062 212.511719 316.90625 C 213.109375 318.023438 213.734375 319.128906 214.386719 320.214844 C 215.035156 321.300781 215.714844 322.371094 216.417969 323.425781 C 217.121094 324.476562 217.851562 325.515625 218.605469 326.53125 C 219.363281 327.550781 220.140625 328.546875 220.945312 329.527344 C 221.75 330.507812 222.578125 331.464844 223.425781 332.40625 C 224.277344 333.34375 225.152344 334.261719 226.046875 335.15625 C 226.945312 336.054688 227.859375 336.925781 228.800781 337.777344 C 229.738281 338.628906 230.699219 339.457031 231.675781 340.261719 C 232.65625 341.0625 233.65625 341.84375 234.671875 342.597656 C 235.691406 343.351562 236.726562 344.082031 237.78125 344.785156 C 238.835938 345.492188 239.90625 346.167969 240.992188 346.820312 C 242.078125 347.472656 243.179688 348.09375 244.296875 348.691406 C 245.414062 349.289062 246.546875 349.859375 247.691406 350.402344 C 248.835938 350.941406 249.996094 351.457031 251.167969 351.941406 C 252.335938 352.425781 253.519531 352.882812 254.710938 353.308594 C 255.90625 353.734375 257.109375 354.132812 258.320312 354.5 C 259.535156 354.867188 260.753906 355.207031 261.984375 355.515625 C 263.210938 355.824219 264.449219 356.101562 265.691406 356.347656 C 266.933594 356.59375 268.183594 356.8125 269.433594 356.996094 C 270.6875 357.183594 271.945312 357.339844 273.207031 357.460938 C 274.46875 357.585938 275.730469 357.679688 276.996094 357.742188 C 278.261719 357.804688 279.527344 357.835938 280.796875 357.835938 C 282.0625 357.835938 283.328125 357.804688 284.59375 357.742188 C 285.859375 357.679688 287.125 357.585938 288.386719 357.460938 C 289.644531 357.339844 290.902344 357.183594 292.15625 356.996094 C 293.410156 356.8125 294.660156 356.59375 295.902344 356.347656 C 297.144531 356.101562 298.378906 355.824219 299.609375 355.515625 C 300.839844 355.207031 302.058594 354.867188 303.273438 354.5 C 304.484375 354.132812 305.6875 353.734375 306.878906 353.308594 C 308.074219 352.882812 309.253906 352.425781 310.425781 351.941406 C 311.597656 351.457031 312.753906 350.941406 313.898438 350.402344 C 315.046875 349.859375 316.175781 349.289062 317.292969 348.691406 C 318.414062 348.09375 319.515625 347.472656 320.601562 346.820312 C 321.6875 346.167969 322.757812 345.492188 323.8125 344.785156 C 324.867188 344.082031 325.902344 343.351562 326.917969 342.597656 C 327.9375 341.84375 328.933594 341.0625 329.914062 340.261719 C 330.894531 339.457031 331.855469 338.628906 332.792969 337.777344 C 333.730469 336.925781 334.648438 336.054688 335.542969 335.15625 C 336.441406 334.261719 337.3125 333.34375 338.164062 332.40625 C 339.015625 331.464844 339.84375 330.507812 340.648438 329.527344 C 341.453125 328.546875 342.230469 327.550781 342.984375 326.53125 C 343.742188 325.515625 344.46875 324.476562 345.171875 323.425781 C 345.878906 322.371094 346.554688 321.300781 347.207031 320.214844 C 347.859375 319.128906 348.484375 318.023438 349.078125 316.90625 C 349.675781 315.789062 350.246094 314.660156 350.789062 313.511719 C 351.332031 312.367188 351.84375 311.210938 352.328125 310.039062 C 352.8125 308.867188 353.269531 307.6875 353.695312 306.492188 C 354.125 305.300781 354.519531 304.097656 354.886719 302.882812 C 355.257812 301.671875 355.59375 300.453125 355.902344 299.222656 C 356.210938 297.992188 356.488281 296.757812 356.734375 295.515625 C 356.980469 294.269531 357.199219 293.023438 357.382812 291.769531 C 357.570312 290.515625 357.726562 289.257812 357.847656 288 C 357.972656 286.738281 358.066406 285.472656 358.128906 284.207031 C 358.191406 282.941406 358.222656 281.675781 358.222656 280.410156 C 358.222656 279.140625 358.191406 277.875 358.128906 276.609375 C 358.066406 275.34375 357.972656 274.082031 357.847656 272.820312 C 357.726562 271.558594 357.570312 270.300781 357.382812 269.046875 C 357.199219 267.796875 356.980469 266.546875 356.734375 265.304688 C 356.488281 264.0625 356.210938 262.824219 355.902344 261.597656 C 355.59375 260.367188 355.257812 259.144531 354.886719 257.933594 C 354.519531 256.722656 354.125 255.519531 353.695312 254.324219 C 353.269531 253.132812 352.8125 251.949219 352.328125 250.78125 C 351.84375 249.609375 351.332031 248.449219 350.789062 247.304688 C 350.246094 246.160156 349.675781 245.027344 349.078125 243.910156 C 348.484375 242.792969 347.859375 241.691406 347.207031 240.605469 C 346.554688 239.515625 345.878906 238.445312 345.171875 237.394531 C 344.46875 236.339844 343.742188 235.304688 342.984375 234.285156 C 342.230469 233.269531 341.453125 232.269531 340.648438 231.289062 C 339.84375 230.3125 339.015625 229.351562 338.164062 228.414062 C 337.3125 227.472656 336.441406 226.554688 335.542969 225.660156 C 334.648438 224.765625 333.730469 223.890625 332.792969 223.039062 C 331.855469 222.1875 330.894531 221.363281 329.914062 220.558594 C 328.933594 219.753906 327.9375 218.976562 326.917969 218.21875 C 325.902344 217.464844 324.867188 216.734375 323.8125 216.03125 C 322.757812 215.328125 321.6875 214.648438 320.601562 214 C 319.515625 213.347656 318.414062 212.722656 317.292969 212.125 C 316.175781 211.527344 315.046875 210.957031 313.898438 210.417969 C 312.753906 209.875 311.597656 209.363281 310.425781 208.875 C 309.253906 208.390625 308.074219 207.9375 306.878906 207.507812 C 305.6875 207.082031 304.484375 206.683594 303.273438 206.316406 C 302.058594 205.949219 300.839844 205.609375 299.609375 205.304688 C 298.378906 204.996094 297.144531 204.71875 295.902344 204.46875 C 294.660156 204.222656 293.410156 204.007812 292.15625 203.820312 C 290.902344 203.636719 289.644531 203.480469 288.386719 203.355469 C 287.125 203.230469 285.859375 203.136719 284.59375 203.078125 C 283.328125 203.015625 282.0625 202.984375 280.796875 202.984375 Z M 280.796875 319.121094 C 279.527344 319.121094 278.261719 319.058594 277 318.9375 C 275.738281 318.8125 274.488281 318.625 273.242188 318.378906 C 272 318.132812 270.773438 317.824219 269.558594 317.457031 C 268.34375 317.085938 267.152344 316.660156 265.980469 316.175781 C 264.808594 315.691406 263.664062 315.148438 262.546875 314.550781 C 261.429688 313.953125 260.34375 313.300781 259.289062 312.597656 C 258.234375 311.894531 257.21875 311.140625 256.238281 310.335938 C 255.257812 309.53125 254.320312 308.679688 253.421875 307.785156 C 252.527344 306.886719 251.675781 305.949219 250.871094 304.96875 C 250.066406 303.988281 249.3125 302.972656 248.609375 301.917969 C 247.902344 300.863281 247.253906 299.777344 246.65625 298.660156 C 246.058594 297.539062 245.515625 296.394531 245.03125 295.222656 C 244.542969 294.050781 244.117188 292.859375 243.75 291.648438 C 243.382812 290.433594 243.074219 289.207031 242.828125 287.960938 C 242.578125 286.71875 242.394531 285.464844 242.269531 284.203125 C 242.144531 282.941406 242.082031 281.675781 242.082031 280.410156 C 242.082031 279.140625 242.144531 277.875 242.269531 276.613281 C 242.394531 275.351562 242.578125 274.101562 242.828125 272.855469 C 243.074219 271.613281 243.382812 270.382812 243.75 269.171875 C 244.117188 267.957031 244.542969 266.765625 245.03125 265.59375 C 245.515625 264.421875 246.058594 263.277344 246.65625 262.160156 C 247.253906 261.042969 247.902344 259.957031 248.609375 258.902344 C 249.3125 257.847656 250.066406 256.828125 250.871094 255.851562 C 251.675781 254.871094 252.527344 253.929688 253.421875 253.035156 C 254.320312 252.136719 255.257812 251.289062 256.238281 250.484375 C 257.21875 249.679688 258.234375 248.925781 259.289062 248.21875 C 260.34375 247.515625 261.429688 246.863281 262.546875 246.265625 C 263.664062 245.667969 264.808594 245.128906 265.980469 244.644531 C 267.152344 244.15625 268.34375 243.730469 269.558594 243.363281 C 270.773438 242.996094 272 242.6875 273.242188 242.441406 C 274.488281 242.191406 275.738281 242.007812 277 241.882812 C 278.261719 241.757812 279.527344 241.695312 280.796875 241.695312 C 282.0625 241.695312 283.328125 241.757812 284.589844 241.882812 C 285.851562 242.007812 287.105469 242.191406 288.347656 242.441406 C 289.59375 242.6875 290.820312 242.996094 292.035156 243.363281 C 293.246094 243.730469 294.441406 244.15625 295.609375 244.644531 C 296.78125 245.128906 297.925781 245.667969 299.046875 246.265625 C 300.164062 246.863281 301.25 247.515625 302.304688 248.21875 C 303.359375 248.925781 304.375 249.679688 305.355469 250.484375 C 306.335938 251.289062 307.273438 252.136719 308.171875 253.035156 C 309.066406 253.929688 309.917969 254.871094 310.722656 255.851562 C 311.527344 256.828125 312.28125 257.847656 312.984375 258.902344 C 313.6875 259.957031 314.339844 261.042969 314.9375 262.160156 C 315.535156 263.277344 316.078125 264.421875 316.5625 265.59375 C 317.046875 266.765625 317.472656 267.957031 317.84375 269.171875 C 318.210938 270.382812 318.519531 271.613281 318.765625 272.855469 C 319.011719 274.101562 319.199219 275.351562 319.324219 276.613281 C 319.445312 277.875 319.507812 279.140625 319.507812 280.410156 C 319.507812 281.675781 319.445312 282.941406 319.324219 284.203125 C 319.199219 285.464844 319.011719 286.71875 318.765625 287.960938 C 318.519531 289.207031 318.210938 290.433594 317.84375 291.648438 C 317.472656 292.859375 317.046875 294.050781 316.5625 295.222656 C 316.078125 296.394531 315.535156 297.539062 314.9375 298.660156 C 314.339844 299.777344 313.6875 300.863281 312.984375 301.917969 C 312.28125 302.972656 311.527344 303.988281 310.722656 304.96875 C 309.917969 305.949219 309.066406 306.886719 308.171875 307.785156 C 307.273438 308.679688 306.335938 309.53125 305.355469 310.335938 C 304.375 311.140625 303.359375 311.894531 302.304688 312.597656 C 301.25 313.300781 300.164062 313.953125 299.046875 314.550781 C 297.925781 315.148438 296.78125 315.691406 295.609375 316.175781 C 294.441406 316.660156 293.246094 317.085938 292.035156 317.457031 C 290.820312 317.824219 289.59375 318.132812 288.347656 318.378906 C 287.105469 318.625 285.851562 318.8125 284.589844 318.9375 C 283.328125 319.058594 282.0625 319.121094 280.796875 319.121094 Z M 280.796875 319.121094 " fill-opacity="1" fill-rule="nonzero"/></g><path fill="#47bdff" d="M 94.972656 172.011719 C 96.242188 172.011719 97.507812 171.980469 98.773438 171.917969 C 100.039062 171.855469 101.300781 171.765625 102.5625 171.640625 C 103.824219 171.515625 105.082031 171.359375 106.335938 171.175781 C 107.585938 170.988281 108.835938 170.773438 110.078125 170.523438 C 111.320312 170.277344 112.558594 170 113.785156 169.691406 C 115.015625 169.382812 116.238281 169.046875 117.449219 168.679688 C 118.660156 168.3125 119.863281 167.914062 121.058594 167.488281 C 122.25 167.058594 123.433594 166.605469 124.601562 166.117188 C 125.773438 165.632812 126.933594 165.121094 128.078125 164.578125 C 129.222656 164.035156 130.355469 163.46875 131.472656 162.871094 C 132.589844 162.273438 133.691406 161.648438 134.777344 160.996094 C 135.867188 160.34375 136.9375 159.667969 137.988281 158.964844 C 139.042969 158.261719 140.078125 157.53125 141.097656 156.777344 C 142.113281 156.019531 143.113281 155.242188 144.09375 154.4375 C 145.070312 153.632812 146.03125 152.804688 146.96875 151.957031 C 147.910156 151.105469 148.824219 150.230469 149.722656 149.335938 C 150.617188 148.4375 151.492188 147.523438 152.34375 146.582031 C 153.195312 145.644531 154.019531 144.683594 154.824219 143.703125 C 155.628906 142.726562 156.40625 141.726562 157.164062 140.710938 C 157.917969 139.691406 158.648438 138.65625 159.351562 137.601562 C 160.054688 136.546875 160.734375 135.476562 161.382812 134.390625 C 162.035156 133.304688 162.660156 132.203125 163.257812 131.085938 C 163.855469 129.96875 164.425781 128.835938 164.964844 127.691406 C 165.507812 126.542969 166.019531 125.386719 166.507812 124.214844 C 166.992188 123.046875 167.445312 121.863281 167.875 120.671875 C 168.300781 119.476562 168.699219 118.273438 169.066406 117.0625 C 169.433594 115.847656 169.769531 114.628906 170.078125 113.398438 C 170.386719 112.171875 170.664062 110.933594 170.910156 109.691406 C 171.160156 108.449219 171.375 107.199219 171.5625 105.945312 C 171.746094 104.695312 171.902344 103.4375 172.027344 102.175781 C 172.152344 100.914062 172.246094 99.652344 172.304688 98.386719 C 172.367188 97.121094 172.398438 95.855469 172.398438 94.585938 C 172.398438 93.320312 172.367188 92.054688 172.304688 90.789062 C 172.246094 89.523438 172.152344 88.257812 172.027344 86.996094 C 171.902344 85.734375 171.746094 84.480469 171.5625 83.226562 C 171.375 81.972656 171.160156 80.722656 170.910156 79.480469 C 170.664062 78.238281 170.386719 77.003906 170.078125 75.773438 C 169.769531 74.542969 169.433594 73.324219 169.066406 72.109375 C 168.699219 70.898438 168.300781 69.695312 167.875 68.503906 C 167.445312 67.308594 166.992188 66.128906 166.507812 64.957031 C 166.019531 63.785156 165.507812 62.628906 164.964844 61.484375 C 164.425781 60.335938 163.855469 59.207031 163.257812 58.089844 C 162.660156 56.96875 162.035156 55.867188 161.382812 54.78125 C 160.734375 53.695312 160.054688 52.625 159.351562 51.570312 C 158.648438 50.515625 157.917969 49.480469 157.164062 48.464844 C 156.40625 47.445312 155.628906 46.449219 154.824219 45.46875 C 154.019531 44.488281 153.195312 43.527344 152.34375 42.589844 C 151.492188 41.652344 150.617188 40.734375 149.722656 39.835938 C 148.824219 38.941406 147.910156 38.070312 146.96875 37.21875 C 146.03125 36.367188 145.070312 35.539062 144.09375 34.734375 C 143.113281 33.929688 142.113281 33.152344 141.097656 32.398438 C 140.078125 31.640625 139.042969 30.914062 137.988281 30.207031 C 136.9375 29.503906 135.867188 28.828125 134.777344 28.175781 C 133.691406 27.523438 132.589844 26.898438 131.472656 26.300781 C 130.355469 25.707031 129.222656 25.136719 128.078125 24.59375 C 126.933594 24.050781 125.773438 23.539062 124.601562 23.054688 C 123.433594 22.570312 122.25 22.113281 121.058594 21.6875 C 119.863281 21.257812 118.660156 20.863281 117.449219 20.496094 C 116.238281 20.125 115.015625 19.789062 113.785156 19.480469 C 112.558594 19.171875 111.320312 18.894531 110.078125 18.648438 C 108.835938 18.402344 107.585938 18.183594 106.335938 18 C 105.082031 17.8125 103.824219 17.65625 102.5625 17.53125 C 101.300781 17.410156 100.039062 17.316406 98.773438 17.253906 C 97.507812 17.191406 96.242188 17.160156 94.972656 17.160156 C 93.707031 17.160156 92.441406 17.191406 91.175781 17.253906 C 89.910156 17.316406 88.644531 17.410156 87.382812 17.53125 C 86.125 17.65625 84.867188 17.8125 83.613281 18 C 82.359375 18.183594 81.109375 18.402344 79.867188 18.648438 C 78.625 18.894531 77.390625 19.171875 76.160156 19.480469 C 74.929688 19.789062 73.710938 20.125 72.496094 20.496094 C 71.285156 20.863281 70.082031 21.257812 68.890625 21.6875 C 67.695312 22.113281 66.515625 22.570312 65.34375 23.054688 C 64.171875 23.539062 63.015625 24.050781 61.871094 24.59375 C 60.722656 25.136719 59.59375 25.707031 58.476562 26.300781 C 57.359375 26.898438 56.253906 27.523438 55.167969 28.175781 C 54.082031 28.828125 53.011719 29.503906 51.957031 30.207031 C 50.90625 30.914062 49.867188 31.640625 48.851562 32.398438 C 47.832031 33.152344 46.835938 33.929688 45.855469 34.734375 C 44.875 35.539062 43.917969 36.367188 42.976562 37.21875 C 42.039062 38.070312 41.121094 38.941406 40.226562 39.835938 C 39.328125 40.734375 38.457031 41.652344 37.605469 42.589844 C 36.753906 43.527344 35.925781 44.488281 35.121094 45.46875 C 34.320312 46.449219 33.539062 47.445312 32.785156 48.464844 C 32.03125 49.480469 31.300781 50.515625 30.597656 51.570312 C 29.890625 52.625 29.214844 53.695312 28.5625 54.78125 C 27.910156 55.867188 27.289062 56.96875 26.691406 58.089844 C 26.09375 59.207031 25.523438 60.335938 24.980469 61.484375 C 24.4375 62.628906 23.925781 63.785156 23.441406 64.957031 C 22.957031 66.128906 22.5 67.308594 22.074219 68.503906 C 21.648438 69.695312 21.25 70.898438 20.882812 72.109375 C 20.511719 73.324219 20.175781 74.542969 19.867188 75.773438 C 19.558594 77.003906 19.28125 78.238281 19.035156 79.480469 C 18.789062 80.722656 18.570312 81.972656 18.386719 83.226562 C 18.199219 84.480469 18.042969 85.734375 17.921875 86.996094 C 17.796875 88.257812 17.703125 89.523438 17.640625 90.789062 C 17.578125 92.054688 17.546875 93.320312 17.546875 94.585938 C 17.546875 95.855469 17.578125 97.121094 17.640625 98.386719 C 17.703125 99.652344 17.796875 100.914062 17.921875 102.175781 C 18.042969 103.4375 18.199219 104.695312 18.386719 105.945312 C 18.570312 107.199219 18.789062 108.449219 19.035156 109.691406 C 19.28125 110.933594 19.558594 112.171875 19.867188 113.398438 C 20.175781 114.628906 20.511719 115.847656 20.882812 117.0625 C 21.25 118.273438 21.648438 119.476562 22.074219 120.671875 C 22.5 121.863281 22.957031 123.046875 23.441406 124.214844 C 23.925781 125.386719 24.4375 126.542969 24.980469 127.691406 C 25.523438 128.835938 26.09375 129.96875 26.691406 131.085938 C 27.289062 132.203125 27.910156 133.304688 28.5625 134.390625 C 29.214844 135.476562 29.890625 136.546875 30.597656 137.601562 C 31.300781 138.65625 32.03125 139.691406 32.785156 140.710938 C 33.539062 141.726562 34.320312 142.726562 35.121094 143.703125 C 35.925781 144.683594 36.753906 145.644531 37.605469 146.582031 C 38.457031 147.523438 39.328125 148.4375 40.226562 149.335938 C 41.121094 150.230469 42.039062 151.105469 42.976562 151.957031 C 43.917969 152.804688 44.875 153.632812 45.855469 154.4375 C 46.835938 155.242188 47.832031 156.019531 48.851562 156.777344 C 49.867188 157.53125 50.90625 158.261719 51.957031 158.964844 C 53.011719 159.667969 54.082031 160.34375 55.167969 160.996094 C 56.253906 161.648438 57.359375 162.273438 58.476562 162.871094 C 59.59375 163.46875 60.722656 164.035156 61.871094 164.578125 C 63.015625 165.121094 64.171875 165.632812 65.34375 166.117188 C 66.515625 166.605469 67.695312 167.058594 68.890625 167.488281 C 70.082031 167.914062 71.285156 168.3125 72.496094 168.679688 C 73.710938 169.046875 74.929688 169.382812 76.160156 169.691406 C 77.390625 170 78.625 170.277344 79.867188 170.523438 C 81.109375 170.773438 82.359375 170.988281 83.613281 171.175781 C 84.867188 171.359375 86.125 171.515625 87.382812 171.640625 C 88.644531 171.765625 89.910156 171.855469 91.175781 171.917969 C 92.441406 171.980469 93.707031 172.011719 94.972656 172.011719 Z M 94.972656 55.875 C 96.242188 55.875 97.507812 55.933594 98.769531 56.058594 C 100.03125 56.183594 101.28125 56.371094 102.527344 56.617188 C 103.769531 56.863281 105 57.171875 106.210938 57.539062 C 107.425781 57.910156 108.617188 58.335938 109.789062 58.820312 C 110.960938 59.304688 112.105469 59.847656 113.222656 60.445312 C 114.339844 61.042969 115.425781 61.691406 116.480469 62.398438 C 117.535156 63.101562 118.554688 63.855469 119.53125 64.660156 C 120.511719 65.464844 121.453125 66.316406 122.347656 67.210938 C 123.246094 68.109375 124.09375 69.046875 124.898438 70.027344 C 125.703125 71.007812 126.457031 72.023438 127.164062 73.078125 C 127.867188 74.132812 128.519531 75.21875 129.117188 76.335938 C 129.714844 77.457031 130.253906 78.601562 130.738281 79.773438 C 131.226562 80.941406 131.652344 82.136719 132.019531 83.347656 C 132.386719 84.5625 132.695312 85.789062 132.941406 87.035156 C 133.191406 88.277344 133.375 89.53125 133.5 90.792969 C 133.625 92.054688 133.6875 93.320312 133.6875 94.585938 C 133.6875 95.855469 133.625 97.121094 133.5 98.382812 C 133.375 99.644531 133.191406 100.894531 132.941406 102.140625 C 132.695312 103.382812 132.386719 104.609375 132.019531 105.824219 C 131.652344 107.039062 131.226562 108.230469 130.738281 109.402344 C 130.253906 110.574219 129.714844 111.71875 129.117188 112.835938 C 128.519531 113.953125 127.867188 115.039062 127.164062 116.09375 C 126.457031 117.148438 125.703125 118.164062 124.898438 119.144531 C 124.09375 120.125 123.246094 121.0625 122.347656 121.960938 C 121.453125 122.855469 120.511719 123.707031 119.53125 124.511719 C 118.554688 125.316406 117.535156 126.070312 116.480469 126.773438 C 115.425781 127.480469 114.339844 128.128906 113.222656 128.726562 C 112.105469 129.324219 110.960938 129.867188 109.789062 130.351562 C 108.617188 130.835938 107.425781 131.265625 106.210938 131.632812 C 105 132 103.769531 132.308594 102.527344 132.554688 C 101.28125 132.804688 100.03125 132.988281 98.769531 133.113281 C 97.507812 133.238281 96.242188 133.300781 94.972656 133.300781 C 93.707031 133.300781 92.441406 133.238281 91.179688 133.113281 C 89.917969 132.988281 88.664062 132.804688 87.421875 132.554688 C 86.175781 132.308594 84.949219 132 83.734375 131.632812 C 82.523438 131.265625 81.332031 130.835938 80.160156 130.351562 C 78.988281 129.867188 77.84375 129.324219 76.722656 128.726562 C 75.605469 128.128906 74.519531 127.480469 73.464844 126.773438 C 72.410156 126.070312 71.394531 125.316406 70.414062 124.511719 C 69.433594 123.707031 68.496094 122.855469 67.597656 121.960938 C 66.703125 121.0625 65.851562 120.125 65.046875 119.144531 C 64.242188 118.164062 63.488281 117.148438 62.785156 116.09375 C 62.082031 115.039062 61.429688 113.953125 60.832031 112.835938 C 60.234375 111.71875 59.691406 110.574219 59.207031 109.402344 C 58.722656 108.230469 58.296875 107.039062 57.925781 105.824219 C 57.558594 104.609375 57.25 103.382812 57.003906 102.140625 C 56.757812 100.894531 56.570312 99.644531 56.445312 98.382812 C 56.324219 97.121094 56.261719 95.855469 56.261719 94.585938 C 56.261719 93.320312 56.324219 92.054688 56.445312 90.792969 C 56.570312 89.53125 56.757812 88.277344 57.003906 87.035156 C 57.25 85.789062 57.558594 84.5625 57.925781 83.347656 C 58.296875 82.136719 58.722656 80.941406 59.207031 79.773438 C 59.691406 78.601562 60.234375 77.457031 60.832031 76.335938 C 61.429688 75.21875 62.082031 74.132812 62.785156 73.078125 C 63.488281 72.023438 64.242188 71.007812 65.046875 70.027344 C 65.851562 69.046875 66.703125 68.109375 67.597656 67.210938 C 68.496094 66.316406 69.433594 65.464844 70.414062 64.660156 C 71.394531 63.855469 72.410156 63.101562 73.464844 62.398438 C 74.519531 61.691406 75.605469 61.042969 76.722656 60.445312 C 77.84375 59.847656 78.988281 59.304688 80.160156 58.820312 C 81.332031 58.335938 82.523438 57.910156 83.734375 57.539062 C 84.949219 57.171875 86.175781 56.863281 87.421875 56.617188 C 88.664062 56.371094 89.917969 56.183594 91.179688 56.058594 C 92.441406 55.933594 93.707031 55.875 94.972656 55.875 Z M 94.972656 55.875 " fill-opacity="1" fill-rule="nonzero"/></svg>