<svg width="160" height="38" viewBox="0 0 160 38" fill="none" xmlns="http://www.w3.org/2000/svg">
<path d="M33.9315 9.78425V6H22V32H33.9315V28.2158C31.4873 28.2158 29.1432 27.2448 27.415 25.5165C25.6867 23.7882 24.7158 21.4442 24.7158 19C24.7158 16.5558 25.6867 14.2117 27.415 12.4835C29.1432 10.7552 31.4873 9.78425 33.9315 9.78425Z" fill="#7780A1"/>
<path d="M33.9314 9.78516V28.2167C36.3756 28.2167 38.7197 27.2457 40.448 25.5174C42.1763 23.7891 43.1472 21.4451 43.1472 19.0009C43.1472 16.5567 42.1763 14.2126 40.448 12.4844C38.7197 10.7561 36.3756 9.78516 33.9314 9.78516Z" fill="#7780A1"/>
<path d="M49.8432 12.0977H52.5144V24.9641H49.8432V12.0977Z" fill="#7780A1"/>
<path d="M54.0102 20.5574C54.0102 19.6317 54.2851 18.7269 54.7999 17.9575C55.3148 17.1882 56.0464 16.5891 56.9022 16.236C57.758 15.8831 58.6992 15.7921 59.6067 15.9746C60.5142 16.1571 61.3471 16.605 61.9998 17.2614C62.6525 17.9179 63.0956 18.7533 63.273 19.6619C63.4503 20.5705 63.3539 21.5112 62.996 22.3649C62.638 23.2185 62.0348 23.9468 61.2625 24.4572C60.4903 24.9677 59.5838 25.2373 58.6582 25.232C58.0442 25.2368 57.4354 25.119 56.8676 24.8854C56.2998 24.6518 55.7843 24.3072 55.3514 23.8719C54.9184 23.4365 54.5769 22.919 54.3465 22.3499C54.1163 21.7807 54.0019 21.1713 54.0102 20.5574ZM60.7061 20.5574C60.6956 20.1583 60.5676 19.7711 60.3383 19.4444C60.1089 19.1177 59.7884 18.8658 59.4165 18.7203C59.0448 18.5748 58.6384 18.5421 58.2482 18.6264C57.8579 18.7107 57.5012 18.9081 57.2226 19.1941C56.944 19.48 56.7559 19.8417 56.6818 20.234C56.6077 20.6263 56.6509 21.0317 56.806 21.3995C56.9611 21.7673 57.2212 22.0814 57.5539 22.3021C57.8864 22.523 58.2767 22.6408 58.676 22.6409C58.9478 22.6463 59.2178 22.5954 59.4691 22.4916C59.7203 22.3879 59.9475 22.2334 60.1363 22.0379C60.3252 21.8423 60.4717 21.6098 60.5667 21.3552C60.6617 21.1004 60.7031 20.8289 60.6883 20.5574H60.7061Z" fill="#7780A1"/>
<path d="M73.8753 16.1525V24.5313C73.8753 27.4874 71.5602 28.7429 69.2185 28.7429C68.3924 28.8107 67.5639 28.6466 66.8262 28.2691C66.0884 27.8915 65.4706 27.3155 65.0424 26.6059L67.2952 25.3059C67.4777 25.674 67.7681 25.9777 68.1276 26.1765C68.4872 26.3753 68.8987 26.4599 69.3075 26.419C69.5679 26.451 69.8322 26.4252 70.0814 26.3433C70.3308 26.2613 70.5588 26.1253 70.7493 25.9449C70.94 25.7645 71.0883 25.5443 71.1839 25.2999C71.2794 25.0556 71.3197 24.7931 71.302 24.5313V23.721C70.9912 24.0979 70.5967 24.3971 70.1501 24.5949C69.7034 24.7928 69.2168 24.8838 68.7287 24.8607C67.548 24.8607 66.4156 24.3917 65.5807 23.5567C64.7457 22.7219 64.2767 21.5895 64.2767 20.4087C64.2767 19.2279 64.7457 18.0956 65.5807 17.2606C66.4156 16.4257 67.548 15.9566 68.7287 15.9566C69.2168 15.9336 69.7034 16.0246 70.1501 16.2224C70.5967 16.4203 70.9912 16.7194 71.302 17.0964V16.2059L73.8753 16.1525ZM71.302 20.382C71.3197 19.956 71.2097 19.5344 70.9859 19.1715C70.7622 18.8085 70.435 18.5208 70.0464 18.3453C69.6578 18.1698 69.2257 18.1146 68.8054 18.1868C68.3852 18.2589 67.9961 18.455 67.6883 18.75C67.3805 19.045 67.1679 19.4254 67.078 19.8422C66.9881 20.259 67.0248 20.6931 67.1836 21.0888C67.3424 21.4845 67.616 21.8236 67.969 22.0626C68.3222 22.3016 68.7387 22.4296 69.165 22.4299C69.4433 22.4499 69.7226 22.4114 69.9849 22.3168C70.2473 22.2222 70.487 22.0736 70.6883 21.8805C70.8898 21.6876 71.0484 21.4545 71.1541 21.1963C71.2598 20.9382 71.3102 20.6608 71.302 20.382Z" fill="#7780A1"/>
<path d="M75.3802 20.5575C75.3802 19.6325 75.6546 18.7284 76.1686 17.9594C76.6827 17.1905 77.4132 16.5913 78.2679 16.2378C79.1226 15.8843 80.063 15.7922 80.9701 15.9733C81.8771 16.1544 82.71 16.6005 83.3635 17.2551C84.0169 17.9098 84.4614 18.7436 84.6407 19.651C84.8201 20.5584 84.7263 21.4986 84.3711 22.3526C84.0159 23.2066 83.4153 23.9361 82.6455 24.4487C81.8755 24.9613 80.9709 25.2339 80.0459 25.2321C79.4308 25.2381 78.8206 25.1212 78.2513 24.8883C77.682 24.6553 77.1648 24.3111 76.7303 23.8757C76.2957 23.4403 75.9524 22.9225 75.7206 22.3527C75.4888 21.783 75.373 21.1726 75.3802 20.5575ZM82.076 20.5575C82.0655 20.158 81.9373 19.7705 81.7076 19.4436C81.4779 19.1167 81.1567 18.8648 80.7844 18.7196C80.4121 18.5744 80.0053 18.5422 79.6149 18.6273C79.2244 18.7122 78.8677 18.9106 78.5895 19.1974C78.3112 19.4842 78.1238 19.8468 78.0508 20.2396C77.9777 20.6325 78.0221 21.0381 78.1785 21.4058C78.335 21.7735 78.5965 22.0869 78.9303 22.3066C79.264 22.5263 79.6552 22.6426 80.0548 22.641C80.3267 22.6464 80.5966 22.5955 80.8479 22.4917C81.0992 22.388 81.3263 22.2335 81.5152 22.038C81.704 21.8424 81.8505 21.61 81.9455 21.3553C82.0405 21.1005 82.0819 20.829 82.0671 20.5575H82.076Z" fill="#7780A1"/>
<path d="M85.9493 13.792C85.9493 13.4785 86.0423 13.1721 86.2165 12.9114C86.3906 12.6508 86.6382 12.4476 86.9277 12.3277C87.2174 12.2077 87.536 12.1763 87.8435 12.2375C88.1509 12.2986 88.4333 12.4496 88.655 12.6712C88.8767 12.8929 89.0276 13.1754 89.0887 13.4827C89.1499 13.7902 89.1185 14.1089 88.9986 14.3985C88.8786 14.6881 88.6754 14.9356 88.4148 15.1098C88.1542 15.2839 87.8478 15.3769 87.5343 15.3769C87.1153 15.3723 86.7149 15.2038 86.4187 14.9076C86.1224 14.6113 85.954 14.2109 85.9493 13.792ZM86.2076 16.1516H88.8788V24.9666H86.2076V16.1516Z" fill="#7780A1"/>
<path d="M100.312 20.5584C100.341 21.1446 100.255 21.7311 100.058 22.2838C99.8601 22.8366 99.5551 23.3449 99.1604 23.7793C98.7656 24.2138 98.2889 24.5659 97.7575 24.8154C97.2262 25.0649 96.6507 25.2068 96.0643 25.2331C95.5666 25.2662 95.0679 25.1865 94.6054 24.9999C94.1429 24.8133 93.7285 24.5247 93.3931 24.1557V28.5098H90.7218V16.1509H93.3931V16.979C93.7289 16.6109 94.1437 16.3237 94.6062 16.1387C95.0688 15.9536 95.5673 15.8756 96.0643 15.9105C96.6484 15.9367 97.2216 16.0779 97.7511 16.3257C98.2806 16.5735 98.7562 16.9232 99.1505 17.3548C99.545 17.7864 99.8505 18.2914 100.05 18.8412C100.249 19.3908 100.338 19.9743 100.312 20.5584ZM97.6403 20.5584C97.6298 20.1448 97.4974 19.7436 97.2598 19.405C97.0223 19.0663 96.69 18.8053 96.3047 18.6547C95.9194 18.504 95.4983 18.4706 95.0939 18.5583C94.6897 18.646 94.3203 18.8511 94.0321 19.1479C93.7439 19.4447 93.5497 19.8199 93.4739 20.2266C93.398 20.6333 93.4439 21.0533 93.6058 21.434C93.7677 21.8147 94.0383 22.1391 94.3837 22.3667C94.7292 22.5943 95.1342 22.7148 95.5479 22.7132C95.8312 22.7252 96.1139 22.6772 96.3774 22.5723C96.6409 22.4674 96.8793 22.3081 97.0769 22.1046C97.2745 21.9011 97.4267 21.6581 97.5239 21.3917C97.621 21.1252 97.6606 20.8413 97.6403 20.5584Z" fill="#7780A1"/>
<path d="M108.441 22.3211C108.441 24.3512 106.66 25.2149 104.773 25.2149C104.003 25.2842 103.23 25.121 102.553 24.7464C101.877 24.3718 101.329 23.803 100.979 23.1135L103.277 21.8135C103.368 22.1312 103.565 22.4081 103.836 22.5977C104.106 22.7874 104.434 22.8783 104.764 22.8553C105.396 22.8553 105.716 22.6594 105.716 22.3033C105.716 21.3327 101.38 21.8492 101.38 18.7951C101.38 16.8718 103.001 15.9101 104.835 15.9101C105.532 15.8789 106.225 16.0371 106.839 16.3679C107.454 16.6987 107.967 17.1897 108.325 17.7889L106.028 18.9999C105.926 18.7701 105.761 18.5748 105.551 18.4373C105.34 18.2998 105.095 18.2262 104.844 18.2252C104.381 18.2252 104.105 18.4033 104.105 18.7149C104.105 19.73 108.441 19.0622 108.441 22.3211Z" fill="#7780A1"/>
<path d="M118.12 16.1523V24.9674H115.449V24.1393C115.145 24.5059 114.759 24.7959 114.324 24.9862C113.888 25.1765 113.413 25.2615 112.938 25.2345C111.157 25.2345 109.634 23.9612 109.634 21.5838V16.1523H112.305V21.1832C112.284 21.3935 112.309 21.6058 112.378 21.8056C112.448 22.0054 112.559 22.1877 112.705 22.3402C112.852 22.4925 113.03 22.6113 113.227 22.6883C113.424 22.7652 113.635 22.7985 113.846 22.7859C114.807 22.7859 115.484 22.216 115.484 21.0051V16.1523H118.12Z" fill="#7780A1"/>
<path d="M133.257 19.5532V24.9669H130.586V19.7847C130.586 18.8943 130.167 18.3422 129.321 18.3422C128.475 18.3422 127.941 18.9566 127.941 19.9984V24.9669H125.27V19.7847C125.27 18.8943 124.851 18.3422 124.005 18.3422C123.16 18.3422 122.625 18.9566 122.625 19.9984V24.9669H119.954V16.1518H122.625V16.9621C122.902 16.6041 123.263 16.3206 123.677 16.1372C124.09 15.9538 124.543 15.8761 124.994 15.9114C125.445 15.8878 125.896 15.9822 126.3 16.1851C126.704 16.388 127.049 16.6927 127.3 17.0689C127.594 16.6757 127.982 16.3634 128.429 16.161C128.875 15.9585 129.367 15.8727 129.855 15.9114C131.939 15.9114 133.257 17.3539 133.257 19.5532Z" fill="#7780A1"/>
<path d="M135.501 16.0975C136.583 16.0975 137.46 15.2204 137.46 14.1386C137.46 13.0567 136.583 12.1797 135.501 12.1797C134.419 12.1797 133.542 13.0567 133.542 14.1386C133.542 15.2204 134.419 16.0975 135.501 16.0975Z" fill="#7780A1"/>
</svg>
