<svg width="160" height="38" viewBox="0 0 160 38" fill="none" xmlns="http://www.w3.org/2000/svg">
<path d="M53.1967 21.0966H57.5835V23.6817H49.8478V9.93359H53.1967V21.0966Z" fill="#7780A1"/>
<path d="M63.5677 23.839C62.4971 23.839 61.5309 23.6105 60.6692 23.1535C59.8205 22.6966 59.1482 22.0437 58.652 21.1951C58.169 20.3465 57.9274 19.3542 57.9274 18.2183C57.9274 17.0955 58.1754 16.1097 58.6716 15.2611C59.1678 14.3994 59.8466 13.7401 60.7083 13.2831C61.5701 12.8261 62.5362 12.5977 63.6068 12.5977C64.6774 12.5977 65.6435 12.8261 66.5053 13.2831C67.367 13.7401 68.0459 14.3994 68.542 15.2611C69.0382 16.1097 69.2862 17.0955 69.2862 18.2183C69.2862 19.3411 69.0317 20.3334 68.5224 21.1951C68.0263 22.0437 67.3408 22.6966 66.4661 23.1535C65.6044 23.6105 64.6382 23.839 63.5677 23.839ZM63.5677 20.9405C64.2074 20.9405 64.7493 20.7055 65.1931 20.2355C65.6501 19.7655 65.8786 19.0931 65.8786 18.2183C65.8786 17.3435 65.6566 16.6712 65.2128 16.2012C64.7819 15.7312 64.2466 15.4961 63.6068 15.4961C62.954 15.4961 62.4122 15.7312 61.9814 16.2012C61.5505 16.6581 61.3351 17.3306 61.3351 18.2183C61.3351 19.0931 61.5439 19.7655 61.9617 20.2355C62.3926 20.7055 62.9279 20.9405 63.5677 20.9405Z" fill="#7780A1"/>
<path d="M74.6275 12.5977C75.3978 12.5977 76.0703 12.7543 76.6447 13.0677C77.2322 13.381 77.6826 13.7923 77.996 14.3015V12.7543H81.3449V23.6628C81.3449 24.6681 81.1425 25.5754 80.7378 26.3849C80.3461 27.2074 79.739 27.8603 78.9164 28.3434C78.107 28.8265 77.0951 29.068 75.8809 29.068C74.2619 29.068 72.9498 28.6828 71.9445 27.9125C70.9392 27.1552 70.3647 26.1238 70.2211 24.8182H73.5308C73.6352 25.236 73.8833 25.5624 74.275 25.7974C74.6667 26.0455 75.1497 26.1695 75.7243 26.1695C76.4162 26.1695 76.9645 25.9672 77.3694 25.5624C77.7871 25.1707 77.996 24.5375 77.996 23.6628V22.1156C77.6696 22.6247 77.2192 23.0425 76.6447 23.369C76.0703 23.6823 75.3978 23.839 74.6275 23.839C73.7267 23.839 72.9106 23.6105 72.1795 23.1535C71.4483 22.6835 70.8673 22.0242 70.4365 21.1755C70.0187 20.3139 69.8098 19.3216 69.8098 18.1988C69.8098 17.0759 70.0187 16.0902 70.4365 15.2415C70.8673 14.3929 71.4483 13.7401 72.1795 13.2831C72.9106 12.8261 73.7267 12.5977 74.6275 12.5977ZM77.996 18.2183C77.996 17.3828 77.761 16.7234 77.291 16.2403C76.834 15.7572 76.2726 15.5157 75.6068 15.5157C74.9409 15.5157 74.373 15.7572 73.9029 16.2403C73.4459 16.7103 73.2174 17.3631 73.2174 18.1988C73.2174 19.0344 73.4459 19.7002 73.9029 20.1964C74.373 20.6795 74.9409 20.9209 75.6068 20.9209C76.2726 20.9209 76.834 20.6795 77.291 20.1964C77.761 19.7133 77.996 19.0539 77.996 18.2183Z" fill="#7780A1"/>
<path d="M88.1545 23.839C87.0839 23.839 86.1178 23.6105 85.256 23.1535C84.4074 22.6966 83.735 22.0437 83.2389 21.1951C82.7558 20.3465 82.5143 19.3542 82.5143 18.2183C82.5143 17.0955 82.7623 16.1097 83.2584 15.2611C83.7546 14.3994 84.4335 13.7401 85.2952 13.2831C86.1569 12.8261 87.1231 12.5977 88.1936 12.5977C89.2643 12.5977 90.2305 12.8261 91.0921 13.2831C91.9538 13.7401 92.6328 14.3994 93.1289 15.2611C93.625 16.1097 93.8731 17.0955 93.8731 18.2183C93.8731 19.3411 93.6185 20.3334 93.1093 21.1951C92.6132 22.0437 91.9277 22.6966 91.053 23.1535C90.1912 23.6105 89.2251 23.839 88.1545 23.839ZM88.1545 20.9405C88.7942 20.9405 89.3361 20.7055 89.78 20.2355C90.237 19.7655 90.4655 19.0931 90.4655 18.2183C90.4655 17.3435 90.2435 16.6712 89.7996 16.2012C89.3687 15.7312 88.8335 15.4961 88.1936 15.4961C87.5409 15.4961 86.9991 15.7312 86.5682 16.2012C86.1373 16.6581 85.9219 17.3306 85.9219 18.2183C85.9219 19.0931 86.1309 19.7655 86.5486 20.2355C86.9795 20.7055 87.5148 20.9405 88.1545 20.9405Z" fill="#7780A1"/>
<path d="M96.7465 11.6192C96.1589 11.6192 95.6758 11.4494 95.2972 11.11C94.9317 10.7575 94.7489 10.3266 94.7489 9.81743C94.7489 9.29518 94.9317 8.86433 95.2972 8.52487C95.6758 8.17235 96.1589 7.99609 96.7465 7.99609C97.3209 7.99609 97.7909 8.17235 98.1565 8.52487C98.5351 8.86433 98.7244 9.29518 98.7244 9.81743C98.7244 10.3266 98.5351 10.7575 98.1565 11.11C97.7909 11.4494 97.3209 11.6192 96.7465 11.6192ZM98.4111 12.7551V23.683H95.0622V12.7551H98.4111Z" fill="#7780A1"/>
<path d="M103.599 14.3015C103.926 13.7923 104.376 13.381 104.951 13.0677C105.525 12.7543 106.198 12.5977 106.968 12.5977C107.869 12.5977 108.685 12.8261 109.416 13.2831C110.147 13.7401 110.722 14.3929 111.14 15.2415C111.571 16.0902 111.786 17.0759 111.786 18.1988C111.786 19.3216 111.571 20.3139 111.14 21.1755C110.722 22.0242 110.147 22.6835 109.416 23.1535C108.685 23.6105 107.869 23.839 106.968 23.839C106.211 23.839 105.538 23.6823 104.951 23.369C104.376 23.0556 103.926 22.6509 103.599 22.1547V28.8917H100.251V12.7543H103.599V14.3015ZM108.378 18.1988C108.378 17.3631 108.143 16.7103 107.673 16.2403C107.216 15.7572 106.648 15.5157 105.969 15.5157C105.303 15.5157 104.735 15.7572 104.265 16.2403C103.809 16.7234 103.58 17.3828 103.58 18.2183C103.58 19.0539 103.809 19.7133 104.265 20.1964C104.735 20.6795 105.303 20.9209 105.969 20.9209C106.635 20.9209 107.203 20.6795 107.673 20.1964C108.143 19.7002 108.378 19.0344 108.378 18.1988Z" fill="#7780A1"/>
<path d="M117.4 23.839C116.447 23.839 115.599 23.6758 114.855 23.3494C114.11 23.023 113.522 22.5791 113.092 22.0177C112.661 21.4432 112.419 20.8034 112.367 20.0984H115.677C115.716 20.477 115.892 20.7839 116.206 21.0189C116.519 21.2539 116.905 21.3714 117.361 21.3714C117.779 21.3714 118.099 21.293 118.321 21.1364C118.556 20.9667 118.674 20.7512 118.674 20.4901C118.674 20.1767 118.51 19.9483 118.184 19.8046C117.857 19.648 117.328 19.4782 116.598 19.2954C115.814 19.1126 115.161 18.9233 114.639 18.7275C114.117 18.5186 113.667 18.1988 113.287 17.7679C112.909 17.324 112.72 16.7299 112.72 15.9857C112.72 15.359 112.889 14.7911 113.229 14.2819C113.581 13.7597 114.091 13.3484 114.756 13.0481C115.436 12.7478 116.238 12.5977 117.165 12.5977C118.536 12.5977 119.614 12.9371 120.397 13.616C121.193 14.2949 121.65 15.1958 121.768 16.3187H118.674C118.621 15.94 118.451 15.6397 118.164 15.4178C117.89 15.1958 117.524 15.0849 117.068 15.0849C116.676 15.0849 116.376 15.1631 116.166 15.3199C115.958 15.4634 115.854 15.6659 115.854 15.9269C115.854 16.2403 116.017 16.4753 116.343 16.632C116.682 16.7887 117.205 16.9453 117.91 17.102C118.719 17.3109 119.379 17.5198 119.888 17.7287C120.397 17.9245 120.841 18.251 121.219 18.7079C121.611 19.1519 121.813 19.7524 121.826 20.5096C121.826 21.1495 121.644 21.7239 121.278 22.2331C120.925 22.7293 120.41 23.1209 119.731 23.4081C119.065 23.6954 118.288 23.839 117.4 23.839Z" fill="#7780A1"/>
<path d="M134.078 12.7539V23.6819H130.73V22.1935C130.39 22.6766 129.927 23.0683 129.339 23.3686C128.765 23.6558 128.125 23.7994 127.42 23.7994C126.585 23.7994 125.846 23.6167 125.207 23.2511C124.567 22.8724 124.072 22.3305 123.719 21.6255C123.367 20.9205 123.19 20.0915 123.19 19.1384V12.7539H126.519V18.6879C126.519 19.4191 126.709 19.987 127.087 20.3917C127.466 20.7965 127.975 20.9989 128.614 20.9989C129.267 20.9989 129.783 20.7965 130.162 20.3917C130.541 19.987 130.73 19.4191 130.73 18.6879V12.7539H134.078Z" fill="#7780A1"/>
<path d="M149.84 12.6367C151.198 12.6367 152.276 13.048 153.072 13.8705C153.882 14.693 154.286 15.8355 154.286 17.2978V23.6822H150.956V17.7482C150.956 17.0431 150.768 16.5014 150.389 16.1227C150.023 15.7311 149.514 15.5352 148.861 15.5352C148.208 15.5352 147.693 15.7311 147.314 16.1227C146.949 16.5014 146.766 17.0431 146.766 17.7482V23.6822H143.436V17.7482C143.436 17.0431 143.247 16.5014 142.868 16.1227C142.503 15.7311 141.994 15.5352 141.341 15.5352C140.688 15.5352 140.172 15.7311 139.793 16.1227C139.429 16.5014 139.246 17.0431 139.246 17.7482V23.6822H135.897V12.7542H139.246V14.1251C139.585 13.6682 140.028 13.3091 140.577 13.048C141.126 12.7738 141.746 12.6367 142.437 12.6367C143.26 12.6367 143.991 12.813 144.631 13.1655C145.284 13.518 145.793 14.0207 146.159 14.6735C146.538 14.0729 147.053 13.5833 147.706 13.2047C148.359 12.826 149.071 12.6367 149.84 12.6367Z" fill="#7780A1"/>
<path opacity="0.5" d="M16.9406 7H31.8217L20.8811 23.2162H6L16.9406 7Z" fill="#7780A1"/>
<path d="M17.5924 24.7204L13.3549 31.0013H28.9419L39.8825 14.7852H28.3783L21.6752 24.7204H17.5924Z" fill="#7780A1"/>
</svg>
