<svg width="160" height="38" viewBox="0 0 160 38" fill="none" xmlns="http://www.w3.org/2000/svg">
<path d="M41.0242 17.1016C43.3988 17.1016 43.933 18.133 43.933 19.4194C43.933 20.783 43.2868 21.76 41.034 21.76C38.7956 21.76 38.1486 20.8398 38.1486 19.4194C38.1486 18.0217 38.8539 17.1016 41.0242 17.1016Z" fill="#7780A1"/>
<path d="M65.8404 17.1016C68.215 17.1016 68.7492 18.133 68.7492 19.4194C68.7492 20.783 68.1022 21.76 65.8502 21.76C63.6126 21.76 62.9648 20.8398 62.9648 19.4194C62.9648 18.0217 63.6701 17.1016 65.8404 17.1016Z" fill="#7780A1"/>
<path fill-rule="evenodd" clip-rule="evenodd" d="M20 32.8281V6H140V32.8281H20ZM77.1917 31.3147H138.487V7.51345H77.1917V31.3147ZM41.0356 24.0448C45.2513 24.0448 47.0236 22.2264 47.0236 19.3865C47.0236 16.5003 45.0273 14.7848 41.0356 14.7848C37.1052 14.7848 35.0363 16.6479 35.0363 19.3865C35.0363 22.4769 37.2066 24.0448 41.0356 24.0448ZM26.3786 14.9891V23.9086H34.8872V21.5333H29.457V14.9891H26.3786ZM56.5462 23.9086L56.4667 23.0445C55.4369 23.7794 54.1835 24.1331 52.9215 24.0448C51.0244 24.0448 49.4443 23.4765 48.5582 22.3294C47.9737 21.4918 47.6786 20.4864 47.7175 19.4659C47.6843 18.4668 47.9896 17.4858 48.5839 16.6819C49.4806 15.5688 51.1061 14.8302 53.5261 14.8302C56.3101 14.8302 57.9461 15.6823 58.6499 17.114C58.8009 17.4512 58.8897 17.8129 58.9117 18.1817H55.9665C55.8923 17.9576 55.7542 17.7601 55.5692 17.6134C54.9826 17.2245 54.282 17.0446 53.5806 17.1027C53.1691 17.0528 52.7517 17.0908 52.3561 17.2142C51.9605 17.3376 51.5955 17.5436 51.2854 17.8185C50.9333 18.3006 50.7679 18.894 50.82 19.4886C50.7792 20.0559 50.9312 20.6204 51.2514 21.0906C51.5643 21.3822 51.9363 21.603 52.342 21.7383C52.7479 21.8735 53.1779 21.92 53.6033 21.8746C54.448 21.9433 55.2867 21.6827 55.9438 21.1473C56.085 20.9709 56.1823 20.7634 56.2276 20.542H53.0584V18.6252H58.9889V23.9086H56.5462ZM65.8516 24.0448C70.0666 24.0448 71.8396 22.2264 71.8396 19.3865C71.8396 16.5003 69.8402 14.7848 65.8516 14.7848C61.9212 14.7848 59.8523 16.6479 59.8523 19.3865C59.8523 22.4769 62.0226 24.0448 65.8516 24.0448Z" fill="#7780A1"/>
<path d="M82.377 23.8726V14.9531H84.5715V23.8726H82.377Z" fill="#7780A1"/>
<path d="M95.8405 20.146C95.2843 20.8732 94.3271 21.2054 92.9778 21.2137C92.6933 21.2137 88.921 21.2024 88.921 21.2024V23.8729H86.7734V14.9533H92.9786C93.4759 14.9007 93.979 14.9535 94.4542 15.1081C94.9302 15.2628 95.3676 15.5158 95.7391 15.8508C96.2295 16.4896 96.4678 17.2862 96.4096 18.0892C96.4595 18.8196 96.259 19.5452 95.8405 20.146ZM94.0796 17.2379C93.8526 16.8974 93.363 16.7082 92.5344 16.7082H88.9097V19.4233H92.5109C93.397 19.4233 93.8639 19.2417 94.0796 18.8891C94.2075 18.6406 94.2627 18.3609 94.2385 18.0824C94.2574 17.792 94.203 17.5015 94.0796 17.2379Z" fill="#7780A1"/>
<path d="M102.738 24.0122C98.6927 24.0122 97.4547 22.4988 97.4547 21.0012H99.7498C99.7498 21.7398 100.761 22.2967 102.84 22.2967C104.908 22.2967 105.453 21.9328 105.453 21.3418C105.453 20.6827 105.045 20.4783 103.124 20.2627C102.746 20.2286 101.716 20.1038 101.329 20.047C98.6049 19.7398 97.5561 18.9331 97.5561 17.49C97.5561 15.9675 99.0907 14.8203 102.42 14.8203C106.033 14.8203 107.419 16.2407 107.419 17.7178H105.149C105.149 16.9679 104.297 16.5358 102.286 16.5358C100.217 16.5358 99.7748 16.8196 99.7748 17.3765C99.7748 17.9562 100.229 18.1378 102.423 18.3989C102.924 18.4677 104.037 18.5926 104.343 18.6259C106.662 18.8642 107.707 19.705 107.707 21.1934C107.703 22.9664 106.112 24.0122 102.738 24.0122Z" fill="#7780A1"/>
<path d="M114.169 23.9975C111.204 23.9975 109.272 22.8268 109.272 20.3652V14.9531H111.442V20.3955C111.442 21.5207 112.363 22.2699 114.26 22.2699C115.976 22.2699 116.999 21.5661 116.999 20.3955V14.9531H119.146V20.5673C119.146 22.8049 117.35 23.9975 114.169 23.9975Z" fill="#7780A1"/>
<path d="M130.906 23.8726V17.9187L128.122 23.8726H126.009L123.304 17.9187V23.8726H121.261V14.9531H124.029L127.097 21.7478L130.233 14.9531H132.957V23.8726H130.906Z" fill="#7780A1"/>
</svg>
