<svg width="160" height="38" viewBox="0 0 160 38" fill="none" xmlns="http://www.w3.org/2000/svg">
<path d="M32.7032 9.67927H34.9203V25.1104H41.5717V27.3275H32.7032V9.67927ZM48.478 9.67927C49.7935 9.67927 51.0795 10.0694 52.1733 10.8002C53.2671 11.5311 54.1197 12.5698 54.6231 13.7853C55.1265 15.0007 55.2582 16.3381 55.0015 17.6282C54.7449 18.9184 54.1115 20.1036 53.1812 21.0338C52.251 21.9641 51.0658 22.5975 49.7756 22.8542C48.4854 23.1108 47.1481 22.9791 45.9326 22.4757C44.7172 21.9722 43.6785 21.1197 42.9476 20.0259C42.2167 18.9321 41.8266 17.6462 41.8266 16.3306C41.8266 15.4572 41.9987 14.5922 42.3329 13.7853C42.6671 12.9782 43.1571 12.245 43.7748 11.6275C44.3924 11.0098 45.1256 10.5198 45.9326 10.1855C46.7395 9.85132 47.6046 9.67927 48.478 9.67927ZM48.478 20.7649C49.355 20.7649 50.2123 20.5048 50.9415 20.0176C51.6708 19.5303 52.2391 18.8377 52.5747 18.0275C52.9103 17.2173 52.9981 16.3258 52.827 15.4655C52.6559 14.6054 52.2336 13.8153 51.6134 13.1952C50.9933 12.575 50.2032 12.1527 49.3431 11.9816C48.4829 11.8105 47.5914 11.8983 46.7811 12.2339C45.9709 12.5695 45.2782 13.1379 44.791 13.8671C44.3038 14.5963 44.0438 15.4536 44.0438 16.3306C44.0496 17.5028 44.5193 18.625 45.3503 19.4518C46.1813 20.2785 47.3058 20.7427 48.478 20.7427V20.7649ZM44.0438 25.1326H52.9122V27.3497H44.0438V25.1326ZM72.4229 27.3497H70.2058V25.7645C68.7759 26.7653 67.0734 27.3032 65.3281 27.3054C63.8399 27.3153 62.373 26.9506 61.0628 26.2448C59.7525 25.5389 58.6409 24.5147 57.8306 23.2664C57.0201 22.0182 56.5368 20.5861 56.4253 19.1019C56.3136 17.6179 56.5774 16.1295 57.1921 14.7742C57.8067 13.4188 58.7527 12.2398 59.9426 11.3461C61.1326 10.4523 62.5284 9.87227 64.0014 9.65965C65.4744 9.44691 66.9773 9.60843 68.3714 10.1291C69.7657 10.6498 71.0065 11.5129 71.9795 12.6391L70.3499 14.0913C69.6098 13.2639 68.6745 12.6349 67.629 12.2617C66.5837 11.8883 65.4615 11.7825 64.3648 11.954C63.268 12.1255 62.2317 12.5688 61.35 13.2434C60.4685 13.9181 59.7698 14.8025 59.3177 15.8164C58.8655 16.8301 58.6743 17.9409 58.7614 19.0476C58.8486 20.1543 59.2112 21.2215 59.8165 22.152C60.4217 23.0825 61.2502 23.8469 62.2265 24.3752C63.2027 24.9036 64.2957 25.1792 65.4057 25.1769C66.3269 25.1788 67.2377 24.9817 68.0758 24.599C68.9137 24.2164 69.6592 23.6572 70.2612 22.9598H64.275V20.7427H72.4451L72.4229 27.3497ZM80.5819 9.72361C81.8974 9.72361 83.1833 10.1137 84.2772 10.8446C85.371 11.5755 86.2236 12.6142 86.727 13.8296C87.2304 15.045 87.3621 16.3824 87.1054 17.6725C86.8488 18.9628 86.2154 20.148 85.2851 21.0781C84.3549 22.0084 83.1697 22.6419 81.8795 22.8985C80.5893 23.1551 79.2519 23.0234 78.0365 22.5201C76.8211 22.0165 75.7824 21.1641 75.0515 20.0702C74.3206 18.9764 73.9305 17.6905 73.9305 16.375C73.9246 15.4959 74.0932 14.6244 74.4262 13.8109C74.7592 12.9973 75.2502 12.2578 75.8707 11.6352C76.4913 11.0125 77.2292 10.5191 78.0416 10.1833C78.8541 9.84766 79.725 9.67628 80.6041 9.67927L80.5819 9.72361ZM80.5819 20.8092C81.4589 20.8092 82.3162 20.5491 83.0454 20.0619C83.7747 19.5746 84.343 18.8821 84.6786 18.0718C85.0142 17.2616 85.102 16.3701 84.9309 15.5098C84.7598 14.6497 84.3375 13.8596 83.7173 13.2395C83.0972 12.6194 82.3071 12.197 81.447 12.026C80.5868 11.8548 79.6953 11.9426 78.885 12.2783C78.0748 12.6138 77.3821 13.1822 76.8949 13.9114C76.4077 14.6406 76.1476 15.498 76.1476 16.375C76.1652 17.5433 76.6431 18.6575 77.4776 19.4754C78.312 20.2932 79.4356 20.7487 80.6041 20.7427L80.5819 20.8092ZM76.1476 25.1769H85.0161V27.3941H76.1476V25.1769ZM89.5945 9.67927H91.8116V27.3054H89.5945V9.67927ZM94.8823 9.67927H97.0994C97.2136 9.66719 97.3288 9.66719 97.4431 9.67927C98.3716 9.5785 99.311 9.6745 100.2 9.96084C101.089 10.2473 101.908 10.7177 102.603 11.3414C103.298 11.9652 103.854 12.7285 104.234 13.5814C104.615 14.4343 104.812 15.3579 104.812 16.2918C104.812 17.2258 104.615 18.1493 104.234 19.0023C103.854 19.8552 103.298 20.6184 102.603 21.2422C101.908 21.866 101.089 22.3364 100.2 22.6228C99.311 22.9092 98.3716 23.0052 97.4431 22.9044H97.0994V27.3386H94.8823V9.67927ZM97.0994 11.8964V20.6651H97.4431C98.0693 20.7485 98.7061 20.6971 99.3109 20.5143C99.9156 20.3316 100.474 20.0218 100.95 19.6056C101.425 19.1895 101.806 18.6766 102.067 18.1012C102.328 17.5259 102.463 16.9014 102.463 16.2697C102.463 15.6379 102.328 15.0134 102.067 14.4381C101.806 13.8628 101.425 13.3498 100.95 12.9337C100.474 12.5174 99.9156 12.2077 99.3109 12.0249C98.7061 11.8422 98.0693 11.7909 97.4431 11.8742C97.3224 11.8867 97.2033 11.9128 97.0883 11.9518L97.0994 11.8964ZM113.074 10.9541L111.433 12.2511C111.15 11.9554 110.788 11.7465 110.391 11.6492C109.993 11.5518 109.576 11.57 109.188 11.7016C108.801 11.8331 108.459 12.0725 108.202 12.3918C107.946 12.7111 107.786 13.0968 107.742 13.5038V13.6812C107.742 14.6567 108.418 15.3108 109.737 15.3994C114.814 15.7098 117.142 18.0932 117.142 21.2415V21.4411C117.011 22.6871 116.525 23.8693 115.741 24.847C114.958 25.8248 113.91 26.5568 112.722 26.9562C111.535 27.3555 110.257 27.4054 109.042 27.0997C107.827 26.7942 106.725 26.146 105.868 25.2324L107.564 23.9243C107.959 24.3474 108.441 24.6795 108.977 24.8978C109.513 25.116 110.09 25.2151 110.668 25.188C111.736 25.2443 112.784 24.8859 113.594 24.1877C114.404 23.4895 114.912 22.5054 115.014 21.4411V21.2859C115.014 18.326 112.109 17.7828 109.593 17.539C107.265 17.3172 105.591 15.865 105.591 13.7699V13.6812C105.673 12.5903 106.171 11.5727 106.982 10.8384C107.792 10.104 108.854 9.70887 109.948 9.7347C110.527 9.71762 111.104 9.82216 111.64 10.0418C112.177 10.2614 112.662 10.5911 113.063 11.0095L113.074 10.9541ZM125.822 25.055C128.583 25.055 130.766 22.073 130.766 18.4036V9.53516H132.984V18.4036C132.984 23.2813 129.791 27.2167 125.867 27.2167C121.942 27.2167 118.75 23.2813 118.75 18.4036V9.53516H120.967V18.4036C120.878 22.1284 123.062 25.1104 125.811 25.1104L125.822 25.055ZM150 27.2721H147.783V16.2974L142.672 22.9487L137.562 16.2974V27.3054H135.345V9.67927L142.661 19.3127L149.978 9.67927L150 27.2721Z" fill="#7780A1"/>
<path d="M22.0611 7.03056C22.0611 5.43116 21.4258 3.89725 20.2949 2.76631C19.1639 1.63536 17.63 1 16.0306 1C14.4312 1 12.8973 1.63536 11.7663 2.76631C10.6354 3.89725 10 5.43116 10 7.03056V25.2664L14.9663 28.8249V37.4938H17.0948V28.8249L22.0611 25.2664V7.03056ZM19.9327 17.2293L17.0948 20.0672V17.4067L19.9327 14.5688V17.2293ZM12.1728 14.5688L15.0107 17.4067V20.0672L12.1728 17.2293V14.5688ZM19.9327 11.5535L16.0306 15.4556L12.1284 11.4648V8.80426L16.0306 12.7064L19.9327 8.80426V11.5535ZM16.0306 3.12843C16.8888 3.13223 17.722 3.41725 18.4028 3.93982C19.0835 4.4624 19.5742 5.19372 19.7997 6.02178L16.0306 9.77979L12.2615 6.02178C12.4787 5.18548 12.9658 4.44424 13.6473 3.91308C14.3288 3.38192 15.1665 3.09051 16.0306 3.08408V3.12843ZM12.1284 24.1911V20.2003L14.9663 23.0382V26.2086L12.1284 24.1911ZM17.0948 26.2197V23.0382L19.9327 20.2003V24.18L17.0948 26.2197Z" fill="#7780A1"/>
</svg>
