<svg width="160" height="38" viewBox="0 0 160 38" fill="none" xmlns="http://www.w3.org/2000/svg">
<path d="M31 30H53V8H31V30ZM48.7655 16.8832H44.1168V12.2345H48.7655V16.8832ZM35.2336 12.2345H39.8849V21.1168H48.7655V25.7655H35.2336V12.2345ZM67.3262 8C65.1505 8 63.0238 8.64514 61.2149 9.85384C59.4059 11.0625 57.996 12.7805 57.1635 14.7905C56.3309 16.8005 56.1131 19.0122 56.5375 21.146C56.962 23.2797 58.0096 25.2398 59.5479 26.7781C61.0863 28.3166 63.0463 29.3642 65.1801 29.7887C67.314 30.213 69.5256 29.9953 71.5357 29.1627C73.5457 28.3301 75.2636 26.9202 76.4723 25.1113C77.681 23.3023 78.3262 21.1755 78.3262 19C78.3227 16.0836 77.1627 13.2878 75.1005 11.2256C73.0383 9.16343 70.2425 8.00341 67.3262 8ZM67.3262 25.7655C65.9881 25.7655 64.68 25.3688 63.5674 24.6253C62.4549 23.8819 61.5876 22.8253 61.0756 21.589C60.5635 20.3528 60.4296 18.9925 60.6906 17.6801C60.9517 16.3677 61.596 15.1622 62.5422 14.216C63.4884 13.2699 64.6939 12.6255 66.0062 12.3645C67.3186 12.1034 68.6789 12.2374 69.9152 12.7495C71.1514 13.2615 72.2081 14.1287 72.9515 15.2413C73.6949 16.3538 74.0917 17.6619 74.0917 19C74.0889 20.7935 73.3753 22.5128 72.1071 23.781C70.8389 25.0492 69.1196 25.7628 67.3262 25.7655ZM117.689 8C115.513 7.99984 113.387 8.64483 111.578 9.85342C109.769 11.062 108.359 12.7799 107.526 14.7899C106.693 16.7998 106.475 19.0117 106.9 21.1454C107.324 23.2793 108.372 25.2394 109.91 26.7779C111.448 28.3163 113.408 29.3641 115.543 29.7886C117.676 30.213 119.888 29.9953 121.898 29.1628C123.908 28.3302 125.626 26.9203 126.834 25.1114C128.044 23.3024 128.689 21.1756 128.689 19C128.685 16.0838 127.526 13.288 125.464 11.2259C123.402 9.16375 120.606 8.00364 117.689 8ZM117.689 25.7655C116.351 25.7657 115.043 25.369 113.93 24.6257C112.818 23.8824 111.95 22.8258 111.438 21.5896C110.926 20.3534 110.792 18.993 111.053 17.6806C111.314 16.3682 111.958 15.1626 112.904 14.2163C113.85 13.2701 115.056 12.6256 116.369 12.3645C117.681 12.1034 119.041 12.2373 120.277 12.7494C121.514 13.2614 122.571 14.1286 123.314 15.2412C124.057 16.3538 124.454 17.6619 124.454 19C124.452 20.7934 123.738 22.5124 122.469 23.7806C121.202 25.0488 119.483 25.7626 117.689 25.7655ZM92.5074 8C90.3317 8 88.205 8.64514 86.3961 9.85384C84.5871 11.0625 83.1772 12.7805 82.3446 14.7905C81.5121 16.8005 81.2943 19.0122 81.7187 21.146C82.1432 23.2797 83.1908 25.2398 84.7291 26.7781C86.2675 28.3166 88.2275 29.3642 90.3613 29.7887C92.4951 30.213 94.7068 29.9953 96.7169 29.1627C98.7269 28.3301 100.445 26.9202 101.654 25.1113C102.862 23.3023 103.507 21.1755 103.507 19C103.504 16.0836 102.344 13.2878 100.282 11.2256C98.2195 9.16343 95.4237 8.00341 92.5074 8ZM92.5074 25.7655C91.2606 25.7661 90.038 25.4223 88.9744 24.7719C87.9109 24.1215 87.0476 23.1899 86.48 22.0799C85.9126 20.9699 85.6627 19.7246 85.7583 18.4816C85.8538 17.2385 86.2909 16.0461 87.0214 15.0358C87.7519 14.0256 88.7474 13.2368 89.8978 12.7566C91.0483 12.2763 92.3091 12.1233 93.5411 12.3144C94.7731 12.5056 95.9282 13.0333 96.8791 13.8396C97.8301 14.6458 98.5397 15.6991 98.9298 16.8832H92.5074V21.1168H98.9298C98.483 22.4679 97.6222 23.6442 96.4694 24.4785C95.3167 25.313 93.9304 25.7632 92.5074 25.7655Z" fill="#7780A1"/>
</svg>
