<svg width="160" height="38" viewBox="0 0 160 38" fill="none" xmlns="http://www.w3.org/2000/svg">
<path d="M33.8407 17.4087C33.4711 17.7805 33.1882 18.2292 33.0119 18.7228C32.8356 19.2164 32.7704 19.7428 32.8208 20.2646L32.8032 20.247C32.8551 20.8612 32.7722 21.4791 32.5606 22.058C32.3489 22.6368 32.0135 23.1624 31.5777 23.5982C31.1419 24.034 30.6163 24.3695 30.0374 24.5811C29.4586 24.7927 28.8406 24.8756 28.2265 24.8237L28.244 24.8413C27.5095 24.7729 26.7717 24.9327 26.1312 25.2991C25.4908 25.6654 24.9789 26.2203 24.6654 26.8882C24.352 27.556 24.252 28.3043 24.3794 29.031C24.5068 29.7577 24.8552 30.4275 25.3771 30.9489C25.899 31.4704 26.5691 31.8181 27.2958 31.9448C28.0227 32.0715 28.7708 31.9709 29.4384 31.6569C30.106 31.3427 30.6604 30.8304 31.0262 30.1897C31.3919 29.5489 31.5511 28.811 31.4821 28.0764L31.5006 28.094C31.4487 27.4799 31.5315 26.8618 31.7432 26.283C31.9549 25.7042 32.2904 25.1786 32.7261 24.7427C33.1619 24.307 33.6876 23.9715 34.2664 23.7599C34.8452 23.5482 35.4632 23.4653 36.0774 23.5172L36.0588 23.4997C36.6589 23.5536 37.2629 23.4552 37.8148 23.2136C38.3667 22.972 38.8487 22.5949 39.2161 22.1175C39.5835 21.64 39.8245 21.0774 39.9166 20.4821C40.0087 19.8866 39.9491 19.2776 39.7431 18.7113C39.5372 18.1452 39.1917 17.6401 38.7386 17.243C38.2855 16.8458 37.7395 16.5695 37.1511 16.4396C36.5628 16.3098 35.9512 16.3304 35.373 16.4998C34.7948 16.6693 34.2688 16.9819 33.8436 17.4087H33.8407Z" fill="#7780A1"/>
<path d="M26.6478 22.5435L26.6293 22.526C27.1512 22.5785 27.6783 22.5145 28.1725 22.3384C28.6667 22.1623 29.1156 21.8787 29.4867 21.5079C29.8577 21.1371 30.1418 20.6884 30.3182 20.1943C30.4946 19.7003 30.5591 19.1733 30.5069 18.6512L30.5254 18.6688C30.4736 18.0546 30.5565 17.4367 30.768 16.8578C30.9797 16.279 31.3152 15.7534 31.7509 15.3176C32.1868 14.8818 32.7124 14.5463 33.2912 14.3347C33.8701 14.123 34.488 14.0402 35.1022 14.0921L35.0837 14.0745C35.8183 14.1435 36.5563 13.9842 37.1971 13.6183C37.838 13.2524 38.3503 12.6977 38.6642 12.03C38.9782 11.3622 39.0785 10.6139 38.9516 9.88699C38.8246 9.1601 38.4765 8.49009 37.9547 7.96832C37.433 7.44655 36.7629 7.09843 36.0361 6.97147C35.3092 6.84449 34.5609 6.94483 33.8931 7.25881C33.2253 7.57277 32.6707 8.0851 32.3048 8.72589C31.9388 9.36667 31.7795 10.1047 31.8485 10.8394L31.831 10.8209C31.883 11.435 31.8003 12.0531 31.5887 12.632C31.3771 13.2109 31.0416 13.7366 30.6059 14.1725C30.1701 14.6082 29.6443 14.9437 29.0655 15.1553C28.4865 15.3669 27.8684 15.4496 27.2543 15.3976L27.2718 15.4161C26.7499 15.3636 26.2227 15.4276 25.7285 15.6037C25.2344 15.7797 24.7855 16.0634 24.4144 16.4342C24.0433 16.805 23.7593 17.2537 23.5828 17.7478C23.4064 18.2418 23.342 18.7688 23.3942 19.2909L23.3766 19.2733C23.4283 19.8874 23.3453 20.5053 23.1336 21.0841C22.9219 21.6628 22.5865 22.1884 22.1507 22.6242C21.7149 23.0599 21.1894 23.3953 20.6106 23.6071C20.0319 23.8188 19.4139 23.9017 18.7999 23.85L18.8174 23.8676C18.0828 23.7986 17.3447 23.9579 16.7039 24.3238C16.0631 24.6897 15.5508 25.2443 15.2368 25.9121C14.9229 26.5799 14.8225 27.3282 14.9495 28.0551C15.0765 28.782 15.4246 29.452 15.9463 29.9738C16.4681 30.4956 17.1381 30.8437 17.865 30.9706C18.5919 31.0976 19.3403 30.9972 20.008 30.6833C20.6758 30.3693 21.2304 29.857 21.5963 29.2163C21.9622 28.5754 22.1216 27.8374 22.0525 27.1027L22.0711 27.1203C22.0192 26.5061 22.1021 25.8881 22.3137 25.3093C22.5253 24.7305 22.8608 24.2049 23.2966 23.769C23.7324 23.3333 24.258 22.9978 24.8368 22.7862C25.4157 22.5745 26.0336 22.4917 26.6478 22.5435Z" fill="#7780A1"/>
<path d="M20.1133 20.5872C20.4828 20.2156 20.7658 19.7669 20.9419 19.2732C21.118 18.7795 21.183 18.253 21.1322 17.7314L21.1507 17.749C21.0988 17.1347 21.1817 16.5164 21.3934 15.9375C21.6052 15.3585 21.9408 14.8328 22.3769 14.3969C22.8129 13.9611 23.3387 13.6257 23.9178 13.4142C24.4969 13.2027 25.1151 13.1201 25.7294 13.1722L25.7109 13.1547C26.4452 13.2235 27.183 13.0641 27.8235 12.6982C28.464 12.3323 28.976 11.7778 29.2899 11.1103C29.6036 10.4427 29.7039 9.69463 29.5769 8.96802C29.45 8.2414 29.1019 7.57164 28.5803 7.05007C28.0588 6.52849 27.389 6.18049 26.6624 6.05352C25.9358 5.92654 25.1877 6.02679 24.5202 6.34057C23.8526 6.65436 23.2981 7.16641 22.9323 7.8069C22.5663 8.44739 22.4069 9.18515 22.4757 9.91955L22.4582 9.902C22.5101 10.5161 22.4272 11.1342 22.2155 11.713C22.0038 12.2918 21.6684 12.8174 21.2327 13.2532C20.7969 13.689 20.2712 14.0244 19.6924 14.2361C19.1136 14.4477 18.4956 14.5306 17.8815 14.4787L17.899 14.4963C17.2989 14.4425 16.695 14.541 16.1432 14.7828C15.5913 15.0245 15.1094 15.4016 14.7421 15.8792C14.3748 16.3566 14.134 16.9192 14.042 17.5146C13.95 18.11 14.0097 18.719 14.2157 19.2851C14.4217 19.8513 14.7673 20.3563 15.2204 20.7533C15.6735 21.1504 16.2196 21.4266 16.8079 21.5565C17.3962 21.6863 18.0077 21.6655 18.5859 21.4961C19.164 21.3267 19.69 21.0141 20.1152 20.5872H20.1133Z" fill="#7780A1"/>
<path d="M50.3164 10.8633H53.2122V24.9552H50.3164V10.8633Z" fill="#7780A1"/>
<path d="M54.8522 20.1286C54.8482 19.1159 55.1448 18.1247 55.7044 17.2807C56.2641 16.4368 57.0616 15.7778 57.9961 15.3875C58.9306 14.9972 59.9598 14.8929 60.9535 15.088C61.9473 15.2831 62.8608 15.7687 63.5783 16.4834C64.2958 17.198 64.7851 18.1095 64.9842 19.1025C65.1833 20.0954 65.0831 21.1251 64.6965 22.0612C64.3099 22.9971 63.6542 23.7974 62.8125 24.3604C61.9707 24.9234 60.9808 25.224 59.9681 25.224C59.2959 25.2317 58.6289 25.1053 58.0061 24.8522C57.3832 24.599 56.8171 24.2243 56.3408 23.75C55.8644 23.2756 55.4875 22.7109 55.2319 22.0891C54.9763 21.4674 54.8472 20.8009 54.8522 20.1286ZM62.1882 20.1286C62.1761 19.6921 62.0356 19.2688 61.7844 18.9117C61.533 18.5546 61.182 18.2795 60.7752 18.1208C60.3683 17.9621 59.9238 17.9268 59.4971 18.0194C59.0703 18.112 58.6803 18.3283 58.3758 18.6414C58.0714 18.9544 57.8658 19.3502 57.7852 19.7794C57.7045 20.2085 57.752 20.652 57.9219 21.0543C58.0919 21.4566 58.3766 21.7998 58.7404 22.0411C59.1044 22.2824 59.5315 22.4111 59.9681 22.4111C60.2671 22.4191 60.5646 22.365 60.8418 22.2523C61.1189 22.1396 61.3697 21.9707 61.5782 21.7563C61.7868 21.5418 61.9487 21.2864 62.0536 21.0063C62.1587 20.7262 62.2045 20.4273 62.1882 20.1286Z" fill="#7780A1"/>
<path d="M76.6253 15.3033V24.4685C76.6253 27.7114 74.0961 29.0823 71.5289 29.0823C70.6251 29.1499 69.72 28.9673 68.9129 28.5546C68.106 28.1418 67.4283 27.5147 66.9541 26.7422L69.4248 25.3138C69.6241 25.7165 69.9417 26.0487 70.3349 26.266C70.7282 26.4833 71.1785 26.5753 71.6254 26.5297C71.9111 26.5693 72.2021 26.5441 72.4767 26.4561C72.7513 26.368 73.0027 26.2193 73.2121 26.0211C73.4215 25.8228 73.5837 25.58 73.6866 25.3105C73.7895 25.0411 73.8304 24.752 73.8066 24.4646V23.5822C73.4674 23.9971 73.0359 24.3267 72.5463 24.5446C72.0568 24.7626 71.5231 24.8627 70.9878 24.837C69.7142 24.7969 68.5063 24.2628 67.6196 23.3476C66.7329 22.4325 66.2371 21.2083 66.2371 19.9342C66.2371 18.66 66.7329 17.4358 67.6196 16.5207C68.5063 15.6056 69.7142 15.0714 70.9878 15.0313C71.5231 15.0056 72.0568 15.1058 72.5463 15.3237C73.0359 15.5416 73.4674 15.8713 73.8066 16.2861V15.3014L76.6253 15.3033ZM73.8075 19.9356C73.827 19.469 73.7063 19.0071 73.4611 18.6096C73.2159 18.212 72.8573 17.897 72.4315 17.705C72.0057 17.5129 71.5322 17.4527 71.0719 17.5321C70.6116 17.6115 70.1856 17.8268 69.8487 18.1504C69.5118 18.4739 69.2794 18.8908 69.1815 19.3475C69.0836 19.8042 69.1245 20.2798 69.2992 20.713C69.4739 21.1462 69.7742 21.5173 70.1614 21.7784C70.5487 22.0395 71.0053 22.1788 71.4724 22.1782C71.7767 22.1994 72.0819 22.1567 72.3687 22.0528C72.6554 21.9488 72.9172 21.7859 73.1372 21.5747C73.3572 21.3634 73.5305 21.1085 73.646 20.8261C73.7614 20.5438 73.8165 20.2405 73.8075 19.9356Z" fill="#7780A1"/>
<path d="M78.2655 20.1286C78.2615 19.1159 78.558 18.1247 79.1178 17.2807C79.6774 16.4368 80.475 15.7778 81.4094 15.3875C82.3439 14.9972 83.3731 14.8929 84.3669 15.088C85.3606 15.2831 86.2741 15.7687 86.9916 16.4834C87.7091 17.198 88.1984 18.1095 88.3975 19.1025C88.5966 20.0954 88.4965 21.1251 88.1099 22.0612C87.7233 22.9971 87.0676 23.7974 86.2258 24.3604C85.384 24.9234 84.3942 25.224 83.3814 25.224C82.7092 25.2317 82.0421 25.1053 81.4194 24.8522C80.7965 24.599 80.2304 24.2243 79.7541 23.75C79.2777 23.2756 78.9008 22.7109 78.6453 22.0891C78.3896 21.4674 78.2605 20.8009 78.2655 20.1286ZM85.6015 20.1286C85.5894 19.6921 85.4489 19.2688 85.1977 18.9117C84.9463 18.5546 84.5953 18.2795 84.1885 18.1208C83.7817 17.9621 83.3371 17.9268 82.9104 18.0194C82.4836 18.112 82.0936 18.3283 81.7891 18.6414C81.4847 18.9544 81.2792 19.3502 81.1984 19.7794C81.1177 20.2085 81.1653 20.652 81.3352 21.0543C81.5052 21.4566 81.7899 21.7998 82.1538 22.0411C82.5177 22.2824 82.9447 22.4111 83.3814 22.4111C83.6804 22.4191 83.9779 22.365 84.255 22.2523C84.5322 22.1396 84.783 21.9707 84.9916 21.7563C85.2001 21.5418 85.3621 21.2864 85.467 21.0063C85.572 20.7262 85.6178 20.4273 85.6015 20.1286Z" fill="#7780A1"/>
<path d="M89.8477 12.714C89.8477 12.3704 89.9496 12.0345 90.1405 11.7488C90.3315 11.463 90.6029 11.2403 90.9204 11.1088C91.2378 10.9773 91.5872 10.9429 91.9242 11.0099C92.2612 11.077 92.5709 11.2425 92.8139 11.4855C93.0568 11.7285 93.2223 12.038 93.2894 12.3751C93.3564 12.7121 93.3219 13.0615 93.1905 13.379C93.059 13.6964 92.8363 13.9678 92.5505 14.1587C92.2648 14.3496 91.9289 14.4515 91.5852 14.4515C91.1259 14.447 90.6866 14.2625 90.3617 13.9376C90.0369 13.6127 89.8523 13.1734 89.8477 12.714ZM90.1403 15.3008H93.037V24.9535H90.1364L90.1403 15.3008Z" fill="#7780A1"/>
<path d="M105.541 20.1291C105.574 20.7671 105.481 21.4053 105.267 22.0072C105.053 22.6091 104.722 23.1627 104.293 23.6363C103.864 24.1098 103.346 24.4939 102.769 24.7665C102.191 25.0391 101.565 25.1948 100.927 25.2246C100.39 25.2538 99.8537 25.1634 99.3564 24.9597C98.859 24.7559 98.4133 24.4441 98.0514 24.0468V28.8156H95.1556V15.3028H98.0514V16.2096C98.4134 15.8125 98.8593 15.5009 99.3566 15.2974C99.8539 15.0939 100.39 15.0035 100.927 15.0327C101.565 15.0625 102.191 15.2181 102.769 15.4907C103.347 15.7633 103.865 16.1475 104.294 16.6211C104.723 17.0948 105.054 17.6486 105.268 18.2507C105.481 18.8527 105.574 19.4911 105.541 20.1291ZM102.645 20.1291C102.633 19.6774 102.489 19.2391 102.23 18.8688C101.971 18.4987 101.608 18.2132 101.187 18.0483C100.767 17.8832 100.307 17.8458 99.8649 17.941C99.4231 18.0361 99.0192 18.2594 98.7037 18.5829C98.3882 18.9065 98.1751 19.3158 98.0912 19.7599C98.0073 20.2039 98.0561 20.6628 98.2317 21.0792C98.4072 21.4956 98.7018 21.8509 99.0783 22.1008C99.4549 22.3506 99.8966 22.4839 100.349 22.4838C100.659 22.4977 100.968 22.4457 101.257 22.3314C101.546 22.2172 101.807 22.0432 102.024 21.8209C102.241 21.5985 102.408 21.3329 102.515 21.0414C102.622 20.7498 102.666 20.4389 102.645 20.1291Z" fill="#7780A1"/>
<path d="M114.477 22.0594C114.477 24.2795 112.547 25.2252 110.463 25.2252C109.62 25.3015 108.775 25.1234 108.035 24.7138C107.295 24.3043 106.695 23.6823 106.312 22.9281L108.821 21.4997C108.922 21.8483 109.14 22.1516 109.438 22.3588C109.736 22.5661 110.097 22.6648 110.459 22.6385C111.153 22.6385 111.501 22.426 111.501 22.0408C111.501 20.9781 106.752 21.5387 106.752 18.1993C106.752 16.0942 108.528 15.0334 110.536 15.0334C111.29 15.0095 112.037 15.1885 112.699 15.5517C113.361 15.915 113.914 16.4491 114.299 17.0985L111.829 18.4303C111.72 18.1775 111.54 17.9621 111.31 17.8111C111.08 17.6601 110.811 17.5801 110.536 17.5811C110.034 17.5811 109.724 17.7761 109.724 18.1212C109.728 19.222 114.477 18.4879 114.477 22.0594Z" fill="#7780A1"/>
<path d="M125.055 15.3008V24.9535H122.159V24.0457C121.824 24.4463 121.4 24.7619 120.921 24.9666C120.441 25.1714 119.92 25.2594 119.4 25.2236C117.449 25.2236 115.792 23.8342 115.792 21.226V15.3008H118.688V20.8018C118.663 21.0318 118.69 21.2642 118.765 21.4829C118.839 21.7017 118.961 21.9016 119.121 22.0686C119.281 22.2356 119.475 22.3658 119.69 22.4501C119.905 22.5345 120.136 22.5709 120.367 22.5569C121.429 22.5569 122.162 21.9397 122.162 20.5688V15.3037L125.055 15.3008Z" fill="#7780A1"/>
<path d="M141.659 19.0296V24.9558H138.763V19.2802C138.763 18.3149 138.3 17.6978 137.374 17.6978C136.409 17.6978 135.867 18.3734 135.867 19.5123V24.9558H132.973V19.2802C132.973 18.3149 132.51 17.6978 131.582 17.6978C130.617 17.6978 130.077 18.3734 130.077 19.5123V24.9558H127.181V15.3031H130.077V16.1904C130.377 15.7968 130.771 15.4846 131.222 15.2824C131.675 15.0802 132.17 14.9945 132.664 15.033C133.159 15.0088 133.652 15.1134 134.096 15.3366C134.539 15.5596 134.916 15.8939 135.192 16.3064C135.513 15.8748 135.938 15.5316 136.427 15.3089C136.917 15.0862 137.455 14.9913 137.991 15.033C140.207 15.034 141.659 16.6165 141.659 19.0296Z" fill="#7780A1"/>
<path d="M144.109 15.2432C145.295 15.2432 146.258 14.281 146.258 13.0943C146.258 11.9074 145.295 10.9453 144.109 10.9453C142.922 10.9453 141.96 11.9074 141.96 13.0943C141.96 14.281 142.922 15.2432 144.109 15.2432Z" fill="#7780A1"/>
</svg>
