<svg width="160" height="38" viewBox="0 0 160 38" fill="none" xmlns="http://www.w3.org/2000/svg">
<path d="M55.0063 27.8491C54.2987 27.8875 53.5988 27.6863 53.0195 27.278C52.7775 27.0986 52.5828 26.8629 52.4522 26.5914C52.3215 26.3198 52.2591 26.0206 52.27 25.7195V14.6911C52.2643 14.6444 52.2692 14.597 52.2845 14.5525C52.2998 14.508 52.325 14.4676 52.3583 14.4343C52.3916 14.401 52.4319 14.3758 52.4764 14.3606C52.5209 14.3452 52.5684 14.3404 52.615 14.3461H54.6137C54.8397 14.3461 54.9468 14.465 54.9468 14.6911V24.8629C54.9468 25.315 55.1491 25.5411 55.5655 25.5411C55.742 25.5483 55.9186 25.5283 56.0889 25.4816C56.3269 25.4816 56.4577 25.553 56.4696 25.7671L56.6481 27.2542C56.6566 27.2976 56.6558 27.3423 56.6457 27.3853C56.6356 27.4283 56.6163 27.4687 56.5892 27.5036C56.5622 27.5386 56.5279 27.5673 56.4889 27.5879C56.4498 27.6085 56.4067 27.6205 56.3626 27.623C55.9247 27.7677 55.4673 27.8439 55.0063 27.8491Z" fill="#7780A1"/>
<path d="M66.2486 26.5762C65.2444 27.406 63.9822 27.8599 62.6795 27.8599C61.3768 27.8599 60.1148 27.406 59.1104 26.5762C58.2278 25.6851 57.7325 24.4815 57.7325 23.2272C57.7325 21.9729 58.2278 20.7693 59.1104 19.8782C60.1167 19.0527 61.378 18.6016 62.6795 18.6016C63.981 18.6016 65.2424 19.0527 66.2486 19.8782C67.111 20.7775 67.5925 21.9753 67.5925 23.2213C67.5925 24.4672 67.111 25.665 66.2486 26.5643V26.5762ZM60.9902 25.0058C61.4563 25.428 62.0625 25.6618 62.6914 25.6618C63.3203 25.6618 63.9267 25.428 64.3927 25.0058C64.8145 24.5209 65.0468 23.8997 65.0468 23.2569C65.0468 22.6143 64.8145 21.9931 64.3927 21.5081C63.9267 21.086 63.3203 20.8521 62.6914 20.8521C62.0625 20.8521 61.4563 21.086 60.9902 21.5081C60.5684 21.9931 60.3361 22.6143 60.3361 23.2569C60.3361 23.8997 60.5684 24.5209 60.9902 25.0058Z" fill="#7780A1"/>
<path d="M78.5977 18.9016C78.8237 18.9016 78.9308 19.0206 78.9308 19.2466V27.7767C78.9516 28.3525 78.8438 28.9256 78.6154 29.4544C78.387 29.9833 78.0436 30.4547 77.6102 30.8342C76.6482 31.6545 75.4112 32.0796 74.1482 32.0239C73.0075 32.064 71.882 31.7525 70.9241 31.1316C70.5151 30.8631 70.1657 30.5132 69.8977 30.104C69.6295 29.6946 69.4485 29.2345 69.3657 28.7522C69.3657 28.5143 69.3657 28.4072 69.6869 28.4072H71.6856C71.7704 28.4101 71.8527 28.4376 71.9223 28.4861C71.992 28.5346 72.0461 28.6022 72.0782 28.6809C72.2078 29.0422 72.4662 29.343 72.8039 29.5255C73.2154 29.7379 73.6734 29.8443 74.1363 29.8349C74.4157 29.8502 74.6952 29.8096 74.9588 29.7156C75.2223 29.6218 75.4644 29.4762 75.671 29.2876C75.8598 29.0903 76.0066 28.8568 76.1028 28.6013C76.1989 28.3457 76.2422 28.0733 76.2302 27.8005V27.051C75.5146 27.5773 74.6436 27.8495 73.7556 27.8243C73.1341 27.8469 72.5145 27.7437 71.9338 27.5209C71.3533 27.298 70.8237 26.9602 70.3769 26.5275C69.5192 25.6402 69.0398 24.4544 69.0398 23.2202C69.0398 21.9861 69.5192 20.8002 70.3769 19.9128C70.8259 19.4841 71.3561 19.1495 71.9363 18.9288C72.5167 18.7081 73.1352 18.6058 73.7556 18.628C74.6693 18.6038 75.5637 18.8936 76.2897 19.4488V19.2585C76.2842 19.2129 76.2889 19.1666 76.3036 19.1231C76.3182 19.0797 76.3424 19.0399 76.3742 19.0069C76.4061 18.9738 76.445 18.9483 76.488 18.9322C76.531 18.916 76.5771 18.9097 76.6228 18.9135L78.5977 18.9016ZM73.9817 25.7066C74.2881 25.7161 74.593 25.6582 74.8746 25.5369C75.1562 25.4156 75.4079 25.234 75.6115 25.0047C76.0071 24.494 76.2217 23.8662 76.2217 23.2202C76.2217 22.5742 76.0071 21.9465 75.6115 21.4356C75.4086 21.2096 75.1585 21.0305 74.879 20.9113C74.5995 20.7921 74.2973 20.7356 73.9936 20.7456C73.6835 20.7358 73.3752 20.7936 73.0896 20.9148C72.8041 21.036 72.5483 21.2178 72.3399 21.4475C71.9017 21.9361 71.6713 22.5763 71.6974 23.2321C71.676 23.8814 71.9014 24.5148 72.328 25.0047C72.5369 25.2338 72.7928 25.4153 73.0782 25.5364C73.3636 25.6575 73.6717 25.7155 73.9817 25.7066Z" fill="#7780A1"/>
<path d="M89.1979 26.5766C88.1917 27.4022 86.9304 27.8533 85.6289 27.8533C84.3273 27.8533 83.066 27.4022 82.0598 26.5766C81.1967 25.6753 80.7148 24.4756 80.7148 23.2277C80.7148 21.9798 81.1967 20.78 82.0598 19.8787C83.067 19.0553 84.3279 18.6055 85.6289 18.6055C86.9298 18.6055 88.1907 19.0553 89.1979 19.8787C90.0603 20.778 90.5418 21.9757 90.5418 23.2217C90.5418 24.4677 90.0603 25.6655 89.1979 26.5647V26.5766ZM83.9276 25.0062C84.1557 25.2232 84.4245 25.3928 84.7186 25.5051C85.0127 25.6174 85.3261 25.6703 85.6408 25.6606C85.9534 25.6687 86.2646 25.6151 86.5566 25.5028C86.8485 25.3905 87.1154 25.2218 87.342 25.0062C87.757 24.518 87.9848 23.8982 87.9848 23.2574C87.9848 22.6166 87.757 21.9968 87.342 21.5086C87.1154 21.2931 86.8485 21.1243 86.5566 21.0121C86.2646 20.8998 85.9534 20.8461 85.6408 20.8542C85.3261 20.8446 85.0127 20.8974 84.7186 21.0097C84.4245 21.122 84.1557 21.2917 83.9276 21.5086C83.5128 21.9968 83.2849 22.6166 83.2849 23.2574C83.2849 23.8982 83.5128 24.518 83.9276 25.0062Z" fill="#7780A1"/>
<path d="M94.8367 16.8805C94.5223 17.1558 94.1185 17.3075 93.7006 17.3075C93.2826 17.3075 92.879 17.1558 92.5644 16.8805C92.4219 16.746 92.3083 16.5837 92.2306 16.4037C92.153 16.2237 92.1129 16.0296 92.1129 15.8336C92.1129 15.6375 92.153 15.4436 92.2306 15.2635C92.3083 15.0835 92.4219 14.9212 92.5644 14.7867C92.8822 14.5183 93.2846 14.3711 93.7006 14.3711C94.1165 14.3711 94.5189 14.5183 94.8367 14.7867C94.9794 14.9212 95.093 15.0835 95.1705 15.2635C95.2482 15.4436 95.2882 15.6375 95.2882 15.8336C95.2882 16.0296 95.2482 16.2237 95.1705 16.4037C95.093 16.5837 94.9794 16.746 94.8367 16.8805ZM95.0865 27.8495C94.3794 27.8842 93.6807 27.6834 93.0998 27.2784C92.8615 27.0964 92.67 26.8599 92.5418 26.5888C92.4134 26.3176 92.3518 26.0197 92.3622 25.7199V19.248C92.3564 19.2014 92.3613 19.1539 92.3767 19.1094C92.3919 19.0649 92.4171 19.0246 92.4504 18.9913C92.4837 18.958 92.5241 18.9327 92.5686 18.9175C92.6131 18.9022 92.6605 18.8973 92.7072 18.903H94.7058C94.9319 18.903 95.039 19.022 95.039 19.248V24.8633C95.039 25.3154 95.2412 25.5415 95.6457 25.5415C95.8262 25.548 96.0065 25.5279 96.1811 25.482C96.419 25.482 96.5499 25.5534 96.5618 25.7675L96.7402 27.2546C96.7488 27.298 96.748 27.3427 96.7378 27.3857C96.7277 27.4287 96.7085 27.4691 96.6813 27.504C96.6543 27.539 96.6201 27.5678 96.581 27.5883C96.5419 27.6089 96.4988 27.6209 96.4547 27.6234C96.0131 27.7689 95.5516 27.8452 95.0865 27.8495Z" fill="#7780A1"/>
<path d="M104.093 18.614C104.717 18.5894 105.34 18.6904 105.925 18.9111C106.509 19.1319 107.043 19.4678 107.495 19.8989C108.337 20.8019 108.805 21.99 108.805 23.2241C108.805 24.4582 108.337 25.6464 107.495 26.5493C107.045 26.9844 106.512 27.3235 105.927 27.5464C105.342 27.7693 104.718 27.8713 104.093 27.8461C103.202 27.8659 102.329 27.5944 101.606 27.0728V31.3675C101.606 31.5936 101.487 31.7007 101.261 31.7007H99.2627C99.2172 31.7092 99.1702 31.7065 99.1258 31.6928C99.0815 31.679 99.0412 31.6547 99.0084 31.6219C98.9756 31.5891 98.9513 31.5489 98.9376 31.5045C98.9238 31.4602 98.9212 31.4132 98.9296 31.3675V21.6121C98.9436 21.5167 98.9351 21.4193 98.9049 21.3277C98.8745 21.2362 98.8231 21.153 98.755 21.0848C98.6868 21.0166 98.6036 20.9654 98.512 20.935C98.4205 20.9047 98.3231 20.8962 98.2277 20.9102H97.8351C97.5734 20.9102 97.4425 20.815 97.4425 20.6246V19.2208C97.4363 19.1339 97.4601 19.0476 97.5099 18.9762C97.5597 18.9047 97.6325 18.8525 97.7161 18.8282C98.1276 18.6786 98.5632 18.6061 99.001 18.614C99.4376 18.5754 99.8758 18.6681 100.259 18.8799C100.643 19.0919 100.955 19.4136 101.154 19.8037C101.538 19.4161 101.996 19.1107 102.501 18.9061C103.006 18.7016 103.548 18.6021 104.093 18.614ZM102.237 25.0027C102.449 25.2244 102.704 25.4009 102.986 25.5214C103.268 25.6419 103.572 25.704 103.879 25.704C104.186 25.704 104.489 25.6419 104.771 25.5214C105.054 25.4009 105.308 25.2244 105.52 25.0027C105.967 24.5043 106.202 23.8513 106.175 23.1825C106.206 22.5131 105.971 21.8586 105.52 21.3622C105.308 21.1406 105.054 20.9642 104.771 20.8436C104.489 20.723 104.186 20.6609 103.879 20.6609C103.572 20.6609 103.268 20.723 102.986 20.8436C102.704 20.9642 102.449 21.1406 102.237 21.3622C101.804 21.8674 101.579 22.5178 101.606 23.1825C101.582 23.8467 101.807 24.4959 102.237 25.0027Z" fill="#7780A1"/>
<path d="M114.419 27.8482C113.351 27.8921 112.293 27.6367 111.362 27.1106C110.989 26.8858 110.671 26.5797 110.432 26.2152C110.193 25.8506 110.039 25.437 109.982 25.0049C109.982 24.7669 110.065 24.648 110.327 24.648H112.076C112.159 24.6513 112.24 24.6774 112.309 24.7236C112.378 24.7698 112.433 24.8342 112.468 24.9097C112.718 25.5521 113.373 25.8734 114.419 25.8734C114.785 25.8901 115.148 25.8165 115.478 25.6592C115.592 25.6078 115.69 25.5264 115.761 25.4238C115.832 25.3211 115.874 25.2009 115.883 25.0763C115.883 24.7669 115.692 24.5528 115.312 24.41C114.86 24.2598 114.393 24.16 113.92 24.1126C113.359 24.0491 112.803 23.9497 112.254 23.8152C111.721 23.6946 111.236 23.4169 110.862 23.0181C110.642 22.7471 110.48 22.4336 110.386 22.0973C110.292 21.761 110.269 21.4088 110.316 21.063C110.365 20.717 110.483 20.3846 110.665 20.0866C110.847 19.7884 111.088 19.531 111.374 19.3301C112.231 18.7839 113.238 18.5177 114.253 18.5687C115.236 18.5355 116.209 18.7786 117.061 19.2706C117.404 19.4651 117.699 19.7336 117.926 20.0567C118.152 20.3798 118.304 20.7494 118.369 21.1384C118.369 21.3763 118.262 21.4953 118.048 21.4953H116.287C116.213 21.4997 116.139 21.4816 116.076 21.4434C116.012 21.4052 115.961 21.3486 115.93 21.2812C115.813 20.9994 115.591 20.7736 115.312 20.6506C114.996 20.4857 114.644 20.4038 114.289 20.4127C113.94 20.3938 113.592 20.4634 113.277 20.6149C113.166 20.6578 113.071 20.7327 113.003 20.8303C112.935 20.9278 112.898 21.0434 112.897 21.1622C112.904 21.3249 112.964 21.4809 113.067 21.6072C113.169 21.7336 113.31 21.8235 113.468 21.8641C113.925 22.0364 114.4 22.1561 114.883 22.221C115.44 22.2943 115.992 22.3976 116.537 22.5303C117.07 22.6511 117.555 22.9286 117.929 23.3274C118.129 23.5472 118.284 23.8042 118.384 24.0841C118.484 24.3638 118.527 24.6606 118.512 24.9573C118.522 25.3686 118.426 25.7754 118.232 26.1383C118.038 26.501 117.753 26.8074 117.406 27.0274C116.517 27.5981 115.475 27.8843 114.419 27.8482Z" fill="#7780A1"/>
<path d="M131.087 27.254C131.094 27.2962 131.092 27.3394 131.082 27.3809C131.072 27.4226 131.054 27.4616 131.028 27.496C131.003 27.5303 130.97 27.5593 130.934 27.581C130.897 27.6028 130.856 27.617 130.813 27.6228C130.379 27.7646 129.926 27.8409 129.469 27.8488C129.017 27.8957 128.56 27.825 128.144 27.6437C127.726 27.4624 127.363 27.1765 127.09 26.8138C126.25 27.5363 125.162 27.907 124.056 27.8488C123.542 27.8725 123.029 27.7884 122.55 27.602C122.07 27.4155 121.635 27.1308 121.272 26.7662C120.912 26.3842 120.632 25.9333 120.45 25.4407C120.268 24.948 120.188 24.4237 120.213 23.8991V19.2474C120.213 19.0213 120.32 18.9023 120.546 18.9023H122.545C122.771 18.9023 122.878 19.0213 122.878 19.2474V23.5421C122.857 24.0773 123.039 24.6005 123.39 25.0055C123.565 25.1911 123.778 25.3369 124.013 25.4334C124.249 25.5299 124.503 25.5746 124.758 25.5646C125.018 25.576 125.279 25.5357 125.524 25.4458C125.769 25.3559 125.994 25.2184 126.185 25.0412C126.366 24.8544 126.508 24.6324 126.599 24.3888C126.692 24.1453 126.733 23.8855 126.721 23.6254V19.2474C126.721 19.0213 126.828 18.9023 127.054 18.9023H129.076C129.302 18.9023 129.41 19.0213 129.41 19.2474V24.8508C129.41 25.3148 129.612 25.5408 130.004 25.5408C130.189 25.548 130.373 25.528 130.552 25.4813C130.597 25.4687 130.644 25.4665 130.69 25.4748C130.736 25.483 130.779 25.5016 130.817 25.529C130.855 25.5565 130.886 25.5922 130.909 25.6334C130.93 25.6745 130.942 25.7202 130.944 25.7669L131.087 27.254Z" fill="#7780A1"/>
<path d="M149.991 27.2547C150.001 27.2972 150.003 27.3417 149.994 27.3848C149.985 27.4278 149.967 27.4684 149.941 27.5037C149.915 27.5389 149.881 27.5679 149.842 27.5886C149.804 27.6094 149.761 27.6213 149.717 27.6235C149.275 27.7673 148.814 27.8435 148.349 27.8495C147.641 27.886 146.943 27.6851 146.362 27.2784C146.111 27.1043 145.908 26.871 145.769 26.5991C145.629 26.3273 145.559 26.0252 145.565 25.7199V22.9242C145.59 22.3907 145.412 21.8676 145.065 21.4609C144.899 21.2749 144.692 21.1283 144.462 21.0316C144.231 20.935 143.983 20.8906 143.733 20.9017C143.508 20.8933 143.284 20.936 143.077 21.0266C142.872 21.1173 142.69 21.2536 142.543 21.4252C142.229 21.8238 142.069 22.3221 142.091 22.829V27.219C142.091 27.445 141.984 27.564 141.758 27.564H139.747C139.701 27.5698 139.654 27.5648 139.609 27.5496C139.564 27.5342 139.524 27.509 139.491 27.4757C139.457 27.4425 139.432 27.4021 139.417 27.3576C139.401 27.3131 139.397 27.2657 139.402 27.219V22.9242C139.429 22.3965 139.263 21.8771 138.939 21.4609C138.793 21.286 138.611 21.1452 138.406 21.0486C138.201 20.952 137.976 20.9018 137.749 20.9017C137.506 20.8919 137.265 20.9335 137.039 21.0238C136.813 21.1139 136.609 21.2508 136.44 21.4252C136.1 21.8111 135.925 22.3153 135.952 22.829V27.219C135.958 27.2657 135.954 27.3131 135.938 27.3576C135.923 27.4021 135.898 27.4425 135.864 27.4757C135.831 27.509 135.791 27.5342 135.747 27.5496C135.701 27.5648 135.654 27.5698 135.607 27.564H133.668C133.442 27.564 133.335 27.445 133.335 27.219V21.6155C133.349 21.5201 133.341 21.4228 133.31 21.3312C133.28 21.2397 133.229 21.1564 133.16 21.0882C133.092 21.0201 133.009 20.9688 132.917 20.9385C132.826 20.9081 132.728 20.8997 132.633 20.9136H132.241C131.979 20.9136 131.848 20.8184 131.848 20.6281V19.2242C131.842 19.1374 131.866 19.051 131.916 18.9796C131.966 18.9081 132.038 18.8559 132.122 18.8316C132.533 18.6821 132.969 18.6095 133.406 18.6175C133.826 18.5817 134.249 18.6654 134.623 18.8591C134.998 19.0528 135.31 19.3484 135.524 19.712C135.925 19.3317 136.401 19.038 136.921 18.8497C137.441 18.6614 137.994 18.5824 138.546 18.6175C139.082 18.5913 139.617 18.6918 140.107 18.911C140.597 19.1301 141.028 19.4616 141.365 19.8786C141.759 19.4506 142.243 19.1156 142.782 18.8974C143.321 18.6794 143.902 18.5838 144.482 18.6175C145.001 18.5932 145.52 18.6769 146.005 18.8633C146.491 19.0496 146.932 19.3345 147.302 19.7001C147.664 20.0814 147.943 20.5322 148.125 21.0251C148.307 21.5178 148.388 22.0426 148.361 22.5673V24.8634C148.361 25.3155 148.563 25.5415 148.944 25.5415C149.128 25.5501 149.313 25.5301 149.491 25.482C149.737 25.482 149.868 25.5772 149.884 25.7675L149.991 27.2547Z" fill="#7780A1"/>
<path d="M10.4878 17.3546C11.3655 13.8268 13.3983 10.694 16.2624 8.45515C19.1266 6.21627 22.6575 5 26.2928 5C29.9282 5 33.4591 6.21627 36.3232 8.45515C39.1874 10.694 41.2201 13.8268 42.0979 17.3546H40.6703C38.262 17.3191 35.903 18.0389 33.9247 19.4128C33.8105 19.4954 33.6913 19.571 33.5678 19.6388H33.4012C33.2778 19.571 33.1585 19.4954 33.0443 19.4128C31.0485 18.0707 28.6979 17.3539 26.2928 17.3539C23.8877 17.3539 21.5372 18.0707 19.5413 19.4128C19.4271 19.4954 19.3079 19.571 19.1844 19.6388H19.0179C18.8944 19.571 18.7752 19.4954 18.661 19.4128C16.6826 18.0389 14.3237 17.3191 11.9154 17.3546H10.4878ZM38.1005 24.814C38.8334 24.2433 39.7417 23.9447 40.6703 23.9693H42.5857V20.1504H40.6703C39.0347 20.1306 37.4366 20.6397 36.1137 21.6018C35.3693 22.1506 34.4689 22.4467 33.544 22.4467C32.6191 22.4467 31.7187 22.1506 30.9743 21.6018C29.6179 20.6577 28.0049 20.1514 26.3523 20.1514C24.6997 20.1514 23.0867 20.6577 21.7304 21.6018C20.986 22.1506 20.0855 22.4467 19.1606 22.4467C18.2358 22.4467 17.3353 22.1506 16.5909 21.6018C15.2518 20.6273 13.6307 20.1177 11.9749 20.1504H10V23.9693H11.9154C12.844 23.9447 13.7523 24.2433 14.4851 24.814C15.839 25.7588 17.4502 26.2654 19.1011 26.2654C20.7521 26.2654 22.3633 25.7588 23.7171 24.814C24.451 24.245 25.3586 23.9467 26.2869 23.9693C27.2158 23.9426 28.1247 24.2415 28.8566 24.814C30.213 25.7582 31.826 26.2643 33.4786 26.2643C35.1312 26.2643 36.7442 25.7582 38.1005 24.814ZM38.1005 31.6428C38.8334 31.0721 39.7417 30.7735 40.6703 30.7981H42.5857V26.9792H40.6703C39.0347 26.9595 37.4366 27.4685 36.1137 28.4306C35.3693 28.9794 34.4689 29.2755 33.544 29.2755C32.6191 29.2755 31.7187 28.9794 30.9743 28.4306C29.6179 27.4865 28.0049 26.9804 26.3523 26.9804C24.6997 26.9804 23.0867 27.4865 21.7304 28.4306C20.986 28.9794 20.0855 29.2755 19.1606 29.2755C18.2358 29.2755 17.3353 28.9794 16.5909 28.4306C15.2518 27.4563 13.6307 26.9465 11.9749 26.9792H10V30.7981H11.9154C12.844 30.7735 13.7523 31.0721 14.4851 31.6428C15.839 32.5876 17.4502 33.0942 19.1011 33.0942C20.7521 33.0942 22.3633 32.5876 23.7171 31.6428C24.451 31.0739 25.3586 30.7755 26.2869 30.7981C27.2158 30.7715 28.1247 31.0703 28.8566 31.6428C30.213 32.587 31.826 33.0931 33.4786 33.0931C35.1312 33.0931 36.7442 32.587 38.1005 31.6428Z" fill="#7780A1"/>
</svg>
