<svg width="69" height="80" viewBox="0 0 69 80" fill="none" xmlns="http://www.w3.org/2000/svg">
<path d="M67.0298 8.36363C66.3202 7.95003 65.5538 7.8081 64.7915 7.88515C64.7591 6.84708 64.7266 5.80901 64.6942 4.76689C64.6334 2.73536 62.8168 0.290223 60.5216 0.594344C51.4507 1.79056 42.5258 0.760597 33.4548 0.209124C28.9052 -0.0706677 24.3718 -0.147712 19.8464 0.476751C15.2927 1.10121 10.7796 2.22443 6.14881 1.85543C4.04023 1.68513 2.66561 3.99239 3.11976 5.83334C3.39955 6.96873 3.5577 8.07573 3.61852 9.18679L3.01433 9.1949C1.02741 9.22734 -0.395882 11.1007 0.0988222 13.0228C0.27724 13.7162 0.455658 14.4096 0.630021 15.103C0.954417 16.3722 2.22362 17.3089 3.5212 17.3048C3.8091 17.3048 4.09295 17.3048 4.38085 17.3048C4.37274 26.0919 4.32814 34.883 4.39302 43.6701C4.46195 53.4304 4.1781 63.3163 5.16751 73.0401C5.20806 73.4334 5.31754 73.7659 5.47569 74.0498C5.16346 75.4001 5.92579 76.9977 7.78295 77.1153C11.7406 77.3708 15.6698 77.0951 19.6234 76.9896C21.436 76.941 23.5445 75.3312 23.3053 73.3077C22.2348 64.3017 21.0061 54.9794 22.2307 45.9287C23.0742 39.7206 26.3546 29.5426 34.574 31.0835C42.027 32.4825 44.8452 40.8235 45.6197 47.3682C46.6862 56.3621 46.6091 65.579 47.0268 74.6256C47.1363 76.9775 48.8231 78.5386 51.1263 78.7251C53.8715 78.9482 56.6208 79.1712 59.366 79.3902C59.7634 79.4226 60.1526 79.3658 60.5338 79.2482C62.8208 80.858 66.7541 79.893 66.7136 76.2516C66.4865 55.9688 65.6877 35.6778 65.0186 15.399C65.6998 15.4233 66.381 15.2733 67.0177 14.9002C68.1693 14.2271 68.8951 12.966 68.8951 11.6319C68.8951 10.2978 68.1693 9.03675 67.0177 8.36363H67.0298Z" fill="#7780A1"/>
<path d="M67.0989 11.4331C67.0097 10.2734 65.8784 9.11774 64.6781 9.61245C64.5321 9.67327 64.451 9.78276 64.4145 9.90846C64.155 9.90035 63.8955 9.90035 63.636 9.89629C64.3415 7.87287 64.67 5.38719 63.8752 3.36377C64.4834 3.33133 64.4834 2.41896 63.8671 2.40274C54.0298 2.13512 44.1357 2.50412 34.2943 2.57305C24.4449 2.64199 14.567 2.49195 4.72157 2.86501C4.23092 2.88528 4.22687 3.61517 4.72157 3.62734C4.97298 3.63545 5.22033 3.63545 5.47174 3.64356C5.8083 5.97516 5.95022 8.31081 5.82452 10.6667C5.82452 10.7194 5.83263 10.7641 5.84885 10.8046C5.00947 10.8249 4.16604 10.8411 3.32667 10.8614C3.16852 10.6951 2.89279 10.6465 2.77519 10.9141C2.19128 12.2157 2.47513 13.6512 3.2334 14.7987C3.08742 14.8109 2.93739 14.819 2.79141 14.8312C2.35753 14.8677 2.34537 15.5286 2.79141 15.5165C13.2126 15.2204 23.6136 14.7014 34.0429 14.6649C43.5153 14.6365 52.9674 15.1515 62.4276 15.3421C62.3911 15.3867 62.3668 15.4435 62.3627 15.5165C61.6855 33.7313 62.3465 52.0718 62.46 70.2988C62.4641 71.0287 63.5954 71.0287 63.5914 70.2988C63.4657 52.0718 63.8914 33.7232 62.975 15.5165C62.975 15.4475 62.9466 15.3948 62.9142 15.3502C63.709 15.3664 64.5037 15.3826 65.2985 15.3908C65.8743 15.3989 65.854 14.5554 65.2985 14.5108C65.0957 14.4946 64.893 14.4824 64.6943 14.4662C65.8419 13.8174 67.2124 12.9416 67.0989 11.4412V11.4331ZM6.40843 3.65572C15.6943 3.8382 25.0085 3.60301 34.2903 3.55435C43.8559 3.50164 53.4702 3.72871 63.0277 3.3881C63.1656 5.67104 63.4778 7.61741 62.9669 9.88413C53.3486 9.70166 43.6613 10.2045 34.047 10.3302C24.826 10.4518 15.6051 10.5735 6.3841 10.7843C6.40438 10.7478 6.4206 10.7073 6.42465 10.6586C6.72472 8.31081 6.73283 5.99138 6.40438 3.65572H6.40843ZM66.0811 12.2279C65.7283 13.0105 64.9457 13.6187 64.2645 14.1013C64.1469 14.1864 64.1307 14.3121 64.1672 14.4176C54.1879 13.6268 44.0343 13.7444 34.0389 13.7809C24.0394 13.8215 13.9709 13.9472 3.99573 14.7298C3.31856 13.6958 3.22529 12.5928 3.40371 11.4007C13.6181 11.4007 23.8326 11.2831 34.051 11.1614C44.2817 11.0438 54.6137 11.3642 64.8281 10.8168C65.1039 10.8005 65.2458 10.5978 65.2579 10.391C66.0487 10.3788 66.3812 11.5588 66.0811 12.2279V12.2279Z" fill="white"/>
<path d="M60.4448 23.8494C56.0574 23.6466 51.5158 24.2346 47.1203 24.3765C42.5179 24.5266 37.9115 24.5996 33.305 24.6077C24.2747 24.6198 15.2605 24.3157 6.23419 24.0278C6.15715 21.3475 6.05577 18.6672 5.92196 15.9949C5.89763 15.5327 5.21234 15.5286 5.20018 15.9949C4.93661 25.4349 4.95688 34.8951 5.02176 44.3553C4.95688 44.4404 4.96094 44.5661 5.02176 44.6553C5.08258 53.5276 5.1799 62.4039 5.11502 71.2639C5.11097 71.9533 6.18148 71.9533 6.18959 71.2639C6.25852 62.489 6.40855 53.6736 6.4491 44.8621C10.9704 45.2636 15.7674 45.8921 20.2319 45.515C20.6049 45.4826 20.755 44.8824 20.3292 44.8094C15.8728 44.0471 11.0312 44.258 6.45316 44.2701C6.47749 37.7538 6.43694 31.2375 6.25852 24.7334C15.4024 25.52 24.6112 25.7674 33.7835 25.7552C38.2318 25.7471 42.676 25.6741 47.1203 25.5322C51.5402 25.3903 56.2115 25.5322 60.5705 24.7901C61.122 24.6969 60.9558 23.8778 60.4448 23.8534V23.8494Z" fill="white"/>
<path d="M61.4586 48.8523C56.5481 48.6699 51.5564 49.1119 46.6297 49.0956C46.6013 48.3211 46.5769 47.5466 46.5445 46.7762C46.5364 46.6018 46.5283 46.4194 46.5242 46.2409C51.305 46.7275 56.394 46.9546 61.0856 46.2247C61.5357 46.1558 61.414 45.4502 60.9801 45.4462C56.1426 45.4016 51.3375 45.6935 46.4958 45.5922C46.4391 44.2094 46.3701 42.778 46.2282 41.3507C47.1325 37.6526 47.4934 33.7922 47.396 30.0009C47.3879 29.7251 47.1771 29.5264 46.9094 29.5143C44.3548 29.3805 41.8002 29.2102 39.2456 29.048C36.2936 27.7909 32.782 27.9937 29.8057 29.3805C29.7408 29.2629 29.6232 29.1655 29.4488 29.1453C27.4254 28.906 21.862 28.3059 20.8483 30.6983C20.2806 32.0446 20.7388 34.51 20.751 35.9616C20.7712 38.3541 20.7956 40.7505 20.8523 43.143C20.8523 43.1795 20.8604 43.2078 20.8726 43.2362C20.8402 43.4471 20.8037 43.6579 20.7753 43.8647C20.2198 48.0454 20.5563 52.2707 20.8604 56.4554C21.1848 60.9077 21.5092 65.3641 21.9472 69.8083C21.9958 70.3071 22.7663 70.3274 22.7419 69.8083C22.3973 61.962 21.1281 53.9494 21.6512 46.099C22.154 38.5406 26.1886 29.3359 35.0284 29.3075C42.226 29.2831 44.367 35.7467 45.0563 41.7643C45.0036 42.0116 44.9509 42.259 44.8941 42.5063C44.8293 42.7861 44.9833 42.9848 45.1861 43.07C45.251 43.8485 45.2956 44.6068 45.328 45.3367C45.328 45.4137 45.3321 45.4867 45.3361 45.5638C45.2023 45.5597 45.0726 45.5597 44.9387 45.5516C44.5981 45.5394 44.6143 46.0341 44.9387 46.0706C45.0766 46.0869 45.2185 46.1031 45.3564 46.1152C45.5227 50.0121 45.6484 53.9129 45.7335 57.8138C45.8268 62.1039 45.5632 66.5076 45.9565 70.7775C46.0133 71.41 46.8811 71.41 46.9378 70.7775C47.3028 66.832 46.9946 62.7324 46.9135 58.7748C46.8527 55.7579 46.7594 52.737 46.6499 49.7201C51.5159 50.0404 56.7346 50.3527 61.564 49.6268C62.0222 49.5579 61.8844 48.8645 61.4586 48.8483V48.8523ZM21.4687 40.414C21.5579 38.1797 21.639 35.9454 21.6795 33.7111C21.7282 31.2538 21.8945 30.4104 24.6802 30.159C25.9778 30.0414 27.2673 30.0495 28.5648 30.0333C24.8302 32.3203 22.6 36.2536 21.4646 40.414H21.4687ZM42.5463 31.3836C42.0192 30.8037 41.4312 30.3131 40.8108 29.8995C42.6761 30.0739 44.5414 30.2482 46.4066 30.4429C46.3742 33.0542 46.139 35.5967 45.7416 38.1351C45.2104 35.6373 44.2778 33.2854 42.5504 31.3836H42.5463Z" fill="white"/>
<path d="M16.7728 31.5702C16.7687 31.3229 16.566 31.112 16.3146 31.112C14.0681 31.112 11.8136 31.0553 9.5712 31.1566C9.34413 31.1648 9.2387 31.3432 9.25086 31.5135C8.92647 31.3999 8.50475 31.5581 8.53314 32.0001C8.64667 33.9059 8.51692 35.7671 8.11548 37.6365C8.04249 37.9852 8.27362 38.342 8.65073 38.342C11.2053 38.3339 13.76 38.3501 16.3146 38.3055C16.5903 38.3015 16.8539 38.0663 16.8417 37.7784C16.7566 35.7144 16.8093 33.6423 16.7728 31.5743V31.5702ZM9.31169 37.2228C9.61986 35.4914 9.7334 33.764 9.61986 31.996C9.61581 31.9311 9.59553 31.8784 9.57526 31.8257C11.6636 31.9636 13.764 31.9717 15.8564 32.0163C15.8361 33.7559 15.8564 35.4995 15.8037 37.2431C13.6424 37.2147 11.477 37.2228 9.31574 37.2228H9.31169Z" fill="white"/>
<path d="M15.4756 61.7715L15.3458 61.7512C15.4391 61.7309 15.5242 61.6701 15.5851 61.5566C16.9678 58.8762 17.3855 53.1993 13.0345 53.0412C8.89438 52.8911 10.7313 58.7222 10.2082 60.9727C10.1311 61.3133 10.634 61.4552 10.7353 61.1186C11.299 59.1925 10.1717 56.0175 11.6436 54.5293C12.9088 53.252 14.8106 54.359 15.4147 55.7823C16.1974 57.6233 15.2242 59.4561 14.843 61.2484C14.7984 61.4511 14.916 61.6296 15.0741 61.7107C13.7076 61.4957 12.3451 61.2808 10.9705 61.1673C10.7353 61.147 10.6948 61.512 10.9137 61.5728C12.3451 61.9702 13.8009 62.2459 15.2607 62.5419C15.7675 62.6433 15.9703 61.8526 15.4715 61.7755L15.4756 61.7715Z" fill="white"/>
<path d="M19.2507 46.3747C15.2119 46.7477 11.1894 46.914 7.13447 47.0194C6.73303 47.0316 6.74114 47.6074 7.13447 47.6358C11.1651 47.9521 15.2282 47.8304 19.2507 47.4006C19.8995 47.3317 19.9116 46.3139 19.2507 46.3747Z" fill="white"/>
<path d="M57.278 63.6853C57.278 63.6853 57.2942 63.661 57.2982 63.6488C58.1498 60.932 57.9065 52.6883 53.5352 52.7085C48.7828 52.7329 49.529 61.0293 50.6562 63.7299C50.8184 64.1232 51.4551 63.9772 51.3131 63.5474C50.7779 61.9538 50.4697 60.344 50.6035 58.6531C50.7333 57.023 51.8403 52.0273 54.7882 54.1724C57.3753 56.0539 56.4467 60.8752 56.5805 63.5474C56.5805 63.5515 56.5805 63.5555 56.5805 63.5596C54.6017 63.4014 52.5823 63.5596 50.6643 64.0421C50.271 64.1394 50.4413 64.7112 50.8306 64.6423C52.9351 64.2733 54.9545 64.2084 57.0752 64.4436C57.5294 64.4922 57.5943 63.9043 57.278 63.6853Z" fill="white"/>
<path d="M58.5878 34.4005C58.5472 33.6625 58.4945 32.9772 57.7971 32.5798C57.0388 32.15 55.9723 32.4541 55.1735 32.5717C53.511 32.8069 51.8849 33.1799 50.2751 33.6503C50.0359 33.7192 49.9183 33.9179 49.894 34.1491C49.7237 35.767 49.4601 37.4092 49.4439 39.0353C49.4398 39.5421 50.2427 39.676 50.3441 39.1569C50.6482 37.6485 50.7455 36.0914 50.8915 34.5546C51.6822 34.3275 52.477 34.1207 53.2839 33.9504C54.1354 33.7719 55.948 33.1515 56.759 33.4192C58.0404 33.8409 57.6105 37.1294 57.5213 38.7149C55.3357 38.7839 53.0487 38.7149 50.9118 39.1569C50.6968 39.2015 50.6847 39.5705 50.9118 39.603C53.219 39.9395 55.6601 39.6962 57.9876 39.6638C58.2593 39.6638 58.458 39.4448 58.4702 39.1813C58.5472 37.612 58.6729 35.9697 58.5918 34.4005H58.5878Z" fill="white"/>
<path d="M11.2665 9.28406C10.3055 9.1989 9.32012 9.27189 8.35909 9.29622C8.15634 9.30028 8.15634 9.6044 8.35909 9.60845C9.32012 9.62873 10.3095 9.70577 11.2665 9.62062C11.4814 9.60034 11.4814 9.30433 11.2665 9.28406V9.28406Z" fill="white"/>
<path d="M11.9961 8.03117C10.9459 7.96629 9.89564 8.019 8.84541 8.04333C8.58994 8.05144 8.58994 8.43261 8.84541 8.43666C9.89564 8.46505 10.9459 8.51371 11.9961 8.44883C12.2678 8.43261 12.2678 8.04333 11.9961 8.02711V8.03117Z" fill="white"/>
<path d="M50.5302 5.39935C49.5489 5.27771 48.5311 5.41557 47.5823 5.66698C47.3998 5.71564 47.4769 5.99138 47.6593 5.94677C48.6244 5.72375 49.5489 5.71158 50.5302 5.75619C50.7654 5.76835 50.7533 5.42368 50.5302 5.3953V5.39935Z" fill="white"/>
<path d="M32.1129 6.41719C31.383 6.40503 30.6612 6.40097 29.9313 6.41719C29.7651 6.41719 29.7651 6.67265 29.9313 6.67671C30.6612 6.68887 31.383 6.68482 32.1129 6.67671C32.2751 6.67671 32.2751 6.4253 32.1129 6.42125V6.41719Z" fill="white"/>
<path d="M59.9867 11.6887C59.1798 11.6563 58.3688 11.6927 57.5618 11.713C57.355 11.7171 57.355 12.0293 57.5618 12.0374C58.3688 12.0577 59.1798 12.0942 59.9867 12.0617C60.2259 12.0536 60.2259 11.7009 59.9867 11.6887V11.6887Z" fill="white"/>
<path d="M61.9208 13.1241C60.8746 13.2012 59.8325 13.185 58.7985 13.0066C58.6079 12.9741 58.5227 13.2498 58.7174 13.2985C59.796 13.5742 60.8665 13.6513 61.9735 13.4931C62.1844 13.4648 62.1357 13.1079 61.9248 13.1241H61.9208Z" fill="white"/>
<path d="M52.1889 6.39697C51.2441 6.59972 50.2871 6.68487 49.322 6.64027C49.1355 6.63216 49.1355 6.91601 49.322 6.93223C50.3236 7.00522 51.2968 6.93223 52.27 6.69298C52.4606 6.64432 52.3795 6.36048 52.1889 6.40103V6.39697Z" fill="white"/>
<path d="M16.5135 12.4592C15.8445 12.739 15.1146 12.739 14.4374 12.5038C14.2793 12.4511 14.1738 12.6984 14.3239 12.7755C15.0862 13.1648 15.9215 13.1364 16.6676 12.7228C16.842 12.6254 16.6879 12.3862 16.5135 12.4592V12.4592Z" fill="white"/>
<path d="M10.7837 22.6654C9.65641 22.5843 8.52102 22.6573 7.38969 22.6897C7.26398 22.6897 7.26398 22.8803 7.38969 22.8843C8.52102 22.9127 9.65641 22.9857 10.7837 22.9087C10.9378 22.8965 10.9378 22.6775 10.7837 22.6694V22.6654Z" fill="white"/>
<path d="M12.722 21.8343C11.2784 21.887 9.83892 21.8587 8.40752 21.6519C8.18044 21.6194 8.07907 21.956 8.3102 22.0006C9.77404 22.2804 11.2338 22.402 12.722 22.2642C12.9937 22.2398 13.0018 21.8222 12.722 21.8343V21.8343Z" fill="white"/>
<path d="M44.898 15.5246C43.9532 15.6584 42.9922 15.7151 42.0393 15.6462C41.796 15.63 41.8041 15.9949 42.0393 16.0233C43.0449 16.1369 44.01 16.1125 44.9994 15.8976C45.2468 15.8449 45.1373 15.4921 44.898 15.5246V15.5246Z" fill="white"/>
<path d="M31.6751 19.4662C30.8925 19.3567 30.1464 19.4297 29.3962 19.6973C29.1854 19.7744 29.2705 20.1069 29.4895 20.0379C30.1829 19.823 30.9006 19.75 31.6265 19.8109C31.8211 19.8271 31.8697 19.4946 31.6711 19.4662H31.6751Z" fill="white"/>
<path d="M60.5866 20.2892C60.1892 19.7742 60.0554 19.2308 59.8526 18.6307C59.808 18.501 59.6093 18.5172 59.6053 18.6631C59.5931 19.3119 59.9824 19.9648 60.3798 20.4473C60.473 20.5609 60.6717 20.4068 60.5825 20.2892H60.5866Z" fill="white"/>
<path d="M58.4133 17.0859C58.2795 16.9359 58.024 17.1305 58.1335 17.3008C58.5674 17.9699 58.7093 18.8011 58.3768 19.5432C58.2876 19.7419 58.5674 19.9162 58.6769 19.7176C59.1432 18.8498 59.0824 17.8279 58.4133 17.0859Z" fill="white"/>
<path d="M60.8097 27.3611C60.7975 27.2638 60.6272 27.2638 60.611 27.3611C60.4893 28.2369 60.5745 29.1696 60.5948 30.0536C60.5948 30.2036 60.8218 30.2036 60.8259 30.0536C60.8462 29.1696 60.9313 28.2369 60.8097 27.3611Z" fill="white"/>
<path d="M59.6015 28.3302C59.5488 28.1882 59.3096 28.1963 59.3217 28.3666C59.3866 29.275 59.6542 30.1752 59.8692 31.0591C59.9178 31.2619 60.2179 31.1727 60.1814 30.974C60.0232 30.0941 59.9057 29.1736 59.6015 28.3302V28.3302Z" fill="white"/>
<path d="M42.9881 40.418C42.7448 39.2664 42.2988 38.1634 41.9298 37.0483C41.869 36.8618 41.5851 36.9388 41.6378 37.1294C41.9339 38.2648 42.1569 39.4326 42.5786 40.5315C42.6759 40.787 43.049 40.6897 42.9922 40.418H42.9881Z" fill="white"/>
<path d="M41.2039 38.2244C41.0944 38.0663 40.8389 38.2082 40.9403 38.3785C41.6986 39.6518 41.9703 40.9534 42.0473 42.4172C42.0635 42.7335 42.5258 42.7335 42.538 42.4172C42.5988 40.9169 42.0473 39.449 41.2039 38.2244V38.2244Z" fill="white"/>
<path d="M23.4638 58.3692C22.9651 57.2014 22.7461 55.9849 22.5636 54.74C22.5393 54.5738 22.2635 54.6143 22.2717 54.7806C22.3446 56.0782 22.7623 57.2947 23.2895 58.4706C23.3422 58.5882 23.5125 58.4868 23.4638 58.3692Z" fill="white"/>
<path d="M22.7989 52.072C22.7421 51.8287 22.3934 51.9382 22.4299 52.1734C22.6246 53.475 22.9287 54.7564 23.2004 56.0418C23.245 56.2486 23.545 56.1594 23.5126 55.9566C23.2896 54.659 23.099 53.3534 22.7989 52.072V52.072Z" fill="white"/>
<path d="M18.6667 51.3095C18.5856 51.1514 18.3342 51.2609 18.3788 51.4312C18.6221 52.303 18.8492 53.1424 18.8735 54.0547C18.8776 54.2575 19.1817 54.2575 19.1857 54.0547C19.2182 53.1099 19.1006 52.1611 18.6626 51.3136L18.6667 51.3095Z" fill="white"/>
<path d="M18.1758 53.5318C18.1271 53.3655 17.892 53.4385 17.9203 53.6007C18.0906 54.5861 18.3421 55.5511 18.6056 56.5203C18.6462 56.6703 18.8611 56.6054 18.8327 56.4595C18.6462 55.4741 18.4515 54.4969 18.1758 53.5358V53.5318Z" fill="white"/>
<path d="M11.23 39.1325C10.4555 39.4286 9.67692 39.6232 8.8416 39.6272C8.67129 39.6272 8.67129 39.8868 8.8416 39.8908C9.7053 39.9111 10.5528 39.7651 11.3313 39.3758C11.4652 39.311 11.3719 39.0758 11.23 39.1325V39.1325Z" fill="white"/>
<path d="M12.7749 40.2962C11.8666 40.1056 10.8813 40.2597 10.0095 40.5436C9.82293 40.6044 9.89592 40.8882 10.0906 40.8396C10.9826 40.6287 11.818 40.653 12.7222 40.6895C12.9493 40.6976 13.002 40.3408 12.7749 40.2922V40.2962Z" fill="white"/>
<path d="M11.7045 51.9383C10.6381 52.2059 9.80273 52.9317 9.35263 53.9333C9.27559 54.1036 9.51078 54.2536 9.61215 54.0833C10.1028 53.2399 10.8854 52.6073 11.7978 52.2708C12.0046 52.1937 11.9235 51.8815 11.7045 51.9383Z" fill="white"/>
<path d="M55.0641 58.1261C55.0155 57.9314 54.7397 58.0166 54.7722 58.2072C54.8776 58.8641 55.0479 59.5088 55.1979 60.1576C55.2385 60.3279 55.4858 60.2549 55.4575 60.0846C55.3358 59.4318 55.2344 58.7708 55.0641 58.1261V58.1261Z" fill="white"/>
<path d="M60.8867 55.8957C60.8097 55.7295 60.5299 55.8471 60.5866 56.0214C60.7853 56.6216 60.8664 57.2541 60.7651 57.8786C60.7286 58.1057 61.0692 58.2071 61.1138 57.9759C61.2517 57.2501 61.1949 56.5689 60.8827 55.8957H60.8867Z" fill="white"/>
<path d="M37.1815 56.1755C37.141 55.9484 36.7679 56.0012 36.7801 56.2282C36.8206 56.9743 36.8977 57.7286 37.0436 58.4625C37.0842 58.6815 37.4329 58.6288 37.4289 58.4098C37.4045 57.6596 37.3113 56.9135 37.1856 56.1755H37.1815Z" fill="white"/>
<path d="M33.2239 39.1082C32.4535 39.607 32.0805 40.5558 32.0845 41.4479C32.0845 41.6263 32.3562 41.6263 32.3602 41.4479C32.3846 40.5761 32.7941 39.9314 33.3902 39.3231C33.4956 39.2136 33.3578 39.023 33.2239 39.1082V39.1082Z" fill="white"/>
<path d="M59.8611 39.8707C59.5083 39.4246 59.3137 38.8569 59.2569 38.2933C59.2285 38.0014 58.8149 37.9932 58.7987 38.2933C58.7582 39.0232 59.0461 39.6639 59.5529 40.1789C59.7557 40.3857 60.0314 40.0856 59.8611 39.8707Z" fill="white"/>
<path d="M60.6112 38.0135C60.5829 37.8391 60.2868 37.8756 60.299 38.054C60.3639 38.9299 60.3071 39.8301 60.0963 40.6816C60.0476 40.8803 60.3396 40.9614 60.4044 40.7668C60.6964 39.8463 60.7694 38.9623 60.6112 38.0094V38.0135Z" fill="white"/>
</svg>
