<svg width="69" height="80" viewBox="0 0 69 80" fill="none" xmlns="http://www.w3.org/2000/svg">
<path d="M67.0298 8.36363C66.3202 7.95003 65.5538 7.8081 64.7915 7.88515C64.7591 6.84708 64.7266 5.80901 64.6942 4.76689C64.6334 2.73536 62.8167 0.290223 60.5216 0.594344C51.4507 1.79056 42.5258 0.760597 33.4548 0.209124C28.9052 -0.0706677 24.3718 -0.147712 19.8464 0.476751C15.2927 1.10121 10.7796 2.22443 6.14881 1.85543C4.04023 1.68513 2.66561 3.99239 3.11976 5.83334C3.39955 6.96873 3.5577 8.07573 3.61852 9.18679L3.01433 9.1949C1.02741 9.22734 -0.395882 11.1007 0.0988222 13.0228C0.27724 13.7162 0.455658 14.4096 0.630021 15.103C0.954417 16.3722 2.22362 17.3089 3.5212 17.3048C3.8091 17.3048 4.09295 17.3048 4.38085 17.3048C4.37274 26.0919 4.32814 34.883 4.39301 43.6701C4.46195 53.4304 4.1781 63.3163 5.16751 73.0401C5.20806 73.4334 5.31754 73.7659 5.47569 74.0498C5.16346 75.4001 5.92579 76.9977 7.78295 77.1153C11.7406 77.3708 15.6698 77.0951 19.6234 76.9896C21.436 76.941 23.5445 75.3312 23.3053 73.3077C22.2348 64.3017 21.0061 54.9794 22.2307 45.9287C23.0742 39.7206 26.3546 29.5426 34.574 31.0835C42.027 32.4825 44.8452 40.8235 45.6197 47.3682C46.6862 56.3621 46.6091 65.579 47.0268 74.6256C47.1363 76.9775 48.8231 78.5386 51.1263 78.7251C53.8715 78.9482 56.6208 79.1712 59.366 79.3902C59.7634 79.4226 60.1526 79.3658 60.5338 79.2482C62.8208 80.858 66.7541 79.893 66.7136 76.2516C66.4865 55.9688 65.6877 35.6778 65.0186 15.399C65.6998 15.4233 66.3811 15.2733 67.0177 14.9002C68.1693 14.2271 68.8951 12.966 68.8951 11.6319C68.8951 10.2978 68.1693 9.03675 67.0177 8.36363H67.0298Z" fill="white"/>
<path d="M67.0986 11.4331C67.0094 10.2734 65.8781 9.11774 64.6778 9.61245C64.5319 9.67327 64.4508 9.78276 64.4143 9.90846C64.1548 9.90035 63.8952 9.90035 63.6357 9.89629C64.3413 7.87287 64.6697 5.38719 63.875 3.36377C64.4832 3.33133 64.4832 2.41896 63.8669 2.40274C54.0295 2.13512 44.1355 2.50412 34.2941 2.57305C24.4446 2.64199 14.5667 2.49195 4.72133 2.86501C4.23068 2.88528 4.22662 3.61517 4.72133 3.62734C4.97273 3.63545 5.22008 3.63545 5.47149 3.64356C5.80805 5.97516 5.94998 8.31081 5.82427 10.6667C5.82427 10.7194 5.83238 10.7641 5.8486 10.8046C5.00923 10.8249 4.1658 10.8411 3.32642 10.8614C3.16828 10.6951 2.89254 10.6465 2.77495 10.9141C2.19104 12.2157 2.47488 13.6512 3.23316 14.7987C3.08718 14.8109 2.93715 14.819 2.79117 14.8312C2.35729 14.8677 2.34512 15.5286 2.79117 15.5165C13.2124 15.2204 23.6133 14.7014 34.0427 14.6649C43.515 14.6365 52.9671 15.1515 62.4273 15.3421C62.3909 15.3867 62.3665 15.4435 62.3625 15.5165C61.6853 33.7313 62.3462 52.0718 62.4598 70.2988C62.4638 71.0287 63.5952 71.0287 63.5911 70.2988C63.4654 52.0718 63.8912 33.7232 62.9748 15.5165C62.9748 15.4475 62.9464 15.3948 62.9139 15.3502C63.7087 15.3664 64.5035 15.3826 65.2982 15.3908C65.8741 15.3989 65.8538 14.5554 65.2982 14.5108C65.0955 14.4946 64.8928 14.4824 64.6941 14.4662C65.8416 13.8174 67.2122 12.9416 67.0986 11.4412V11.4331ZM6.40819 3.65572C15.694 3.8382 25.0082 3.60301 34.29 3.55435C43.8557 3.50164 53.47 3.72871 63.0275 3.3881C63.1653 5.67104 63.4776 7.61741 62.9667 9.88413C53.3483 9.70166 43.661 10.2045 34.0467 10.3302C24.8258 10.4518 15.6048 10.5735 6.38386 10.7843C6.40413 10.7478 6.42035 10.7073 6.42441 10.6586C6.72447 8.31081 6.73258 5.99138 6.40413 3.65572H6.40819ZM66.0809 12.2279C65.7281 13.0105 64.9455 13.6187 64.2642 14.1013C64.1466 14.1864 64.1304 14.3121 64.1669 14.4176C54.1877 13.6268 44.0341 13.7444 34.0386 13.7809C24.0391 13.8215 13.9707 13.9472 3.99549 14.7298C3.31831 13.6958 3.22505 12.5928 3.40347 11.4007C13.6179 11.4007 23.8323 11.2831 34.0508 11.1614C44.2814 11.0438 54.6134 11.3642 64.8279 10.8168C65.1036 10.8005 65.2455 10.5978 65.2577 10.391C66.0484 10.3788 66.3809 11.5588 66.0809 12.2279Z" fill="#08111F"/>
<path d="M60.4446 23.8494C56.0571 23.6466 51.5156 24.2346 47.12 24.3765C42.5176 24.5266 37.9112 24.5996 33.3048 24.6077C24.2744 24.6198 15.2603 24.3157 6.23395 24.0278C6.1569 21.3475 6.05553 18.6672 5.92172 15.9949C5.89739 15.5327 5.2121 15.5286 5.19993 15.9949C4.93636 25.4349 4.95664 34.8951 5.02152 44.3553C4.95664 44.4404 4.96069 44.5661 5.02152 44.6553C5.08234 53.5276 5.17966 62.4039 5.11478 71.2639C5.11073 71.9533 6.18123 71.9533 6.18934 71.2639C6.25828 62.489 6.40831 53.6736 6.44886 44.8621C10.9701 45.2636 15.7671 45.8921 20.2316 45.515C20.6047 45.4826 20.7547 44.8824 20.329 44.8094C15.8726 44.0471 11.031 44.258 6.45291 44.2701C6.47724 37.7538 6.43669 31.2375 6.25828 24.7334C15.4022 25.52 24.611 25.7674 33.7833 25.7552C38.2316 25.7471 42.6758 25.6741 47.12 25.5322C51.5399 25.3903 56.2112 25.5322 60.5703 24.7901C61.1218 24.6969 60.9555 23.8778 60.4446 23.8534V23.8494Z" fill="#08111F"/>
<path d="M61.4584 48.8523C56.5478 48.6699 51.5562 49.1119 46.6294 49.0956C46.601 48.3211 46.5767 47.5466 46.5443 46.7762C46.5361 46.6018 46.528 46.4194 46.524 46.2409C51.3048 46.7275 56.3937 46.9546 61.0853 46.2247C61.5354 46.1558 61.4138 45.4502 60.9799 45.4462C56.1423 45.4016 51.3372 45.6935 46.4956 45.5922C46.4388 44.2094 46.3699 42.778 46.228 41.3507C47.1322 37.6526 47.4931 33.7922 47.3958 30.0009C47.3877 29.7251 47.1768 29.5264 46.9092 29.5143C44.3546 29.3805 41.8 29.2102 39.2453 29.048C36.2933 27.7909 32.7818 27.9937 29.8054 29.3805C29.7405 29.2629 29.6229 29.1655 29.4486 29.1453C27.4252 28.906 21.8618 28.3059 20.848 30.6983C20.2803 32.0446 20.7385 34.51 20.7507 35.9616C20.771 38.3541 20.7953 40.7505 20.8521 43.143C20.8521 43.1795 20.8602 43.2078 20.8724 43.2362C20.8399 43.4471 20.8034 43.6579 20.775 43.8647C20.2195 48.0454 20.5561 52.2707 20.8602 56.4554C21.1846 60.9077 21.509 65.3641 21.9469 69.8083C21.9956 70.3071 22.766 70.3274 22.7417 69.8083C22.397 61.962 21.1278 53.9494 21.6509 46.099C22.1537 38.5406 26.1884 29.3359 35.0282 29.3075C42.2257 29.2831 44.3667 35.7467 45.0561 41.7643C45.0034 42.0116 44.9507 42.259 44.8939 42.5063C44.829 42.7861 44.9831 42.9848 45.1858 43.07C45.2507 43.8485 45.2953 44.6068 45.3278 45.3367C45.3278 45.4137 45.3318 45.4867 45.3359 45.5638C45.2021 45.5597 45.0723 45.5597 44.9385 45.5516C44.5979 45.5394 44.6141 46.0341 44.9385 46.0706C45.0764 46.0869 45.2183 46.1031 45.3562 46.1152C45.5224 50.0121 45.6481 53.9129 45.7333 57.8138C45.8265 62.1039 45.563 66.5076 45.9563 70.7775C46.0131 71.41 46.8808 71.41 46.9376 70.7775C47.3025 66.832 46.9944 62.7324 46.9133 58.7748C46.8524 55.7579 46.7592 52.737 46.6497 49.7201C51.5156 50.0404 56.7343 50.3527 61.5638 49.6268C62.022 49.5579 61.8841 48.8645 61.4584 48.8483V48.8523ZM21.4684 40.414C21.5577 38.1797 21.6387 35.9454 21.6793 33.7111C21.728 31.2538 21.8942 30.4104 24.68 30.159C25.9775 30.0414 27.267 30.0495 28.5646 30.0333C24.83 32.3203 22.5998 36.2536 21.4644 40.414H21.4684ZM42.5461 31.3836C42.0189 30.8037 41.431 30.3131 40.8106 29.8995C42.6758 30.0739 44.5411 30.2482 46.4064 30.4429C46.3739 33.0542 46.1388 35.5967 45.7414 38.1351C45.2102 35.6373 44.2775 33.2854 42.5501 31.3836H42.5461Z" fill="#08111F"/>
<path d="M16.7728 31.5702C16.7687 31.3229 16.566 31.112 16.3146 31.112C14.0681 31.112 11.8136 31.0553 9.5712 31.1566C9.34413 31.1648 9.2387 31.3432 9.25086 31.5135C8.92647 31.3999 8.50475 31.5581 8.53314 32.0001C8.64667 33.9059 8.51692 35.7671 8.11548 37.6365C8.04249 37.9852 8.27362 38.342 8.65073 38.342C11.2053 38.3339 13.76 38.3501 16.3146 38.3055C16.5903 38.3015 16.8539 38.0663 16.8417 37.7784C16.7566 35.7144 16.8093 33.6423 16.7728 31.5743V31.5702ZM9.31169 37.2228C9.61986 35.4914 9.7334 33.764 9.61986 31.996C9.61581 31.9311 9.59553 31.8784 9.57526 31.8257C11.6636 31.9636 13.764 31.9717 15.8564 32.0163C15.8361 33.7559 15.8564 35.4995 15.8037 37.2431C13.6424 37.2147 11.477 37.2228 9.31574 37.2228H9.31169Z" fill="#08111F"/>
<path d="M15.4751 61.7715L15.3453 61.7512C15.4386 61.7309 15.5237 61.6701 15.5846 61.5566C16.9673 58.8762 17.385 53.1993 13.034 53.0412C8.8939 52.8911 10.7308 58.7222 10.2077 60.9727C10.1307 61.3133 10.6335 61.4552 10.7348 61.1186C11.2985 59.1925 10.1712 56.0175 11.6432 54.5293C12.9083 53.252 14.8101 54.359 15.4143 55.7823C16.1969 57.6233 15.2237 59.4561 14.8425 61.2484C14.7979 61.4511 14.9155 61.6296 15.0736 61.7107C13.7071 61.4957 12.3447 61.2808 10.97 61.1673C10.7348 61.147 10.6943 61.512 10.9133 61.5728C12.3447 61.9702 13.8004 62.2459 15.2602 62.5419C15.767 62.6433 15.9698 61.8526 15.471 61.7755L15.4751 61.7715Z" fill="#08111F"/>
<path d="M19.2504 46.3747C15.2117 46.7477 11.1892 46.914 7.13423 47.0194C6.73279 47.0316 6.7409 47.6074 7.13423 47.6358C11.1648 47.9521 15.2279 47.8304 19.2504 47.4006C19.8992 47.3317 19.9114 46.3139 19.2504 46.3747Z" fill="#08111F"/>
<path d="M57.2777 63.6853C57.2777 63.6853 57.2939 63.661 57.298 63.6488C58.1495 60.932 57.9062 52.6883 53.535 52.7085C48.7826 52.7329 49.5287 61.0293 50.656 63.7299C50.8182 64.1232 51.4548 63.9772 51.3129 63.5474C50.7776 61.9538 50.4695 60.344 50.6033 58.6531C50.733 57.023 51.84 52.0273 54.788 54.1724C57.375 56.0539 56.4465 60.8752 56.5803 63.5474C56.5803 63.5515 56.5803 63.5555 56.5803 63.5596C54.6015 63.4014 52.5821 63.5596 50.6641 64.0421C50.2708 64.1394 50.4411 64.7112 50.8303 64.6423C52.9349 64.2733 54.9542 64.2084 57.075 64.4436C57.5291 64.4922 57.594 63.9043 57.2777 63.6853Z" fill="#08111F"/>
<path d="M58.5873 34.4005C58.5467 33.6625 58.494 32.9772 57.7966 32.5798C57.0383 32.15 55.9718 32.4541 55.173 32.5717C53.5105 32.8069 51.8845 33.1799 50.2746 33.6503C50.0354 33.7192 49.9178 33.9179 49.8935 34.1491C49.7232 35.767 49.4596 37.4092 49.4434 39.0353C49.4393 39.5421 50.2422 39.676 50.3436 39.1569C50.6477 37.6485 50.745 36.0914 50.891 34.5546C51.6817 34.3275 52.4765 34.1207 53.2834 33.9504C54.135 33.7719 55.9475 33.1515 56.7585 33.4192C58.0399 33.8409 57.61 37.1294 57.5208 38.7149C55.3352 38.7839 53.0482 38.7149 50.9113 39.1569C50.6964 39.2015 50.6842 39.5705 50.9113 39.603C53.2185 39.9395 55.6596 39.6962 57.9872 39.6638C58.2588 39.6638 58.4575 39.4448 58.4697 39.1813C58.5467 37.612 58.6724 35.9697 58.5913 34.4005H58.5873Z" fill="#08111F"/>
<path d="M11.266 9.28406C10.305 9.1989 9.31963 9.27189 8.3586 9.29622C8.15586 9.30028 8.15586 9.6044 8.3586 9.60845C9.31963 9.62873 10.309 9.70577 11.266 9.62062C11.4809 9.60034 11.4809 9.30433 11.266 9.28406Z" fill="#08111F"/>
<path d="M11.9961 8.03117C10.9459 7.96629 9.89564 8.019 8.84541 8.04333C8.58994 8.05144 8.58994 8.43261 8.84541 8.43666C9.89564 8.46505 10.9459 8.51371 11.9961 8.44883C12.2678 8.43261 12.2678 8.04333 11.9961 8.02711V8.03117Z" fill="#08111F"/>
<path d="M50.5302 5.39935C49.5489 5.27771 48.5311 5.41557 47.5823 5.66698C47.3998 5.71564 47.4769 5.99138 47.6593 5.94677C48.6244 5.72375 49.5489 5.71158 50.5302 5.75619C50.7654 5.76835 50.7533 5.42368 50.5302 5.3953V5.39935Z" fill="#08111F"/>
<path d="M32.1126 6.41719C31.3828 6.40503 30.661 6.40097 29.9311 6.41719C29.7648 6.41719 29.7648 6.67265 29.9311 6.67671C30.661 6.68887 31.3828 6.68482 32.1126 6.67671C32.2748 6.67671 32.2748 6.4253 32.1126 6.42125V6.41719Z" fill="#08111F"/>
<path d="M59.9862 11.6887C59.1793 11.6563 58.3683 11.6927 57.5614 11.713C57.3545 11.7171 57.3545 12.0293 57.5614 12.0374C58.3683 12.0577 59.1793 12.0942 59.9862 12.0617C60.2255 12.0536 60.2255 11.7009 59.9862 11.6887Z" fill="#08111F"/>
<path d="M61.9205 13.1241C60.8744 13.2012 59.8322 13.185 58.7982 13.0066C58.6076 12.9741 58.5225 13.2498 58.7171 13.2985C59.7957 13.5742 60.8662 13.6513 61.9732 13.4931C62.1841 13.4648 62.1354 13.1079 61.9246 13.1241H61.9205Z" fill="#08111F"/>
<path d="M52.1886 6.39697C51.2438 6.59972 50.2869 6.68487 49.3218 6.64027C49.1353 6.63216 49.1353 6.91601 49.3218 6.93223C50.3234 7.00522 51.2965 6.93223 52.2697 6.69298C52.4603 6.64432 52.3792 6.36048 52.1886 6.40103V6.39697Z" fill="#08111F"/>
<path d="M16.5133 12.4592C15.8442 12.739 15.1143 12.739 14.4372 12.5038C14.279 12.4511 14.1736 12.6984 14.3236 12.7755C15.086 13.1648 15.9213 13.1364 16.6674 12.7228C16.8418 12.6254 16.6877 12.3862 16.5133 12.4592Z" fill="#08111F"/>
<path d="M10.7837 22.6654C9.65641 22.5843 8.52102 22.6573 7.38969 22.6897C7.26398 22.6897 7.26398 22.8803 7.38969 22.8843C8.52102 22.9127 9.65641 22.9857 10.7837 22.9087C10.9378 22.8965 10.9378 22.6775 10.7837 22.6694V22.6654Z" fill="#08111F"/>
<path d="M12.722 21.8343C11.2784 21.887 9.83892 21.8587 8.40752 21.6519C8.18044 21.6194 8.07907 21.956 8.3102 22.0006C9.77404 22.2804 11.2338 22.402 12.722 22.2642C12.9937 22.2398 13.0018 21.8222 12.722 21.8343Z" fill="#08111F"/>
<path d="M44.8978 15.5246C43.953 15.6584 42.992 15.7151 42.0391 15.6462C41.7958 15.63 41.8039 15.9949 42.0391 16.0233C43.0447 16.1369 44.0098 16.1125 44.9992 15.8976C45.2465 15.8449 45.137 15.4921 44.8978 15.5246Z" fill="#08111F"/>
<path d="M31.6746 19.4662C30.892 19.3567 30.1459 19.4297 29.3957 19.6973C29.1849 19.7744 29.27 20.1069 29.489 20.0379C30.1824 19.823 30.9001 19.75 31.626 19.8109C31.8206 19.8271 31.8693 19.4946 31.6706 19.4662H31.6746Z" fill="#08111F"/>
<path d="M60.5866 20.2892C60.1892 19.7742 60.0554 19.2308 59.8526 18.6307C59.808 18.501 59.6093 18.5172 59.6053 18.6631C59.5931 19.3119 59.9824 19.9648 60.3798 20.4473C60.473 20.5609 60.6717 20.4068 60.5825 20.2892H60.5866Z" fill="#08111F"/>
<path d="M58.4131 17.0859C58.2793 16.9359 58.0238 17.1305 58.1333 17.3008C58.5672 17.9699 58.7091 18.8011 58.3766 19.5432C58.2874 19.7419 58.5672 19.9162 58.6766 19.7176C59.143 18.8498 59.0821 17.8279 58.4131 17.0859Z" fill="#08111F"/>
<path d="M60.8094 27.3611C60.7973 27.2638 60.627 27.2638 60.6107 27.3611C60.4891 28.2369 60.5742 29.1696 60.5945 30.0536C60.5945 30.2036 60.8216 30.2036 60.8256 30.0536C60.8459 29.1696 60.9311 28.2369 60.8094 27.3611Z" fill="#08111F"/>
<path d="M59.601 28.3302C59.5483 28.1882 59.3091 28.1963 59.3212 28.3666C59.3861 29.275 59.6538 30.1752 59.8687 31.0591C59.9173 31.2619 60.2174 31.1727 60.1809 30.974C60.0228 30.0941 59.9052 29.1736 59.601 28.3302Z" fill="#08111F"/>
<path d="M42.9879 40.418C42.7446 39.2664 42.2986 38.1634 41.9296 37.0483C41.8687 36.8618 41.5849 36.9388 41.6376 37.1294C41.9336 38.2648 42.1566 39.4326 42.5783 40.5315C42.6757 40.787 43.0487 40.6897 42.992 40.418H42.9879Z" fill="#08111F"/>
<path d="M41.2039 38.2244C41.0944 38.0663 40.8389 38.2082 40.9403 38.3785C41.6986 39.6518 41.9703 40.9534 42.0473 42.4172C42.0635 42.7335 42.5258 42.7335 42.538 42.4172C42.5988 40.9169 42.0473 39.449 41.2039 38.2244Z" fill="#08111F"/>
<path d="M23.4633 58.3692C22.9646 57.2014 22.7456 55.9849 22.5631 54.74C22.5388 54.5738 22.2631 54.6143 22.2712 54.7806C22.3442 56.0782 22.7618 57.2947 23.289 58.4706C23.3417 58.5882 23.512 58.4868 23.4633 58.3692Z" fill="#08111F"/>
<path d="M22.7984 52.072C22.7417 51.8287 22.3929 51.9382 22.4294 52.1734C22.6241 53.475 22.9282 54.7564 23.1999 56.0418C23.2445 56.2486 23.5445 56.1594 23.5121 55.9566C23.2891 54.659 23.0985 53.3534 22.7984 52.072Z" fill="#08111F"/>
<path d="M18.6665 51.3095C18.5854 51.1514 18.3339 51.2609 18.3786 51.4312C18.6218 52.303 18.8489 53.1424 18.8733 54.0547C18.8773 54.2575 19.1814 54.2575 19.1855 54.0547C19.2179 53.1099 19.1003 52.1611 18.6624 51.3136L18.6665 51.3095Z" fill="#08111F"/>
<path d="M18.1758 53.5318C18.1271 53.3655 17.892 53.4385 17.9203 53.6007C18.0906 54.5861 18.3421 55.5511 18.6056 56.5203C18.6462 56.6703 18.8611 56.6054 18.8327 56.4595C18.6462 55.4741 18.4515 54.4969 18.1758 53.5358V53.5318Z" fill="#08111F"/>
<path d="M11.2295 39.1325C10.455 39.4286 9.67643 39.6232 8.84111 39.6272C8.6708 39.6272 8.6708 39.8868 8.84111 39.8908C9.70481 39.9111 10.5523 39.7651 11.3308 39.3758C11.4647 39.311 11.3714 39.0758 11.2295 39.1325Z" fill="#08111F"/>
<path d="M12.7744 40.2962C11.8661 40.1056 10.8808 40.2597 10.009 40.5436C9.82244 40.6044 9.89543 40.8882 10.0901 40.8396C10.9822 40.6287 11.8175 40.653 12.7217 40.6895C12.9488 40.6976 13.0015 40.3408 12.7744 40.2922V40.2962Z" fill="#08111F"/>
<path d="M11.704 51.9383C10.6376 52.2059 9.80224 52.9317 9.35215 53.9333C9.2751 54.1036 9.51029 54.2536 9.61166 54.0833C10.1023 53.2399 10.8849 52.6073 11.7973 52.2708C12.0041 52.1937 11.923 51.8815 11.704 51.9383Z" fill="#08111F"/>
<path d="M55.0636 58.1261C55.015 57.9314 54.7392 58.0166 54.7717 58.2072C54.8771 58.8641 55.0474 59.5088 55.1975 60.1576C55.238 60.3279 55.4854 60.2549 55.457 60.0846C55.3353 59.4318 55.234 58.7708 55.0636 58.1261Z" fill="#08111F"/>
<path d="M60.8865 55.8957C60.8094 55.7295 60.5296 55.8471 60.5864 56.0214C60.7851 56.6216 60.8662 57.2541 60.7648 57.8786C60.7283 58.1057 61.0689 58.2071 61.1135 57.9759C61.2514 57.2501 61.1946 56.5689 60.8824 55.8957H60.8865Z" fill="#08111F"/>
<path d="M37.1813 56.1755C37.1407 55.9484 36.7677 56.0012 36.7798 56.2282C36.8204 56.9743 36.8974 57.7286 37.0434 58.4625C37.084 58.6815 37.4327 58.6288 37.4286 58.4098C37.4043 57.6596 37.311 56.9135 37.1853 56.1755H37.1813Z" fill="#08111F"/>
<path d="M33.2237 39.1082C32.4533 39.607 32.0802 40.5558 32.0843 41.4479C32.0843 41.6263 32.3559 41.6263 32.36 41.4479C32.3843 40.5761 32.7939 39.9314 33.39 39.3231C33.4954 39.2136 33.3575 39.023 33.2237 39.1082Z" fill="#08111F"/>
<path d="M59.8606 39.8707C59.5078 39.4246 59.3132 38.8569 59.2564 38.2933C59.228 38.0014 58.8144 37.9932 58.7982 38.2933C58.7577 39.0232 59.0456 39.6639 59.5524 40.1789C59.7552 40.3857 60.0309 40.0856 59.8606 39.8707Z" fill="#08111F"/>
<path d="M60.6108 38.0135C60.5824 37.8391 60.2864 37.8756 60.2985 38.054C60.3634 38.9299 60.3066 39.8301 60.0958 40.6816C60.0471 40.8803 60.3391 40.9614 60.4039 40.7668C60.6959 39.8463 60.7689 38.9623 60.6108 38.0094V38.0135Z" fill="#08111F"/>
</svg>
