<svg width="100" height="80" viewBox="0 0 100 80" fill="none" xmlns="http://www.w3.org/2000/svg">
<path d="M98.6569 56.4799C97.5124 51.6396 93.821 48.7625 88.9807 48.2559C87.8996 48.1428 86.8094 48.1066 85.7237 48.0478C85.312 48.0252 84.8777 47.7447 84.8642 47.9935C84.6606 46.4238 87.7729 43.7593 88.5057 42.7958C92.387 37.666 91.1611 31.654 87.3251 26.8906C84.0318 22.8057 77.8887 20.4579 75.8892 15.414C75.2514 13.8036 73.935 12.7043 72.1165 12.9531C70.6056 13.1567 68.9137 14.6314 69.1354 16.3278C69.158 16.5133 69.167 16.6942 69.1851 16.8752C68.7463 16.4364 68.2895 16.0157 67.7873 15.6221C65.4124 13.7629 62.5444 12.6139 60.2554 10.6596C57.7945 8.55614 56.1615 5.88265 55.2658 2.78846C54.1847 -0.948091 48.2767 -0.319301 48.3717 3.72034C48.4939 8.98589 45.5083 12.8943 42.1924 16.6173C41.93 16.5902 41.6496 16.5947 41.351 16.6309C36.7188 17.2099 33.2582 16.364 30.1232 12.7496C27.6171 9.86348 23.3966 13.5412 25.0341 16.6761C26.3369 19.1777 23.3649 22.4483 21.9354 24.208C20.0445 26.5332 18.2441 28.8538 17.0272 31.6133C15.8375 34.3049 15.0142 37.1548 15.4394 40.1133C15.6249 41.4025 16.032 42.6013 16.5975 43.7186C14.408 44.9264 12.2231 46.1433 10.0562 47.3964C6.60016 49.3958 1.90912 51.2098 0.574635 55.3445C-0.583425 58.9317 0.271549 63.4373 0.855102 67.0834C1.47484 70.9466 2.26196 75.4657 4.38809 78.8133C5.76781 80.9891 8.70819 79.9351 8.957 77.5738C9.0158 77.0083 9.03842 76.4383 9.05199 75.8638C9.44555 75.9814 9.86625 76.0583 10.3186 76.09C22.9894 76.9495 35.6783 77.5873 48.3717 77.9764C60.6128 78.3518 73.0619 78.8404 85.2939 78.0714C90.7088 77.7321 95.6622 75.7552 97.7566 70.3811C99.349 66.2963 99.6837 60.7683 98.6704 56.4889L98.6569 56.4799Z" fill="white"/>
<path d="M62.1283 66.6036C61.9881 64.9389 61.7529 63.2833 61.5267 61.6231C60.9748 57.5789 60.4817 53.5845 61.296 49.5358C61.3684 49.1694 61.1331 48.7939 60.7305 48.7939C57.2066 48.8211 53.6781 48.8482 50.1542 48.898C48.503 48.9206 46.2186 48.3009 45.4269 50.0063C44.9067 51.1191 45.16 52.9874 45.1103 54.1771C45.0334 55.9142 44.9791 57.6513 44.9474 59.3884C44.8796 62.7811 44.8479 66.1875 45.065 69.5757C44.3729 69.6345 44.4136 70.7292 45.16 70.7926C48.8378 71.1228 52.5427 71.254 56.234 71.3037C57.7494 71.3263 61.115 72.0773 62.0831 70.4578C62.6576 69.4943 62.2233 67.6079 62.1374 66.5991L62.1283 66.6036ZM51.3665 69.9195C50.8011 68.8564 50.4844 67.7165 50.5477 66.4996C50.6111 65.2963 51.3982 62.5369 53.0629 63.5049C54.0219 64.0568 54.3567 65.6718 54.5738 66.7032C54.8181 67.8522 54.7593 68.9198 54.7819 70.0597C54.7593 70.0597 54.7321 70.0597 54.7095 70.0597C53.5922 70.0281 52.4793 69.9783 51.3665 69.924V69.9195ZM60.6536 69.3269C60.5315 70.1592 60.0655 70.4216 59.2468 70.123C58.7899 70.2135 58.2832 70.2361 57.763 70.2271C57.763 70.1999 57.7675 70.1773 57.763 70.1547C56.6095 64.0116 59.2241 55.4075 52.6422 51.585C52.4432 51.472 52.1763 51.5036 52.0134 51.6665C47.2952 56.4209 47.8064 63.3104 48.9961 69.3947C49.073 69.7883 49.747 69.7069 49.7018 69.2997C49.3852 66.2824 48.9237 63.238 49.2404 60.1981C49.4394 58.2846 51.1539 50.9563 53.7957 53.7293C57.8263 57.9589 55.8133 64.9299 56.6773 70.1819C56.329 70.1592 55.9852 70.1321 55.655 70.1049C55.9807 68.3543 55.6052 66.3865 54.9764 64.758C54.524 63.5818 53.8364 62.0981 52.3391 62.3242C50.9684 62.5323 50.127 63.989 49.8782 65.2239C49.5435 66.8751 49.9189 68.5036 50.8237 69.8923C49.2268 69.8109 47.63 69.7159 46.0331 69.6209C46.1507 64.3011 46.0603 58.9812 46.3045 53.6614C46.3362 52.9648 46.3724 52.2726 46.4086 51.5805C46.3995 50.2913 46.9424 49.8072 48.0371 50.1284C49.2178 49.7846 51.0318 50.1013 52.2667 50.0877C54.8588 50.056 57.4463 50.0199 60.0384 49.9791C59.1608 55.403 60.4003 60.7002 60.8979 66.1241C60.9522 66.7303 61.106 67.445 61.0336 68.0512C61.1331 68.5262 61.0065 68.9514 60.6536 69.3314V69.3269Z" fill="#08111F"/>
<path d="M31.2859 63.5728C29.3724 63.5638 27.8162 64.9435 27.02 66.5856C25.7896 69.1279 26.5632 72.0411 27.3865 74.5744C27.5086 74.9408 28.0379 74.7915 27.9655 74.416C27.3819 71.4576 26.3867 63.903 31.7609 64.6856C36.5378 65.3823 35.511 71.2404 35.4567 74.5744C35.4476 75.0991 36.2393 75.2077 36.375 74.6965C37.3973 70.8197 36.7595 63.5954 31.2904 63.5728H31.2859Z" fill="#08111F"/>
<path d="M73.071 62.9577C67.1088 63.0753 68.5835 71.1184 69.2349 74.778C69.2937 75.1173 69.8547 75.0404 69.8366 74.6966C69.6692 71.6929 68.1538 64.1564 73.071 64.0524C75.3781 64.0026 77.278 65.9207 77.9792 67.9744C78.7346 70.191 78.3275 72.3986 78.4994 74.6604C78.5401 75.1716 79.3408 75.3661 79.4539 74.7916C80.327 70.3448 78.9789 62.84 73.0665 62.9577H73.071Z" fill="#08111F"/>
<path d="M28.8341 52.7522C27.2508 53.4398 26.6401 55.1135 26.4366 56.7059C26.319 57.6106 26.1561 59.3975 27.4996 59.4155C27.8208 59.4155 27.8796 58.9496 27.5765 58.8637C26.4501 58.5334 27.8706 52.3948 30.716 53.7429C32.7697 54.7155 32.1771 57.1718 32.444 59.0265C30.6798 58.5787 28.4496 59.031 26.898 59.7684C26.5723 59.9222 26.812 60.3972 27.1332 60.3293C28.1375 60.1122 29.1101 59.8996 30.146 59.8724C31.0643 59.8453 31.969 60.0534 32.8783 60.0127C32.9552 60.0127 33.0276 59.9765 33.0909 59.9312C33.2266 59.9041 33.3442 59.8091 33.3804 59.6417C33.9413 57.0678 32.7652 51.0422 28.8296 52.7522H28.8341Z" fill="#08111F"/>
<path d="M73.3561 51.7479C69.6195 51.6032 69.5381 56.3168 70.2845 58.8184C70.3795 59.1396 70.9088 59.0944 70.8862 58.737C70.8093 57.5337 70.574 56.2852 70.8726 55.0864C71.1938 53.8107 72.2478 52.4446 73.7542 52.8562C76.3915 53.5755 76.0884 56.9456 75.8758 59.031C74.0482 59.031 72.2207 59.1215 70.3931 59.1848C69.9588 59.1984 69.9588 59.8453 70.3931 59.8589C72.3111 59.9222 74.2427 60.0172 76.1608 60.0127C76.4774 60.0127 76.6358 59.7684 76.6358 59.5196C76.785 59.4382 76.9072 59.3025 76.9298 59.0989C77.26 56.4254 77.0519 51.8882 73.3516 51.7434L73.3561 51.7479Z" fill="#08111F"/>
<path d="M95.8838 51.4901C96.119 51.3092 96.1326 50.9111 95.7572 50.7664C91.8758 49.2962 87.506 48.5136 83.4121 47.6722C83.3352 47.0388 83.1271 46.2517 83.2899 45.6682C83.6925 44.2387 84.552 44.2161 85.4025 43.524C86.8681 42.3388 87.9991 41.0495 88.759 39.3034C90.3423 35.6573 89.8447 31.4639 87.2572 28.4149C83.3713 23.8279 74.8849 21.7877 75.0252 14.6494C75.0387 13.9075 73.9395 13.9256 73.8852 14.6494C73.6636 17.5626 72.5145 20.028 70.4608 22.1044C69.9406 22.6336 70.7548 23.4479 71.2751 22.9186C72.7724 21.3987 73.8038 19.6842 74.4145 17.7707C75.654 21.1001 78.8839 23.4027 81.8604 25.4248C84.4887 27.2071 87.2708 29.2111 88.1891 32.4183C88.9762 35.1642 88.3655 38.2901 86.7053 40.6017C85.5291 42.2347 82.7833 42.9675 82.2042 44.9037C81.8876 45.9622 82.2314 47.3284 82.3128 48.3959L82.3309 48.6493C77.0608 47.7219 71.2208 48.1336 65.9824 49.0202C65.919 47.4822 65.8421 45.9441 65.7471 44.4061C71.1122 44.6323 76.5949 44.8177 81.9283 44.4649C82.4983 44.4287 82.4983 43.6144 81.9283 43.5782C76.5813 43.2254 71.0805 43.4109 65.6974 43.637C65.5933 42.0764 65.4757 40.5202 65.331 38.9641C65.331 38.9279 65.3129 38.8962 65.3038 38.8646C71.3927 34.8928 72.994 26.0083 68.8277 20.0325C66.4347 16.5991 62.8475 14.3282 59.708 11.6637C57.9755 10.1936 56.3153 8.58765 55.1527 6.61533C54.0173 4.6792 54.1439 3.10496 53.4201 1.14169C53.2482 0.671229 53.3206 0.5129 52.9361 0.173625C52.7054 -0.0299401 52.3073 -0.0842242 52.0811 0.173625C52.0676 0.19172 52.0495 0.209814 52.0359 0.227909C51.6514 0.00624923 51.0407 0.182672 51.0633 0.752655C51.2442 5.7875 49.3669 10.5735 45.5761 13.9482C43.0835 16.1648 40.0436 17.7933 37.9266 20.399C37.8406 20.3175 37.732 20.2497 37.5918 20.2316C33.231 19.6752 29.9423 16.0517 29.7387 11.6773C29.7071 10.9535 28.5897 10.9445 28.6033 11.6773C28.7933 19.9466 19.5333 23.6515 16.4708 30.4913C14.1366 35.7071 16.412 41.6376 21.4333 44.2296C21.8902 44.4649 22.2656 43.8225 21.8359 43.542C18.7191 41.5109 16.4572 38.1951 16.6336 34.35C16.801 30.6541 19.4564 27.6052 21.8992 25.0855C24.8305 22.0591 28.1464 18.9785 29.309 14.9615C30.5982 18.2864 33.5522 20.7201 37.2435 21.3218C33.6743 26.714 34.8505 34.5671 40.3739 38.0639C40.3467 38.1136 40.3332 38.1725 40.3241 38.2267C40.2201 38.3082 40.1477 38.4348 40.1386 38.6112C40.0663 40.484 40.0165 42.3614 39.9803 44.2432C33.9095 43.6823 27.7709 43.637 21.7047 44.2794C21.6323 44.2885 21.578 44.3201 21.5328 44.3608C21.2704 44.2704 20.9492 44.397 20.9583 44.7589C20.9809 45.5415 21.0126 46.3241 21.0442 47.1022C20.9357 46.9619 20.7592 46.8669 20.533 46.9122C15.9053 47.8033 10.97 49.2238 6.64991 51.1237C6.10254 51.3635 4.58259 52.5532 6.06635 52.7794C6.15683 52.793 6.22468 52.7568 6.27444 52.7025C6.19754 52.888 6.30158 53.1594 6.55038 53.1503C11.2595 52.9694 15.9234 52.9015 20.6326 52.8518C21.293 52.8427 21.2659 51.9108 20.6326 51.843C16.0184 51.359 11.0198 51.6439 6.46896 52.5396C6.4011 52.5532 6.35587 52.5894 6.31968 52.6301C6.36491 52.5261 6.33325 52.3949 6.18397 52.3587C6.30611 52.3858 7.89391 51.7073 8.32819 51.558C9.74862 51.074 11.1736 50.599 12.6076 50.1557C15.3218 49.3188 18.0767 48.6674 20.8045 47.8848C20.9357 47.8486 21.0171 47.7762 21.0759 47.6903C21.3247 52.9513 21.7952 58.2078 22.157 63.4598C22.3561 66.3685 22.5777 69.2727 22.5913 72.1905C22.5913 72.9369 22.252 74.4161 23.4192 74.3528C23.7177 74.3392 23.8625 74.0994 23.8263 73.819C23.8172 73.7556 23.8082 73.6968 23.7991 73.6335C23.7765 73.4661 23.582 73.3485 23.4237 73.3395C23.772 70.4669 23.0437 60.3837 22.9713 59.298C22.7361 55.9324 22.537 52.5577 22.2656 49.1921C25.1381 49.2374 28.0062 49.2283 30.8742 49.2012C33.5884 49.174 36.4338 49.4047 39.1118 48.9388C39.4329 48.8845 39.442 48.3281 39.1118 48.2783C36.4292 47.8757 33.5838 48.1652 30.8742 48.2014C27.9835 48.2376 25.0929 48.2964 22.2023 48.405C22.0982 47.1972 21.9851 45.9939 21.854 44.7906C27.9021 44.7408 33.9186 44.8313 39.9577 45.2339C39.8084 54.53 40.0572 63.8805 40.2291 73.154C40.0436 73.249 39.917 73.448 39.9848 73.6968C40.0798 74.0406 40.1794 74.3844 40.2743 74.7282C40.4689 75.4158 41.5184 75.2801 41.5229 74.5609C41.5636 64.7038 41.7129 54.7472 41.4143 44.8675C45.1101 44.6051 48.8015 44.3111 52.5018 44.1844C56.2067 44.0577 59.9342 44.3156 63.6255 44.1392C63.6662 44.2296 63.7522 44.3065 63.8879 44.3111C64.0598 44.3201 64.2317 44.3246 64.4036 44.3337C64.6117 48.4819 64.8198 52.6301 64.9102 56.7874C65.0369 62.6772 64.4036 68.8022 64.9781 74.6423C65.0279 75.167 65.8919 75.3977 65.9869 74.778C66.8509 69.137 66.3216 63.0029 66.2085 57.3076C66.1588 54.7924 66.0955 52.2682 66.0005 49.7485C71.5148 49.3459 76.898 49.6038 82.3897 49.6038L82.6973 53.6298C83.2311 60.6551 83.5478 67.7573 84.5746 74.7373C84.6244 75.063 85.1446 74.977 85.1401 74.6604C85.1175 67.4949 84.3439 60.3113 83.8147 53.1684C87.7684 53.0599 91.8487 52.9287 95.7345 52.2863C96.1552 52.2184 96.1462 51.6847 95.8702 51.4675L95.8838 51.4901ZM41.3962 43.9582C41.3374 42.2619 41.2741 40.57 41.1836 38.8781C41.6722 38.9143 42.1607 38.9324 42.6493 38.955C42.016 40.5383 42.2557 42.2211 42.9885 43.7366C42.4548 43.8089 41.921 43.8813 41.3962 43.9582ZM43.1966 43.7049C42.8347 42.1171 43.0474 40.5429 43.4183 38.9912C44.0652 39.0139 44.7166 39.0274 45.3635 39.0365C44.6894 40.2805 45.1463 42.1397 45.8068 43.3747C44.9292 43.4742 44.0607 43.5873 43.1966 43.7049ZM46.3632 43.3159C46.0285 42.6011 45.8204 41.8411 45.8068 41.045C45.7932 40.3574 46.033 39.715 46.0646 39.0455C46.9422 39.0546 47.8198 39.0546 48.7019 39.05C48.5572 40.3438 48.5255 41.9361 49.1 43.0444C48.1817 43.1213 47.2679 43.2163 46.3587 43.3159H46.3632ZM52.9587 42.7866C52.909 41.624 52.9271 40.3438 52.5697 39.2717C52.4656 38.9596 52.0449 39.0319 52.0178 39.3486C51.9183 40.4524 52.2168 41.6873 52.434 42.8137C51.4704 42.8635 50.5069 42.9268 49.5479 43.0037C49.5479 42.9947 49.5569 42.9856 49.5569 42.9766C49.6474 42.2709 49.48 41.52 49.4619 40.8052C49.4438 40.2172 49.48 39.6336 49.5162 39.05C50.5295 39.0455 51.5428 39.041 52.5471 39.05C53.3387 39.0546 54.1349 39.0727 54.931 39.0953C54.8225 39.5929 54.8948 40.1402 54.9084 40.6424C54.9265 41.2893 54.9537 41.9361 54.9808 42.583C54.9808 42.6418 55.0034 42.6871 55.0306 42.7233C54.343 42.7368 53.6508 42.7549 52.9632 42.7866H52.9587ZM55.4829 42.7187C55.5055 42.6826 55.5236 42.6373 55.5236 42.583C55.5508 41.9361 55.5779 41.2893 55.596 40.6424C55.6096 40.1402 55.6774 39.6065 55.5779 39.1089C56.6907 39.1405 57.8081 39.1722 58.9254 39.1858C58.9164 39.2038 58.9028 39.2219 58.8983 39.2446C58.6224 40.3664 58.749 41.6376 59.0702 42.773C57.8805 42.7233 56.6862 42.7006 55.4829 42.7187ZM64.0372 43.1892C62.6032 42.9947 61.133 42.868 59.6537 42.7956C59.5271 41.6331 59.5814 40.5248 59.613 39.3441C59.613 39.2898 59.5995 39.24 59.5814 39.1948C60.1649 39.1948 60.753 39.1948 61.332 39.1767C61.3049 40.3076 61.3818 41.4521 61.4135 42.583C61.427 43.0083 62.0603 43.0083 62.0739 42.583C62.1056 41.4431 62.1825 40.2895 62.1553 39.1496C62.7434 39.1269 63.3315 39.0908 63.915 39.041C63.9603 39.1722 64.0508 39.2853 64.1774 39.3396C64.2407 40.7283 64.3086 42.1171 64.381 43.5059C64.3538 43.3521 64.2453 43.2209 64.0372 43.1892ZM64.6072 38.1001C64.5257 38.0232 64.4126 37.9644 64.2679 37.9463C60.4273 37.5075 56.4193 37.7789 52.5516 37.7518C48.806 37.7246 45.0106 37.5527 41.265 37.7608C38.017 34.7978 35.7914 30.8532 36.6192 26.3114C37.429 21.8827 40.6362 19.354 44.038 16.8117C48.8467 13.2154 51.968 8.49265 52.3209 2.58926C52.4114 3.11401 52.5244 3.63423 52.6737 4.14541C52.918 4.96872 53.2482 5.76036 53.6373 6.52486C54.4018 8.02672 55.4422 9.36572 56.6184 10.5735C59.0566 13.0797 62.0151 14.9841 64.6072 17.3138C67.5973 19.9963 69.8863 23.2896 69.927 27.4378C69.9677 31.6629 67.9094 35.5487 64.6072 38.1001ZM83.774 52.4265C83.6744 51.074 83.5749 49.7169 83.4709 48.3643C87.0672 49.4952 90.8354 50.7528 94.5448 51.4042C90.9666 51.4766 87.316 51.9561 83.7694 52.4265H83.774Z" fill="#08111F"/>
<path d="M18.7237 66.1649C17.7692 64.5726 16.0457 63.2924 14.105 63.6588C8.91186 64.6495 10.0156 72.2719 12.2368 75.2937C12.4539 75.5878 12.9289 75.3344 12.7389 74.9997C11.8025 73.3395 11.2461 71.4079 11.3592 69.4898C11.4904 67.219 12.766 64.161 15.5481 64.9255C19.7732 66.0835 18.2668 72.005 18.7101 75.1716C18.7961 75.7732 19.7596 75.6149 19.7551 75.0313C19.728 72.1769 20.2572 68.7434 18.7192 66.1695L18.7237 66.1649Z" fill="#08111F"/>
<path d="M90.0574 65.3642C86.9678 66.8525 88.4018 72.4528 89.3879 74.7644C89.5327 75.1082 90.0755 74.8594 89.9805 74.5156C89.4105 72.4709 88.5737 69.44 89.596 67.4089C90.555 65.509 92.5726 66.1875 93.3778 67.8296C93.8845 68.87 93.7985 70.0191 94.1016 71.1047C94.2056 71.4802 94.848 71.5345 94.9159 71.1047C95.3139 68.567 93.4366 63.7312 90.0529 65.3597L90.0574 65.3642Z" fill="#08111F"/>
<path d="M40.6273 34.2595C40.0618 33.8478 39.5733 33.2688 39.2069 32.6762C38.8721 32.1289 38.7319 31.5227 38.4559 30.9572C38.3066 30.6496 37.8317 30.8079 37.8317 31.1246C37.8362 32.6446 39.1752 33.9609 40.4011 34.644C40.659 34.7888 40.8535 34.4269 40.6273 34.2595Z" fill="#08111F"/>
<path d="M39.6774 31.2874C39.0939 30.3962 38.9582 29.4734 38.9582 28.4284C38.9582 28.1118 38.456 28.0258 38.3927 28.3515C38.1575 29.5141 38.5872 30.6676 39.32 31.5633C39.4874 31.7669 39.8267 31.5 39.6819 31.2829L39.6774 31.2874Z" fill="#08111F"/>
<path d="M56.9125 11.7044C55.9535 11.2837 55.1121 10.8539 54.5511 9.92658C54.3657 9.6235 53.9042 9.89492 54.0761 10.207C54.619 11.1977 55.6187 12.0934 56.7949 12.1613C57.0256 12.1748 57.1387 11.8039 56.917 11.7089L56.9125 11.7044Z" fill="#08111F"/>
<path d="M57.9802 13.894C56.9171 13.2923 55.8812 12.6771 54.9267 11.9081C54.7684 11.7814 54.5377 11.9986 54.696 12.1388C55.6279 12.9621 56.6457 13.713 57.7766 14.2378C58.0073 14.3463 58.2063 14.0206 57.9802 13.894Z" fill="#08111F"/>
<path d="M71.2119 31.3463C71.1712 31.1428 70.8545 31.1518 70.8047 31.3463C70.5469 32.441 70.4247 33.3774 69.6874 34.2912C69.5064 34.5129 69.8095 34.8341 70.0086 34.6124C70.7731 33.771 71.4426 32.5134 71.2073 31.3418L71.2119 31.3463Z" fill="#08111F"/>
<path d="M72.9263 28.6455C72.8313 28.4148 72.5282 28.4555 72.4966 28.7043C72.4106 29.4145 72.5418 30.1474 72.4785 30.8711C72.397 31.7849 72.1573 32.6444 71.7909 33.4858C71.6913 33.7165 72.017 33.9201 72.1347 33.6894C72.8404 32.3006 73.5551 30.179 72.9263 28.65V28.6455Z" fill="#08111F"/>
<path d="M80.6255 26.3566C80.4128 26.2752 80.2771 26.6099 80.4717 26.7185C81.3673 27.2071 81.9645 28.0666 82.2721 29.0256C82.349 29.2653 82.7652 29.2382 82.7335 28.9623C82.5887 27.7273 81.7654 26.7999 80.6209 26.3566H80.6255Z" fill="#08111F"/>
<path d="M83.1046 40.9635C82.2722 41.7461 81.5303 42.3749 80.3089 42.2708C80.0692 42.2482 80.0104 42.6553 80.2501 42.696C81.4489 42.8815 83.0186 42.4246 83.4846 41.1851C83.5705 40.959 83.2584 40.8187 83.1046 40.9635Z" fill="#08111F"/>
<path d="M83.4077 39.7331C83.1996 40.3845 82.4939 40.9138 81.8018 40.6197C81.5756 40.5247 81.372 40.8369 81.6027 40.959C82.4984 41.443 83.8329 40.8776 83.86 39.7919C83.8646 39.5295 83.4891 39.4933 83.4122 39.7331H83.4077Z" fill="#08111F"/>
<path d="M22.225 42.3749C21.1574 42.1804 20.3884 41.4475 19.9587 40.4704C19.8411 40.2035 19.4565 40.4026 19.5108 40.6604C19.7642 41.9089 20.9267 42.7549 22.1617 42.8272C22.4196 42.8408 22.4784 42.4201 22.225 42.3749Z" fill="#08111F"/>
<path d="M22.32 41.5291C21.3791 40.6832 20.8408 39.5839 20.5784 38.358C20.5241 38.1002 20.0944 38.1499 20.1125 38.4214C20.2075 39.8282 20.9539 41.0179 22.0667 41.8593C22.2567 42.0041 22.5055 41.6829 22.3246 41.5246L22.32 41.5291Z" fill="#08111F"/>
<path d="M25.1698 23.0181C25.0612 23.9229 24.4008 24.6919 23.487 24.8231C23.3106 24.8502 23.3513 25.1443 23.5277 25.1307C24.6224 25.0493 25.5905 24.1445 25.5407 23.0136C25.5317 22.7693 25.1969 22.7829 25.1698 23.0136V23.0181Z" fill="#08111F"/>
<path d="M34.2715 23.2126C33.4844 24.0902 32.9235 25.4156 33.308 26.5918C33.3759 26.8044 33.7061 26.7727 33.7061 26.5375C33.7061 25.384 33.7694 24.4023 34.5068 23.4478C34.6334 23.285 34.4163 23.0452 34.2715 23.2126Z" fill="#08111F"/>
<path d="M26.6266 22.3849C26.2964 23.1041 26.0702 23.8596 25.8259 24.6105C25.7445 24.8684 26.1245 24.9588 26.224 24.7191C26.5135 24.0043 26.8166 23.2941 27.0202 22.5477C27.0835 22.3215 26.7307 22.1542 26.6266 22.3803V22.3849Z" fill="#08111F"/>
<path d="M30.7657 35.1326C30.5576 34.1645 30.44 33.2055 30.5214 32.2193C30.544 31.9253 30.0962 31.9344 30.0645 32.2193C29.9514 33.2507 30.0012 34.2686 30.3269 35.2547C30.4173 35.5352 30.829 35.4221 30.7657 35.1326Z" fill="#08111F"/>
<path d="M56.2158 25.0403C55.9715 24.5744 55.6911 24.1311 55.4151 23.6832C55.2568 23.4254 54.8632 23.6561 55.008 23.923C55.2568 24.3844 55.5011 24.8503 55.7815 25.2982C55.9534 25.5741 56.3651 25.3298 56.2158 25.0449V25.0403Z" fill="#08111F"/>
<path d="M74.7493 35.0601C74.591 34.852 74.2833 35.1144 74.401 35.3315C74.7312 35.9377 74.5819 36.7972 73.9984 37.1953C73.7315 37.3762 73.9712 37.806 74.2562 37.6341C75.1609 37.0777 75.4007 35.9015 74.7493 35.0646V35.0601Z" fill="#08111F"/>
<path d="M46.7795 47.1339C45.8793 47.0796 44.9745 47.1203 44.0743 47.1339C43.7893 47.1384 43.7893 47.5682 44.0743 47.5727C44.9745 47.5862 45.8793 47.627 46.7795 47.5727C47.0645 47.5546 47.0645 47.1475 46.7795 47.1339Z" fill="#08111F"/>
<path d="M47.8607 46.3738C46.6936 46.2471 45.522 46.1567 44.3504 46.0888C44.1468 46.0752 44.1558 46.3829 44.3504 46.4009C45.522 46.5367 46.6891 46.6498 47.8607 46.7267C48.0914 46.7402 48.0824 46.3964 47.8607 46.3738Z" fill="#08111F"/>
<path d="M34.9772 57.3301C34.95 57.1989 34.7238 57.226 34.7374 57.3618C34.8324 58.2801 34.8234 59.1577 34.5746 60.0533C34.5384 60.1845 34.7374 60.2343 34.7736 60.1076C35.0496 59.2074 35.1536 58.2574 34.9727 57.3256L34.9772 57.3301Z" fill="#08111F"/>
<path d="M35.6014 57.1899C35.4385 56.9818 35.1581 57.2487 35.2531 57.4568C35.6376 58.2801 35.8864 59.0944 35.7507 60.0081C35.7145 60.2479 36.0628 60.3565 36.1216 60.1122C36.3659 59.0989 36.2528 58.0222 35.5969 57.1899H35.6014Z" fill="#08111F"/>
<path d="M16.5388 54.2271C15.9326 54.0597 15.2224 54.1547 14.6027 54.1818C14.3403 54.1909 14.3403 54.5754 14.6027 54.5889C15.2224 54.6161 15.9326 54.7111 16.5388 54.5437C16.6971 54.4985 16.6971 54.2678 16.5388 54.2271Z" fill="#08111F"/>
<path d="M15.4576 55.8644C14.39 55.611 13.2998 55.4708 12.2187 55.2989C11.9608 55.2582 11.8477 55.6427 12.1101 55.697C13.2048 55.9051 14.295 56.1448 15.4033 56.2715C15.6385 56.2986 15.6838 55.9141 15.4576 55.8644Z" fill="#08111F"/>
<path d="M85.009 58.6781C84.9547 58.4927 84.629 58.5153 84.6561 58.7279C84.7692 59.6507 85.0542 60.56 85.2668 61.4647C85.3075 61.6366 85.5564 61.5597 85.5247 61.3923C85.3664 60.4966 85.2668 59.5557 85.009 58.6826V58.6781Z" fill="#08111F"/>
<path d="M86.1263 56.7737C86.0811 56.5611 85.7509 56.6109 85.7509 56.8235C85.7644 57.7418 85.9499 58.6601 86.0856 59.5648C86.1128 59.7322 86.3977 59.696 86.3842 59.5241C86.3208 58.6058 86.3073 57.6739 86.1218 56.7737H86.1263Z" fill="#08111F"/>
<path d="M91.6136 62.8537C91.4688 62.8944 91.5322 63.098 91.6724 63.0754C92.654 62.9125 93.4004 63.9349 93.2421 64.8441C93.1924 65.1201 93.5543 65.2151 93.6583 64.9572C94.1514 63.763 92.7626 62.5461 91.6136 62.8537Z" fill="#08111F"/>
<path d="M78.029 55.9189C77.9205 55.747 77.6264 55.8556 77.6897 56.0637C77.9838 56.9684 78.115 57.7736 77.7847 58.6965C77.7305 58.8457 77.9702 58.9453 78.0381 58.805C78.4588 57.9184 78.5628 56.792 78.029 55.9235V55.9189Z" fill="#08111F"/>
<path d="M78.2778 53.3494C78.0742 53.2408 77.7802 53.476 77.934 53.6932C78.3276 54.2496 78.8161 54.6929 79.1192 55.3217C79.472 56.05 79.6213 56.8236 79.5806 57.6288C79.5716 57.8142 79.8882 57.864 79.9154 57.674C80.1234 56.2083 79.7073 54.1184 78.2733 53.3494H78.2778Z" fill="#08111F"/>
<path d="M70.7323 67.7981C70.004 68.3952 69.8638 69.4085 70.375 70.1911C70.5152 70.4037 70.8319 70.2182 70.7143 69.9921C70.3976 69.3723 70.5197 68.5671 70.9811 68.0559C71.1395 67.8795 70.9042 67.6579 70.7278 67.8026L70.7323 67.7981Z" fill="#08111F"/>
<path d="M72.0351 66.6625C71.4017 67.1827 71.3384 68.1417 71.7636 68.8112C71.9084 69.0374 72.2477 68.8384 72.121 68.6031C71.8315 68.0603 71.9717 67.4496 72.3698 67.0063C72.5779 66.771 72.2658 66.4725 72.0305 66.667L72.0351 66.6625Z" fill="#08111F"/>
<path d="M49.1137 53.4761C48.3673 54.2496 47.9964 55.2087 47.9873 56.2808C47.9873 56.4527 48.2406 56.4481 48.2497 56.2808C48.3085 55.3172 48.693 54.4125 49.3218 53.6842C49.4439 53.5439 49.2449 53.3404 49.1137 53.4761Z" fill="#08111F"/>
<path d="M53.6193 57.2803C53.5334 57.1899 53.4022 57.3256 53.4836 57.416C54.0898 58.1217 54.3115 58.9405 54.4426 59.8452C54.4743 60.0579 54.8272 60.0081 54.8181 59.7955C54.7774 58.8319 54.2798 57.9679 53.6239 57.2848L53.6193 57.2803Z" fill="#08111F"/>
<path d="M48.6704 72.3578C47.7656 72.299 46.8699 72.3397 45.9652 72.3668C45.7888 72.3713 45.7888 72.6337 45.9652 72.6382C46.8699 72.6699 47.7656 72.7061 48.6704 72.6473C48.8604 72.6337 48.8604 72.3668 48.6704 72.3532V72.3578Z" fill="#08111F"/>
<path d="M34.466 69.4988C34.1855 68.2594 33.118 67.3591 31.9282 67.0153C31.8197 66.9837 31.7382 67.1556 31.8468 67.2053C32.928 67.6939 33.5929 68.6032 34.0498 69.6707C34.1539 69.915 34.5158 69.7341 34.4615 69.4988H34.466Z" fill="#08111F"/>
<path d="M31.969 68.3408C31.8423 68.2413 31.6795 68.4539 31.7971 68.5624C32.6566 69.3676 32.8737 70.5438 32.5751 71.6566C32.5163 71.8828 32.8647 72.0457 32.9642 71.8195C33.5161 70.5528 33.0501 69.1641 31.969 68.3363V68.3408Z" fill="#08111F"/>
<path d="M13.4309 69.9647C13.1098 69.5349 13.1414 68.9875 13.4219 68.5442C13.5486 68.3452 13.2636 68.1371 13.1007 68.2954C12.5533 68.8247 12.6076 69.6751 13.0917 70.227C13.25 70.4125 13.5847 70.1637 13.4355 69.9647H13.4309Z" fill="#08111F"/>
</svg>
