<svg width="96" height="80" viewBox="0 0 96 80" fill="none" xmlns="http://www.w3.org/2000/svg">
<path d="M95.299 59.8747C94.9506 54.945 94.2193 50.0368 93.1654 45.2103C92.8643 43.8295 91.4534 42.2723 90.0037 42.0486C88.8552 41.8722 87.7023 41.6959 86.5538 41.5195C86.5366 39.5924 86.5194 37.6609 86.5022 35.7338C86.4807 33.1442 84.4546 31.4708 82.0155 31.2471C80.1357 31.0751 78.2602 30.9804 76.3847 30.946C76.2298 29.4577 76.1653 27.965 76.1868 26.4465C76.2169 23.9343 74.1177 22.1491 71.7389 21.9986C70.9775 21.9513 70.2204 21.904 69.459 21.8566C69.3558 20.8027 69.3041 19.7445 69.2998 18.6562C69.2912 16.3204 67.2867 14.1696 64.8863 14.2427C64.4132 14.2556 63.9357 14.2728 63.4625 14.2857C63.4109 13.2748 63.342 12.2682 63.2345 11.253C63.0108 9.12373 61.9956 7.80742 60.0212 7.03312C59.6942 6.90407 59.3716 6.80944 59.049 6.72771L59.2039 4.41772C59.3673 2.00879 57.0917 0.210696 54.8893 0.103154C49.5983 -0.154945 44.4578 0.0644396 39.2184 0.838738C36.9772 1.16997 36.005 3.88001 36.4051 5.79425C36.6116 6.77502 36.818 7.7515 37.0245 8.73228C35.2651 9.26568 33.652 10.9949 33.8757 12.8662C34.0134 13.9932 34.1424 15.1202 34.2758 16.2473C32.6755 16.3075 31.1398 16.6043 29.9999 17.5292C28.3051 18.9057 28.0384 21.1254 28.1201 23.3536C25.4359 23.7537 23.0183 24.7603 22.7946 27.9392C22.7215 28.9931 22.7516 30.4556 22.9538 31.9698C20.9707 31.9182 18.9533 32.0301 16.996 32.0128C14.7849 31.9913 12.1911 34.1035 12.4922 36.5167C12.6771 38.0008 12.8019 39.4848 12.7202 40.9775C12.6986 41.356 12.6642 41.7303 12.6169 42.1088C12.29 42.1346 11.9975 42.1605 11.877 42.1562C10.7844 42.1346 9.70899 42.04 8.62498 41.911C5.45896 41.5367 3.82863 45.0684 4.28461 47.6107C4.63734 49.5894 4.93846 51.5725 5.20516 53.5598C4.92555 53.534 4.64595 53.5082 4.36634 53.4738C2.1811 53.1899 -0.19772 55.7021 0.0130615 57.8271C0.654008 64.2237 1.32937 71.5021 4.06522 77.3867C5.11052 79.6322 7.54956 79.0084 8.74973 77.4728C12.0276 77.8943 15.2925 78.0019 18.5704 77.804C35.7039 78.3847 52.8331 78.9654 69.9666 79.5462C77.7268 79.8086 89.2939 81.9852 93.9053 73.7647C96.1895 69.6911 95.6131 64.3441 95.2948 59.8833L95.299 59.8747Z" fill="white"/>
<path d="M91.32 65.9744C86.0935 65.6259 80.7853 65.8109 75.5501 65.8582C70.3709 65.9012 65.1788 65.9529 60.0125 66.4045C59.7157 63.8666 59.3587 61.3372 59.1006 58.8723C58.9931 57.8571 58.8769 56.8463 58.7694 55.8311C63.8969 56.0806 69.046 55.8741 74.1779 55.7149C79.4087 55.5515 84.7342 55.5601 89.9392 54.9965C90.6317 54.9234 90.6705 53.891 89.9392 53.8867C84.6998 53.8566 79.4216 54.3126 74.1779 54.489C69.0159 54.661 63.841 54.6825 58.6876 55.0826C58.365 52.1488 58.0252 49.2194 57.6681 46.29C63.1097 46.4793 68.5599 46.2599 74.0015 46.0491C79.1592 45.8512 84.6481 46.0147 89.7327 45.0812C90.3091 44.9737 90.137 44.1263 89.5993 44.1004C88.5368 44.0488 87.4657 44.0488 86.3946 44.066C86.5323 43.9972 86.6398 43.8639 86.6398 43.6789C86.6398 40.1558 86.2871 36.5855 86.1967 33.0538C86.1881 32.6623 85.702 32.6537 85.5773 32.9678C85.5515 32.9635 85.53 32.9506 85.5042 32.9506C82.5059 32.7828 79.4948 32.7441 76.4836 32.7484C76.4836 32.7312 76.4879 32.7226 76.4879 32.7054C76.2771 30.0426 75.9889 27.367 75.5372 24.7344C75.5157 24.6225 75.4469 24.5537 75.3609 24.5193C75.3307 24.2999 75.1716 24.102 74.8662 24.0805C72.9863 23.9558 71.0764 23.9859 69.1708 24.0504C69.0374 21.4178 68.7793 18.8927 68.9643 16.2343C68.9944 15.7869 68.2631 15.6837 68.1728 16.1268C67.6566 18.6518 67.4501 21.5383 68.0739 24.0891C67.02 24.1279 65.966 24.1709 64.9207 24.1924C61.6128 24.2612 58.2833 24.2354 54.9839 24.4806C54.9151 24.4849 54.8549 24.5064 54.7989 24.5279C54.3989 21.8695 53.9644 19.2197 53.474 16.5828C58.0983 16.957 63.0581 17.2323 67.6652 16.7032C68.276 16.6344 68.3061 15.7654 67.6652 15.731C66.0521 15.6407 64.4304 15.6106 62.8 15.5977C62.8 15.5977 62.8 15.5977 62.8 15.5934C62.9076 13.3135 62.2967 10.8615 61.9225 8.62469C61.8666 8.28486 61.3547 8.38379 61.3461 8.70212C61.3461 8.73653 61.3461 8.76664 61.3461 8.80105C61.2944 8.77524 61.2342 8.75804 61.1697 8.74943C60.0685 8.672 58.9672 8.57737 57.866 8.53865C58.8597 6.53838 59.3071 3.4756 57.9348 1.54416C57.9305 1.53556 57.9219 1.53556 57.9176 1.52695C57.9262 1.24304 57.7499 0.954833 57.3842 0.950531C51.9082 0.924721 46.3935 0.787068 40.9175 0.993547C40.8143 0.881704 40.6594 0.821481 40.4615 0.881704C40.3239 0.920419 40.1948 0.972039 40.0787 1.02796C40.0184 1.02796 39.9582 1.02796 39.9023 1.03656C39.627 1.04947 39.485 1.23874 39.4549 1.44092C37.9063 2.90348 39.2183 6.22436 39.0592 8.05687C38.1988 7.94502 37.2869 7.94502 36.4825 7.8891C36.1427 7.86329 35.9921 8.27195 36.1082 8.52575C36.0781 8.57737 36.0609 8.64189 36.0566 8.71502C35.9233 10.7798 35.5662 13.3264 36.0523 15.3482C36.0738 15.4385 36.1211 15.503 36.1814 15.5547C34.6586 15.6923 33.1487 15.8859 31.7119 16.0752C31.4409 16.1096 31.2904 16.316 31.2517 16.5354C31.1054 16.5569 30.985 16.6516 30.9592 16.8366C30.6709 18.8454 30.4387 21.4436 30.9678 23.4826C28.8686 23.4009 26.6704 23.289 24.7433 23.8569C24.4594 23.9386 24.4594 24.3515 24.7433 24.4333C24.7906 24.4462 24.8379 24.4548 24.8852 24.4677C24.3733 26.8723 23.913 30.0168 24.5239 32.4215C21.6504 32.4128 18.7726 32.4301 15.9077 32.572C15.499 32.5935 15.3614 32.985 15.4861 33.2646C15.4646 33.3076 15.4474 33.3549 15.4431 33.4108C15.3097 35.5402 15.314 37.691 15.3312 39.8246C15.3398 40.7236 15.0258 42.5562 15.4044 43.4466C12.419 43.4724 9.42506 43.2788 6.93441 42.1733C6.57737 42.0141 6.25474 42.2593 6.19882 42.5476C5.95793 42.5691 5.72564 42.7325 5.74715 43.0078C5.99234 46.2857 6.05257 50.0281 6.89999 53.2415C6.80536 53.719 6.83977 54.2309 7.15809 54.5363C6.07407 54.5836 4.98575 54.6352 3.90174 54.6911C3.45867 54.7126 3.46297 55.345 3.90174 55.3751C13.8128 56.0419 23.8958 55.3192 33.7767 54.4029C33.8757 54.4373 33.9832 54.4545 34.0865 54.4545C32.34 61.3114 30.6021 68.1682 28.9417 75.0466C28.7653 75.7736 29.8751 76.0833 30.0687 75.3563C32.9293 64.4172 35.6049 53.4264 38.3537 42.4572C39.0893 39.5149 39.8765 36.5682 40.668 33.613C40.7884 33.4668 40.8315 33.2947 40.797 33.1226C42.8963 25.2893 45.017 17.4044 46.3247 9.47211C46.3505 9.31725 46.2688 9.20971 46.1612 9.16239C46.8882 9.1839 47.6195 9.19681 48.3465 9.20971C45.4084 20.0413 43.1587 31.0879 40.6336 42.0228C38.0956 53.0307 35.5189 64.03 33.0024 75.0466C32.8863 75.5542 33.6649 75.7692 33.7853 75.2617C36.3405 64.258 38.8355 53.2372 41.3649 42.2249C43.8856 31.2471 46.7032 20.2865 48.8024 9.21832C49.5939 9.23122 50.3897 9.23552 51.1812 9.23552C52.4846 20.4327 54.5925 31.5525 56.0077 42.7411C56.7089 48.2817 57.3498 53.8265 57.9262 59.3799C58.4812 64.7441 58.4726 70.4051 59.5566 75.6832C59.6727 76.2381 60.49 76.0833 60.5115 75.5542C60.6234 72.8097 60.4083 69.9921 60.0943 67.1788C65.2434 67.2907 70.3924 67.1186 75.5415 67.0799C80.7896 67.0412 86.0677 67.2821 91.3114 67.11C92.0427 67.0842 92.0341 66.0303 91.3114 65.983L91.32 65.9744ZM34.422 53.1081C34.1123 53.1382 33.8026 53.1597 33.4928 53.1856C33.4283 53.1769 33.3638 53.1856 33.3079 53.2028C24.825 53.9469 16.3421 54.1405 7.84636 54.5062C7.86356 54.4674 7.88077 54.433 7.88507 54.39C7.90658 54.1921 7.85496 53.9986 7.79043 53.8093C7.82055 53.7534 7.84636 53.6931 7.85066 53.62C8.04853 50.2733 7.24843 46.5266 6.71932 43.1885C10.5263 45.2404 15.7872 44.4575 19.9426 44.5134C25.4788 44.5865 31.0151 44.664 36.5513 44.7371C35.8415 47.5289 35.1318 50.3249 34.4177 53.1167L34.422 53.1081ZM37.2095 42.1432C37.0933 42.5992 36.9772 43.0594 36.861 43.5154C36.8395 43.5154 36.8266 43.5025 36.8051 43.5025C31.8453 43.438 26.8855 43.3735 21.9257 43.3046C20.3642 43.2831 18.6736 43.3649 16.9444 43.4122C16.9358 43.3391 16.9185 43.2659 16.8884 43.1842C16.8282 43.0293 16.7035 42.9347 16.5658 42.8917C16.6217 42.7196 16.6002 42.4959 16.4841 42.2249C16.4798 41.9582 16.4712 41.6915 16.4669 41.4248C16.4454 40.4871 16.4196 39.5536 16.3808 38.6201C16.3077 36.9296 16.2475 35.2347 16.0797 33.5485C20.162 33.7464 24.2658 33.6646 28.3524 33.6646C30.344 33.6646 32.34 33.6646 34.3317 33.6646C35.3296 33.6646 36.3233 33.6646 37.3213 33.6646H38.8183C38.9774 33.7249 39.1151 33.755 39.2398 33.7722C38.5774 36.5769 37.9149 39.3729 37.2138 42.1389L37.2095 42.1432ZM39.5625 32.3956C38.9817 32.344 38.3365 32.4473 37.816 32.443C35.3253 32.4301 32.8347 32.443 30.3397 32.443C28.6965 32.443 27.0533 32.4301 25.4057 32.4215C25.5993 31.2127 25.4702 29.9566 25.4831 28.7349C25.4961 27.367 25.5864 26.0077 25.6294 24.6398C27.9437 25.0742 30.5677 24.7473 32.8734 24.7516C35.7125 24.7516 38.5559 24.7645 41.395 24.7387C40.7669 27.2853 40.1647 29.8405 39.5625 32.3913V32.3956ZM41.6918 23.5471C38.7538 23.5127 35.8114 23.5256 32.8734 23.5299C32.5852 23.5299 32.2927 23.5256 31.9959 23.517C32.0389 22.4846 31.8453 21.4178 31.8023 20.3854C31.755 19.2799 31.7851 18.1787 31.7808 17.0731C35.6867 16.729 39.7001 16.8753 43.5845 16.4451C42.9135 18.7981 42.294 21.1683 41.6961 23.5471H41.6918ZM45.7956 9.33016C45.0901 11.395 44.4362 13.4813 43.8254 15.5891C41.5799 15.2664 39.1796 15.3138 36.8094 15.503C36.8438 15.46 36.8739 15.4084 36.8868 15.3482C37.3643 13.3565 37.0245 10.8572 36.8868 8.80966C38.0139 8.99893 39.2355 9.24843 40.3325 9.09357C40.44 9.08066 40.5131 9.02904 40.5562 8.96022C42.3413 9.03334 44.1394 9.10647 45.9461 9.15379C45.8816 9.1796 45.8257 9.23552 45.7956 9.32586V9.33016ZM39.9152 8.16011C40.4443 6.18565 38.9172 3.49281 40.5346 2.01734C46.0279 2.24103 51.5641 2.10768 57.0616 2.07326C57.2509 3.02393 57.5864 3.87996 57.595 4.88655C57.6036 6.00498 57.3455 7.07609 56.9025 8.09558C56.8981 8.10419 56.9024 8.11709 56.8938 8.12569C56.8336 8.09988 56.7691 8.07838 56.6917 8.07838C51.1511 7.79447 45.4643 7.95793 39.9152 8.16011ZM51.9469 9.23122C53.4482 9.22262 54.9495 9.1925 56.4379 9.12798C56.4766 9.16669 56.5239 9.19681 56.5927 9.20541C58.1069 9.46781 59.6383 9.57535 61.1654 9.7087C61.2213 9.71301 61.2686 9.7001 61.3159 9.6915C61.26 11.6488 61.2815 13.7652 61.8666 15.5977C59.0017 15.5977 56.1325 15.6536 53.2934 15.6235C52.8847 13.4813 52.4459 11.3433 51.9512 9.22692L51.9469 9.23122ZM54.9452 25.5302C54.9452 25.5302 54.9667 25.5388 54.9796 25.5388C58.2876 25.6506 61.6085 25.4915 64.9164 25.427C68.2072 25.3667 71.584 25.4958 74.8533 25.143C74.8533 25.143 74.8533 25.143 74.8576 25.143C74.9221 27.6681 75.1415 30.2061 75.4254 32.714C75.4254 32.7312 75.4383 32.7441 75.4426 32.7613C73.8768 32.7699 72.311 32.7871 70.7495 32.8086C65.8671 32.8731 60.8944 32.8602 56.0464 33.4926C55.698 30.8384 55.3366 28.18 54.9452 25.5302ZM57.1089 41.7345C56.7906 39.2568 56.4723 36.7704 56.1497 34.2798C61.0062 34.4174 65.8929 34.0776 70.7495 34.0303C75.6405 33.9787 80.5272 34.1335 85.4181 34.1249C85.0826 37.2952 85.0525 40.7452 85.7451 43.8036C85.7752 43.9413 85.8569 44.0273 85.9558 44.0746C81.8091 44.1779 77.5934 44.6812 73.4939 44.8446C68.1814 45.0511 62.8645 45.0898 57.5563 45.3952C57.4057 44.1736 57.2638 42.9519 57.1089 41.7345Z" fill="#08111F"/>
<path d="M30.6322 65.342C26.3435 65.4194 22.0719 65.755 17.7703 65.7249C13.4772 65.6947 9.20566 65.385 4.9212 65.1785C4.40931 65.1527 4.27596 66.0131 4.79646 66.0862C13.146 67.2519 22.2569 67.5445 30.6279 66.4604C31.3162 66.3701 31.3721 65.3291 30.6279 65.342H30.6322Z" fill="#08111F"/>
<path d="M53.8956 42.1433C52.8159 31.2472 52.033 20.1704 50.2263 9.36896C50.1962 9.17969 49.8779 9.2227 49.8908 9.41628C50.4844 20.4973 52.0287 31.5999 53.1041 42.6509C54.1838 53.7362 55.0441 64.8431 56.154 75.9242C56.2099 76.4662 57.053 76.4791 57.01 75.9242C56.2013 64.6539 55.0097 53.3921 53.8956 42.1476V42.1433Z" fill="#08111F"/>
<path d="M37.6396 63.8535C36.9212 64.7827 36.6631 65.9183 36.9514 67.0625C36.9858 67.1959 37.2052 67.1744 37.1966 67.0281C37.1492 65.9613 37.3686 64.9418 37.9106 64.0127C38.0139 63.832 37.7601 63.6986 37.6396 63.8535Z" fill="#08111F"/>
<path d="M38.3279 62.7697C37.9106 63.7118 37.7386 64.684 37.8676 65.7121C37.8891 65.8927 38.173 65.9013 38.1558 65.7121C38.0698 64.7571 38.2332 63.8279 38.6806 62.9805C38.8054 62.7439 38.4311 62.5374 38.3279 62.774V62.7697Z" fill="#08111F"/>
<path d="M51.7534 38.491C51.7792 38.2931 51.5039 38.1985 51.4437 38.405C51.0824 39.5836 51.0824 40.8397 51.2372 42.0528C51.263 42.255 51.577 42.2636 51.5598 42.0528C51.4609 40.844 51.5899 39.6869 51.7534 38.491Z" fill="#08111F"/>
<path d="M50.6952 37.3813C50.4156 38.4094 50.3424 39.4848 50.5059 40.543C50.5274 40.6678 50.7253 40.6377 50.7253 40.5129C50.7124 39.4762 50.7941 38.4825 51.0135 37.4674C51.0565 37.2609 50.7511 37.1748 50.6995 37.3813H50.6952Z" fill="#08111F"/>
<path d="M47.6796 19.6241C47.2322 20.5618 47.1376 21.534 47.3011 22.5578C47.3226 22.7041 47.5635 22.6696 47.5549 22.5234C47.5119 21.5727 47.6667 20.6393 47.9334 19.7316C47.9764 19.5811 47.7484 19.4778 47.6796 19.6241Z" fill="#08111F"/>
<path d="M44.2211 44.3671C44.1006 45.3092 44.0318 46.247 43.9673 47.1933C43.9501 47.4299 44.3028 47.417 44.3286 47.1933C44.4405 46.2513 44.5437 45.3135 44.5996 44.3671C44.6125 44.1176 44.2469 44.1305 44.2168 44.3671H44.2211Z" fill="#08111F"/>
<path d="M50.7295 68.2843C50.7209 68.1252 50.4843 68.1209 50.48 68.2843C50.4542 68.8866 50.4585 69.4845 50.4671 70.0824C50.4671 70.2588 50.7381 70.2588 50.7424 70.0824C50.751 69.4802 50.7553 68.8822 50.7295 68.2843Z" fill="#08111F"/>
<path d="M67.5749 68.6241C66.4694 68.551 65.3424 68.6069 64.2325 68.6327C64.0218 68.637 64.0218 68.9554 64.2325 68.9597C65.3424 68.9855 66.4694 69.0414 67.5749 68.9683C67.7986 68.9554 67.7986 68.637 67.5749 68.6198V68.6241Z" fill="#08111F"/>
<path d="M69.3773 69.3856C67.919 69.3254 66.4651 69.3555 65.0068 69.4114C64.8003 69.42 64.8003 69.7211 65.0068 69.7297C66.4651 69.79 67.919 69.8158 69.3773 69.7556C69.6182 69.7469 69.6182 69.3942 69.3773 69.3856Z" fill="#08111F"/>
<path d="M88.3777 59.4789C88.2873 59.2165 87.8787 59.3198 87.9561 59.5951C88.1841 60.4296 88.283 61.2512 88.1884 62.1115C88.1626 62.3395 88.5583 62.3954 88.5928 62.1674C88.7175 61.2598 88.6831 60.3521 88.382 59.4789H88.3777Z" fill="#08111F"/>
<path d="M70.3795 51.9897C69.3557 52.2005 68.362 52.3124 67.321 52.2005C67.1834 52.1876 67.149 52.4242 67.2866 52.4414C68.3448 52.5877 69.4202 52.5705 70.4483 52.2435C70.6118 52.1919 70.543 51.9553 70.3795 51.9897Z" fill="#08111F"/>
<path d="M71.4936 51.0993C70.3795 50.7939 69.2396 50.7552 68.0953 50.8972C67.8716 50.923 67.863 51.2757 68.0953 51.2542C69.2138 51.1424 70.2978 51.237 71.3947 51.4607C71.6313 51.508 71.7302 51.1639 71.4936 51.0993Z" fill="#08111F"/>
<path d="M58.9371 42.2938C58.5929 41.3775 58.3908 40.457 58.2703 39.4848C58.2402 39.2482 57.8789 39.2353 57.8875 39.4848C57.9305 40.5086 58.2144 41.4894 58.6618 42.4056C58.7349 42.5562 58.9973 42.4486 58.9371 42.2895V42.2938Z" fill="#08111F"/>
<path d="M59.7932 37.6868C59.7846 37.4459 59.4319 37.4459 59.4233 37.6868C59.3846 38.5428 59.419 39.3988 59.4405 40.2592C59.4448 40.4742 59.7674 40.4742 59.7717 40.2592C59.7975 39.4031 59.8276 38.5471 59.7889 37.6868H59.7932Z" fill="#08111F"/>
<path d="M73.8595 27.879C73.8294 27.7026 73.5283 27.7414 73.5412 27.922C73.61 28.7049 73.752 29.4878 73.8638 30.2664C73.8853 30.4084 74.1305 30.374 74.1133 30.232C74.0359 29.4491 73.9799 28.6576 73.8552 27.879H73.8595Z" fill="#08111F"/>
<path d="M72.7369 26.8165C72.6552 26.5713 72.281 26.6057 72.2767 26.8767C72.2724 27.7499 72.5606 28.6662 72.7283 29.5179C72.7714 29.7459 73.1714 29.6986 73.1413 29.462C73.0294 28.6016 73.0165 27.6381 72.7369 26.8122V26.8165Z" fill="#08111F"/>
<path d="M59.6039 22.6266C58.8339 22.5836 58.0768 22.4331 57.367 22.1233C57.1949 22.0459 57.0401 22.2954 57.2164 22.3814C57.9692 22.7557 58.7607 22.9579 59.6039 22.9364C59.8017 22.9321 59.8017 22.6395 59.6039 22.6266Z" fill="#08111F"/>
<path d="M61.1482 21.5254C60.4643 21.491 59.776 21.5082 59.092 21.5125C58.8726 21.5125 58.8726 21.848 59.092 21.8566C59.776 21.8781 60.4643 21.9083 61.1482 21.8867C61.3805 21.8781 61.3805 21.5383 61.1482 21.5254Z" fill="#08111F"/>
<path d="M57.8057 10.6249C57.5476 10.6249 57.2895 10.6249 57.0357 10.6206C56.9497 10.6206 56.9497 10.7583 57.0357 10.754H57.8057C57.8874 10.7497 57.8874 10.6249 57.8057 10.6249Z" fill="#08111F"/>
<path d="M44.4363 6.38786C43.933 6.41797 43.4426 6.37926 42.9738 6.17708C42.7931 6.09965 42.6296 6.35345 42.8146 6.44808C43.3437 6.71479 43.8986 6.83093 44.4836 6.7449C44.6858 6.71479 44.6385 6.37065 44.4363 6.38356V6.38786Z" fill="#08111F"/>
<path d="M46.2343 5.37275C45.2923 5.33404 44.3502 5.36845 43.4038 5.38996C43.2017 5.39426 43.2017 5.69968 43.4038 5.70398C44.3459 5.72549 45.288 5.7599 46.2343 5.72119C46.458 5.71258 46.458 5.38566 46.2343 5.37275Z" fill="#08111F"/>
<path d="M40.5777 11.0337C39.8938 10.9778 39.2098 10.9563 38.5215 10.9434C38.2849 10.9434 38.2892 11.2961 38.5215 11.309C39.2098 11.3434 39.8895 11.3692 40.5777 11.3606C40.7928 11.3606 40.7842 11.0509 40.5777 11.0337Z" fill="#08111F"/>
<path d="M41.0121 19.6628C40.7239 20.3898 40.6422 21.2157 40.5088 21.9814C40.4873 22.1147 40.6723 22.1706 40.7153 22.0373C40.939 21.2802 41.2315 20.493 41.2917 19.7015C41.3046 19.5294 41.068 19.5251 41.0121 19.6628Z" fill="#08111F"/>
<path d="M40.4357 18.1056C40.1217 18.9488 39.8894 19.8048 39.6485 20.6737C39.5926 20.8759 39.8937 20.9576 39.9582 20.7598C40.2378 19.9037 40.5131 19.0606 40.7153 18.1831C40.7583 17.9981 40.4959 17.9293 40.4314 18.1056H40.4357Z" fill="#08111F"/>
<path d="M31.1442 25.9819C30.3785 25.5776 29.4235 25.5001 28.6363 25.8959C28.4642 25.9819 28.5847 26.2443 28.7653 26.2013C29.5525 26.0077 30.2451 25.9991 31.0065 26.3131C31.1958 26.3906 31.3248 26.0765 31.1442 25.9819Z" fill="#08111F"/>
<path d="M31.3205 27.5089C30.4515 27.4788 29.5998 27.3111 28.7868 27.0013C28.6319 26.9411 28.5201 27.2035 28.675 27.2723C29.531 27.6337 30.3913 27.8144 31.3205 27.8101C31.5141 27.8101 31.5141 27.5175 31.3205 27.5132V27.5089Z" fill="#08111F"/>
<path d="M34.4047 41.911C33.5444 41.9454 32.7013 41.9109 31.8711 41.6701C31.6818 41.6184 31.6087 41.9023 31.7893 41.9626C32.654 42.2594 33.5444 42.3669 34.4392 42.1734C34.5854 42.1432 34.5553 41.9023 34.4047 41.9066V41.911Z" fill="#08111F"/>
<path d="M32.3485 41.1409C31.4925 41.128 30.6365 41.1366 29.7761 41.1495C29.6041 41.1495 29.6041 41.4162 29.7761 41.4205C30.6322 41.4377 31.4882 41.4463 32.3485 41.4291C32.5335 41.4291 32.5335 41.1452 32.3485 41.1409Z" fill="#08111F"/>
<path d="M22.0848 39.1622C21.6589 39.0632 21.2331 38.9772 20.8029 38.8912C20.6997 38.8696 20.6566 39.0288 20.7599 39.0503C21.19 39.1363 21.6159 39.2224 22.0504 39.2955C22.1364 39.3084 22.1708 39.1837 22.0848 39.1665V39.1622Z" fill="#08111F"/>
<path d="M12.6039 46.5954C11.92 46.2943 11.2059 46.2211 10.466 46.3244C10.3241 46.3459 10.3843 46.5567 10.5262 46.5395C11.2102 46.4448 11.8813 46.5395 12.5308 46.7675C12.6298 46.8019 12.7029 46.6384 12.6039 46.5954Z" fill="#08111F"/>
<path d="M13.8386 47.1977C12.7718 47.1246 11.7308 47.2235 10.6984 47.5117C10.436 47.5849 10.5435 47.9806 10.8102 47.9204C11.8125 47.6967 12.8191 47.6279 13.8386 47.7182C14.1698 47.7483 14.1741 47.2192 13.8386 47.1977Z" fill="#08111F"/>
<path d="M34.8306 48.9098C34.1682 49.4518 33.7208 50.196 33.4283 50.9918C33.3594 51.1724 33.6434 51.2456 33.7165 51.0692C34.0219 50.325 34.5037 49.7056 35.0457 49.1206C35.1833 48.9743 34.9812 48.785 34.8306 48.9055V48.9098Z" fill="#08111F"/>
<path d="M33.2735 48.1655C32.9637 48.8409 32.7357 49.5506 32.4949 50.2518C32.4432 50.3981 32.6669 50.454 32.7228 50.3163C32.9981 49.6367 33.2907 48.9656 33.4971 48.2601C33.5359 48.1311 33.3337 48.0365 33.2735 48.1655Z" fill="#08111F"/>
<path d="M30.0344 56.9193C29.8623 56.9193 29.6903 56.9193 29.5182 56.9236C29.458 56.9236 29.458 57.0183 29.5182 57.0183C29.6903 57.0183 29.8623 57.0183 30.0344 57.0226C30.1032 57.0226 30.1032 56.915 30.0344 56.915V56.9193Z" fill="#08111F"/>
<path d="M30.0342 58.3303C29.2599 58.3088 28.4942 58.3088 27.7199 58.3346C27.492 58.3432 27.492 58.6788 27.7199 58.6874C28.4942 58.7132 29.2599 58.7175 30.0342 58.6917C30.2665 58.6831 30.2665 58.3389 30.0342 58.3303Z" fill="#08111F"/>
<path d="M31.3205 57.0915C30.2064 57.0442 29.0922 57.0614 27.9781 57.0743C27.7802 57.0743 27.7802 57.3797 27.9781 57.384C29.0922 57.3969 30.2064 57.4141 31.3205 57.3668C31.4926 57.3582 31.4926 57.1044 31.3205 57.0958V57.0915Z" fill="#08111F"/>
<path d="M14.6085 59.9091C13.7137 59.7973 12.8534 59.879 11.9888 60.1414C11.7737 60.2059 11.864 60.5458 12.0834 60.4813C12.905 60.2318 13.7524 60.15 14.6085 60.2146C14.8063 60.2318 14.7977 59.9349 14.6085 59.9091Z" fill="#08111F"/>
<path d="M18.979 68.4909C18.0111 68.3618 17.0648 68.435 16.127 68.706C16.0539 68.7275 16.084 68.8393 16.1571 68.8178C17.0777 68.5554 18.0111 68.4866 18.9618 68.6156C19.0521 68.6285 19.0693 68.5038 18.979 68.4909Z" fill="#08111F"/>
<path d="M21.0352 69.9447C20.0931 69.9103 19.1511 69.9275 18.2047 69.9447C18.024 69.9447 18.024 70.22 18.2047 70.2243C19.1511 70.2415 20.0888 70.2587 21.0352 70.2243C21.2116 70.2157 21.2116 69.9576 21.0352 69.949V69.9447Z" fill="#08111F"/>
<path d="M77.6493 40.0958C76.8965 39.9323 76.0577 40.0312 75.292 40.0355C75.0081 40.0355 75.0081 40.4743 75.292 40.4743C76.062 40.4786 76.8965 40.5818 77.6493 40.4141C77.8085 40.3797 77.8085 40.1302 77.6493 40.0915V40.0958Z" fill="#08111F"/>
<path d="M64.1679 28.1886C63.0753 28.3994 62.0085 28.5328 60.8901 28.4682C60.6105 28.451 60.6191 28.8683 60.8901 28.8984C62.03 29.0145 63.1915 28.9844 64.3013 28.6876C64.6239 28.6016 64.4863 28.1284 64.1636 28.1886H64.1679Z" fill="#08111F"/>
<path d="M84.2911 50.17C83.947 50.1356 83.6071 50.1227 83.263 50.1184C83.0479 50.1184 83.0479 50.4539 83.263 50.4496C83.6071 50.4496 83.947 50.4324 84.2911 50.398C84.4417 50.3851 84.4417 50.1829 84.2911 50.1657V50.17Z" fill="#08111F"/>
<path d="M63.9787 57.6207C63.1183 57.5906 62.2666 57.5949 61.4063 57.6121C61.2428 57.6121 61.2428 57.8659 61.4063 57.8659C62.2666 57.8831 63.1183 57.8917 63.9787 57.8573C64.1335 57.853 64.1335 57.6207 63.9787 57.6164V57.6207Z" fill="#08111F"/>
<path d="M66.2929 58.8895C65.1787 58.8379 64.0646 58.8637 62.9505 58.8766C62.7569 58.8766 62.7569 59.1734 62.9505 59.1734C64.0646 59.1863 65.1787 59.2121 66.2929 59.1605C66.4692 59.1519 66.4692 58.8938 66.2929 58.8852V58.8895Z" fill="#08111F"/>
</svg>
