<svg width="29" height="80" viewBox="0 0 29 80" fill="none" xmlns="http://www.w3.org/2000/svg">
<path d="M27.326 24.0637C26.6767 22.992 25.7516 22.0599 24.6484 21.4665C24.5193 21.3966 24.3866 21.3338 24.2505 21.2779C24.4006 20.66 24.4774 20.0003 24.3971 19.2113C24.1876 17.1237 23.287 15.2875 22.0581 13.6153C19.7611 10.4875 18.1239 7.61443 18.1064 3.62778C18.089 -0.257629 13.1632 -1.23509 11.135 1.73919C8.64249 5.39419 9.01602 9.69851 7.49048 13.6677C6.37687 16.5617 4.5965 18.9984 4.02398 21.8051C1.98179 22.1227 0.585415 23.3271 0.431814 25.5229C0.0233745 31.3214 -0.0953172 37.1303 0.0757385 42.9427C0.138575 45.0826 1.70251 46.4476 3.52129 46.5907C3.47242 47.0899 3.54922 47.8614 3.53874 48.1756C3.49685 49.4044 3.45496 50.6332 3.40958 51.8585C3.31882 54.4523 3.22805 57.0426 3.14776 59.6363C2.99067 64.8204 2.76376 70.0044 2.81961 75.1919C2.84754 77.9532 5.26327 79.004 7.26008 78.435C8.28641 79.4509 9.77006 79.8733 11.2153 79.9605C14.8913 80.1874 18.7627 79.416 22.1943 78.1557C23.8036 77.5658 24.8858 76.302 24.9417 74.5496C25.1092 69.3516 25.2768 64.1536 25.4444 58.9521C25.5246 56.491 25.6014 54.0264 25.6817 51.5653C25.7271 50.1968 25.769 48.8284 25.8144 47.4599C25.8318 46.9503 25.8004 46.4127 25.8214 45.8855C26.0588 45.7494 26.2752 45.6202 26.338 45.5818C27.0188 45.1455 27.5668 44.5171 27.9578 43.8084C28.656 42.5482 28.6071 41.0576 28.6246 39.6612C28.656 36.5997 28.7398 33.5346 28.7223 30.4766C28.7084 28.3157 28.471 25.9558 27.326 24.0637Z" fill="#7780A1"/>
<path d="M27.8497 38.3905C27.9021 36.3727 27.9335 34.3515 27.9405 32.3337C27.9475 30.4486 27.9335 28.5635 27.8986 26.6819C27.8776 25.5927 27.9998 24.3604 27.3331 23.4248C26.5232 22.2903 25.0186 21.9866 23.5175 21.9168C23.5454 21.8469 23.5628 21.7736 23.5489 21.6829C23.4337 21.0335 23.3708 20.3807 23.3674 19.721C23.3674 19.1659 23.486 18.5969 23.3534 18.0558C23.329 17.9511 23.2556 17.8743 23.1684 17.8289C23.1614 17.8079 23.1614 17.787 23.1509 17.766C22.0408 15.5004 20.8539 12.9276 19.255 10.9692C19.1747 10.8679 19.0595 10.8435 18.9443 10.854C19.0456 9.53441 19.4889 7.15708 18.1135 6.69628C18.0716 6.68232 18.0227 6.67533 17.9774 6.66137C17.7504 5.92828 17.5061 5.19867 17.335 4.44812C17.143 3.62426 17.1325 2.71662 16.8253 1.93465C16.6787 1.56112 16.1865 1.63094 16.1411 2.0289C16.0434 2.89814 16.368 3.81975 16.6089 4.65059C16.7939 5.28943 17.0034 5.92129 17.2652 6.52872C16.2493 6.42748 15.0729 6.58806 14.1513 6.56362C12.5978 6.52173 11.0478 6.48682 9.49438 6.4589C9.47693 6.44144 9.45947 6.42399 9.43504 6.41352C9.449 6.38559 9.45947 6.34719 9.46995 6.29831C9.59562 6.12726 9.72478 5.95271 9.85046 5.78166C10.0983 5.43256 10.3392 5.07998 10.5801 4.72739C11.0618 4.02223 11.5331 3.31007 11.9974 2.59443C12.3011 2.12316 11.554 1.69028 11.2468 2.15458C10.779 2.86673 10.3182 3.58586 9.86791 4.30848C9.53977 4.8391 8.93583 5.51984 8.80667 6.13773C8.77874 6.27039 8.80318 6.41701 8.85903 6.5357C8.76129 6.6125 8.69147 6.72421 8.69147 6.85337C8.69147 8.21135 8.70543 9.56583 8.82762 10.9203C8.83111 10.9587 8.84507 10.9901 8.85903 11.0181C8.06659 11.8803 7.51502 12.9939 6.84477 13.9574C6.09771 15.0326 5.31574 16.0764 4.53726 17.1272C4.45347 17.2424 4.46046 17.3646 4.51631 17.4658C4.41158 17.5845 4.36969 17.7625 4.39064 17.9266C4.56169 19.1519 4.73275 20.3807 4.92126 21.6026C3.20372 21.6305 1.42684 21.9621 1.21389 23.7216C1.11265 23.7809 1.03585 23.8787 1.03236 24.0357C0.927632 28.0573 1.03236 32.0824 1.08472 36.1039C1.10916 37.996 1.08123 39.902 1.16851 41.7906C1.21738 42.8519 1.32211 44.0214 2.06917 44.8452C2.64168 45.4771 3.38176 45.6621 4.20562 45.7389C4.57217 45.7738 4.94221 45.7878 5.31224 45.7947C5.19006 49.5405 5.20403 53.2933 5.21101 57.046C5.1377 57.1508 5.13072 57.3009 5.21101 57.3951C5.21101 58.0828 5.21101 58.7705 5.21101 59.4583V65.9339C5.21101 68.0948 4.99457 70.3709 5.36112 72.5039C5.42046 72.8425 5.98599 72.8425 6.04534 72.5039C6.13261 71.9942 6.18498 71.4775 6.21291 70.9539C11.6832 71.7603 17.4537 71.4077 22.9345 71.0482C22.931 71.502 22.9205 71.9523 22.917 72.4061C22.917 73.017 23.8177 73.0066 23.8596 72.4061C24.1668 67.8819 24.1563 63.3088 24.2087 58.7775C24.2575 54.3615 24.3693 49.9071 24.0795 45.4945C25.6714 45.5329 27.2702 45.3409 27.6368 43.7072C27.9998 42.0769 27.8078 40.0591 27.8532 38.394L27.8497 38.3905ZM22.7879 21.8958C22.0303 21.8923 21.3077 21.9237 20.7073 21.9098C16.1411 21.8225 11.5785 21.7352 7.01233 21.648C6.60738 21.641 6.13261 21.6165 5.62992 21.6061C5.54963 20.5099 5.45537 19.4138 5.35763 18.3176C10.9536 18.8203 16.8149 19.1903 22.4143 18.747C22.2642 19.7663 22.5505 20.9917 22.7879 21.8888C22.7879 21.8888 22.7879 21.8888 22.7879 21.8958ZM16.3226 7.48872L16.6648 7.4992C17.4118 7.52014 17.5759 7.35258 17.911 8.01934C18.2671 8.7315 18.124 9.88001 18.0716 10.7667C17.3839 10.7109 16.6857 10.6864 15.9875 10.6725C16.2109 9.62517 16.3226 8.56044 16.3226 7.48872ZM13.5543 9.24815C13.6207 8.64771 13.7673 8.01585 13.7324 7.41541C14.2281 7.42938 14.7238 7.44334 15.2195 7.4573C15.3696 7.4608 15.5162 7.46429 15.6664 7.47127C15.7536 8.54648 15.7117 9.60423 15.5546 10.6655C14.832 10.6585 14.1094 10.6655 13.3833 10.6759C13.4461 10.2012 13.502 9.72641 13.5543 9.24815ZM9.47693 7.27578C10.7127 7.32116 11.945 7.35956 13.1808 7.39796C13.0726 7.90764 13.09 8.45571 13.0586 8.96888C13.0237 9.5379 12.9853 10.1104 12.9609 10.6794C12.3709 10.6899 11.7809 10.7004 11.1945 10.7074C11.2259 10.2291 11.2329 9.75085 11.2503 9.27259C11.2643 8.78735 11.3585 8.26371 11.2049 7.79942C11.1351 7.57949 10.8314 7.57949 10.7581 7.79942C10.608 8.26022 10.6988 8.79084 10.7127 9.27259C10.7267 9.75434 10.7372 10.2326 10.7686 10.7143C10.2764 10.7178 9.78762 10.7178 9.30238 10.7109C9.27446 10.7109 9.25351 10.7143 9.22907 10.7213C9.36522 9.57979 9.42806 8.43128 9.47344 7.27927L9.47693 7.27578ZM7.5255 14.6102C8.23765 13.6188 9.08594 12.5715 9.51184 11.4195C12.343 11.7337 15.4709 12.013 18.2985 11.5696C18.4067 11.615 18.5359 11.622 18.6476 11.5801C19.5797 13.7689 21.1192 15.8914 22.4946 17.8324C16.78 17.5985 11.0653 17.6648 5.34366 17.3541C6.11516 16.4779 6.84476 15.5598 7.5255 14.6102ZM2.28561 43.0544C2.10408 42.3178 2.14946 41.4381 2.13549 40.684C2.10408 38.7431 2.08313 36.7986 2.05171 34.8576C2.00284 31.4714 1.98189 28.0887 1.82131 24.706C2.02029 24.6641 2.18786 24.5105 2.1739 24.2417C2.13899 23.4563 2.64866 23.0164 3.38874 22.7755C3.27703 30.0052 3.08154 37.3222 3.68896 44.5275C3.0187 44.3251 2.49855 43.9341 2.28211 43.0509L2.28561 43.0544ZM7.51153 54.4557C7.02978 54.4662 6.57247 54.5326 6.19545 54.7036C6.19545 51.7328 6.18847 48.762 6.09072 45.7947C6.6004 45.7878 7.11357 45.7633 7.62324 45.7354C7.49757 48.591 7.57437 51.457 7.43822 54.3161C7.43822 54.3789 7.46615 54.4208 7.50804 54.4523L7.51153 54.4557ZM6.22687 70.4582C6.27225 69.0863 6.18847 67.6934 6.18847 66.3354V59.4548C6.18847 58.8334 6.18847 58.2155 6.18847 57.5941C6.61087 57.6534 7.03677 57.7058 7.45917 57.7512C6.91458 58.8508 7.2916 61.0501 7.2951 61.8321C7.30208 64.6947 7.43822 67.5642 7.80128 70.4023C7.27415 70.4163 6.74702 70.4303 6.22338 70.4547L6.22687 70.4582ZM8.12245 70.3954C8.04565 68.4753 7.95139 66.5553 7.92346 64.6353C7.9095 63.5671 7.9095 62.5023 7.92346 61.4341C7.93045 60.7918 7.73844 58.596 8.15736 57.821C9.3338 57.9327 10.5137 58.0025 11.6972 58.0409C11.1142 62.0206 11.0793 66.1678 11.1735 70.1789C11.177 70.3919 11.4982 70.3919 11.5052 70.1789C11.6797 66.1434 12.0428 62.0939 12.1405 58.0549C12.7898 58.0724 13.4391 58.0828 14.0885 58.0898C14.1722 62.1707 14.1932 66.2691 14.4585 70.343C12.3465 70.343 10.231 70.343 8.11896 70.3919L8.12245 70.3954ZM14.9053 70.343C14.9717 66.2621 14.7971 62.1742 14.6854 58.0968C15.5337 58.1038 16.4064 58.1177 17.2827 58.1212C17.2512 62.1882 17.1954 66.2621 17.2931 70.329C16.4972 70.336 15.7013 70.343 14.9088 70.343H14.9053ZM20.0998 58.0514C20.0998 62.1253 20.0998 66.1992 20.222 70.2697C19.3842 70.2976 18.5429 70.3116 17.7051 70.322C17.8622 66.2586 17.8656 62.1847 17.8936 58.1212C18.6302 58.1177 19.3667 58.0968 20.0963 58.0514H20.0998ZM23.2138 58.774C23.1649 62.5617 23.0008 66.3529 22.9415 70.144C22.9415 70.144 22.9415 70.144 22.938 70.144C22.1804 70.1929 21.4229 70.2278 20.6654 70.2557C20.791 66.1713 20.7876 62.0869 20.7876 58.0025C21.6149 57.9292 22.4318 57.8175 23.2242 57.6465C23.2242 58.0235 23.2207 58.4005 23.2138 58.774ZM23.2277 56.8959C20.2988 56.7004 17.2687 57.1333 14.3223 57.1333C11.6099 57.1333 8.90093 56.9832 6.19196 56.9448C6.19196 56.3025 6.19196 55.6636 6.19196 55.0213C8.88347 55.7404 11.8822 55.7125 14.633 55.695C17.5026 55.6811 20.3896 55.4821 23.2277 55.0352C23.2277 55.6566 23.2277 56.2745 23.2277 56.8959ZM8.19227 45.711C8.74732 45.683 9.30238 45.6551 9.84348 45.6446C10.0425 45.6411 10.2449 45.6376 10.4439 45.6342C10.4369 45.6551 10.43 45.6761 10.4265 45.7005C10.3008 48.6887 10.217 51.6805 10.1856 54.6722C9.43853 54.6059 8.55532 54.4627 7.73495 54.4557C7.75939 54.4348 7.78033 54.4069 7.78732 54.3685C8.24812 51.6002 8.53438 48.5037 8.19227 45.711ZM11.0688 45.6202C11.938 45.6027 12.8073 45.5853 13.6765 45.5678C13.6381 45.6342 13.6137 45.711 13.6276 45.8052C14.1094 48.8074 14.1757 51.7573 13.8336 54.763C12.7549 54.763 11.6762 54.7455 10.5975 54.7001C10.5905 54.7001 10.5836 54.7001 10.5801 54.7001C10.7965 51.7049 10.9606 48.7027 11.0863 45.7005C11.0863 45.6691 11.0793 45.6446 11.0723 45.6202H11.0688ZM14.27 45.6272C14.263 45.5992 14.2525 45.5783 14.2421 45.5574C15.23 45.5364 16.2179 45.519 17.2059 45.498C17.1709 45.5504 17.1395 45.6097 17.136 45.69C16.9755 48.6503 16.9336 51.6421 17.1675 54.6024C17.1675 54.6268 17.1779 54.6478 17.1849 54.6687C16.3366 54.7176 15.4883 54.756 14.6365 54.7664C14.5039 54.7664 14.3712 54.7664 14.2386 54.7664C14.8076 51.7293 14.825 48.6783 14.27 45.6307V45.6272ZM17.8098 45.4875C18.6755 45.4701 19.5413 45.4526 20.4036 45.4352C19.9009 48.3396 19.8764 51.5199 19.8415 54.4662C19.1084 54.5326 18.3718 54.5919 17.6387 54.6373C17.6387 54.6233 17.6457 54.6128 17.6457 54.5989C17.6736 51.6211 17.6911 48.6608 17.8656 45.6865C17.8691 45.6027 17.8447 45.5399 17.8098 45.484V45.4875ZM23.2312 54.1171C22.2607 54.2288 21.2937 54.3336 20.3268 54.4243C20.7038 51.5059 21.1332 48.3571 21.0284 45.4247C21.3007 45.4177 21.5765 45.4142 21.8488 45.4072C22.2956 45.3968 22.8193 45.4352 23.3674 45.4631C23.2312 48.3431 23.2312 51.2301 23.2312 54.1171ZM21.4334 44.4193L15.6384 44.5345C13.9837 44.5659 12.3255 44.6008 10.6708 44.6323C8.81365 44.6672 6.71909 44.9604 4.87588 44.7475C4.58264 44.7126 4.29987 44.6742 4.03107 44.6183C4.03107 44.6078 4.03805 44.6008 4.03805 44.5904C4.31733 37.2769 4.04504 29.9319 4.14976 22.608C5.62992 22.3915 7.51852 22.6498 8.25161 22.6638C9.9133 22.6952 11.5715 22.7267 13.2332 22.7581C16.7171 22.8244 20.25 22.7232 23.7234 22.971C23.9469 22.9885 24.2017 23.0094 24.467 23.0443C24.3727 26.6889 24.5613 30.3578 24.5717 34.0024C24.5787 37.4305 24.2157 41.0471 24.666 44.4507C23.5663 44.5869 22.2921 44.4053 21.4369 44.4228L21.4334 44.4193ZM26.8618 37.989C26.8373 38.9316 26.8094 39.8741 26.7745 40.8132C26.7501 41.4974 26.9386 42.6389 26.6733 43.2359C26.3696 43.9236 25.7447 44.2483 25.0046 44.3949C25.5597 41.0296 25.2734 37.399 25.2839 34.0024C25.2944 30.4102 25.4061 26.7726 25.1966 23.184C25.5038 23.2677 25.7936 23.3829 26.0205 23.547C27.1341 24.3639 26.8967 26.3049 26.9141 27.4883C26.9421 29.2372 26.9491 30.9897 26.9421 32.7386C26.9316 34.4876 26.9072 36.2401 26.8618 37.989Z" fill="white"/>
<path d="M13.9627 25.9522C9.57813 26.0709 5.72763 29.8446 5.96502 34.3199C6.13607 37.5316 9.70032 42.6074 13.4007 41.3472C13.481 41.4414 13.6032 41.5008 13.7638 41.4973C18.281 41.3472 22.9728 39.3539 22.9414 34.1279C22.9135 29.4291 18.4905 25.8265 13.9627 25.9522ZM13.7638 40.4989C13.687 40.4989 13.6206 40.5198 13.5613 40.5443C11.9345 40.3313 10.4439 40.1917 9.12431 39.0048C7.7419 37.7585 6.92153 35.8804 6.90059 34.0197C6.85521 30.0505 10.409 26.8633 14.2839 26.9052C18.1484 26.9506 21.9709 30.0819 21.9605 34.1244C21.95 38.8093 17.7434 40.3697 13.7638 40.4954V40.4989Z" fill="white"/>
<path d="M17.2301 31.3214C16.3015 32.2779 15.5056 33.4054 14.7062 34.4876C13.425 33.6463 12.2486 32.6898 11.1385 31.632C10.8487 31.3563 10.4403 31.7717 10.7021 32.0684C11.8436 33.381 13.1527 34.4876 14.5875 35.4651C14.7341 35.5628 15.0064 35.5384 15.1216 35.3953C16.0572 34.2363 17.087 33.0808 17.8725 31.8136C18.1168 31.4226 17.5548 30.9897 17.2336 31.3214H17.2301Z" fill="white"/>
<path d="M7.67547 40.3104C7.12042 40.0905 6.63169 39.7903 6.34892 39.2457C6.29656 39.1444 6.12201 39.2143 6.1639 39.3225C6.40827 39.9474 6.94587 40.4954 7.64406 40.5373C7.78718 40.5478 7.78718 40.3523 7.67547 40.3069V40.3104Z" fill="white"/>
<path d="M8.75759 42.1257C7.2146 41.9197 5.89851 41.1482 5.45516 39.5633C5.40978 39.3958 5.16891 39.4691 5.20033 39.6331C5.48658 41.2495 7.09241 42.7471 8.80995 42.4783C9.02988 42.4434 8.94261 42.1501 8.76108 42.1257H8.75759Z" fill="white"/>
<path d="M20.7665 23.8473C19.8798 23.6623 19.0141 23.8124 18.1832 24.1511C18.0436 24.2069 18.096 24.4233 18.2461 24.3815C19.0595 24.1476 19.8798 24.1336 20.7212 24.1755C20.9062 24.186 20.9481 23.8857 20.7665 23.8473Z" fill="white"/>
<path d="M21.8767 24.9574C21.1645 24.7096 20.3756 24.6153 19.6355 24.4652C19.4645 24.4303 19.3911 24.6851 19.5622 24.7305C20.3058 24.926 21.0668 25.1913 21.8313 25.2925C22.0303 25.317 22.0443 25.0202 21.8767 24.9609V24.9574Z" fill="white"/>
<path d="M18.9129 14.4568C18.672 13.975 18.3543 13.5282 18.0681 13.0709C17.9703 12.9138 17.726 13.0534 17.8167 13.2175C18.082 13.6853 18.3299 14.1775 18.6406 14.6173C18.7593 14.7814 19.0071 14.6418 18.9129 14.4568Z" fill="white"/>
<path d="M9.35815 16.0695C8.91131 15.9368 8.42258 15.8914 7.96178 15.8111C7.75581 15.7762 7.66156 16.0799 7.8745 16.1323C8.34578 16.244 8.82753 16.3976 9.30928 16.457C9.53619 16.4849 9.56412 16.1323 9.36164 16.073L9.35815 16.0695Z" fill="white"/>
<path d="M11.2642 15.2176C10.5241 15.1792 9.78053 15.2176 9.03696 15.2281C8.85194 15.2316 8.85194 15.5144 9.03696 15.5179C9.78053 15.5318 10.5206 15.5667 11.2642 15.5283C11.4666 15.5179 11.4666 15.2246 11.2642 15.2141V15.2176Z" fill="white"/>
<path d="M15.5405 4.20019C15.3659 3.96979 15.1565 3.76731 15.0133 3.51247C14.9365 3.37982 14.8946 3.23669 14.8353 3.09356C14.7934 2.99233 14.7271 2.93647 14.7061 2.82825C14.6887 2.734 14.5421 2.75843 14.5421 2.8492C14.5421 2.99582 14.4792 3.07611 14.5072 3.22622C14.5386 3.39378 14.6014 3.55437 14.6747 3.70797C14.8248 4.01517 15.0517 4.28746 15.3764 4.40964C15.4881 4.45154 15.6138 4.29444 15.5405 4.1967V4.20019Z" fill="white"/>
<path d="M7.90239 25.0271C7.21467 25.1807 6.84114 25.8684 6.93191 26.5422C6.95634 26.7132 7.24609 26.6748 7.23562 26.5003C7.21118 26.0046 7.53584 25.5473 7.99315 25.3588C8.19214 25.275 8.12232 24.9783 7.90239 25.0271Z" fill="white"/>
<path d="M22.5713 40.8656C22.2432 41.2182 21.9814 41.6126 21.7056 42.0106C21.5974 42.1677 21.8522 42.3667 21.9744 42.2166C22.2746 41.8396 22.5818 41.48 22.8262 41.0646C22.9169 40.9075 22.7005 40.7294 22.5713 40.8691V40.8656Z" fill="white"/>
<path d="M21.992 50.6645C21.9571 50.5109 21.7197 50.5109 21.6813 50.6645C21.5766 51.1044 21.6638 51.649 21.6813 52.0993C21.6883 52.2948 21.978 52.2948 21.985 52.0993C22.0025 51.649 22.0897 51.1044 21.985 50.6645H21.992Z" fill="white"/>
<path d="M12.2103 52.6229C11.9449 51.9841 11.938 51.3871 11.945 50.7099C11.945 50.5772 11.746 50.5493 11.7145 50.6785C11.5435 51.3487 11.7215 52.0958 12.0008 52.7137C12.0532 52.8324 12.2626 52.7451 12.2103 52.6264V52.6229Z" fill="white"/>
<path d="M12.5244 48.7586C12.507 48.5701 12.2487 48.5701 12.2312 48.7586C12.1265 49.8582 12.2068 50.9963 12.2556 52.0959C12.2626 52.253 12.4895 52.253 12.4965 52.0959C12.5489 50.9963 12.6257 49.8547 12.5209 48.7586H12.5244Z" fill="white"/>
<path d="M9.95869 59.584C9.93076 59.4757 9.77367 59.5037 9.77018 59.6084C9.74923 60.1704 9.72479 60.6941 9.49439 61.2177C9.43505 61.3504 9.62705 61.4656 9.68988 61.3329C9.94821 60.7953 10.1088 60.1739 9.95869 59.584Z" fill="white"/>
<path d="M8.859 60.1669C8.85202 60.0378 8.667 60.0378 8.66002 60.1669C8.60765 61.092 8.66002 62.0206 8.68096 62.9492C8.68096 63.0505 8.83456 63.0505 8.83805 62.9492C8.86249 62.0206 8.91136 61.092 8.859 60.1669Z" fill="white"/>
<path d="M16.0607 67.3582C15.7989 66.7682 15.743 66.1259 15.8617 65.4905C15.8931 65.3195 15.6383 65.2427 15.5964 65.4172C15.4323 66.1294 15.5301 66.8206 15.8582 67.4734C15.9246 67.6095 16.1166 67.4908 16.0572 67.3582H16.0607Z" fill="white"/>
<path d="M22.2921 60.167C22.2851 60.7221 22.3026 61.2806 22.3166 61.8357C22.3166 61.9369 22.4702 61.9369 22.4736 61.8357C22.4841 61.2806 22.5016 60.7221 22.4981 60.167C22.4981 60.0379 22.2956 60.0344 22.2956 60.167H22.2921Z" fill="white"/>
</svg>
