<svg width="54" height="80" viewBox="0 0 54 80" fill="none" xmlns="http://www.w3.org/2000/svg">
<path d="M50.1268 23.9391C48.2542 23.6577 46.082 23.5638 44.0686 23.203C45.3135 17.336 47.0707 11.5051 48.5067 5.70672C48.9939 3.73663 47.8861 1.43819 45.8042 0.951079C38.2377 -0.82417 30.4692 -0.113349 23.379 3.07633C20.9399 4.17323 20.579 5.89435 20.0414 8.31547C19.6157 10.2314 19.1863 12.1438 18.7605 14.0598C18.0208 17.3866 17.2775 20.7097 16.5378 24.0365C15.2425 24.2927 13.9724 24.6355 12.7167 25.1262C11.5513 25.5809 10.3894 26.0391 9.7255 27.1757C9.09766 28.2473 9.10488 29.7375 8.92086 30.9463C8.18117 35.8463 7.34406 40.7318 6.40232 45.5957C4.54769 55.1864 2.32502 64.7265 0.10235 74.2378C-0.532699 76.9512 1.91368 78.5316 3.95594 78.0589C4.38171 78.4955 4.94459 78.8239 5.65902 78.9754C18.3816 81.6491 31.0213 78.6146 43.3217 75.3203C45.1042 74.844 45.9846 73.2997 46.1614 71.593C47.6552 57.1889 49.8923 42.8787 52.8294 28.6984C53.2119 26.8437 52.299 24.2675 50.1268 23.9427V23.9391ZM33.2223 69.5868C33.363 69.677 33.5182 69.7564 33.6805 69.8322C33.4821 69.8791 33.2872 69.9296 33.0888 69.9765C33.1321 69.8466 33.1754 69.7167 33.2223 69.5904V69.5868ZM38.6743 68.3239C38.7248 68.2085 38.7717 68.0894 38.8223 67.9739C38.8006 68.158 38.7826 68.342 38.7609 68.5296C38.6851 68.5476 38.613 68.5693 38.5372 68.5873C38.5877 68.5007 38.6346 68.4177 38.6743 68.3239Z" fill="white"/>
<path d="M52.6599 24.7979C52.6382 24.7257 52.6022 24.6571 52.5264 24.5886C51.4908 23.7226 49.5893 23.5999 48.3011 23.3185C47.7094 23.1886 47.1176 23.0695 46.5223 22.9541C47.2006 16.5783 48.247 10.3325 49.1779 3.99643C49.2537 3.48045 48.5176 3.2387 48.3697 3.77272C48.1965 4.39333 48.0414 5.02477 47.8898 5.65621C39.9264 1.10263 29.1775 3.79437 21.0518 6.97682C21.1781 6.26239 21.308 5.54436 21.4451 4.82993C21.4595 4.75776 21.4559 4.69281 21.4415 4.63147C25.6848 2.96808 30.0074 2.15262 34.5718 1.91448C36.5997 1.80984 38.6419 1.73407 40.6733 1.80623C43.3398 1.90004 45.3821 2.56396 47.7238 3.79076C48.1316 4.00364 48.5681 3.48406 48.2254 3.14128C45.1079 0.0201573 39.295 0.684071 35.3115 0.875308C30.3791 1.10984 25.1976 1.71242 20.8894 4.30673C20.7631 4.33921 20.6477 4.42581 20.6044 4.599C20.3734 5.52632 20.157 6.47167 19.9477 7.41703C19.8791 7.44589 19.807 7.47476 19.7348 7.50362C19.4894 7.60466 19.5724 7.97991 19.8394 7.91857C18.7894 12.8258 18.093 17.9422 18.0317 22.8819C18.0317 22.8891 18.0353 22.8963 18.0353 22.9035C14.9539 23.5278 11.9627 24.4298 9.24927 25.7288C9.05804 25.819 9.19876 26.0896 9.38639 26.0535C12.7348 25.3932 16.0003 24.3865 19.3631 23.7803C23.0652 23.1128 26.8141 22.7267 30.5739 22.6329C33.9837 22.5463 37.4007 22.6979 40.7888 23.0876C44.3177 23.4953 48.68 23.8706 51.9743 25.2994C52.1583 25.3788 52.3676 25.3211 52.5083 25.202C52.364 26.1221 52.2161 27.0422 52.0717 27.9623C52.0321 27.9406 51.9888 27.9226 51.9382 27.9082C38.1295 24.6283 22.7801 24.7221 9.30701 29.4994C9.42969 28.5288 9.55237 27.5582 9.67505 26.5876C9.75082 25.9886 8.80907 25.9922 8.7333 26.5876C7.27918 38.022 5.44981 49.4204 3.89827 60.8477C3.88745 60.8513 3.87301 60.8549 3.85858 60.8585C3.6493 60.9235 3.68538 61.176 3.84415 61.241C3.40755 64.4776 2.989 67.7178 2.61013 70.9616C2.57044 71.3007 3.14054 71.3765 3.20549 71.0409C3.68899 68.5873 4.1328 66.1265 4.55497 63.6585C4.56218 63.6585 4.56579 63.6585 4.57301 63.6585C11.5694 62.2549 18.6054 61.2049 25.7497 61.0028C32.7244 60.8044 39.4177 61.7245 46.3274 62.3631C46.378 62.3668 46.4213 62.3631 46.4609 62.3487C46.064 65.0044 45.7429 67.66 45.5805 70.3121C45.5625 70.6188 46.0352 70.6729 46.1073 70.3842C47.9908 63.0704 48.6944 55.3163 49.8743 47.8617C51.0614 40.3349 52.2522 32.8081 53.4393 25.2814C53.515 24.7907 52.9197 24.5381 52.6491 24.7979H52.6599ZM25.3745 17.235C25.3348 18.7469 25.0497 20.219 24.8765 21.7164C24.8657 21.8103 24.8909 21.8788 24.9379 21.9329C23.6822 22.0412 22.4229 22.1855 21.1673 22.3695C21.4415 20.7422 21.6544 19.1113 21.9827 17.4948C22.1523 16.6649 22.5384 12.8582 23.3322 12.5299C23.9059 12.7067 24.4832 12.8835 25.0569 13.0603C25.1868 13.6953 25.2734 14.334 25.3167 14.9763C25.3781 15.7268 25.3925 16.4845 25.3745 17.235ZM31.3641 21.6154C31.0791 21.619 30.7904 21.6298 30.5017 21.6335C30.5378 21.5902 30.5631 21.5324 30.5631 21.4566C30.5487 19.7788 30.628 18.1226 30.9528 16.4701C31.1873 15.2938 31.5842 12.6742 32.7569 12.0428C33.2873 12.0825 33.8141 12.1222 34.3445 12.1618C34.478 12.6309 34.5863 13.1072 34.6729 13.5871C34.8352 14.5072 34.9002 15.4562 34.8785 16.3871C34.8424 18.0866 34.4852 19.685 33.9187 21.2762C33.8682 21.4134 33.8935 21.5288 33.9548 21.619C33.0925 21.601 32.2265 21.5974 31.3641 21.6118V21.6154ZM38.1656 21.8319C38.3424 20.6159 38.5409 19.4072 38.8404 18.2129C39.0857 17.2495 39.5043 14.6371 40.3089 14.0345L42.3115 13.6557C42.4486 14.2294 42.5352 14.8103 42.5677 15.402C42.6218 16.0984 42.6326 16.7984 42.5965 17.4948C42.5135 19.1149 42.1166 20.6087 41.6945 22.1603C41.6945 22.1711 41.6945 22.1819 41.6945 22.1927C40.5218 22.0448 39.3491 21.9257 38.1692 21.8355L38.1656 21.8319ZM42.878 22.3407C42.7445 22.3226 42.611 22.3082 42.4811 22.2901C43.4336 19.9195 43.6682 17.2278 43.3615 14.7057C43.228 13.6087 43.0079 12.2015 41.644 12.1438C40.1321 12.0789 39.5259 13.699 39.0929 14.8644C38.2667 17.0871 37.7543 19.4252 37.6136 21.7922C36.6321 21.7237 35.6543 21.6695 34.6693 21.6407C34.6981 21.601 34.7306 21.5613 34.7486 21.5108C35.6038 19.1149 35.9502 16.6144 35.6074 14.085C35.4486 12.9124 35.3296 10.6753 33.7167 10.6644C29.809 10.6428 29.7945 19.1293 29.9822 21.4566C29.9894 21.536 30.0219 21.5974 30.0688 21.6443C28.5822 21.6876 27.0631 21.7633 25.5296 21.886C25.544 21.8608 25.5621 21.8391 25.5729 21.8103C26.3342 19.418 26.3667 16.7046 26.0925 14.2258C25.9698 13.118 25.7208 11.1985 24.2487 11.101C22.8595 11.0072 22.3508 12.5912 22.0549 13.652C21.2719 16.4448 20.7487 19.4072 20.6044 22.3082C20.6044 22.3623 20.6188 22.4092 20.6441 22.4489C19.9838 22.5499 19.3271 22.6582 18.6704 22.7809C19.3884 17.7005 20.0667 12.6634 20.9435 7.6227C25.2879 6.40672 29.6141 5.00673 34.1172 4.53766C38.9342 4.03612 43.1991 4.85518 47.6877 6.54744C46.497 11.8335 45.9305 17.4876 45.779 22.817C44.8156 22.6401 43.8522 22.4814 42.8816 22.3443L42.878 22.3407ZM46.5764 61.6595C46.5403 61.6307 46.4934 61.609 46.4429 61.5946C39.7063 59.9781 32.2409 59.8951 25.3528 60.1513C18.3817 60.4111 11.3926 61.3023 4.65239 63.1353C4.76785 62.4461 4.87971 61.757 4.99156 61.0678C10.5338 60.0106 16.0472 59.0436 21.6544 58.5529C21.6472 58.625 21.6399 58.6972 21.6327 58.7694C21.6002 59.0905 22.091 59.1338 22.1776 58.8415C22.21 58.7261 22.2389 58.6142 22.2714 58.4987C23.4116 58.4085 24.5518 58.3291 25.6992 58.2822C32.8363 57.9936 39.7965 58.6467 46.8687 59.4874C46.8903 59.4874 46.9084 59.4838 46.93 59.4802C46.8109 60.2054 46.6847 60.9307 46.5728 61.6559L46.5764 61.6595ZM8.22815 59.6822C8.63587 57.9214 8.93536 56.1317 9.23845 54.3493C9.50546 52.7689 9.6101 49.0271 12.0745 49.5323C13.9075 51.4122 11.306 57.0121 10.8874 59.0075C10.8802 59.0472 10.8838 59.0833 10.8874 59.1194C9.99979 59.2925 9.11216 59.4766 8.23175 59.6822H8.22815ZM14.925 58.4338C15.6575 55.9405 16.8518 48.6014 19.3812 48.8828C20.359 50.0735 19.9657 51.7658 19.6482 53.173C19.2874 54.775 18.876 56.3699 18.5693 57.9828C17.3534 58.1127 16.1374 58.257 14.925 58.4302V58.4338ZM22.5131 57.6328C22.8956 56.175 23.2059 54.6957 23.527 53.2235C23.9312 51.3761 24.1837 48.4823 26.41 48.1792C27.9183 50.7807 26.161 54.6163 25.8507 57.4379C25.6631 57.4451 25.4791 57.4523 25.2915 57.4632C24.3678 57.5101 23.4404 57.5678 22.5095 57.6328H22.5131ZM33.7131 57.3405C32.4033 57.3116 31.0935 57.3044 29.7873 57.3224C30.5234 54.6018 30.8842 47.1978 34.5105 48.0529C34.9796 51.2209 34.4744 53.9488 33.6301 57.0338C33.5976 57.1565 33.6373 57.2647 33.7095 57.3405H33.7131ZM41.8857 57.8781C40.6878 57.7446 39.4898 57.6292 38.2847 57.5462C38.2414 56.056 38.3893 54.5982 38.8692 53.1802C39.1038 52.491 40.5723 49.2112 41.7378 48.7529C41.7378 48.872 41.8099 48.9983 41.9543 48.991C43.9027 48.9008 42.0878 56.709 41.8496 57.5642C41.8135 57.6869 41.8352 57.7951 41.8893 57.8781H41.8857ZM48.9037 48.0349C48.348 51.5529 47.6733 55.1034 47.0671 58.6647C47.0419 58.6539 47.0202 58.6358 46.9877 58.6322C45.53 58.358 44.0579 58.1379 42.5785 57.9575C42.6146 57.9142 42.647 57.8601 42.6651 57.7915C43.0151 56.5647 44.6424 49.8282 42.8058 48.6952C42.8924 48.5472 42.9068 48.3416 42.7878 48.19C41.5862 46.6818 39.7099 49.6189 39.1904 50.4776C37.9022 52.6065 37.4223 55.0637 37.7218 57.5137C36.5527 57.4415 35.3801 57.3874 34.2074 57.3549C34.2218 57.3369 34.2399 57.3224 34.2507 57.3008C35.7553 54.591 35.8636 51.1379 35.0878 48.1648C35.3837 48.0673 35.5208 47.5802 35.1816 47.4143C30.527 45.1808 29.1487 54.1616 29.3038 57.3333C28.4018 57.3477 27.5033 57.373 26.6049 57.409C27.1389 55.5436 27.5105 53.4869 27.6982 51.5745C27.8244 50.3008 27.6982 49.1715 27.0126 48.1648C27.092 48.1684 27.1677 48.1648 27.2543 48.1792C27.5719 48.2189 27.6909 47.7137 27.4167 47.5802C25.7461 46.7576 24.2667 47.9663 23.5956 49.5142C22.56 51.9029 22.1307 55.0132 21.7734 57.6977C20.9796 57.759 20.1858 57.824 19.392 57.9034C19.9729 55.8178 20.6657 53.541 20.7595 51.3977C20.8028 50.3946 20.6188 49.4746 20.009 48.7854C20.0848 48.6338 20.0667 48.4246 19.8972 48.3055C16.4116 45.8555 14.5931 55.8864 14.4523 58.5096C13.5359 58.6467 12.623 58.7946 11.7101 58.9642C12.457 56.7451 13.3879 54.1328 13.525 51.8163C13.5792 50.8926 13.3735 50.0843 12.8575 49.5034C12.9044 49.388 12.8972 49.24 12.8142 49.139C11.6018 47.6416 9.71113 49.0776 9.14103 50.4091C8.61423 51.6431 8.54206 53.191 8.33278 54.5044C8.05495 56.2725 7.77712 58.0441 7.61114 59.8266C6.7596 60.0358 5.91527 60.2559 5.07816 60.4977C5.81424 55.9549 6.47455 51.3977 7.08794 46.8297C14.1925 45.6751 21.1889 44.5457 28.4018 44.3581C31.8115 44.2715 35.2249 44.3292 38.6275 44.5529C42.1708 44.7875 45.6671 45.4081 49.1996 45.6895C49.2248 45.6895 49.2429 45.6823 49.2645 45.6823C49.1419 46.4689 49.0156 47.2519 48.8929 48.0385L48.9037 48.0349ZM49.3872 44.9751C49.362 44.9643 49.3403 44.9462 49.3114 44.939C42.5099 43.3406 34.9543 43.3153 28.0049 43.539C21.0771 43.7591 13.8931 44.4338 7.17454 46.2488C7.25753 45.6246 7.34052 45.004 7.42351 44.3797C14.4596 42.9761 21.4559 41.8612 28.6471 41.7169C32.1435 41.6483 35.6399 41.7457 39.1254 42.0344C42.6146 42.323 46.0388 43.005 49.5135 43.3875C49.5604 43.3947 49.6037 43.3875 49.6434 43.3766C49.5604 43.9107 49.4738 44.4447 49.3908 44.9787L49.3872 44.9751ZM14.7554 42.139C13.4781 42.3555 12.208 42.6009 10.9488 42.8823C11.4214 41.1864 11.8039 39.4761 12.1431 37.7478C12.5364 35.7525 12.5977 33.2087 14.7085 32.3355C16.1193 33.0824 16.5776 34.0385 16.0724 35.204C15.9931 35.4241 15.9137 35.6478 15.8343 35.8679C15.5817 36.6184 15.3039 37.3437 15.1126 38.1158C14.8132 39.3462 14.6797 40.5803 14.6472 41.8431C14.6472 41.9694 14.6905 42.0669 14.7554 42.1354V42.139ZM19.2946 41.4931C19.6951 39.7973 20.0776 38.0942 20.4456 36.3875C20.893 34.3128 21.1276 32.0035 23.5126 31.3901C24.559 32.3607 23.3971 36.853 23.2709 37.4664C23.0183 38.7004 22.7296 39.9236 22.5853 41.172C21.4884 41.2622 20.3915 41.3669 19.2946 41.4931ZM27.1641 40.8942C27.5683 39.2055 27.9543 37.5097 28.344 35.8138C28.7445 34.071 29.0657 31.8989 30.7182 31.069C30.794 31.2241 31.043 31.2891 31.126 31.0978C31.9883 31.2963 32.3961 31.7365 32.3456 32.4148C32.3744 32.7937 32.3925 33.1726 32.3997 33.5514C32.4177 34.3092 32.3997 35.0705 32.3419 35.8282C32.2193 37.5241 31.7682 39.1225 31.4904 40.7823C30.3971 40.7931 29.311 40.8148 28.243 40.8473C27.8822 40.8581 27.5213 40.8797 27.1605 40.8942H27.1641ZM35.6182 40.8184C35.8744 38.5741 36.1162 31.1375 39.1182 31.3071C39.1759 31.3071 39.2264 31.2963 39.2697 31.2782C40.7022 31.7906 40.0852 34.5473 39.9517 35.4205C39.8362 36.1746 39.7027 36.9251 39.5801 37.6792C39.3996 38.7798 39.1831 39.8731 39.0821 40.9808C37.9275 40.905 36.7729 40.8509 35.6182 40.8184ZM43.2027 41.3849C43.8233 40.1401 43.8666 38.603 44.1409 37.2427C44.3285 36.3009 44.9022 31.6788 46.6919 32.036C46.7027 32.0432 46.7063 32.054 46.7171 32.0612C48.2687 33.1401 47.5615 35.9401 47.3089 37.4014C47.0491 38.8916 46.6017 40.3205 46.2697 41.7926C46.2625 41.8179 46.2697 41.8395 46.2697 41.8648C45.2594 41.6772 44.2347 41.5184 43.2027 41.3885V41.3849ZM49.7517 42.6694C49.7156 42.6406 49.6687 42.6153 49.6181 42.6009C48.7486 42.3699 47.8645 42.1751 46.9697 41.9947C46.9697 41.9875 46.9769 41.9875 46.9805 41.9803C47.8682 39.8261 48.3877 37.1994 48.4455 34.8576C48.4707 33.7824 48.2975 32.6855 47.5037 32.0071C47.5362 31.9277 47.5398 31.8339 47.4893 31.7437C46.6666 30.2896 44.9924 31.3504 44.4439 32.4762C43.7872 33.8184 43.5996 35.5576 43.3326 37.0117C43.08 38.3937 42.6687 39.9669 42.9934 41.3524C41.9543 41.2225 40.9079 41.1179 39.8615 41.0349C40.5579 38.4262 42.344 30.8453 39.1615 30.6107C35.178 29.3551 35.1383 38.3215 35.0806 40.8004C34.1316 40.7787 33.1863 40.7715 32.2481 40.7751C33.262 38.1664 33.9187 33.9267 33.0383 31.3793C32.8651 30.8777 32.443 30.4014 31.9956 30.1958C31.9342 30.0478 31.8115 29.9288 31.6275 29.936C29.9425 29.9937 28.8925 31.0942 28.2863 32.6097C27.2616 35.1715 26.9549 38.1916 26.6229 40.9158C25.5332 40.9663 24.4435 41.0241 23.3538 41.1071C24.0142 38.906 26.6518 29.6112 22.8776 30.6757C21.7879 30.8453 20.9688 31.7004 20.4781 32.7865C19.3126 35.37 19.1178 38.7184 18.6343 41.4895C18.6307 41.5184 18.6343 41.5401 18.6343 41.5653C17.5843 41.6952 16.5343 41.8431 15.4915 42.0127C15.5132 41.9622 15.5276 41.9081 15.5312 41.8431C15.5745 40.0859 15.874 38.4189 16.4297 36.7555C16.7941 35.6659 17.4327 34.3669 17.0936 33.1726C16.7364 31.9061 15.5204 31.0726 14.3405 31.6102C12.9838 31.8231 12.2405 33.1365 11.8833 34.4896C11.1616 37.239 10.7647 40.1581 10.4725 42.9833C9.4802 43.2107 8.49155 43.4596 7.51372 43.7339C8.10186 39.2344 8.66113 34.7313 9.22402 30.2427C9.22762 30.2427 9.23123 30.2427 9.23484 30.2427C23.3178 26.4071 37.3971 25.4329 51.6929 28.8283C51.7867 28.8499 51.8697 28.8427 51.9418 28.821C51.213 33.436 50.4841 38.0473 49.7553 42.6622L49.7517 42.6694Z" fill="#08111F"/>
<path d="M10.09 67.1584C9.90597 66.2491 9.35752 65.4408 8.41938 65.2099C7.65083 65.0223 6.92918 65.3073 6.55032 66.0037C5.90805 67.1836 5.65548 68.8614 5.40651 70.1712C5.33434 70.5501 5.8431 70.6836 5.98022 70.33C6.31578 69.4676 6.57557 68.5764 6.84258 67.6924C6.96526 67.2846 7.04464 66.6496 7.31165 66.2996C7.78794 65.6826 8.53123 66.0073 8.9101 66.462C9.98174 67.7429 8.80185 69.6625 9.54154 71.0552C9.69669 71.3475 10.0972 71.1851 10.1225 70.8965C10.1802 70.2181 10.1225 69.5181 10.1549 68.8326C10.1802 68.2733 10.2055 67.7104 10.0936 67.1584H10.09Z" fill="#08111F"/>
<path d="M15.4517 65.1703C12.8538 64.943 12.5146 68.8796 12.2476 70.5935C12.2043 70.8641 12.5904 70.9868 12.6698 70.709C13.0378 69.3811 13.2255 66.8085 14.6688 66.0904C15.8739 65.4915 16.8337 66.7688 16.9456 67.8296C17.0466 68.7786 16.628 69.6445 16.5342 70.5682C16.5017 70.9074 17.0105 71.0193 17.162 70.7378C18.1002 68.9951 18.0894 65.394 15.4554 65.1667L15.4517 65.1703Z" fill="#08111F"/>
<path d="M24.3497 67.458C24.0863 66.5848 23.5956 65.2425 22.5961 64.9936C20.2832 64.4199 19.4858 69.2008 19.5399 70.6549C19.5507 70.8966 19.9332 70.976 19.9801 70.7162C20.2038 69.5219 20.7703 66.0255 22.2677 66.0544C22.9353 66.0652 23.0291 66.4766 23.2744 67.043C23.4404 67.4291 23.5667 67.8188 23.6533 68.2338C23.8445 69.1539 23.6389 69.9982 23.7471 70.9002C23.7832 71.1889 24.1801 71.3729 24.3461 71.0626C24.9053 70.0271 24.678 68.5477 24.3497 67.4616V67.458Z" fill="#08111F"/>
<path d="M31.6889 67.1296C31.4038 66.2853 30.9816 65.2172 29.9028 65.3363C28.86 65.4518 28.0229 66.4837 27.4853 67.292C26.7745 68.3564 26.3884 69.6229 26.3848 70.9038C26.3848 71.243 26.8538 71.2177 26.8935 70.9038C27.0198 69.9512 27.2688 69.06 27.7559 68.2229C28.1384 67.5698 28.8131 66.5378 29.5744 66.3105C31.4615 65.744 31.2414 70.1244 31.1585 71.1888C31.126 71.6363 31.8296 71.7229 31.9378 71.2935C32.2698 69.9476 32.1255 68.4358 31.6853 67.1296H31.6889Z" fill="#08111F"/>
<path d="M38.3243 65.5094C35.5821 65.3001 34.6151 68.4537 34.4455 70.5898C34.4238 70.8785 34.8676 70.9254 34.9434 70.6584C35.4016 69.0202 35.979 66.1914 38.2666 66.397C40.1645 66.5666 40.0238 68.9553 40.0815 70.3336C40.1032 70.8821 40.8573 70.8604 40.9186 70.3336C41.1315 68.4826 40.63 65.6862 38.3279 65.513L38.3243 65.5094Z" fill="#08111F"/>
<path d="M12.6698 31.1484C11.7858 30.8741 10.9523 31.8339 10.992 32.6638C10.9992 32.8118 11.2012 32.8045 11.2193 32.6638C11.2626 32.2958 11.4755 31.953 11.7749 31.7365C12.0456 31.5417 12.3523 31.4803 12.6734 31.4262C12.8213 31.4009 12.7961 31.188 12.6734 31.1484H12.6698Z" fill="#08111F"/>
<path d="M9.92397 32.2489C9.72191 32.4329 9.54872 32.6386 9.37913 32.855C9.27449 32.9886 9.43326 33.1581 9.56676 33.0427C9.77604 32.8659 9.97088 32.6855 10.1477 32.4762C10.2812 32.321 10.0755 32.1081 9.92037 32.2489H9.92397Z" fill="#08111F"/>
<path d="M35.2213 10.7186C34.9543 10.1701 34.4419 9.70106 34.0486 9.23921C33.9115 9.07684 33.6229 9.29694 33.7528 9.46653C33.9476 9.72271 34.1461 9.98251 34.3409 10.2387C34.5249 10.4804 34.7017 10.7402 34.9399 10.9351C35.095 11.0614 35.3115 10.9098 35.2177 10.7186H35.2213Z" fill="#08111F"/>
<path d="M36.993 11.6169C36.7657 10.4875 36.0151 9.44834 35.1853 8.67979C35.0301 8.53546 34.81 8.75556 34.9543 8.91072C35.7337 9.75504 36.1595 10.6787 36.5997 11.7251C36.7007 11.9633 37.0471 11.8803 36.993 11.6169Z" fill="#08111F"/>
<path d="M45.2882 7.26197C44.848 6.54393 43.9279 6.24445 43.1196 6.313C42.8923 6.33105 42.8851 6.68104 43.1196 6.67383C43.8882 6.64496 44.4583 6.98774 45.0284 7.46042C45.1655 7.57588 45.3928 7.43156 45.2882 7.25836V7.26197Z" fill="#08111F"/>
<path d="M45.8403 8.66531C45.3063 8.1349 44.6496 7.69109 44.0434 7.25089C43.9063 7.14986 43.7367 7.37357 43.863 7.48542C44.4223 7.99058 44.9887 8.53903 45.6202 8.95397C45.797 9.06944 45.9882 8.80964 45.8439 8.66531H45.8403Z" fill="#08111F"/>
<path d="M23.8915 8.38032C23.1554 8.21795 22.441 8.3298 21.7626 8.65815C21.6075 8.73393 21.7446 8.95042 21.8962 8.88547C22.5059 8.62568 23.159 8.57156 23.8121 8.66898C23.9961 8.69784 24.0827 8.42362 23.8915 8.38032Z" fill="#08111F"/>
<path d="M25.0425 8.94321C24.1224 8.8097 23.2492 8.91795 22.376 9.23547C22.2209 9.2932 22.2822 9.54217 22.4446 9.48805C23.2745 9.22465 24.1332 9.15609 24.9992 9.23547C25.1652 9.2499 25.2049 8.96485 25.0389 8.94321H25.0425Z" fill="#08111F"/>
<path d="M26.778 24.4334C26.0527 24.2278 25.2698 24.3721 24.6131 24.7257C24.4543 24.8123 24.5662 25.0974 24.7393 25.0252C25.378 24.7654 25.9914 24.7293 26.6698 24.8231C26.9187 24.8592 27.0342 24.5056 26.778 24.4334Z" fill="#08111F"/>
<path d="M28.4884 23.618C27.5214 23.4809 26.5544 23.3907 25.5837 23.3005C25.4322 23.286 25.4358 23.5169 25.5837 23.535C26.5399 23.6577 27.4925 23.7803 28.4559 23.8525C28.5894 23.8633 28.6219 23.636 28.4884 23.618Z" fill="#08111F"/>
<path d="M46.0207 30.358C45.3532 29.6255 44.1372 30.358 44.1011 31.224C44.0939 31.3503 44.3104 31.3863 44.3284 31.2528C44.4295 30.5384 45.2702 30.293 45.8619 30.5673C45.9954 30.6286 46.129 30.4735 46.0243 30.358H46.0207Z" fill="#08111F"/>
<path d="M48.3624 29.6762C47.4062 29.0917 46.2263 28.9654 45.133 29.0917C44.9778 29.1097 44.9706 29.3515 45.133 29.3406C46.2479 29.2685 47.2222 29.5391 48.2577 29.9216C48.4057 29.9757 48.4887 29.752 48.3624 29.6726V29.6762Z" fill="#08111F"/>
<path d="M43.2207 47.4468C43.0692 47.3638 42.9393 47.5839 43.0872 47.6777C44.0253 48.2695 44.4619 49.1932 44.6784 50.2468C44.7109 50.4092 44.9527 50.3623 44.9563 50.2107C44.9924 49.0417 44.213 47.9989 43.2207 47.4468Z" fill="#08111F"/>
<path d="M45.8186 48.1286C45.7645 47.9987 45.5372 48.0925 45.5841 48.226C45.9521 49.2327 46.0243 50.261 45.8511 51.3146C45.8222 51.4914 46.082 51.5708 46.1253 51.3904C46.3959 50.2791 46.266 49.1749 45.8186 48.1286Z" fill="#08111F"/>
<path d="M40.0492 64.7121C39.8904 64.6328 39.7497 64.8637 39.9084 64.9539C40.7131 65.4085 41.1966 66.1266 41.5574 66.9565C41.6187 67.1044 41.8208 66.9889 41.7991 66.8554C41.6332 65.8956 40.9079 65.1307 40.0528 64.7121H40.0492Z" fill="#08111F"/>
<path d="M42.1058 65.0151C42.0048 64.9285 41.8604 65.0692 41.9579 65.163C42.6037 65.7981 42.7445 66.5847 42.7012 67.4579C42.6939 67.6058 42.914 67.6275 42.9537 67.494C43.228 66.5919 42.7878 65.6105 42.1058 65.0151Z" fill="#08111F"/>
<path d="M28.4955 64.4486C27.5538 64.2429 26.6228 64.7986 26.2728 65.6826C26.2151 65.8233 26.4496 65.9243 26.5218 65.7872C26.8971 65.0511 27.6476 64.6939 28.4558 64.7625C28.6362 64.7769 28.6723 64.4883 28.4991 64.4486H28.4955Z" fill="#08111F"/>
<path d="M28.8852 63.276C28.2537 62.7781 27.3048 62.8899 26.6769 63.3373C26.5254 63.4456 26.6661 63.691 26.8249 63.5899C27.4635 63.175 28.0661 63.276 28.73 63.5466C28.8744 63.6044 29.0079 63.377 28.8852 63.2796V63.276Z" fill="#08111F"/>
<path d="M17.4146 64.8239C17.2775 64.1527 16.4224 63.7739 15.8018 63.8424C15.5961 63.8641 15.5853 64.1744 15.8018 64.1708C16.0724 64.1636 16.3358 64.2249 16.5667 64.3692C16.8049 64.5208 16.9311 64.7373 17.0971 64.9574C17.2126 65.1089 17.4507 65.0259 17.411 64.8239H17.4146Z" fill="#08111F"/>
<path d="M9.51627 48.6157C8.62143 48.4245 7.83844 49.3482 7.94669 50.2034C7.96112 50.3296 8.15597 50.3369 8.14875 50.2034C8.10184 49.442 8.76576 48.9369 9.47658 48.9008C9.63173 48.8936 9.68225 48.6518 9.51627 48.6157Z" fill="#08111F"/>
<path d="M23.3321 47.1761C22.5672 46.9343 21.7806 47.7498 21.5857 48.4065C21.5136 48.6554 21.8816 48.7492 21.9682 48.5111C22.0765 48.2188 22.2749 47.9807 22.5383 47.8219C22.7945 47.6632 23.0579 47.6559 23.3321 47.5657C23.5234 47.5044 23.527 47.2374 23.3321 47.1761Z" fill="#08111F"/>
<path d="M28.4595 29.9505C27.6584 30.0407 27.0487 30.6974 27.0523 31.5129C27.0523 31.7077 27.3337 31.7005 27.3517 31.5129C27.4095 30.8995 27.9038 30.3907 28.5028 30.2789C28.6868 30.2428 28.6471 29.9289 28.4595 29.9505Z" fill="#08111F"/>
<path d="M38.6527 29.1386C38.1656 28.3989 37.1156 28.2654 36.3939 28.7381C36.2027 28.8644 36.3759 29.1639 36.5743 29.0448C37.1877 28.6768 37.8805 28.8716 38.3532 29.3659C38.5011 29.5211 38.7718 29.319 38.6527 29.135V29.1386Z" fill="#08111F"/>
<path d="M35.7915 46.0937C35.344 45.5055 34.6007 45.2674 33.8935 45.4947C33.7167 45.5524 33.7889 45.8267 33.9693 45.7761C34.5574 45.6138 35.1492 45.8267 35.5353 46.2921C35.6544 46.4328 35.9069 46.2416 35.7915 46.0937Z" fill="#08111F"/>
<path d="M11.0606 65.6503C10.9776 65.5385 10.8982 65.4266 10.8116 65.3184C10.7106 65.1921 10.6059 65.1163 10.4796 65.0189C10.2776 64.8601 10.043 65.0982 10.1982 65.3003C10.2956 65.4266 10.3714 65.5348 10.4977 65.6323C10.6059 65.7189 10.7178 65.7982 10.8296 65.8812C10.9631 65.9823 11.1616 65.7838 11.0606 65.6503Z" fill="#08111F"/>
</svg>
