<svg width="29" height="80" viewBox="0 0 29 80" fill="none" xmlns="http://www.w3.org/2000/svg">
<path d="M27.326 24.0637C26.6767 22.992 25.7516 22.0599 24.6484 21.4665C24.5193 21.3966 24.3866 21.3338 24.2505 21.2779C24.4006 20.66 24.4774 20.0003 24.3971 19.2113C24.1876 17.1237 23.287 15.2875 22.0581 13.6153C19.7611 10.4875 18.1239 7.61443 18.1064 3.62778C18.089 -0.257629 13.1632 -1.23509 11.135 1.73919C8.64249 5.39419 9.01602 9.69851 7.49048 13.6677C6.37687 16.5617 4.5965 18.9984 4.02398 21.8051C1.98179 22.1227 0.585415 23.3271 0.431814 25.5229C0.0233745 31.3214 -0.0953172 37.1303 0.0757385 42.9427C0.138575 45.0826 1.70251 46.4476 3.52129 46.5907C3.47242 47.0899 3.54922 47.8614 3.53874 48.1756C3.49685 49.4044 3.45496 50.6332 3.40958 51.8585C3.31882 54.4523 3.22805 57.0426 3.14776 59.6363C2.99067 64.8204 2.76376 70.0044 2.81961 75.1919C2.84754 77.9532 5.26327 79.004 7.26008 78.435C8.28641 79.4509 9.77006 79.8733 11.2153 79.9605C14.8913 80.1874 18.7627 79.416 22.1943 78.1557C23.8036 77.5658 24.8858 76.302 24.9417 74.5496C25.1092 69.3516 25.2768 64.1536 25.4444 58.9521C25.5246 56.491 25.6014 54.0264 25.6817 51.5653C25.7271 50.1968 25.769 48.8284 25.8144 47.4599C25.8318 46.9503 25.8004 46.4127 25.8214 45.8855C26.0588 45.7494 26.2752 45.6202 26.338 45.5818C27.0188 45.1455 27.5668 44.5171 27.9578 43.8084C28.656 42.5482 28.6071 41.0576 28.6246 39.6612C28.656 36.5997 28.7398 33.5346 28.7223 30.4766C28.7084 28.3157 28.471 25.9558 27.326 24.0637Z" fill="white"/>
<path d="M27.8496 38.3905C27.902 36.3727 27.9334 34.3515 27.9404 32.3337C27.9473 30.4486 27.9334 28.5635 27.8985 26.6819C27.8775 25.5927 27.9997 24.3604 27.3329 23.4248C26.523 22.2903 25.0184 21.9866 23.5173 21.9168C23.5453 21.8469 23.5627 21.7736 23.5488 21.6829C23.4336 21.0335 23.3707 20.3807 23.3672 19.721C23.3672 19.1659 23.4859 18.5969 23.3533 18.0558C23.3288 17.9511 23.2555 17.8743 23.1683 17.8289C23.1613 17.8079 23.1613 17.787 23.1508 17.766C22.0407 15.5004 20.8538 12.9276 19.2549 10.9692C19.1746 10.8679 19.0594 10.8435 18.9442 10.854C19.0455 9.53441 19.4888 7.15708 18.1134 6.69628C18.0715 6.68232 18.0226 6.67533 17.9772 6.66137C17.7503 5.92828 17.506 5.19867 17.3349 4.44812C17.1429 3.62426 17.1324 2.71662 16.8252 1.93465C16.6786 1.56112 16.1864 1.63094 16.141 2.0289C16.0433 2.89814 16.3679 3.81975 16.6088 4.65059C16.7938 5.28943 17.0033 5.92129 17.2651 6.52872C16.2492 6.42748 15.0728 6.58806 14.1512 6.56362C12.5977 6.52173 11.0477 6.48682 9.49426 6.4589C9.47681 6.44144 9.45935 6.42399 9.43492 6.41352C9.44888 6.38559 9.45935 6.34719 9.46982 6.29831C9.5955 6.12726 9.72466 5.95271 9.85034 5.78166C10.0982 5.43256 10.3391 5.07998 10.5799 4.72739C11.0617 4.02223 11.533 3.31007 11.9973 2.59443C12.301 2.12316 11.5539 1.69028 11.2467 2.15458C10.7789 2.86673 10.3181 3.58586 9.86779 4.30848C9.53964 4.8391 8.93571 5.51984 8.80655 6.13773C8.77862 6.27039 8.80306 6.41701 8.85891 6.5357C8.76117 6.6125 8.69135 6.72421 8.69135 6.85337C8.69135 8.21135 8.70531 9.56583 8.82749 10.9203C8.83098 10.9587 8.84495 10.9901 8.85891 11.0181C8.06647 11.8803 7.5149 12.9939 6.84464 13.9574C6.09758 15.0326 5.31561 16.0764 4.53714 17.1272C4.45335 17.2424 4.46033 17.3646 4.51619 17.4658C4.41146 17.5845 4.36957 17.7625 4.39052 17.9266C4.56157 19.1519 4.73263 20.3807 4.92114 21.6026C3.2036 21.6305 1.42671 21.9621 1.21377 23.7216C1.11253 23.7809 1.03573 23.8787 1.03224 24.0357C0.92751 28.0573 1.03224 32.0824 1.0846 36.1039C1.10904 37.996 1.08111 39.902 1.16838 41.7906C1.21726 42.8519 1.32198 44.0214 2.06904 44.8452C2.64156 45.4771 3.38164 45.6621 4.2055 45.7389C4.57204 45.7738 4.94208 45.7878 5.31212 45.7947C5.18994 49.5405 5.2039 53.2933 5.21089 57.046C5.13758 57.1508 5.13059 57.3009 5.21089 57.3951C5.21089 58.0828 5.21089 58.7705 5.21089 59.4583V65.9339C5.21089 68.0948 4.99445 70.3709 5.361 72.5039C5.42034 72.8425 5.98587 72.8425 6.04522 72.5039C6.13249 71.9942 6.18486 71.4775 6.21278 70.9539C11.6831 71.7603 17.4536 71.4077 22.9344 71.0482C22.9309 71.502 22.9204 71.9523 22.9169 72.4061C22.9169 73.017 23.8176 73.0066 23.8595 72.4061C24.1667 67.8819 24.1562 63.3088 24.2085 58.7775C24.2574 54.3615 24.3691 49.9071 24.0794 45.4945C25.6713 45.5329 27.2701 45.3409 27.6366 43.7072C27.9997 42.0769 27.8077 40.0591 27.8531 38.394L27.8496 38.3905ZM22.7877 21.8958C22.0302 21.8923 21.3076 21.9237 20.7071 21.9098C16.141 21.8225 11.5783 21.7352 7.01221 21.648C6.60726 21.641 6.13249 21.6165 5.6298 21.6061C5.54951 20.5099 5.45525 19.4138 5.35751 18.3176C10.9535 18.8203 16.8147 19.1903 22.4142 18.747C22.2641 19.7663 22.5504 20.9917 22.7877 21.8888C22.7877 21.8888 22.7877 21.8888 22.7877 21.8958ZM16.3225 7.48872L16.6646 7.4992C17.4117 7.52014 17.5758 7.35258 17.9109 8.01934C18.267 8.7315 18.1238 9.88001 18.0715 10.7667C17.3838 10.7109 16.6856 10.6864 15.9874 10.6725C16.2108 9.62517 16.3225 8.56044 16.3225 7.48872ZM13.5542 9.24815C13.6205 8.64771 13.7672 8.01585 13.7323 7.41541C14.228 7.42938 14.7237 7.44334 15.2194 7.4573C15.3695 7.4608 15.5161 7.46429 15.6662 7.47127C15.7535 8.54648 15.7116 9.60423 15.5545 10.6655C14.8319 10.6585 14.1093 10.6655 13.3832 10.6759C13.446 10.2012 13.5019 9.72641 13.5542 9.24815ZM9.47681 7.27578C10.7126 7.32116 11.9449 7.35956 13.1807 7.39796C13.0725 7.90764 13.0899 8.45571 13.0585 8.96888C13.0236 9.5379 12.9852 10.1104 12.9608 10.6794C12.3708 10.6899 11.7808 10.7004 11.1943 10.7074C11.2258 10.2291 11.2327 9.75085 11.2502 9.27259C11.2642 8.78735 11.3584 8.26371 11.2048 7.79942C11.135 7.57949 10.8313 7.57949 10.758 7.79942C10.6079 8.26022 10.6986 8.79084 10.7126 9.27259C10.7266 9.75434 10.737 10.2326 10.7685 10.7143C10.2762 10.7178 9.7875 10.7178 9.30226 10.7109C9.27433 10.7109 9.25339 10.7143 9.22895 10.7213C9.3651 9.57979 9.42793 8.43128 9.47332 7.27927L9.47681 7.27578ZM7.52537 14.6102C8.23753 13.6188 9.08582 12.5715 9.51172 11.4195C12.3429 11.7337 15.4707 12.013 18.2984 11.5696C18.4066 11.615 18.5358 11.622 18.6475 11.5801C19.5796 13.7689 21.1191 15.8914 22.4945 17.8324C16.7798 17.5985 11.0652 17.6648 5.34354 17.3541C6.11504 16.4779 6.84464 15.5598 7.52537 14.6102ZM2.28548 43.0544C2.10395 42.3178 2.14934 41.4381 2.13537 40.684C2.10395 38.7431 2.08301 36.7986 2.05159 34.8576C2.00272 31.4714 1.98177 28.0887 1.82119 24.706C2.02017 24.6641 2.18774 24.5105 2.17377 24.2417C2.13886 23.4563 2.64854 23.0164 3.38862 22.7755C3.27691 30.0052 3.08142 37.3222 3.68884 44.5275C3.01858 44.3251 2.49843 43.9341 2.28199 43.0509L2.28548 43.0544ZM7.51141 54.4557C7.02966 54.4662 6.57235 54.5326 6.19533 54.7036C6.19533 51.7328 6.18835 48.762 6.0906 45.7947C6.60028 45.7878 7.11344 45.7633 7.62312 45.7354C7.49745 48.591 7.57425 51.457 7.4381 54.3161C7.4381 54.3789 7.46603 54.4208 7.50792 54.4523L7.51141 54.4557ZM6.22675 70.4582C6.27213 69.0863 6.18835 67.6934 6.18835 66.3354V59.4548C6.18835 58.8334 6.18835 58.2155 6.18835 57.5941C6.61075 57.6534 7.03664 57.7058 7.45905 57.7512C6.91446 58.8508 7.29148 61.0501 7.29497 61.8321C7.30196 64.6947 7.4381 67.5642 7.80116 70.4023C7.27403 70.4163 6.7469 70.4303 6.22326 70.4547L6.22675 70.4582ZM8.12232 70.3954C8.04552 68.4753 7.95127 66.5553 7.92334 64.6353C7.90938 63.5671 7.90938 62.5023 7.92334 61.4341C7.93032 60.7918 7.73832 58.596 8.15723 57.821C9.33368 57.9327 10.5136 58.0025 11.697 58.0409C11.1141 62.0206 11.0791 66.1678 11.1734 70.1789C11.1769 70.3919 11.4981 70.3919 11.505 70.1789C11.6796 66.1434 12.0426 62.0939 12.1404 58.0549C12.7897 58.0724 13.439 58.0828 14.0883 58.0898C14.1721 62.1707 14.1931 66.2691 14.4584 70.343C12.3464 70.343 10.2308 70.343 8.11883 70.3919L8.12232 70.3954ZM14.9052 70.343C14.9715 66.2621 14.797 62.1742 14.6853 58.0968C15.5336 58.1038 16.4063 58.1177 17.2825 58.1212C17.2511 62.1882 17.1953 66.2621 17.293 70.329C16.4971 70.336 15.7011 70.343 14.9087 70.343H14.9052ZM20.0997 58.0514C20.0997 62.1253 20.0997 66.1992 20.2219 70.2697C19.3841 70.2976 18.5428 70.3116 17.7049 70.322C17.862 66.2586 17.8655 62.1847 17.8934 58.1212C18.63 58.1177 19.3666 58.0968 20.0962 58.0514H20.0997ZM23.2136 58.774C23.1648 62.5617 23.0007 66.3529 22.9413 70.144C22.9413 70.144 22.9413 70.144 22.9378 70.144C22.1803 70.1929 21.4228 70.2278 20.6653 70.2557C20.7909 66.1713 20.7874 62.0869 20.7874 58.0025C21.6148 57.9292 22.4317 57.8175 23.2241 57.6465C23.2241 58.0235 23.2206 58.4005 23.2136 58.774ZM23.2276 56.8959C20.2987 56.7004 17.2686 57.1333 14.3222 57.1333C11.6098 57.1333 8.9008 56.9832 6.19184 56.9448C6.19184 56.3025 6.19184 55.6636 6.19184 55.0213C8.88335 55.7404 11.8821 55.7125 14.6329 55.695C17.5025 55.6811 20.3895 55.4821 23.2276 55.0352C23.2276 55.6566 23.2276 56.2745 23.2276 56.8959ZM8.19214 45.711C8.7472 45.683 9.30226 45.6551 9.84336 45.6446C10.0423 45.6411 10.2448 45.6376 10.4438 45.6342C10.4368 45.6551 10.4298 45.6761 10.4263 45.7005C10.3007 48.6887 10.2169 51.6805 10.1855 54.6722C9.43841 54.6059 8.5552 54.4627 7.73483 54.4557C7.75927 54.4348 7.78021 54.4069 7.78719 54.3685C8.248 51.6002 8.53425 48.5037 8.19214 45.711ZM11.0687 45.6202C11.9379 45.6027 12.8072 45.5853 13.6764 45.5678C13.638 45.6342 13.6136 45.711 13.6275 45.8052C14.1093 48.8074 14.1756 51.7573 13.8335 54.763C12.7548 54.763 11.6761 54.7455 10.5974 54.7001C10.5904 54.7001 10.5834 54.7001 10.5799 54.7001C10.7964 51.7049 10.9605 48.7027 11.0861 45.7005C11.0861 45.6691 11.0791 45.6446 11.0722 45.6202H11.0687ZM14.2699 45.6272C14.2629 45.5992 14.2524 45.5783 14.2419 45.5574C15.2299 45.5364 16.2178 45.519 17.2057 45.498C17.1708 45.5504 17.1394 45.6097 17.1359 45.69C16.9753 48.6503 16.9334 51.6421 17.1673 54.6024C17.1673 54.6268 17.1778 54.6478 17.1848 54.6687C16.3365 54.7176 15.4882 54.756 14.6364 54.7664C14.5038 54.7664 14.3711 54.7664 14.2384 54.7664C14.8075 51.7293 14.8249 48.6783 14.2699 45.6307V45.6272ZM17.8097 45.4875C18.6754 45.4701 19.5412 45.4526 20.4034 45.4352C19.9007 48.3396 19.8763 51.5199 19.8414 54.4662C19.1083 54.5326 18.3717 54.5919 17.6386 54.6373C17.6386 54.6233 17.6456 54.6128 17.6456 54.5989C17.6735 51.6211 17.691 48.6608 17.8655 45.6865C17.869 45.6027 17.8446 45.5399 17.8097 45.484V45.4875ZM23.2311 54.1171C22.2606 54.2288 21.2936 54.3336 20.3266 54.4243C20.7036 51.5059 21.133 48.3571 21.0283 45.4247C21.3006 45.4177 21.5764 45.4142 21.8487 45.4072C22.2955 45.3968 22.8192 45.4352 23.3672 45.4631C23.2311 48.3431 23.2311 51.2301 23.2311 54.1171ZM21.4333 44.4193L15.6383 44.5345C13.9836 44.5659 12.3254 44.6008 10.6707 44.6323C8.81353 44.6672 6.71897 44.9604 4.87576 44.7475C4.58252 44.7126 4.29975 44.6742 4.03095 44.6183C4.03095 44.6078 4.03793 44.6008 4.03793 44.5904C4.31721 37.2769 4.04491 29.9319 4.14964 22.608C5.6298 22.3915 7.51839 22.6498 8.25149 22.6638C9.91317 22.6952 11.5714 22.7267 13.2331 22.7581C16.717 22.8244 20.2498 22.7232 23.7233 22.971C23.9467 22.9885 24.2016 23.0094 24.4669 23.0443C24.3726 26.6889 24.5611 30.3578 24.5716 34.0024C24.5786 37.4305 24.2155 41.0471 24.6659 44.4507C23.5662 44.5869 22.292 44.4053 21.4367 44.4228L21.4333 44.4193ZM26.8617 37.989C26.8372 38.9316 26.8093 39.8741 26.7744 40.8132C26.7499 41.4974 26.9385 42.6389 26.6732 43.2359C26.3694 43.9236 25.7446 44.2483 25.0045 44.3949C25.5595 41.0296 25.2733 37.399 25.2838 34.0024C25.2942 30.4102 25.4059 26.7726 25.1965 23.184C25.5037 23.2677 25.7934 23.3829 26.0203 23.547C27.134 24.3639 26.8966 26.3049 26.914 27.4883C26.9419 29.2372 26.9489 30.9897 26.942 32.7386C26.9315 34.4876 26.907 36.2401 26.8617 37.989Z" fill="#08111F"/>
<path d="M13.9626 25.9522C9.57801 26.0709 5.72751 29.8446 5.9649 34.3199C6.13595 37.5316 9.70019 42.6074 13.4006 41.3472C13.4809 41.4414 13.6031 41.5008 13.7636 41.4973C18.2809 41.3472 22.9727 39.3539 22.9413 34.1279C22.9134 29.4291 18.4904 25.8265 13.9626 25.9522ZM13.7636 40.4989C13.6868 40.4989 13.6205 40.5198 13.5612 40.5443C11.9344 40.3313 10.4438 40.1917 9.12419 39.0048C7.74178 37.7585 6.92141 35.8804 6.90047 34.0197C6.85508 30.0505 10.4089 26.8633 14.2838 26.9052C18.1483 26.9506 21.9708 30.0819 21.9604 34.1244C21.9499 38.8093 17.7433 40.3697 13.7636 40.4954V40.4989Z" fill="#08111F"/>
<path d="M17.23 31.3214C16.3014 32.2779 15.5055 33.4054 14.7061 34.4876C13.4249 33.6463 12.2484 32.6898 11.1383 31.632C10.8486 31.3563 10.4401 31.7717 10.702 32.0684C11.8435 33.381 13.1526 34.4876 14.5874 35.4651C14.734 35.5628 15.0063 35.5384 15.1215 35.3953C16.0571 34.2363 17.0869 33.0808 17.8723 31.8136C18.1167 31.4226 17.5547 30.9897 17.2335 31.3214H17.23Z" fill="#08111F"/>
<path d="M7.67547 40.3104C7.12042 40.0905 6.63169 39.7903 6.34892 39.2457C6.29656 39.1444 6.12201 39.2143 6.1639 39.3225C6.40827 39.9474 6.94587 40.4954 7.64406 40.5373C7.78718 40.5478 7.78718 40.3523 7.67547 40.3069V40.3104Z" fill="#08111F"/>
<path d="M8.75759 42.1257C7.2146 41.9197 5.89851 41.1482 5.45516 39.5633C5.40978 39.3958 5.16891 39.4691 5.20033 39.6331C5.48658 41.2495 7.09241 42.7471 8.80995 42.4783C9.02988 42.4434 8.94261 42.1501 8.76108 42.1257H8.75759Z" fill="#08111F"/>
<path d="M20.7664 23.8473C19.8797 23.6623 19.014 23.8124 18.1831 24.1511C18.0435 24.2069 18.0959 24.4233 18.246 24.3815C19.0594 24.1476 19.8797 24.1336 20.721 24.1755C20.9061 24.186 20.9479 23.8857 20.7664 23.8473Z" fill="#08111F"/>
<path d="M21.8764 24.9574C21.1643 24.7096 20.3753 24.6153 19.6353 24.4652C19.4642 24.4303 19.3909 24.6851 19.562 24.7305C20.3055 24.926 21.0666 25.1913 21.8311 25.2925C22.03 25.317 22.044 25.0202 21.8764 24.9609V24.9574Z" fill="#08111F"/>
<path d="M18.9128 14.4568C18.6719 13.975 18.3542 13.5282 18.068 13.0709C17.9702 12.9138 17.7258 13.0534 17.8166 13.2175C18.0819 13.6853 18.3298 14.1775 18.6405 14.6173C18.7592 14.7814 19.007 14.6418 18.9128 14.4568Z" fill="#08111F"/>
<path d="M9.35803 16.0695C8.91119 15.9368 8.42246 15.8914 7.96166 15.8111C7.75569 15.7762 7.66144 16.0799 7.87438 16.1323C8.34566 16.244 8.82741 16.3976 9.30916 16.457C9.53607 16.4849 9.564 16.1323 9.36152 16.073L9.35803 16.0695Z" fill="#08111F"/>
<path d="M11.2641 15.2176C10.524 15.1792 9.7804 15.2176 9.03684 15.2281C8.85182 15.2316 8.85182 15.5144 9.03684 15.5179C9.7804 15.5318 10.5205 15.5667 11.2641 15.5283C11.4665 15.5179 11.4665 15.2246 11.2641 15.2141V15.2176Z" fill="#08111F"/>
<path d="M15.5405 4.20019C15.3659 3.96979 15.1565 3.76731 15.0133 3.51247C14.9365 3.37982 14.8946 3.23669 14.8353 3.09356C14.7934 2.99233 14.7271 2.93647 14.7061 2.82825C14.6887 2.734 14.5421 2.75843 14.5421 2.8492C14.5421 2.99582 14.4792 3.07611 14.5072 3.22622C14.5386 3.39378 14.6014 3.55437 14.6747 3.70797C14.8248 4.01517 15.0517 4.28746 15.3764 4.40964C15.4881 4.45154 15.6138 4.29444 15.5405 4.1967V4.20019Z" fill="#08111F"/>
<path d="M7.90227 25.0271C7.21455 25.1807 6.84102 25.8684 6.93179 26.5422C6.95622 26.7132 7.24597 26.6748 7.2355 26.5003C7.21106 26.0046 7.53572 25.5473 7.99303 25.3588C8.19201 25.275 8.12219 24.9783 7.90227 25.0271Z" fill="#08111F"/>
<path d="M22.5712 40.8656C22.2431 41.2182 21.9813 41.6126 21.7055 42.0106C21.5973 42.1677 21.8521 42.3667 21.9743 42.2166C22.2745 41.8396 22.5817 41.48 22.8261 41.0646C22.9168 40.9075 22.7004 40.7294 22.5712 40.8691V40.8656Z" fill="#08111F"/>
<path d="M21.9917 50.6645C21.9568 50.5109 21.7194 50.5109 21.681 50.6645C21.5763 51.1044 21.6636 51.649 21.681 52.0993C21.688 52.2948 21.9778 52.2948 21.9848 52.0993C22.0022 51.649 22.0895 51.1044 21.9848 50.6645H21.9917Z" fill="#08111F"/>
<path d="M12.2101 52.6229C11.9448 51.9841 11.9378 51.3871 11.9448 50.7099C11.9448 50.5772 11.7458 50.5493 11.7144 50.6785C11.5434 51.3487 11.7214 52.0958 12.0007 52.7137C12.053 52.8324 12.2625 52.7451 12.2101 52.6264V52.6229Z" fill="#08111F"/>
<path d="M12.5243 48.7586C12.5069 48.5701 12.2485 48.5701 12.2311 48.7586C12.1264 49.8582 12.2066 50.9963 12.2555 52.0959C12.2625 52.253 12.4894 52.253 12.4964 52.0959C12.5488 50.9963 12.6256 49.8547 12.5208 48.7586H12.5243Z" fill="#08111F"/>
<path d="M9.95844 59.584C9.93052 59.4757 9.77342 59.5037 9.76993 59.6084C9.74899 60.1704 9.72455 60.6941 9.49415 61.2177C9.4348 61.3504 9.6268 61.4656 9.68964 61.3329C9.94797 60.7953 10.1086 60.1739 9.95844 59.584Z" fill="#08111F"/>
<path d="M8.85888 60.1669C8.85189 60.0378 8.66688 60.0378 8.65989 60.1669C8.60753 61.092 8.65989 62.0206 8.68084 62.9492C8.68084 63.0505 8.83444 63.0505 8.83793 62.9492C8.86237 62.0206 8.91124 61.092 8.85888 60.1669Z" fill="#08111F"/>
<path d="M16.0606 67.3582C15.7988 66.7682 15.7429 66.1259 15.8616 65.4905C15.893 65.3195 15.6382 65.2427 15.5963 65.4172C15.4322 66.1294 15.53 66.8206 15.8581 67.4734C15.9244 67.6095 16.1164 67.4908 16.0571 67.3582H16.0606Z" fill="#08111F"/>
<path d="M22.292 60.167C22.285 60.7221 22.3025 61.2806 22.3164 61.8357C22.3164 61.9369 22.47 61.9369 22.4735 61.8357C22.484 61.2806 22.5014 60.7221 22.498 60.167C22.498 60.0379 22.2955 60.0344 22.2955 60.167H22.292Z" fill="#08111F"/>
</svg>
