<svg width="83" height="80" viewBox="0 0 83 80" fill="none" xmlns="http://www.w3.org/2000/svg">
<path d="M82.2234 41.654C82.1145 37.5522 81.5065 33.1284 78.521 30.0475C77.8177 29.3216 76.9828 28.709 76.1389 28.1555C75.8485 27.9649 75.5037 27.8333 75.2314 27.6155C74.7459 26.4358 74.628 24.7298 73.9247 23.4594C72.9356 21.6717 71.3656 20.3559 69.3738 19.825C69.1651 19.7705 68.4845 19.6117 67.8039 19.5119C67.1006 15.7233 65.1722 12.4065 60.8981 12.0344C60.5623 12.0072 60.0179 11.9255 59.487 11.9074C59.7683 10.1106 59.7547 8.07791 59.2873 6.39004C58.0759 1.97524 53.8517 0.0423498 49.5821 0.00151409C45.1809 -0.0393216 40.5982 0.754706 36.2378 1.31279C26.8955 2.50157 17.7529 4.31649 9.11838 8.18681C4.15911 10.4101 1.72711 13.9083 1.3006 19.3168C0.851411 24.9975 0.674457 30.7145 0.461203 36.4088C0.0301594 48.0742 -0.110497 59.7397 0.0891444 71.4141C0.148129 74.8716 3.19266 76.3734 5.81522 75.9197C6.40053 76.75 7.22632 77.4261 8.26537 77.789C17.3944 80.9833 27.4672 79.9034 36.9411 79.4724C46.8506 79.0232 56.7782 78.2972 66.5516 76.5141C70.8076 75.7382 76.8104 75.3298 79.2469 71.1918C80.4539 69.1409 80.5718 66.6182 80.8804 64.3087C81.2343 61.6635 81.5383 59.0137 81.7606 56.3503C82.1644 51.4681 82.355 46.5497 82.2234 41.6494V41.654Z" fill="white"/>
<path d="M80.2134 35.8827C79.8731 33.7184 78.9747 33.2284 77.1916 32.3799C74.6461 31.173 74.6779 30.5196 74.2695 28.1285C74.1334 27.3163 73.9837 26.5223 73.5027 25.8371C72.3185 24.1583 70.4491 24.4669 68.6887 24.0812C65.6305 23.4142 66.9781 19.739 65.018 17.8333C63.1804 16.0456 60.6168 16.0593 58.2256 16.3088C58.8155 11.6671 58.6476 5.43289 53.1575 4.18059C49.1465 3.26406 44.3007 4.06262 40.2262 4.2668C35.2079 4.52089 30.1987 4.9111 25.2031 5.45104C17.8119 6.25414 9.5313 7.37032 3.52845 12.1753C0.688097 14.4394 0.46577 17.1119 0.488456 20.5421C0.524755 25.5195 0.570128 30.497 0.615501 35.4698C0.715321 46.4864 0.692635 57.5166 1.06016 68.5286C1.08284 69.1775 2.0629 69.182 2.07197 68.5286C2.22624 58.2199 2.02206 47.9111 1.92224 37.6024C1.87687 32.625 1.82242 27.6475 1.77251 22.6746C1.74983 20.288 1.24619 17.2072 2.52571 15.0384C3.89143 12.7198 6.88605 11.3268 9.25906 10.2878C18.075 6.42202 28.597 6.21784 38.0664 5.66883C40.5755 5.52364 43.0847 5.41474 45.5938 5.33761C47.9849 5.26501 50.8888 4.81128 53.2301 5.51456C57.9171 6.92566 57.418 13.0828 56.8418 16.8624C56.7873 17.2253 57.0051 17.7381 57.4679 17.6836C59.2375 17.4749 61.1204 17.2253 62.8038 17.9422C65.2358 18.9767 64.7548 20.592 65.0588 22.6157C65.2449 23.8543 65.93 24.6529 67.1006 25.0749C69.5916 25.9733 72.1143 24.848 72.9583 28.2238C73.3621 29.83 73.0853 31.5904 74.51 32.7611C75.1135 33.2556 75.7895 33.2602 76.4792 33.5506C78.8341 34.5352 78.9929 36.1277 79.0201 38.3556C79.0609 41.5226 78.9838 44.6942 78.8159 47.8567C78.4484 54.835 77.5818 61.768 76.2841 68.633C76.1298 69.4497 77.3776 69.7991 77.5364 68.9778C78.9203 61.6546 79.8277 54.2497 80.168 46.7995C80.3268 43.2785 80.7579 39.3765 80.2089 35.8827H80.2134Z" fill="#08111F"/>
<path d="M10.6112 53.0836C8.80081 52.2487 6.89968 53.9729 6.35066 55.7243C5.79711 57.4757 6.20093 59.5583 6.35066 61.3415C6.54123 63.6736 6.75902 65.9922 7.11747 68.3062C7.17191 68.6601 7.73454 68.5694 7.73 68.2245C7.72093 65.9241 7.57573 63.6373 7.40785 61.346C7.21729 58.7552 6.3915 53.1788 10.7428 54.0954C10.9288 54.1362 11.0785 54.0636 11.1647 53.9502C14.9307 55.5791 14.2047 66.1782 13.9824 68.887C13.9234 69.5721 14.9942 69.5676 15.0487 68.887C15.2982 65.9151 16.0786 52.8567 10.6157 53.0926L10.6112 53.0836Z" fill="#08111F"/>
<path d="M23.0753 53.6687C22.9936 53.646 22.9074 53.637 22.8121 53.6551C20.5571 54.0635 19.4545 55.9283 19.205 58.0926C18.8148 61.4411 19.4681 65.1617 19.7358 68.5057C19.7812 69.0593 20.6251 69.0774 20.6115 68.5057C20.5162 65.1481 18.5244 55.5426 23.107 54.7123C23.3067 54.676 23.4156 54.5626 23.4655 54.4219C25.7296 54.1633 25.8022 58.2106 25.8793 59.3494C25.9519 60.4066 25.9837 61.4684 26.0064 62.5301C26.0563 64.649 25.8975 66.7815 26.0336 68.8914C26.0654 69.3587 26.8322 69.5402 26.9138 69.0094C27.2269 66.963 28.1525 51.6451 23.0753 53.6733V53.6687Z" fill="#08111F"/>
<path d="M36.7007 53.8504C36.6599 53.6734 36.5237 53.5192 36.2923 53.5101C28.6742 53.2333 30.8385 64.082 31.4238 68.4923C31.4828 68.946 32.1679 68.9823 32.1634 68.4923C32.1316 66.1056 31.9547 63.7326 31.8322 61.3505C31.6462 57.7525 32.6988 55.6245 36.0473 54.4856C37.3178 55.0255 37.4947 57.8659 37.5764 58.5057C37.7125 59.5674 37.8169 60.6382 37.9122 61.7045C38.0982 63.8415 38.0846 66.0058 38.3477 68.1293C38.4203 68.7237 39.2416 68.7463 39.287 68.1293C39.3959 66.7272 39.5093 55.6381 36.7007 53.8458V53.8504Z" fill="#08111F"/>
<path d="M51.6829 58.7463C51.3244 56.9949 50.8163 55.1573 49.3235 54.2725C49.2963 54.1545 49.2373 54.0456 49.1238 53.9685C47.3361 52.7344 45.2944 54.023 44.5548 55.8515C43.8833 57.5076 44.1147 59.5993 44.1011 61.3235C44.0829 63.8417 44.0738 66.3644 44.21 68.8826C44.2372 69.3545 44.8996 69.35 44.9359 68.8826C45.1129 66.5459 45.1628 64.2047 45.2036 61.8634C45.2399 59.6855 44.6954 53.2516 48.7518 54.8578C48.779 54.8714 48.8062 54.8669 48.8335 54.8714C50.7346 56.4005 50.907 60.4569 51.1021 62.3625C51.3199 64.5359 51.2019 66.7093 51.3789 68.8781C51.4152 69.3409 52.1684 69.5315 52.2591 68.9961C52.8217 65.6702 52.3589 62.0313 51.6874 58.7418L51.6829 58.7463Z" fill="#08111F"/>
<path d="M63.0988 58.3243C62.7358 56.5638 62.1005 54.8805 60.6305 54.1862C60.5715 54.0592 60.4671 53.9548 60.2992 53.9276C59.9771 53.8686 59.6776 53.855 59.3963 53.8686C59.2874 53.8596 59.1785 53.8505 59.0651 53.8459C58.9743 53.8459 58.9017 53.8822 58.8473 53.9367C54.2601 54.9485 55.2719 65.8925 55.5078 68.8916C55.5441 69.3545 56.2157 69.3635 56.2338 68.8916C56.3609 65.9742 55.7166 54.4902 60.154 55.003C60.1722 55.003 60.1858 54.9984 60.204 54.9984C62.3955 56.473 62.3909 60.7926 62.5906 63.0068C62.7902 65.2391 62.6586 67.5078 62.9899 69.722C63.0488 70.1303 63.7249 70.1167 63.7975 69.722C64.4781 66.1284 63.8383 61.8906 63.1033 58.3243H63.0988Z" fill="#08111F"/>
<path d="M70.4492 54.9347C68.48 54.7532 67.1506 56.1824 66.6697 58.1153C65.7894 61.6635 66.2432 65.9558 66.2522 69.5902C66.2522 70.0439 66.9147 70.0303 66.951 69.5902C67.1098 67.5847 67.2414 65.5792 67.3457 63.5692C67.4592 61.355 66.8829 55.6697 70.7124 55.9919C70.8848 56.0055 71.0119 55.9238 71.0981 55.8104C73.8522 57.226 72.8858 67.5847 72.8676 69.3089C72.8631 69.8397 73.6889 69.9713 73.8068 69.4359C74.3241 67.131 75.2633 53.941 70.4538 54.9347H70.4492Z" fill="#08111F"/>
<path d="M11.1963 45.742C11.2371 46.2229 12.0175 46.418 12.1083 45.8645C12.5166 43.3871 13.4468 33.1464 8.31056 34.3397C6.81325 34.6846 6.28238 36.2636 6.1145 37.6157C5.72883 40.7192 5.99653 44.163 6.40943 47.2484C6.45026 47.5433 6.85408 47.4253 6.88584 47.1848C6.89038 47.144 6.89492 47.1032 6.89946 47.0623C6.9539 47.0759 7.01289 47.085 7.08095 47.0759C7.87951 46.9625 8.68262 46.9217 9.48572 46.958C10.2026 46.9897 10.9513 47.1848 11.6591 47.1077C12.0448 47.0669 12.3034 46.5088 11.8769 46.2955C10.4658 45.5922 8.46483 45.9416 6.96752 46.291C7.18531 43.2828 6.65898 40.0431 7.34411 37.1665C7.45301 36.8489 7.56644 36.5313 7.67534 36.2136C9.47211 35.524 10.4794 35.828 10.7017 37.1347C11.2008 37.9923 11.0647 39.1629 11.1055 40.1293C11.1872 41.9987 11.042 43.8817 11.1917 45.742H11.1963Z" fill="#08111F"/>
<path d="M11.8499 26.4268C11.0151 23.355 12.8935 16.3903 7.91609 15.9502C6.36433 15.814 5.24816 16.8576 4.95777 18.3368C4.43598 20.982 5.04851 24.2943 5.38881 26.9395C5.44326 27.3796 6.07394 27.4068 6.09663 26.9395C6.1783 25.1654 6.14654 23.3913 6.09209 21.6172C6.06941 20.8504 5.9832 20.061 6.03311 19.2942C6.02857 18.786 6.13293 18.2914 6.34618 17.815C7.42606 16.9438 8.41066 16.9438 9.3045 17.8059C11.428 19.8568 9.80814 23.7997 10.6838 26.4313C10.6612 26.4268 10.643 26.4132 10.6203 26.4132C9.15931 26.2771 7.71191 26.5538 6.41424 27.248C6.04672 27.4431 6.29627 28.0557 6.70009 27.9241C7.98869 27.5112 9.26367 27.3479 10.6158 27.4704C10.9289 27.4976 11.0922 27.2889 11.1149 27.0439C11.496 27.1936 11.9906 26.944 11.8499 26.4223V26.4268Z" fill="#08111F"/>
<path d="M25.6794 46.2957C24.9716 42.8247 27.6486 33.9406 21.3735 33.9769C19.6992 33.986 18.6284 35.1203 18.3607 36.7084C17.8389 39.8391 18.3834 43.4916 18.8734 46.5997C18.937 47.0035 19.5858 46.8992 19.5767 46.5044C19.5404 44.5035 19.4769 42.507 19.4451 40.5106C19.4088 38.4235 19.1411 33.8317 22.6076 35.3971C26.0061 36.9307 24.2456 42.7475 24.5178 45.9872C23.6966 45.783 22.6938 45.9418 21.8862 46.0371C21.1239 46.1233 20.2709 46.1732 19.6629 46.6632C19.4406 46.754 19.4814 47.126 19.7174 47.1895C20.5159 47.4073 21.4279 47.0806 22.2401 47.0081C23.0614 46.9355 23.9552 47.0716 24.7538 46.8629C25.085 47.1805 25.8019 46.8855 25.6839 46.3002L25.6794 46.2957Z" fill="#08111F"/>
<path d="M37.1815 47.185C37.3313 44.5851 37.8531 35.8009 33.8013 35.4742C33.7423 35.3472 33.6334 35.2383 33.4519 35.1884C31.7595 34.7346 30.675 35.9189 30.3983 37.5205C29.8719 40.5696 30.3393 44.1087 30.4845 47.185C30.4936 47.4028 30.6433 47.5162 30.8066 47.5344C30.8066 47.7476 30.9428 47.9654 31.2286 47.9836C33.0344 48.097 34.8448 48.0879 36.6507 48.0925C37.0999 48.0925 37.2632 47.6523 37.1407 47.3257C37.1543 47.2803 37.177 47.2349 37.177 47.1805L37.1815 47.185ZM32.3312 36.3998C32.3675 36.3998 32.4038 36.4089 32.4446 36.3998C36.9002 35.6058 36.1969 44.2085 36.079 46.999C34.4637 46.999 32.8439 47.0035 31.2331 47.1079C31.3239 45.4563 31.401 43.8092 31.4146 42.1531C31.4237 41.409 31.0834 37.2891 32.3266 36.3998H32.3312Z" fill="#08111F"/>
<path d="M47.4676 35.3426C45.9476 34.29 44.1236 35.2927 43.5247 36.9761C43.012 38.4144 43.3205 40.1794 43.4158 41.6586C43.5428 43.6595 43.7153 45.6559 43.9875 47.6387C43.9149 47.6841 43.8378 47.7249 43.7697 47.7794C43.5927 47.9064 43.5655 48.2694 43.8378 48.3103C44.6227 48.4328 45.4258 48.2377 46.2198 48.2014C47.209 48.156 48.1981 48.2014 49.1736 48.3556C49.5729 48.4191 49.8361 48.1061 49.8724 47.7975C49.9041 47.7249 49.9223 47.6433 49.9223 47.5434C49.8633 45.302 50.6891 36.6721 47.4676 35.3472V35.3426ZM44.6636 47.3302C44.6953 45.7376 44.6636 44.145 44.5955 42.5524C44.5547 41.6586 44.4866 40.7693 44.4594 39.8754C44.4321 39.0269 44.2779 36.4543 45.5438 36.0232C45.8523 35.9643 46.1336 35.9688 46.3923 36.0232C46.4966 36.0505 46.6055 36.0868 46.7189 36.1321C49.3007 37.2937 48.7698 44.6895 48.7653 47.1623C47.4721 46.999 45.9022 46.9037 44.6681 47.3302H44.6636Z" fill="#08111F"/>
<path d="M62.2592 47.5482C62.1413 45.6107 61.9961 43.6733 61.8599 41.7404C61.7647 40.411 61.9144 38.5961 61.3291 37.3347C60.8391 36.273 59.8227 35.7058 58.829 36.0552C57.4905 36.2866 57.5268 35.919 56.8735 37.1078C56.3154 38.1196 55.9524 39.2857 55.7028 40.4019C55.1584 42.8702 55.3716 45.2659 56.152 47.657C56.1566 47.6707 56.1656 47.6797 56.1747 47.6933C56.0295 47.952 56.1838 48.383 56.5468 48.3694C58.0985 48.315 59.5913 48.4102 61.1068 48.7641C61.5741 48.873 61.8509 48.4284 61.7737 48.0745C62.0369 48.0609 62.2819 47.8884 62.2592 47.5436V47.5482ZM56.8235 47.4529C56.3154 45.2296 56.27 42.9292 56.7736 40.6923C56.9551 39.8756 57.2591 38.2421 57.8399 37.6659C58.1212 37.3846 59.0151 36.9944 59.3508 36.7675C59.3508 36.7675 59.3508 36.7675 59.3554 36.763C60.5895 36.7947 60.6077 39.5353 60.6485 40.0752C60.7075 40.9055 60.7574 41.7359 60.8118 42.5662C60.9207 44.2268 61.0206 45.8875 61.1476 47.5436C61.1476 47.5844 61.1703 47.6162 61.1794 47.6525C59.7456 47.3258 58.28 47.2351 56.8235 47.4483V47.4529Z" fill="#08111F"/>
<path d="M73.6569 48.4418C74.7095 44.7983 74.41 39.7211 71.0434 37.4796C71.0298 37.3299 70.9617 37.1892 70.8074 37.103C66.134 34.4986 66.9825 46.9036 67.0642 48.6369C67.0732 48.8546 67.291 48.9862 67.477 48.9726C67.5451 49.0498 67.6404 49.1042 67.7674 49.0906C68.6704 49.0089 69.5778 48.9681 70.4853 49.0588C71.3746 49.1496 72.2684 49.567 73.1578 49.4899C73.4754 49.4626 73.7657 49.0225 73.4527 48.773C73.43 48.7548 73.4073 48.7412 73.3846 48.7231C73.5071 48.6822 73.616 48.5915 73.6614 48.4327L73.6569 48.4418ZM67.8083 48.2739C68.0124 46.8945 68.1304 45.5061 68.2302 44.1177C68.3074 43.0287 68.0624 37.2074 70.4081 38.0468C70.4717 38.0695 70.5352 38.074 70.5942 38.074C73.5933 40.7147 72.6813 44.6531 72.7721 48.3238C72.7721 48.351 72.7812 48.3692 72.7857 48.3918C71.3428 47.7612 69.2375 47.9789 67.8083 48.2739Z" fill="#08111F"/>
<path d="M25.2622 17.1709C24.9991 15.6555 24.3094 14.4032 23.1524 13.6454C23.1524 13.4912 23.0798 13.346 22.9028 13.2643C21.0425 12.3931 18.3837 11.9939 17.2539 14.1627C16.5778 15.4649 16.841 17.2435 16.8591 18.6365C16.8909 21.0458 16.9726 23.4415 17.1586 25.8463C17.1949 26.3 17.8392 26.3045 17.8664 25.8463C18.0116 23.4415 18.0524 21.0458 18.0388 18.6365C18.0388 17.6156 17.7893 16.0956 18.1704 15.1246C19.0144 12.9649 21.0924 13.7952 22.5081 14.1945C22.5217 14.1945 22.5353 14.1945 22.5535 14.1945C25.4346 16.5176 23.9963 22.6928 24.0145 26.0595C23.96 26.0141 23.892 25.9733 23.8103 25.9461C21.7867 25.2564 19.4454 25.3063 17.5397 26.3272C17.1268 26.5495 17.4172 27.1621 17.8483 27.0623C19.8038 26.604 21.5507 26.5268 23.4881 27.1212C23.8012 27.2165 24.0326 27.0759 24.146 26.8581C24.3865 27.1485 24.931 27.1802 24.9991 26.7174C25.4256 23.75 25.7749 20.1474 25.2577 17.1709H25.2622Z" fill="#08111F"/>
<path d="M36.0973 16.3496C35.8341 14.7434 35.1445 13.4865 33.8922 12.7243C32.0999 11.3313 29.8721 12.57 29.0826 14.4983C28.4837 15.9548 28.6652 17.6518 28.7151 19.1808C28.7877 21.3587 28.8558 23.5366 29.1734 25.6919C29.2369 26.1229 29.863 25.9777 29.8948 25.5966C30.0672 23.4595 29.9765 21.3224 29.9084 19.1854C29.8449 17.0528 29.6316 12.0573 33.443 13.55C33.5065 13.5727 33.57 13.5773 33.629 13.5682C36.2107 16.2679 34.9221 22.3433 35.2715 25.71C35.2488 25.7055 35.2307 25.6919 35.2034 25.6919C33.2206 25.5149 31.2424 25.7055 29.3004 26.1184C28.7877 26.2273 29.0146 26.9623 29.5137 26.8897C31.4148 26.6039 33.2932 26.622 35.2034 26.7899C35.5528 26.8217 35.7298 26.563 35.7298 26.2908C35.9702 26.3135 36.2198 26.1683 36.2516 25.8325C36.5374 22.8515 36.5828 19.317 36.0928 16.3586L36.0973 16.3496Z" fill="#08111F"/>
<path d="M45.2898 11.6352C43.5202 11.0771 41.8278 12.5608 41.3106 14.3213C40.335 17.6472 41.542 22.2253 42.0002 25.5738C42.032 25.8188 42.2725 25.8869 42.4721 25.8279C42.463 25.955 42.513 26.082 42.6309 26.141C43.3478 26.4904 44.1872 26.4042 44.9722 26.4178C45.8252 26.4359 46.8189 26.6038 47.6265 26.2998C47.9623 26.1728 48.0439 25.8143 47.867 25.5738C47.9668 25.5148 48.0575 25.4286 48.1165 25.288C49.1737 22.7244 50.7436 10.2967 45.2898 11.6352ZM47.1229 25.0157C47.1047 25.111 47.1138 25.1972 47.1365 25.2744C46.4377 25.1609 45.6618 25.2653 44.9722 25.2789C44.2326 25.2925 43.4431 25.2199 42.7534 25.5058C42.7534 25.4922 42.7625 25.4831 42.7625 25.4695C42.7217 23.5502 42.6309 21.6355 42.4993 19.7207C42.3587 17.6199 41.2516 12.1117 45.4985 12.7242C45.6936 12.7514 45.866 12.6652 45.9749 12.5382C49.5639 13.2278 47.3951 23.4821 47.1274 25.0112L47.1229 25.0157Z" fill="#08111F"/>
<path d="M6.56396 52.462C5.71548 52.8386 5.2073 53.864 4.88515 54.6808C4.78533 54.9303 5.20276 55.1073 5.32073 54.8668C5.52945 54.4539 5.779 54.0682 6.07393 53.7143C6.33709 53.3922 6.63655 53.1108 6.85888 52.7569C6.98139 52.5573 6.74545 52.3849 6.56849 52.4666L6.56396 52.462Z" fill="#08111F"/>
<path d="M7.87071 50.5473C7.41698 50.275 6.75 50.4792 6.29627 50.6652C5.76994 50.8785 5.32075 51.2233 4.97137 51.668C4.75358 51.9447 5.1211 52.335 5.36612 52.0627C5.6928 51.6997 6.07847 51.4275 6.54128 51.2732C6.95417 51.1371 7.41244 51.2324 7.80265 51.0781C8.02498 50.9874 8.10211 50.6879 7.87071 50.5473Z" fill="#08111F"/>
<path d="M13.4243 36.2411C13.2383 35.7737 12.8935 35.3699 12.5985 34.9706C12.2718 34.526 11.9452 34.0813 11.6139 33.6367C11.4324 33.3871 11.015 33.6185 11.192 33.8817C11.5005 34.3399 11.8045 34.7982 12.113 35.2519C12.3898 35.6603 12.653 36.1413 13.025 36.4679C13.1838 36.6086 13.5151 36.477 13.4198 36.2365L13.4243 36.2411Z" fill="#08111F"/>
<path d="M12.8526 32.6065C12.7119 32.5157 12.5304 32.7381 12.6665 32.8469C13.7192 33.6682 14.1639 34.7572 14.3726 36.0412C14.4179 36.3134 14.8399 36.2409 14.8399 35.9777C14.849 34.6029 13.9688 33.337 12.848 32.6065H12.8526Z" fill="#08111F"/>
<path d="M15.9061 16.8076C15.8744 16.5218 15.4887 16.5218 15.4569 16.8076C15.3662 17.6425 15.4433 18.5001 15.466 19.3395C15.4706 19.6162 15.8925 19.6162 15.8971 19.3395C15.9152 18.5001 15.9923 17.6425 15.9061 16.8076Z" fill="#08111F"/>
<path d="M3.17005 30.1475C3.1156 29.9569 2.81614 29.9932 2.82068 30.1928C2.83429 31.4179 2.87512 32.5794 2.56205 33.7773C2.51214 33.9724 2.79345 34.045 2.86151 33.859C3.27894 32.6702 3.51035 31.3771 3.17005 30.1429V30.1475Z" fill="#08111F"/>
<path d="M4.33156 28.0193C4.2998 27.7335 3.91413 27.7335 3.88236 28.0193C3.78254 28.9722 3.9232 29.9567 3.97311 30.9141C3.98218 31.082 4.2272 31.0865 4.23627 30.9141C4.28618 29.9613 4.42684 28.9767 4.32702 28.0193H4.33156Z" fill="#08111F"/>
<path d="M28.3385 7.93726C27.2586 7.85105 26.1651 7.92365 25.0852 7.95995C24.8674 7.96902 24.8674 8.29571 25.0852 8.30025C26.1651 8.33654 27.2631 8.40914 28.3385 8.32293C28.588 8.30478 28.588 7.95541 28.3385 7.93726Z" fill="#08111F"/>
<path d="M30.1397 8.57715C28.7967 8.61798 27.4491 8.8267 26.1242 9.04449C25.9336 9.07625 25.979 9.39386 26.1696 9.38479C27.5172 9.32127 28.8738 9.23959 30.1987 8.99912C30.4346 8.95374 30.3802 8.57261 30.1397 8.58169V8.57715Z" fill="#08111F"/>
<path d="M53.3934 7.57434C53.221 7.4972 53.0667 7.73768 53.2437 7.83297C54.0196 8.25493 54.4688 9.0535 54.4098 9.93374C54.3871 10.2695 54.9406 10.274 54.9316 9.93374C54.9134 8.91738 54.3281 7.98723 53.3934 7.57434Z" fill="#08111F"/>
<path d="M51.615 22.8695C51.5016 22.7243 51.1885 22.7379 51.2112 22.9784C51.2475 23.3368 51.37 23.6635 51.3382 24.031C51.3019 24.4757 51.1113 24.875 50.8028 25.1926C50.6803 25.3196 50.8618 25.4921 50.9934 25.3832C51.6422 24.8614 52.1958 23.6227 51.6104 22.8695H51.615Z" fill="#08111F"/>
<path d="M53.5886 20.9956C53.4661 20.7234 53.1122 20.9366 53.1485 21.1817C53.3889 22.8968 53.5387 24.503 52.8308 26.15C52.7628 26.3088 52.9806 26.4495 53.0668 26.2907C53.9289 24.6754 54.3599 22.7379 53.5886 20.9956Z" fill="#08111F"/>
<path d="M63.2394 20.6826C63.1395 20.4875 62.8718 20.6599 62.9535 20.8505C63.2983 21.6581 63.2802 22.4612 63.1985 23.3142C63.1758 23.5456 63.5161 23.5638 63.5842 23.3641C63.8837 22.4703 63.6613 21.4993 63.2394 20.678V20.6826Z" fill="#08111F"/>
<path d="M70.4037 28.6684C70.009 27.7701 69.0199 27.3708 68.0806 27.5205C67.9309 27.5432 67.9672 27.7927 68.1169 27.7837C68.9291 27.7383 69.6324 28.1966 70.0589 28.8726C70.1996 29.0949 70.5081 28.8998 70.4037 28.6684Z" fill="#08111F"/>
<path d="M76.9421 38.0561C76.8378 37.8473 76.5474 38.0288 76.6336 38.2375C76.9013 38.8728 76.9966 39.5624 76.9058 40.2476C76.8559 40.606 77.3686 40.6786 77.3958 40.3156C77.4594 39.5261 77.3006 38.7684 76.9421 38.0606V38.0561Z" fill="#08111F"/>
<path d="M75.5762 39.1085C75.49 38.9497 75.2177 39.0586 75.2767 39.2355C75.8893 40.9552 75.9256 42.4888 75.7577 44.2855C75.7304 44.5805 76.1887 44.6304 76.2658 44.3536C76.7468 42.643 76.3884 40.6648 75.5762 39.113V39.1085Z" fill="#08111F"/>
<path d="M71.8239 53.17C71.5835 53.0248 71.3929 53.3787 71.6061 53.5375C72.6588 54.3224 73.0717 55.4069 73.3122 56.6501C73.3666 56.945 73.7886 56.8497 73.8067 56.582C73.9111 55.1845 72.9719 53.8642 71.8239 53.1654V53.17Z" fill="#08111F"/>
<path d="M73.4348 53.4192C73.2216 53.2423 72.9221 53.5281 73.1263 53.7277C73.7524 54.3357 74.2198 55.0753 74.4648 55.9193C74.678 56.6452 74.5963 57.3621 74.7052 58.0926C74.7461 58.3558 75.0864 58.2787 75.1681 58.0926C75.8396 56.4955 74.6327 54.4174 73.4393 53.4192H73.4348Z" fill="#08111F"/>
<path d="M65.3539 43.7957C64.8729 44.499 64.8094 45.343 65.0589 46.1415C65.1361 46.3911 65.5127 46.2867 65.4491 46.0326C65.2858 45.3384 65.4083 44.6397 65.6987 43.9954C65.8031 43.7594 65.4991 43.5779 65.3539 43.7912V43.7957Z" fill="#08111F"/>
<path d="M53.8652 41.3411C53.838 41.1278 53.466 41.1278 53.4387 41.3411C53.289 42.43 53.3888 43.5598 53.4342 44.6533C53.4433 44.9346 53.8607 44.9346 53.8698 44.6533C53.9106 43.5598 54.0104 42.43 53.8652 41.3411Z" fill="#08111F"/>
<path d="M53.7837 38.9861C53.9244 38.8364 53.7837 38.5415 53.5705 38.6186C52.1866 39.0996 52.0595 41.1504 52.8036 42.1895C52.9443 42.3846 53.2665 42.2076 53.1349 41.9989C52.8082 41.4907 52.7129 40.8963 52.8717 40.311C53.0214 39.7393 53.398 39.4036 53.7882 38.9907L53.7837 38.9861Z" fill="#08111F"/>
<path d="M55.476 53.1562C54.9361 53.1199 54.4733 53.7959 54.2691 54.227C54.0105 54.7715 53.9605 55.3522 54.1057 55.9376C54.1602 56.169 54.564 56.1236 54.5322 55.8786C54.4687 55.384 54.5549 54.894 54.7999 54.4539C55.0223 54.0636 55.4715 53.8549 55.662 53.4783C55.7392 53.3286 55.6439 53.1698 55.476 53.1562Z" fill="#08111F"/>
<path d="M41.9594 55.3296C42.0638 55.1436 41.8914 54.9575 41.7008 54.9938C41.1518 55.0937 40.8478 55.8015 40.7661 56.2915C40.6754 56.8632 40.8206 57.3941 41.1745 57.8478C41.3242 58.0429 41.6418 57.7934 41.5148 57.5846C41.2743 57.2035 41.2062 56.7543 41.3242 56.3187C41.4422 55.8968 41.7553 55.688 41.9594 55.3296Z" fill="#08111F"/>
<path d="M42.3087 57.6753C42.3178 57.4348 41.9367 57.3803 41.8822 57.6163C41.6191 58.7869 41.8414 59.9121 42.3133 60.9966C42.3723 61.1327 42.581 61.0329 42.5447 60.8967C42.2724 59.835 42.2679 58.7597 42.3042 57.6753H42.3087Z" fill="#08111F"/>
<path d="M41.0655 38.0698C40.7524 39.1315 40.6571 40.2613 40.4938 41.3548C40.453 41.6361 40.8659 41.7677 40.9294 41.4773C41.1699 40.3793 41.4784 39.2631 41.5601 38.1379C41.5828 37.8429 41.1381 37.8021 41.061 38.0698H41.0655Z" fill="#08111F"/>
<path d="M30.0718 53.0746C29.0736 53.4557 28.4792 54.4811 28.2297 55.4748C28.1934 55.6291 28.4248 55.7425 28.4928 55.5882C28.8967 54.6853 29.5999 54.1408 30.3214 53.5056C30.5074 53.3423 30.3123 52.9838 30.0718 53.0746Z" fill="#08111F"/>
<path d="M30.2531 51.3274C29.4046 50.9553 28.293 51.7902 27.7984 52.4299C27.5988 52.6885 27.9436 53.0561 28.166 52.7974C28.4382 52.4798 28.7649 52.2212 29.1506 52.0488C29.509 51.8945 29.9219 51.8945 30.2531 51.6994C30.3802 51.6268 30.4029 51.3954 30.2531 51.3319V51.3274Z" fill="#08111F"/>
<path d="M27.4807 36.9942C27.2539 36.4316 26.7956 35.9325 26.4462 35.4424C26.2783 35.2065 25.8927 35.4198 26.0515 35.6738C26.2194 35.9461 26.3918 36.2138 26.5597 36.486C26.7185 36.7401 26.8682 37.0169 27.086 37.2256C27.2403 37.3799 27.576 37.2256 27.4807 36.9942Z" fill="#08111F"/>
<path d="M38.257 24.6435C37.8305 25.5102 37.7397 26.4086 37.8849 27.3568C37.9257 27.6109 38.3613 27.5565 38.3386 27.2933C38.2706 26.4494 38.4294 25.6281 38.7198 24.8341C38.8196 24.5664 38.384 24.3804 38.257 24.639V24.6435Z" fill="#08111F"/>
<path d="M17.3128 61.5455C16.7229 62.5211 16.7365 63.6645 17.3309 64.6354C17.4307 64.7988 17.6712 64.6536 17.585 64.4857C17.1404 63.6145 17.163 62.5937 17.6304 61.7361C17.7438 61.5274 17.4353 61.3459 17.3082 61.5501L17.3128 61.5455Z" fill="#08111F"/>
</svg>
