<svg width="110" height="80" viewBox="0 0 110 80" fill="none" xmlns="http://www.w3.org/2000/svg">
<path d="M116.28 45.1717C102.841 30.9744 89.052 17.1141 74.9519 3.58424C71.0381 -0.174057 65.0249 1.70509 63.3531 6.64919C61.1305 13.2262 58.5904 19.6607 55.7393 25.9655C50.9961 22.0906 46.2075 18.2675 41.3671 14.5092C37.4144 11.4507 33.4487 8.4117 29.4442 5.4245C25.9451 2.81314 22.4007 -0.582286 17.6898 0.0851352C13.1993 0.726637 10.6722 4.67284 8.02842 7.93219C5.09306 11.5544 2.22898 15.2285 -0.596214 18.9414C-6.27253 26.4126 -11.2944 34.1819 -15.8821 42.3595C-17.5539 45.3337 -16.6402 47.9645 -14.7287 49.4678C-17.4826 55.7856 -17.852 62.9717 -15.1758 69.4516C-11.4758 78.4067 -1.78202 77.1366 6.34367 77.4476C23.9947 78.1151 41.6457 78.7436 59.3032 79.1842C68.0056 79.3981 76.7015 79.5666 85.4039 79.6637C94.022 79.7609 103.042 80.4996 111.602 79.4175C119.235 78.452 126.868 73.6116 127.562 65.285C128.268 56.8418 121.587 50.7832 116.274 45.1717H116.28Z" fill="white"/>
<path d="M61.7525 74.1042C61.3442 74.1042 61.3442 74.7328 61.7525 74.7328C62.1607 74.7328 62.1607 74.1042 61.7525 74.1042Z" fill="#08111F"/>
<path d="M125.689 55.9089C117.55 46.4743 108.841 37.4674 100.191 28.5058C91.6115 19.6284 83.0582 10.5437 73.7272 2.43748C73.6495 2.3014 73.5782 2.16532 73.5004 2.02925C73.144 1.38127 72.2887 1.48494 71.9064 2.02925C66.5541 9.67543 61.1693 17.3022 55.7846 24.9354C45.1577 17.6521 33.9412 10.6539 22.6857 4.38142C22.1933 3.96023 21.7008 3.6492 21.2083 3.53257C19.4717 3.1049 18.4868 4.89981 17.4889 6.05969C14.8451 9.12465 12.1949 12.1831 9.55114 15.2546C4.10162 21.5853 -1.36087 27.9291 -6.5836 34.4478C-7.03718 35.0115 -6.28553 35.815 -5.77362 35.2577C-0.609209 29.7045 4.36729 23.9764 9.35027 18.2612C11.6765 15.5915 13.9898 12.9089 16.3031 10.2262C16.9122 9.51992 19.4393 5.69682 20.2752 5.63203C21.6619 5.52835 22.5626 7.4075 23.4115 8.40539C28.0057 13.8225 32.5091 19.3109 36.9284 24.8641C39.3194 27.8708 41.6845 30.8903 44.0238 33.9359C44.6847 34.7977 45.6502 36.9101 46.8425 37.6358C38.2438 49.8762 29.7034 62.1555 21.3898 74.5837C20.8584 75.3743 22.1025 76.0676 22.6468 75.3224C39.7341 51.9433 56.0308 27.9615 72.6127 4.23239C85.9482 28.279 99.7502 52.0664 114.012 75.5816C114.628 76.5925 116.215 75.6659 115.6 74.655C102.05 52.3061 88.9159 29.711 76.2025 6.87615C83.6349 14.639 91.4301 22.0713 98.8883 29.8017C107.552 38.7892 115.872 48.0813 124.432 57.166C125.229 58.0149 126.441 56.7643 125.695 55.9024L125.689 55.9089ZM47.7108 35.6854C47.5682 35.5817 47.4062 35.5558 47.2507 35.5817C46.3759 34.5579 45.1253 32.3548 44.7171 31.8299C43.771 30.6052 42.825 29.3806 41.866 28.1623C39.4555 25.078 37.0126 22.013 34.5438 18.9675C32.075 15.922 29.5867 12.9024 27.0661 9.90222C26.606 9.35144 26.0358 8.51554 25.4072 7.62781C34.8937 14.2372 44.8337 20.5486 54.7867 26.3415C52.5318 29.5361 50.2768 32.7306 48.0218 35.9316C47.9311 35.8539 47.8339 35.7761 47.7043 35.6854H47.7108Z" fill="#08111F"/>
<path d="M45.9028 22.5053C44.1792 21.4296 42.0344 20.6909 40.1487 19.9263C39.9349 19.8421 39.7923 20.192 39.9932 20.2956C41.7816 21.2806 43.7126 22.4664 45.6436 23.1273C46.0194 23.2569 46.2268 22.6997 45.9093 22.5053H45.9028Z" fill="#08111F"/>
<path d="M48.5143 26.0888C46.1038 25.0456 43.8618 23.7237 41.8984 21.9677C41.5356 21.6437 41.0107 22.1685 41.3671 22.499C43.3629 24.3846 45.6178 25.8815 48.1968 26.8405C48.631 27.0025 48.9485 26.2703 48.5143 26.0823V26.0888Z" fill="#08111F"/>
<path d="M98.9013 43.0333C98.1561 40.7913 96.4844 38.7178 95.0912 36.8516C95.0005 36.7285 94.8255 36.8322 94.8838 36.9747C95.8105 39.1066 96.7954 41.5819 98.37 43.3379C98.5773 43.5712 98.9985 43.3249 98.8949 43.0333H98.9013Z" fill="#08111F"/>
<path d="M103.379 45.3144C101.953 43.0011 100.288 40.8174 98.7069 38.6078C98.532 38.3615 98.1302 38.5883 98.2987 38.8475C99.7696 41.1284 101.182 43.4741 102.809 45.6513C103.055 45.9818 103.606 45.6902 103.379 45.3208V45.3144Z" fill="#08111F"/>
<path d="M62.6727 21.1446C61.7266 22.7516 60.7546 24.2808 59.4522 25.6286C59.2384 25.8489 59.5688 26.1794 59.7891 25.9655C61.1499 24.6566 62.3811 23.1468 63.1198 21.4037C63.2494 21.1057 62.8411 20.84 62.6662 21.1381L62.6727 21.1446Z" fill="#08111F"/>
<path d="M44.0756 48.0099C42.7538 50.0057 41.5809 52.0922 40.3886 54.1657C40.259 54.3925 40.596 54.5805 40.732 54.3666C42.0215 52.3514 43.3369 50.3556 44.4968 48.2626C44.6523 47.984 44.2441 47.7507 44.0692 48.0164L44.0756 48.0099Z" fill="#08111F"/>
<path d="M47.6265 46.3511C46.5249 47.6989 45.4947 49.0921 44.4579 50.4917C44.3412 50.6472 44.6069 50.8546 44.73 50.7055C45.8381 49.3642 46.9397 48.0229 47.9829 46.6297C48.1319 46.4289 47.7885 46.1567 47.6265 46.3576V46.3511Z" fill="#08111F"/>
<path d="M4.27657 26.7496C3.01949 27.903 1.84016 29.1342 0.673796 30.3783C0.440522 30.6245 0.796912 30.9809 1.04315 30.7476C2.28727 29.5813 3.52491 28.4019 4.67184 27.1448C4.91807 26.8727 4.54225 26.4969 4.27009 26.7431L4.27657 26.7496Z" fill="#08111F"/>
<path d="M8.87714 25.0324C7.35438 25.8813 6.17506 27.3976 5.33268 28.8944C5.19012 29.1471 5.57244 29.3674 5.72147 29.1212C6.6416 27.6179 7.85981 26.5617 9.18169 25.4212C9.40201 25.2333 9.11689 24.8899 8.87714 25.026V25.0324Z" fill="#08111F"/>
<path d="M25.8479 61.8638C24.526 63.6781 23.3532 65.5962 22.1544 67.4948C21.9535 67.8123 22.446 68.0844 22.6469 67.7863C23.9169 65.9331 25.2129 64.0993 26.3598 62.1683C26.5607 61.8314 26.0682 61.5657 25.8479 61.8703V61.8638Z" fill="#08111F"/>
<path d="M30.941 21.0474C29.5479 19.8616 28.2843 18.5527 27.2216 17.0624C27.0791 16.868 26.7551 17.0494 26.8976 17.2503C27.9474 18.7925 29.1785 20.1856 30.643 21.3455C30.8568 21.514 31.1614 21.2224 30.9475 21.041L30.941 21.0474Z" fill="#08111F"/>
<path d="M30.4031 24.1771C29.7098 23.3218 29.0164 22.4729 28.3231 21.6176C28.2453 21.5204 28.0704 21.65 28.1481 21.7537L30.1569 24.3715C30.293 24.5529 30.5522 24.3585 30.4096 24.1771H30.4031Z" fill="#08111F"/>
<path d="M18.1628 40.2017C17.5473 41.3616 17.0353 42.5669 16.504 43.7656C16.3485 44.1091 16.8474 44.4136 17.0159 44.0637C17.6056 42.8649 18.2147 41.6726 18.7266 40.435C18.8627 40.111 18.3248 39.8907 18.1628 40.1952V40.2017Z" fill="#08111F"/>
<path d="M71.8481 37.6163C71.239 38.841 71.077 40.0851 71.3427 41.4264C71.4075 41.7569 71.8935 41.6144 71.8416 41.2904C71.6472 40.111 71.8028 38.8928 72.2563 37.7848C72.3535 37.5515 71.9647 37.3895 71.8546 37.6163H71.8481Z" fill="#08111F"/>
<path d="M99.6465 59.8486C98.3894 57.7038 97.0222 55.6367 95.655 53.5632C95.4606 53.2716 95.0005 53.5373 95.1819 53.8353C96.4714 55.9607 97.7609 58.0731 99.1605 60.1272C99.3614 60.4188 99.8279 60.1596 99.6465 59.8421V59.8486Z" fill="#08111F"/>
<path d="M98.5642 62.9718C97.6635 61.0148 96.5425 59.1551 95.4863 57.2825C95.3373 57.0233 94.9485 57.2501 95.0846 57.5157C96.0565 59.4338 96.9896 61.3972 98.1236 63.2309C98.2986 63.5161 98.7068 63.2698 98.5707 62.9718H98.5642Z" fill="#08111F"/>
<path d="M81.5354 25.7841C80.6995 24.391 79.7988 23.0432 78.9111 21.6824C78.7491 21.4297 78.3409 21.663 78.5029 21.9221C79.3647 23.2959 80.2135 24.6825 81.1272 26.0239C81.2957 26.2701 81.691 26.0498 81.5354 25.7841Z" fill="#08111F"/>
<path d="M64.0657 58.3324C63.489 60.0755 63.327 61.8185 63.6186 63.6329C63.6575 63.8921 64.1175 63.8338 64.0851 63.5681C63.8713 61.838 63.9879 60.1208 64.4934 58.449C64.5776 58.1769 64.1564 58.0602 64.0657 58.3324Z" fill="#08111F"/>
<path d="M93.9571 29.3739C93.1666 27.579 91.9743 26.1469 90.3738 25.013C90.0952 24.8186 89.8489 25.2657 90.1081 25.4666C91.5531 26.5617 92.7195 28.0067 93.5165 29.6331C93.6591 29.9312 94.0867 29.672 93.9571 29.3739Z" fill="#08111F"/>
</svg>
