<svg width="83" height="80" viewBox="0 0 83 80" fill="none" xmlns="http://www.w3.org/2000/svg">
<path d="M82.2234 41.654C82.1145 37.5522 81.5065 33.1284 78.521 30.0475C77.8177 29.3216 76.9828 28.709 76.1389 28.1555C75.8485 27.9649 75.5037 27.8333 75.2314 27.6155C74.7459 26.4358 74.628 24.7298 73.9247 23.4594C72.9356 21.6717 71.3656 20.3559 69.3738 19.825C69.1651 19.7705 68.4845 19.6117 67.8039 19.5119C67.1006 15.7233 65.1722 12.4065 60.8981 12.0344C60.5623 12.0072 60.0179 11.9255 59.487 11.9074C59.7683 10.1106 59.7547 8.07791 59.2873 6.39004C58.0759 1.97524 53.8517 0.0423498 49.5821 0.00151409C45.1809 -0.0393216 40.5982 0.754706 36.2378 1.31279C26.8955 2.50157 17.7529 4.31649 9.11838 8.18681C4.15911 10.4101 1.72711 13.9083 1.3006 19.3168C0.851411 24.9975 0.674457 30.7145 0.461203 36.4088C0.0301594 48.0742 -0.110497 59.7396 0.0891444 71.4141C0.148129 74.8716 3.19266 76.3734 5.81522 75.9197C6.40053 76.75 7.22632 77.4261 8.26537 77.789C17.3944 80.9833 27.4672 79.9034 36.9411 79.4724C46.8506 79.0232 56.7782 78.2972 66.5516 76.5141C70.8076 75.7382 76.8104 75.3298 79.2469 71.1918C80.4539 69.1409 80.5718 66.6182 80.8804 64.3087C81.2343 61.6635 81.5383 59.0137 81.7606 56.3503C82.1644 51.4681 82.355 46.5497 82.2234 41.6494V41.654Z" fill="#7780A1"/>
<path d="M80.2137 35.8827C79.8734 33.7184 78.975 33.2284 77.1918 32.3799C74.6464 31.173 74.6781 30.5196 74.2698 28.1285C74.1337 27.3163 73.9839 26.5223 73.503 25.8371C72.3187 24.1583 70.4494 24.4669 68.6889 24.0812C65.6308 23.4142 66.9783 19.739 65.0182 17.8333C63.1806 16.0456 60.617 16.0593 58.2259 16.3088C58.8157 11.6671 58.6479 5.43289 53.1577 4.18059C49.1467 3.26406 44.3009 4.06262 40.2264 4.2668C35.2081 4.52089 30.199 4.9111 25.2034 5.45104C17.8121 6.25414 9.53155 7.37032 3.52869 12.1753C0.688342 14.4394 0.466014 17.1119 0.4887 20.5421C0.524999 25.5195 0.570372 30.497 0.615745 35.4698C0.715565 46.4864 0.692879 57.5166 1.0604 68.5286C1.08309 69.1775 2.06314 69.182 2.07222 68.5286C2.22649 58.2199 2.02231 47.9111 1.92249 37.6024C1.87711 32.625 1.82267 27.6475 1.77276 22.6746C1.75007 20.288 1.24643 17.2072 2.52595 15.0384C3.89168 12.7198 6.8863 11.3268 9.25931 10.2878C18.0753 6.42202 28.5973 6.21784 38.0666 5.66883C40.5758 5.52364 43.0849 5.41474 45.594 5.33761C47.9852 5.26501 50.8891 4.81128 53.2303 5.51456C57.9173 6.92566 57.4182 13.0828 56.842 16.8624C56.7876 17.2253 57.0053 17.7381 57.4682 17.6836C59.2377 17.4749 61.1207 17.2253 62.804 17.9422C65.236 18.9767 64.7551 20.592 65.0591 22.6157C65.2451 23.8543 65.9302 24.6529 67.1008 25.0749C69.5918 25.9733 72.1146 24.848 72.9585 28.2238C73.3623 29.83 73.0856 31.5904 74.5103 32.7611C75.1137 33.2556 75.7898 33.2602 76.4795 33.5506C78.8343 34.5352 78.9931 36.1277 79.0203 38.3556C79.0612 41.5226 78.984 44.6942 78.8162 47.8567C78.4486 54.835 77.582 61.768 76.2844 68.633C76.1301 69.4497 77.3778 69.7991 77.5366 68.9778C78.9205 61.6546 79.828 54.2497 80.1683 46.7995C80.3271 43.2785 80.7581 39.3765 80.2091 35.8827H80.2137Z" fill="white"/>
<path d="M10.6117 53.0836C8.80129 52.2487 6.90016 53.9729 6.35115 55.7243C5.7976 57.4757 6.20142 59.5583 6.35115 61.3415C6.54172 63.6736 6.75951 65.9922 7.11795 68.3062C7.1724 68.6601 7.73503 68.5694 7.73049 68.2245C7.72142 65.9241 7.57622 63.6373 7.40834 61.346C7.21778 58.7552 6.39199 53.1788 10.7433 54.0954C10.9293 54.1362 11.079 54.0636 11.1652 53.9502C14.9312 55.5791 14.2052 66.1782 13.9829 68.887C13.9239 69.5721 14.9947 69.5676 15.0492 68.887C15.2987 65.9151 16.0791 52.8567 10.6162 53.0926L10.6117 53.0836Z" fill="white"/>
<path d="M23.0755 53.6687C22.9939 53.646 22.9077 53.637 22.8124 53.6551C20.5573 54.0635 19.4548 55.9283 19.2052 58.0926C18.815 61.4411 19.4684 65.1617 19.7361 68.5057C19.7814 69.0593 20.6254 69.0774 20.6118 68.5057C20.5165 65.1481 18.5246 55.5426 23.1073 54.7123C23.3069 54.676 23.4158 54.5626 23.4657 54.4219C25.7299 54.1633 25.8025 58.2106 25.8796 59.3494C25.9522 60.4066 25.9839 61.4684 26.0066 62.5301C26.0565 64.649 25.8977 66.7815 26.0339 68.8914C26.0656 69.3587 26.8324 69.5402 26.9141 69.0094C27.2272 66.963 28.1528 51.6451 23.0755 53.6733V53.6687Z" fill="white"/>
<path d="M36.7007 53.8504C36.6599 53.6734 36.5237 53.5192 36.2923 53.5101C28.6742 53.2333 30.8385 64.082 31.4238 68.4923C31.4828 68.946 32.1679 68.9823 32.1634 68.4923C32.1316 66.1056 31.9547 63.7326 31.8322 61.3505C31.6462 57.7525 32.6988 55.6245 36.0473 54.4856C37.3178 55.0255 37.4947 57.8659 37.5764 58.5057C37.7125 59.5674 37.8169 60.6382 37.9122 61.7045C38.0982 63.8415 38.0846 66.0058 38.3477 68.1293C38.4203 68.7237 39.2416 68.7463 39.287 68.1293C39.3959 66.7272 39.5093 55.6381 36.7007 53.8458V53.8504Z" fill="white"/>
<path d="M51.6829 58.7463C51.3244 56.9949 50.8163 55.1573 49.3235 54.2725C49.2963 54.1545 49.2373 54.0456 49.1238 53.9685C47.3361 52.7344 45.2944 54.023 44.5548 55.8515C43.8833 57.5076 44.1147 59.5993 44.1011 61.3235C44.0829 63.8417 44.0738 66.3644 44.21 68.8826C44.2372 69.3545 44.8996 69.35 44.9359 68.8826C45.1129 66.5459 45.1628 64.2047 45.2036 61.8634C45.2399 59.6855 44.6954 53.2516 48.7518 54.8578C48.779 54.8714 48.8062 54.8669 48.8335 54.8714C50.7346 56.4005 50.907 60.4569 51.1021 62.3625C51.3199 64.5359 51.2019 66.7093 51.3789 68.8781C51.4152 69.3409 52.1684 69.5315 52.2591 68.9961C52.8218 65.6702 52.3589 62.0313 51.6874 58.7418L51.6829 58.7463Z" fill="white"/>
<path d="M63.099 58.3243C62.736 56.5638 62.1008 54.8805 60.6307 54.1862C60.5717 54.0592 60.4674 53.9548 60.2995 53.9276C59.9773 53.8686 59.6779 53.855 59.3966 53.8686C59.2877 53.8596 59.1788 53.8505 59.0653 53.8459C58.9746 53.8459 58.902 53.8822 58.8475 53.9367C54.2603 54.9485 55.2721 65.8925 55.5081 68.8916C55.5444 69.3545 56.2159 69.3635 56.2341 68.8916C56.3611 65.9742 55.7168 54.4902 60.1543 55.003C60.1724 55.003 60.186 54.9984 60.2042 54.9984C62.3957 56.473 62.3912 60.7926 62.5908 63.0068C62.7905 65.2391 62.6589 67.5078 62.9901 69.722C63.0491 70.1303 63.7251 70.1167 63.7977 69.722C64.4783 66.1284 63.8386 61.8906 63.1035 58.3243H63.099Z" fill="white"/>
<path d="M70.4494 54.9347C68.4802 54.7532 67.1507 56.1824 66.6698 58.1153C65.7895 61.6635 66.2433 65.9558 66.2524 69.5902C66.2524 70.0439 66.9148 70.0303 66.9511 69.5902C67.1099 67.5847 67.2415 65.5792 67.3458 63.5692C67.4593 61.355 66.883 55.6697 70.7125 55.9919C70.8849 56.0055 71.012 55.9238 71.0982 55.8104C73.8523 57.226 72.8859 67.5847 72.8677 69.3089C72.8632 69.8397 73.689 69.9713 73.807 69.4359C74.3242 67.131 75.2634 53.941 70.4539 54.9347H70.4494Z" fill="white"/>
<path d="M11.1968 45.742C11.2376 46.2229 12.018 46.418 12.1088 45.8645C12.5171 43.3871 13.4473 33.1464 8.31105 34.3397C6.81374 34.6846 6.28287 36.2636 6.11499 37.6157C5.72932 40.7192 5.99702 44.163 6.40992 47.2484C6.45075 47.5433 6.85457 47.4253 6.88633 47.1848C6.89087 47.144 6.89541 47.1032 6.89994 47.0623C6.95439 47.0759 7.01338 47.085 7.08144 47.0759C7.88 46.9625 8.6831 46.9217 9.48621 46.958C10.2031 46.9897 10.9518 47.1848 11.6596 47.1077C12.0452 47.0669 12.3039 46.5088 11.8774 46.2955C10.4663 45.5922 8.46531 45.9416 6.968 46.291C7.18579 43.2828 6.65947 40.0431 7.3446 37.1665C7.4535 36.8489 7.56693 36.5313 7.67582 36.2136C9.4726 35.524 10.4799 35.828 10.7022 37.1347C11.2013 37.9923 11.0652 39.1629 11.106 40.1293C11.1877 41.9987 11.0425 43.8817 11.1922 45.742H11.1968Z" fill="white"/>
<path d="M11.8504 26.4268C11.0156 23.355 12.894 16.3903 7.91658 15.9502C6.36482 15.814 5.24864 16.8576 4.95826 18.3368C4.43647 20.982 5.049 24.2943 5.3893 26.9395C5.44375 27.3796 6.07443 27.4068 6.09712 26.9395C6.17879 25.1654 6.14703 23.3913 6.09258 21.6172C6.0699 20.8504 5.98369 20.061 6.0336 19.2942C6.02906 18.786 6.13342 18.2914 6.34667 17.815C7.42655 16.9438 8.41114 16.9438 9.30499 17.8059C11.4285 19.8568 9.80863 23.7997 10.6843 26.4313C10.6616 26.4268 10.6435 26.4132 10.6208 26.4132C9.1598 26.2771 7.7124 26.5538 6.41473 27.248C6.04721 27.4431 6.29676 28.0557 6.70058 27.9241C7.98917 27.5112 9.26416 27.3479 10.6163 27.4704C10.9293 27.4976 11.0927 27.2889 11.1154 27.0439C11.4965 27.1936 11.9911 26.944 11.8504 26.4223V26.4268Z" fill="white"/>
<path d="M25.6799 46.2957C24.9721 42.8247 27.6491 33.9406 21.374 33.9769C19.6997 33.986 18.6289 35.1203 18.3612 36.7084C17.8394 39.8391 18.3839 43.4916 18.8739 46.5997C18.9374 47.0035 19.5863 46.8992 19.5772 46.5044C19.5409 44.5035 19.4774 42.507 19.4456 40.5106C19.4093 38.4235 19.1416 33.8317 22.6081 35.3971C26.0066 36.9307 24.2461 42.7475 24.5183 45.9872C23.6971 45.783 22.6943 45.9418 21.8867 46.0371C21.1244 46.1233 20.2714 46.1732 19.6634 46.6632C19.4411 46.754 19.4819 47.126 19.7179 47.1895C20.5164 47.4073 21.4284 47.0806 22.2406 47.0081C23.0618 46.9355 23.9557 47.0716 24.7543 46.8629C25.0855 47.1805 25.8024 46.8855 25.6844 46.3002L25.6799 46.2957Z" fill="white"/>
<path d="M37.182 47.185C37.3318 44.5851 37.8536 35.8009 33.8017 35.4742C33.7428 35.3472 33.6339 35.2383 33.4524 35.1884C31.76 34.7346 30.6755 35.9189 30.3988 37.5205C29.8724 40.5696 30.3398 44.1087 30.485 47.185C30.494 47.4028 30.6438 47.5162 30.8071 47.5344C30.8071 47.7476 30.9432 47.9654 31.2291 47.9836C33.0349 48.097 34.8453 48.0879 36.6512 48.0925C37.1004 48.0925 37.2637 47.6523 37.1412 47.3257C37.1548 47.2803 37.1775 47.2349 37.1775 47.1805L37.182 47.185ZM32.3317 36.3998C32.368 36.3998 32.4043 36.4089 32.4451 36.3998C36.9007 35.6058 36.1974 44.2085 36.0795 46.999C34.4642 46.999 32.8444 47.0035 31.2336 47.1079C31.3244 45.4563 31.4015 43.8092 31.4151 42.1531C31.4242 41.409 31.0839 37.2891 32.3271 36.3998H32.3317Z" fill="white"/>
<path d="M47.4678 35.3426C45.9479 34.29 44.1239 35.2927 43.5249 36.9761C43.0122 38.4144 43.3208 40.1794 43.416 41.6586C43.5431 43.6595 43.7155 45.6559 43.9877 47.6387C43.9151 47.6841 43.838 47.7249 43.7699 47.7794C43.593 47.9064 43.5658 48.2694 43.838 48.3103C44.623 48.4328 45.4261 48.2377 46.2201 48.2014C47.2092 48.156 48.1984 48.2014 49.1739 48.3556C49.5732 48.4191 49.8363 48.1061 49.8726 47.7975C49.9044 47.7249 49.9225 47.6433 49.9225 47.5434C49.8635 45.302 50.6893 36.6721 47.4678 35.3472V35.3426ZM44.6638 47.3302C44.6956 45.7376 44.6638 44.145 44.5957 42.5524C44.5549 41.6586 44.4868 40.7693 44.4596 39.8754C44.4324 39.0269 44.2781 36.4543 45.544 36.0232C45.8526 35.9643 46.1339 35.9688 46.3925 36.0232C46.4969 36.0505 46.6058 36.0868 46.7192 36.1321C49.3009 37.2937 48.7701 44.6895 48.7655 47.1623C47.4724 46.999 45.9025 46.9037 44.6683 47.3302H44.6638Z" fill="white"/>
<path d="M62.2592 47.5482C62.1413 45.6107 61.9961 43.6733 61.8599 41.7404C61.7647 40.411 61.9144 38.5961 61.3291 37.3347C60.8391 36.273 59.8227 35.7058 58.829 36.0552C57.4905 36.2866 57.5268 35.919 56.8735 37.1078C56.3154 38.1196 55.9524 39.2857 55.7028 40.4019C55.1584 42.8702 55.3716 45.2659 56.152 47.657C56.1566 47.6707 56.1656 47.6797 56.1747 47.6933C56.0295 47.952 56.1838 48.383 56.5468 48.3694C58.0985 48.315 59.5913 48.4102 61.1068 48.7641C61.5741 48.873 61.8509 48.4284 61.7737 48.0745C62.0369 48.0609 62.2819 47.8884 62.2592 47.5436V47.5482ZM56.8235 47.4529C56.3154 45.2296 56.27 42.9292 56.7736 40.6923C56.9551 39.8756 57.2591 38.2421 57.8399 37.6659C58.1212 37.3846 59.0151 36.9944 59.3508 36.7675C59.3508 36.7675 59.3508 36.7675 59.3554 36.763C60.5895 36.7947 60.6077 39.5353 60.6485 40.0752C60.7075 40.9055 60.7574 41.7359 60.8118 42.5662C60.9207 44.2268 61.0206 45.8875 61.1476 47.5436C61.1476 47.5844 61.1703 47.6162 61.1794 47.6525C59.7456 47.3258 58.28 47.2351 56.8235 47.4483V47.4529Z" fill="white"/>
<path d="M73.657 48.4418C74.7096 44.7983 74.4102 39.7211 71.0435 37.4796C71.0299 37.3299 70.9618 37.1892 70.8075 37.103C66.1341 34.4986 66.9826 46.9036 67.0643 48.6369C67.0733 48.8546 67.2911 48.9862 67.4772 48.9726C67.5452 49.0498 67.6405 49.1042 67.7676 49.0906C68.6705 49.0089 69.5779 48.9681 70.4854 49.0588C71.3747 49.1496 72.2686 49.567 73.1579 49.4899C73.4755 49.4626 73.7659 49.0225 73.4528 48.773C73.4301 48.7548 73.4074 48.7412 73.3847 48.7231C73.5072 48.6822 73.6161 48.5915 73.6615 48.4327L73.657 48.4418ZM67.8084 48.2739C68.0126 46.8945 68.1305 45.5061 68.2304 44.1177C68.3075 43.0287 68.0625 37.2074 70.4083 38.0468C70.4718 38.0695 70.5353 38.074 70.5943 38.074C73.5935 40.7147 72.6815 44.6531 72.7722 48.3238C72.7722 48.351 72.7813 48.3692 72.7858 48.3918C71.343 47.7612 69.2376 47.9789 67.8084 48.2739V48.2739Z" fill="white"/>
<path d="M25.2625 17.1709C24.9993 15.6555 24.3096 14.4032 23.1526 13.6454C23.1526 13.4912 23.08 13.346 22.9031 13.2643C21.0428 12.3931 18.3839 11.9939 17.2541 14.1627C16.5781 15.4649 16.8412 17.2435 16.8594 18.6365C16.8911 21.0458 16.9728 23.4415 17.1588 25.8463C17.1951 26.3 17.8394 26.3045 17.8667 25.8463C18.0119 23.4415 18.0527 21.0458 18.0391 18.6365C18.0391 17.6156 17.7895 16.0956 18.1707 15.1246C19.0146 12.9649 21.0927 13.7952 22.5083 14.1945C22.5219 14.1945 22.5355 14.1945 22.5537 14.1945C25.4349 16.5176 23.9966 22.6928 24.0147 26.0595C23.9603 26.0141 23.8922 25.9733 23.8105 25.9461C21.7869 25.2564 19.4456 25.3063 17.54 26.3272C17.1271 26.5495 17.4175 27.1621 17.8485 27.0623C19.8041 26.604 21.551 26.5268 23.4884 27.1212C23.8015 27.2165 24.0329 27.0759 24.1463 26.8581C24.3868 27.1485 24.9312 27.1802 24.9993 26.7174C25.4258 23.75 25.7752 20.1474 25.2579 17.1709H25.2625Z" fill="white"/>
<path d="M36.0975 16.3496C35.8344 14.7434 35.1447 13.4865 33.8924 12.7243C32.1002 11.3313 29.8724 12.57 29.0829 14.4983C28.4839 15.9548 28.6654 17.6518 28.7153 19.1808C28.7879 21.3587 28.856 23.5366 29.1736 25.6919C29.2371 26.1229 29.8633 25.9777 29.895 25.5966C30.0675 23.4595 29.9767 21.3224 29.9087 19.1854C29.8451 17.0528 29.6319 12.0573 33.4432 13.55C33.5067 13.5727 33.5703 13.5773 33.6292 13.5682C36.211 16.2679 34.9224 22.3433 35.2717 25.71C35.2491 25.7055 35.2309 25.6919 35.2037 25.6919C33.2209 25.5149 31.2426 25.7055 29.3007 26.1184C28.7879 26.2273 29.0148 26.9623 29.5139 26.8897C31.415 26.6039 33.2935 26.622 35.2037 26.7899C35.5531 26.8217 35.73 26.563 35.73 26.2908C35.9705 26.3135 36.22 26.1683 36.2518 25.8325C36.5377 22.8515 36.583 19.317 36.093 16.3586L36.0975 16.3496Z" fill="white"/>
<path d="M45.2903 11.6352C43.5207 11.0771 41.8283 12.5608 41.3111 14.3213C40.3355 17.6472 41.5425 22.2253 42.0007 25.5738C42.0325 25.8188 42.273 25.8869 42.4726 25.8279C42.4635 25.955 42.5134 26.082 42.6314 26.141C43.3483 26.4904 44.1877 26.4042 44.9727 26.4178C45.8257 26.4359 46.8193 26.6038 47.627 26.2998C47.9627 26.1728 48.0444 25.8143 47.8675 25.5738C47.9673 25.5148 48.058 25.4286 48.117 25.288C49.1742 22.7244 50.7441 10.2967 45.2903 11.6352V11.6352ZM47.1233 25.0157C47.1052 25.111 47.1143 25.1972 47.137 25.2744C46.4382 25.1609 45.6623 25.2653 44.9727 25.2789C44.2331 25.2925 43.4436 25.2199 42.7539 25.5058C42.7539 25.4922 42.763 25.4831 42.763 25.4695C42.7222 23.5502 42.6314 21.6355 42.4998 19.7207C42.3592 17.6199 41.2521 12.1117 45.499 12.7242C45.6941 12.7514 45.8665 12.6652 45.9754 12.5382C49.5644 13.2278 47.3956 23.4821 47.1279 25.0112L47.1233 25.0157Z" fill="white"/>
<path d="M6.5642 52.462C5.71572 52.8386 5.20755 53.864 4.8854 54.6808C4.78558 54.9303 5.20301 55.1073 5.32098 54.8668C5.52969 54.4539 5.77925 54.0682 6.07417 53.7143C6.33734 53.3922 6.6368 53.1108 6.85912 52.7569C6.98163 52.5573 6.74569 52.3849 6.56874 52.4666L6.5642 52.462Z" fill="white"/>
<path d="M7.87095 50.5473C7.41722 50.275 6.75024 50.4792 6.29651 50.6652C5.77018 50.8785 5.32099 51.2233 4.97162 51.668C4.75383 51.9447 5.12135 52.335 5.36636 52.0627C5.69305 51.6997 6.07872 51.4275 6.54152 51.2732C6.95442 51.1371 7.41269 51.2324 7.80289 51.0781C8.02522 50.9874 8.10236 50.6879 7.87095 50.5473V50.5473Z" fill="white"/>
<path d="M13.4246 36.2411C13.2385 35.7737 12.8937 35.3699 12.5988 34.9706C12.2721 34.526 11.9454 34.0813 11.6142 33.6367C11.4327 33.3871 11.0153 33.6185 11.1922 33.8817C11.5007 34.3399 11.8047 34.7982 12.1133 35.2519C12.3901 35.6603 12.6532 36.1413 13.0253 36.4679C13.1841 36.6086 13.5153 36.477 13.42 36.2365L13.4246 36.2411Z" fill="white"/>
<path d="M12.8528 32.6065C12.7122 32.5157 12.5307 32.7381 12.6668 32.8469C13.7194 33.6682 14.1641 34.7572 14.3728 36.0412C14.4182 36.3134 14.8402 36.2409 14.8402 35.9777C14.8492 34.6029 13.969 33.337 12.8483 32.6065H12.8528Z" fill="white"/>
<path d="M15.9064 16.8076C15.8746 16.5218 15.4889 16.5218 15.4572 16.8076C15.3664 17.6425 15.4436 18.5001 15.4663 19.3395C15.4708 19.6162 15.8928 19.6162 15.8973 19.3395C15.9155 18.5001 15.9926 17.6425 15.9064 16.8076V16.8076Z" fill="white"/>
<path d="M3.17054 30.1475C3.11609 29.9569 2.81663 29.9932 2.82116 30.1928C2.83478 31.4179 2.87561 32.5794 2.56254 33.7773C2.51263 33.9724 2.79394 34.045 2.862 33.859C3.27943 32.6702 3.51083 31.3771 3.17054 30.1429V30.1475Z" fill="white"/>
<path d="M4.3318 28.0193C4.30004 27.7335 3.91437 27.7335 3.88261 28.0193C3.78279 28.9722 3.92344 29.9567 3.97335 30.9141C3.98243 31.082 4.22744 31.0865 4.23652 30.9141C4.28643 29.9613 4.42708 28.9767 4.32726 28.0193H4.3318Z" fill="white"/>
<path d="M28.339 7.93726C27.2591 7.85105 26.1656 7.92365 25.0857 7.95995C24.8679 7.96902 24.8679 8.29571 25.0857 8.30025C26.1656 8.33654 27.2636 8.40914 28.339 8.32293C28.5885 8.30478 28.5885 7.95541 28.339 7.93726Z" fill="white"/>
<path d="M30.1397 8.57715C28.7967 8.61798 27.4491 8.8267 26.1242 9.04449C25.9336 9.07625 25.979 9.39386 26.1696 9.38479C27.5172 9.32127 28.8738 9.23959 30.1987 8.99912C30.4346 8.95374 30.3802 8.57261 30.1397 8.58169V8.57715Z" fill="white"/>
<path d="M53.3937 7.57434C53.2213 7.4972 53.067 7.73768 53.2439 7.83297C54.0198 8.25493 54.469 9.0535 54.41 9.93374C54.3873 10.2695 54.9409 10.274 54.9318 9.93374C54.9137 8.91738 54.3284 7.98723 53.3937 7.57434Z" fill="white"/>
<path d="M51.615 22.8695C51.5015 22.7243 51.1885 22.7379 51.2112 22.9784C51.2475 23.3368 51.37 23.6635 51.3382 24.031C51.3019 24.4757 51.1113 24.875 50.8028 25.1926C50.6803 25.3196 50.8618 25.4921 50.9934 25.3832C51.6422 24.8614 52.1958 23.6227 51.6104 22.8695H51.615Z" fill="white"/>
<path d="M53.5886 20.9956C53.4661 20.7234 53.1122 20.9366 53.1485 21.1817C53.3889 22.8968 53.5387 24.503 52.8308 26.15C52.7628 26.3088 52.9806 26.4495 53.0668 26.2907C53.9289 24.6754 54.3599 22.7379 53.5886 20.9956V20.9956Z" fill="white"/>
<path d="M63.2396 20.6826C63.1398 20.4875 62.8721 20.6599 62.9538 20.8505C63.2986 21.6581 63.2804 22.4612 63.1988 23.3142C63.1761 23.5456 63.5164 23.5638 63.5844 23.3641C63.8839 22.4703 63.6616 21.4993 63.2396 20.678V20.6826Z" fill="white"/>
<path d="M70.4037 28.6684C70.009 27.7701 69.0199 27.3708 68.0806 27.5205C67.9309 27.5432 67.9672 27.7927 68.1169 27.7837C68.9291 27.7383 69.6324 28.1966 70.0589 28.8726C70.1996 29.0949 70.5081 28.8998 70.4037 28.6684V28.6684Z" fill="white"/>
<path d="M76.9425 38.0561C76.8381 37.8473 76.5477 38.0288 76.6339 38.2375C76.9016 38.8728 76.9969 39.5624 76.9062 40.2476C76.8563 40.606 77.369 40.6786 77.3962 40.3156C77.4597 39.5261 77.3009 38.7684 76.9425 38.0606V38.0561Z" fill="white"/>
<path d="M75.5763 39.1085C75.4901 38.9497 75.2179 39.0586 75.2768 39.2355C75.8894 40.9552 75.9257 42.4888 75.7578 44.2855C75.7306 44.5805 76.1888 44.6304 76.266 44.3536C76.7469 42.643 76.3885 40.6648 75.5763 39.113V39.1085Z" fill="white"/>
<path d="M71.8239 53.17C71.5835 53.0248 71.3929 53.3787 71.6061 53.5375C72.6588 54.3224 73.0717 55.4069 73.3122 56.6501C73.3666 56.945 73.7886 56.8497 73.8067 56.582C73.9111 55.1845 72.9719 53.8642 71.8239 53.1654V53.17Z" fill="white"/>
<path d="M73.4353 53.4192C73.222 53.2423 72.9226 53.5281 73.1268 53.7277C73.7529 54.3357 74.2202 55.0753 74.4653 55.9193C74.6785 56.6452 74.5968 57.3621 74.7057 58.0926C74.7466 58.3558 75.0869 58.2787 75.1685 58.0926C75.8401 56.4955 74.6331 54.4174 73.4398 53.4192H73.4353Z" fill="white"/>
<path d="M65.3541 43.7957C64.8731 44.499 64.8096 45.343 65.0592 46.1415C65.1363 46.3911 65.5129 46.2867 65.4494 46.0326C65.286 45.3384 65.4086 44.6397 65.6989 43.9954C65.8033 43.7594 65.4993 43.5779 65.3541 43.7912V43.7957Z" fill="white"/>
<path d="M53.8652 41.3411C53.838 41.1278 53.466 41.1278 53.4387 41.3411C53.289 42.43 53.3888 43.5598 53.4342 44.6533C53.4433 44.9346 53.8607 44.9346 53.8698 44.6533C53.9106 43.5598 54.0104 42.43 53.8652 41.3411V41.3411Z" fill="white"/>
<path d="M53.7838 38.9861C53.9245 38.8364 53.7838 38.5415 53.5706 38.6186C52.1867 39.0996 52.0597 41.1504 52.8038 42.1895C52.9444 42.3846 53.2666 42.2076 53.135 41.9989C52.8083 41.4907 52.713 40.8963 52.8718 40.311C53.0216 39.7393 53.3982 39.4036 53.7884 38.9907L53.7838 38.9861Z" fill="white"/>
<path d="M55.476 53.1562C54.9361 53.1199 54.4733 53.7959 54.2691 54.227C54.0105 54.7715 53.9605 55.3522 54.1057 55.9376C54.1602 56.169 54.564 56.1236 54.5322 55.8786C54.4687 55.384 54.5549 54.894 54.7999 54.4539C55.0223 54.0636 55.4715 53.8549 55.662 53.4783C55.7392 53.3286 55.6439 53.1698 55.476 53.1562V53.1562Z" fill="white"/>
<path d="M41.9594 55.3296C42.0638 55.1436 41.8914 54.9575 41.7008 54.9938C41.1518 55.0937 40.8478 55.8015 40.7661 56.2915C40.6754 56.8632 40.8206 57.3941 41.1745 57.8478C41.3242 58.0429 41.6418 57.7934 41.5148 57.5846C41.2743 57.2035 41.2062 56.7543 41.3242 56.3187C41.4422 55.8968 41.7553 55.688 41.9594 55.3296V55.3296Z" fill="white"/>
<path d="M42.3092 57.6753C42.3183 57.4348 41.9372 57.3803 41.8827 57.6163C41.6196 58.7869 41.8419 59.9121 42.3138 60.9966C42.3728 61.1327 42.5815 61.0329 42.5452 60.8967C42.2729 59.835 42.2684 58.7597 42.3047 57.6753H42.3092Z" fill="white"/>
<path d="M41.0657 38.0698C40.7527 39.1315 40.6574 40.2613 40.494 41.3548C40.4532 41.6361 40.8661 41.7677 40.9296 41.4773C41.1701 40.3793 41.4786 39.2631 41.5603 38.1379C41.583 37.8429 41.1383 37.8021 41.0612 38.0698H41.0657Z" fill="white"/>
<path d="M30.0721 53.0746C29.0738 53.4557 28.4795 54.4811 28.2299 55.4748C28.1936 55.6291 28.425 55.7425 28.4931 55.5882C28.8969 54.6853 29.6002 54.1408 30.3216 53.5056C30.5076 53.3423 30.3125 52.9838 30.0721 53.0746Z" fill="white"/>
<path d="M30.2534 51.3274C29.4049 50.9553 28.2933 51.7902 27.7987 52.4299C27.599 52.6885 27.9439 53.0561 28.1662 52.7974C28.4384 52.4798 28.7651 52.2212 29.1508 52.0488C29.5092 51.8945 29.9221 51.8945 30.2534 51.6994C30.3804 51.6268 30.4031 51.3954 30.2534 51.3319V51.3274Z" fill="white"/>
<path d="M27.481 36.9942C27.2541 36.4316 26.7958 35.9325 26.4465 35.4424C26.2786 35.2065 25.8929 35.4198 26.0517 35.6738C26.2196 35.9461 26.392 36.2138 26.5599 36.486C26.7187 36.7401 26.8684 37.0169 27.0862 37.2256C27.2405 37.3799 27.5763 37.2256 27.481 36.9942V36.9942Z" fill="white"/>
<path d="M38.2572 24.6435C37.8307 25.5102 37.74 26.4086 37.8852 27.3568C37.926 27.6109 38.3616 27.5565 38.3389 27.2933C38.2708 26.4494 38.4296 25.6281 38.72 24.8341C38.8198 24.5664 38.3843 24.3804 38.2572 24.639V24.6435Z" fill="white"/>
<path d="M17.313 61.5455C16.7232 62.5211 16.7368 63.6645 17.3312 64.6354C17.431 64.7988 17.6715 64.6536 17.5853 64.4857C17.1406 63.6145 17.1633 62.5937 17.6306 61.7361C17.7441 61.5274 17.4355 61.3459 17.3085 61.5501L17.313 61.5455Z" fill="white"/>
</svg>
