<svg width="100" height="80" viewBox="0 0 100 80" fill="none" xmlns="http://www.w3.org/2000/svg">
<path d="M98.6569 56.4799C97.5124 51.6396 93.821 48.7625 88.9807 48.2559C87.8996 48.1428 86.8094 48.1066 85.7237 48.0478C85.312 48.0252 84.8777 47.7447 84.8642 47.9935C84.6606 46.4238 87.7729 43.7593 88.5057 42.7958C92.387 37.666 91.1611 31.654 87.3251 26.8906C84.0318 22.8057 77.8887 20.4579 75.8892 15.414C75.2514 13.8036 73.935 12.7043 72.1165 12.9531C70.6056 13.1567 68.9137 14.6314 69.1354 16.3278C69.158 16.5133 69.167 16.6942 69.1851 16.8752C68.7463 16.4364 68.2895 16.0157 67.7873 15.6221C65.4124 13.7629 62.5444 12.6139 60.2554 10.6596C57.7945 8.55614 56.1615 5.88265 55.2658 2.78846C54.1847 -0.948091 48.2767 -0.319301 48.3717 3.72034C48.4939 8.98589 45.5083 12.8943 42.1924 16.6173C41.93 16.5902 41.6496 16.5947 41.351 16.6309C36.7188 17.2099 33.2582 16.364 30.1232 12.7496C27.6171 9.86348 23.3966 13.5412 25.0341 16.6761C26.3369 19.1777 23.3649 22.4483 21.9354 24.208C20.0445 26.5332 18.2441 28.8538 17.0272 31.6133C15.8375 34.3049 15.0142 37.1548 15.4394 40.1133C15.6249 41.4025 16.032 42.6013 16.5975 43.7186C14.408 44.9264 12.2231 46.1433 10.0562 47.3964C6.60016 49.3958 1.90912 51.2098 0.574635 55.3445C-0.583425 58.9317 0.271549 63.4373 0.855102 67.0834C1.47484 70.9466 2.26196 75.4657 4.38809 78.8133C5.76781 80.9891 8.70819 79.9351 8.957 77.5738C9.0158 77.0083 9.03842 76.4383 9.05199 75.8638C9.44555 75.9814 9.86625 76.0583 10.3186 76.09C22.9894 76.9495 35.6783 77.5873 48.3717 77.9764C60.6128 78.3518 73.0619 78.8404 85.2939 78.0714C90.7088 77.7321 95.6622 75.7552 97.7566 70.3811C99.349 66.2963 99.6837 60.7683 98.6704 56.4889L98.6569 56.4799Z" fill="#7780A1"/>
<path d="M62.1282 66.6036C61.988 64.9389 61.7527 63.2833 61.5266 61.6231C60.9747 57.5789 60.4816 53.5845 61.2959 49.5358C61.3682 49.1694 61.133 48.7939 60.7304 48.7939C57.2065 48.8211 53.678 48.8482 50.1541 48.898C48.5029 48.9206 46.2185 48.3009 45.4268 50.0063C44.9066 51.1191 45.1599 52.9874 45.1102 54.1771C45.0333 55.9142 44.979 57.6513 44.9473 59.3884C44.8795 62.7811 44.8478 66.1875 45.0649 69.5757C44.3728 69.6345 44.4135 70.7292 45.1599 70.7926C48.8377 71.1228 52.5426 71.254 56.2339 71.3037C57.7493 71.3263 61.1149 72.0773 62.083 70.4578C62.6575 69.4943 62.2232 67.6079 62.1373 66.5991L62.1282 66.6036ZM51.3664 69.9195C50.8009 68.8564 50.4843 67.7165 50.5476 66.4996C50.6109 65.2963 51.3981 62.5369 53.0628 63.5049C54.0218 64.0568 54.3565 65.6718 54.5737 66.7032C54.818 67.8522 54.7592 68.9198 54.7818 70.0597C54.7592 70.0597 54.732 70.0597 54.7094 70.0597C53.592 70.0281 52.4792 69.9783 51.3664 69.924V69.9195ZM60.6535 69.3269C60.5314 70.1592 60.0654 70.4216 59.2466 70.123C58.7897 70.2135 58.2831 70.2361 57.7629 70.2271C57.7629 70.1999 57.7674 70.1773 57.7629 70.1547C56.6093 64.0116 59.224 55.4075 52.6421 51.585C52.443 51.472 52.1761 51.5036 52.0133 51.6665C47.2951 56.4209 47.8063 63.3104 48.996 69.3947C49.0729 69.7883 49.7469 69.7069 49.7017 69.2997C49.385 66.2824 48.9236 63.238 49.2403 60.1981C49.4393 58.2846 51.1538 50.9563 53.7956 53.7293C57.8262 57.9589 55.8132 64.9299 56.6772 70.1819C56.3289 70.1592 55.9851 70.1321 55.6548 70.1049C55.9805 68.3543 55.6051 66.3865 54.9763 64.758C54.5239 63.5818 53.8363 62.0981 52.339 62.3242C50.9683 62.5323 50.1269 63.989 49.8781 65.2239C49.5434 66.8751 49.9188 68.5036 50.8236 69.8923C49.2267 69.8109 47.6298 69.7159 46.033 69.6209C46.1506 64.3011 46.0601 58.9812 46.3044 53.6614C46.3361 52.9648 46.3723 52.2726 46.4085 51.5805C46.3994 50.2913 46.9422 49.8072 48.037 50.1284C49.2177 49.7846 51.0316 50.1013 52.2666 50.0877C54.8587 50.056 57.4462 50.0199 60.0383 49.9791C59.1607 55.403 60.4002 60.7002 60.8978 66.1241C60.9521 66.7303 61.1059 67.445 61.0335 68.0512C61.133 68.5262 61.0063 68.9514 60.6535 69.3314V69.3269Z" fill="white"/>
<path d="M31.2859 63.5728C29.3724 63.5638 27.8162 64.9435 27.02 66.5856C25.7896 69.1279 26.5632 72.0411 27.3865 74.5744C27.5086 74.9408 28.0379 74.7915 27.9655 74.416C27.3819 71.4576 26.3867 63.903 31.7609 64.6856C36.5378 65.3823 35.511 71.2404 35.4567 74.5744C35.4476 75.0991 36.2393 75.2077 36.375 74.6965C37.3973 70.8197 36.7595 63.5954 31.2904 63.5728H31.2859Z" fill="white"/>
<path d="M73.071 62.9577C67.1088 63.0753 68.5835 71.1184 69.2349 74.778C69.2937 75.1173 69.8547 75.0404 69.8366 74.6966C69.6692 71.6929 68.1538 64.1564 73.071 64.0524C75.3781 64.0026 77.278 65.9207 77.9792 67.9744C78.7346 70.191 78.3275 72.3986 78.4994 74.6604C78.5401 75.1716 79.3408 75.3661 79.4539 74.7916C80.327 70.3448 78.9789 62.84 73.0665 62.9577H73.071Z" fill="white"/>
<path d="M28.8339 52.7522C27.2506 53.4398 26.6399 55.1135 26.4363 56.7059C26.3187 57.6106 26.1559 59.3975 27.4994 59.4155C27.8206 59.4155 27.8794 58.9496 27.5763 58.8637C26.4499 58.5334 27.8703 52.3948 30.7157 53.7429C32.7695 54.7155 32.1769 57.1718 32.4438 59.0265C30.6795 58.5787 28.4494 59.031 26.8977 59.7684C26.572 59.9222 26.8118 60.3972 27.133 60.3293C28.1372 60.1122 29.1098 59.8996 30.1457 59.8724C31.064 59.8453 31.9688 60.0534 32.878 60.0127C32.9549 60.0127 33.0273 59.9765 33.0906 59.9312C33.2264 59.9041 33.344 59.8091 33.3802 59.6417C33.9411 57.0678 32.7649 51.0422 28.8293 52.7522H28.8339Z" fill="white"/>
<path d="M73.3558 51.7479C69.6193 51.6032 69.5379 56.3168 70.2843 58.8184C70.3793 59.1396 70.9085 59.0944 70.8859 58.737C70.809 57.5337 70.5738 56.2852 70.8724 55.0864C71.1935 53.8107 72.2475 52.4446 73.7539 52.8562C76.3912 53.5755 76.0881 56.9456 75.8755 59.031C74.048 59.031 72.2204 59.1215 70.3928 59.1848C69.9586 59.1984 69.9586 59.8453 70.3928 59.8589C72.3109 59.9222 74.2425 60.0172 76.1605 60.0127C76.4772 60.0127 76.6355 59.7684 76.6355 59.5196C76.7848 59.4382 76.9069 59.3025 76.9295 59.0989C77.2598 56.4254 77.0517 51.8882 73.3513 51.7434L73.3558 51.7479Z" fill="white"/>
<path d="M95.8837 51.4901C96.1189 51.3092 96.1325 50.9111 95.757 50.7664C91.8757 49.2962 87.5059 48.5136 83.4119 47.6722C83.335 47.0388 83.1269 46.2517 83.2898 45.6682C83.6924 44.2387 84.5519 44.2161 85.4024 43.524C86.868 42.3388 87.9989 41.0495 88.7589 39.3034C90.3422 35.6573 89.8446 31.4639 87.2571 28.4149C83.3712 23.8279 74.8848 21.7877 75.0251 14.6494C75.0386 13.9075 73.9394 13.9256 73.8851 14.6494C73.6634 17.5626 72.5144 20.028 70.4607 22.1044C69.9404 22.6336 70.7547 23.4479 71.2749 22.9186C72.7723 21.3987 73.8037 19.6842 74.4144 17.7707C75.6538 21.1001 78.8837 23.4027 81.8603 25.4248C84.4886 27.2071 87.2706 29.2111 88.1889 32.4183C88.9761 35.1642 88.3654 38.2901 86.7052 40.6017C85.529 42.2347 82.7831 42.9675 82.2041 44.9037C81.8875 45.9622 82.2313 47.3284 82.3127 48.3959L82.3308 48.6493C77.0607 47.7219 71.2206 48.1336 65.9822 49.0202C65.9189 47.4822 65.842 45.9441 65.747 44.4061C71.1121 44.6323 76.5948 44.8177 81.9282 44.4649C82.4982 44.4287 82.4982 43.6144 81.9282 43.5782C76.5812 43.2254 71.0804 43.4109 65.6972 43.637C65.5932 42.0764 65.4756 40.5202 65.3308 38.9641C65.3308 38.9279 65.3127 38.8962 65.3037 38.8646C71.3925 34.8928 72.9939 26.0083 68.8276 20.0325C66.4346 16.5991 62.8473 14.3282 59.7079 11.6637C57.9753 10.1936 56.3152 8.58765 55.1526 6.61533C54.0171 4.6792 54.1438 3.10496 53.42 1.14169C53.2481 0.671229 53.3205 0.5129 52.936 0.173625C52.7053 -0.0299401 52.3072 -0.0842242 52.081 0.173625C52.0674 0.19172 52.0493 0.209814 52.0358 0.227909C51.6513 0.00624923 51.0406 0.182672 51.0632 0.752655C51.2441 5.7875 49.3668 10.5735 45.576 13.9482C43.0834 16.1648 40.0435 17.7933 37.9264 20.399C37.8405 20.3175 37.7319 20.2497 37.5917 20.2316C33.2309 19.6752 29.9422 16.0517 29.7386 11.6773C29.7069 10.9535 28.5896 10.9445 28.6032 11.6773C28.7931 19.9466 19.5332 23.6515 16.4707 30.4913C14.1365 35.7071 16.4119 41.6376 21.4331 44.2296C21.89 44.4649 22.2655 43.8225 21.8357 43.542C18.7189 41.5109 16.4571 38.1951 16.6335 34.35C16.8009 30.6541 19.4563 27.6052 21.8991 25.0855C24.8304 22.0591 28.1463 18.9785 29.3088 14.9615C30.5981 18.2864 33.552 20.7201 37.2434 21.3218C33.6742 26.714 34.8503 34.5671 40.3737 38.0639C40.3466 38.1136 40.333 38.1725 40.324 38.2267C40.2199 38.3082 40.1476 38.4348 40.1385 38.6112C40.0661 40.484 40.0164 42.3614 39.9802 44.2432C33.9094 43.6823 27.7708 43.637 21.7046 44.2794C21.6322 44.2885 21.5779 44.3201 21.5327 44.3608C21.2703 44.2704 20.9491 44.397 20.9582 44.7589C20.9808 45.5415 21.0124 46.3241 21.0441 47.1022C20.9355 46.9619 20.7591 46.8669 20.5329 46.9122C15.9052 47.8033 10.9699 49.2238 6.64978 51.1237C6.10242 51.3635 4.58247 52.5532 6.06623 52.7794C6.1567 52.793 6.22456 52.7568 6.27432 52.7025C6.19742 52.888 6.30146 53.1594 6.55026 53.1503C11.2594 52.9694 15.9233 52.9015 20.6324 52.8518C21.2929 52.8427 21.2658 51.9108 20.6324 51.843C16.0183 51.359 11.0196 51.6439 6.46884 52.5396C6.40098 52.5532 6.35574 52.5894 6.31956 52.6301C6.36479 52.5261 6.33313 52.3949 6.18385 52.3587C6.30598 52.3858 7.89379 51.7073 8.32807 51.558C9.7485 51.074 11.1735 50.599 12.6075 50.1557C15.3217 49.3188 18.0766 48.6674 20.8043 47.8848C20.9355 47.8486 21.017 47.7762 21.0758 47.6903C21.3246 52.9513 21.795 58.2078 22.1569 63.4598C22.356 66.3685 22.5776 69.2727 22.5912 72.1905C22.5912 72.9369 22.2519 74.4161 23.419 74.3528C23.7176 74.3392 23.8623 74.0994 23.8262 73.819C23.8171 73.7556 23.8081 73.6968 23.799 73.6335C23.7764 73.4661 23.5819 73.3485 23.4236 73.3395C23.7719 70.4669 23.0436 60.3837 22.9712 59.298C22.736 55.9324 22.5369 52.5577 22.2655 49.1921C25.138 49.2374 28.006 49.2283 30.874 49.2012C33.5882 49.174 36.4336 49.4047 39.1116 48.9388C39.4328 48.8845 39.4419 48.3281 39.1116 48.2783C36.4291 47.8757 33.5837 48.1652 30.874 48.2014C27.9834 48.2376 25.0928 48.2964 22.2022 48.405C22.0981 47.1972 21.985 45.9939 21.8538 44.7906C27.902 44.7408 33.9185 44.8313 39.9576 45.2339C39.8083 54.53 40.0571 63.8805 40.229 73.154C40.0435 73.249 39.9169 73.448 39.9847 73.6968C40.0797 74.0406 40.1792 74.3844 40.2742 74.7282C40.4687 75.4158 41.5182 75.2801 41.5228 74.5609C41.5635 64.7038 41.7127 54.7472 41.4142 44.8675C45.11 44.6051 48.8013 44.3111 52.5017 44.1844C56.2066 44.0577 59.9341 44.3156 63.6254 44.1392C63.6661 44.2296 63.7521 44.3065 63.8878 44.3111C64.0597 44.3201 64.2316 44.3246 64.4035 44.3337C64.6116 48.4819 64.8197 52.6301 64.9101 56.7874C65.0368 62.6772 64.4035 68.8022 64.978 74.6423C65.0277 75.167 65.8918 75.3977 65.9868 74.778C66.8508 69.137 66.3215 63.0029 66.2084 57.3076C66.1587 54.7924 66.0953 52.2682 66.0003 49.7485C71.5147 49.3459 76.8979 49.6038 82.3896 49.6038L82.6972 53.6298C83.231 60.6551 83.5476 67.7573 84.5745 74.7373C84.6243 75.063 85.1445 74.977 85.14 74.6604C85.1174 67.4949 84.3438 60.3113 83.8145 53.1684C87.7682 53.0599 91.8486 52.9287 95.7344 52.2863C96.1551 52.2184 96.1461 51.6847 95.8701 51.4675L95.8837 51.4901ZM41.3961 43.9582C41.3373 42.2619 41.274 40.57 41.1835 38.8781C41.672 38.9143 42.1606 38.9324 42.6492 38.955C42.0158 40.5383 42.2556 42.2211 42.9884 43.7366C42.4546 43.8089 41.9208 43.8813 41.3961 43.9582ZM43.1965 43.7049C42.8346 42.1171 43.0472 40.5429 43.4182 38.9912C44.0651 39.0139 44.7165 39.0274 45.3634 39.0365C44.6893 40.2805 45.1462 42.1397 45.8067 43.3747C44.9291 43.4742 44.0605 43.5873 43.1965 43.7049ZM46.3631 43.3159C46.0283 42.6011 45.8202 41.8411 45.8067 41.045C45.7931 40.3574 46.0329 39.715 46.0645 39.0455C46.9421 39.0546 47.8197 39.0546 48.7018 39.05C48.5571 40.3438 48.5254 41.9361 49.0999 43.0444C48.1816 43.1213 47.2678 43.2163 46.3586 43.3159H46.3631ZM52.9586 42.7866C52.9088 41.624 52.9269 40.3438 52.5696 39.2717C52.4655 38.9596 52.0448 39.0319 52.0177 39.3486C51.9182 40.4524 52.2167 41.6873 52.4338 42.8137C51.4703 42.8635 50.5068 42.9268 49.5477 43.0037C49.5477 42.9947 49.5568 42.9856 49.5568 42.9766C49.6473 42.2709 49.4799 41.52 49.4618 40.8052C49.4437 40.2172 49.4799 39.6336 49.5161 39.05C50.5294 39.0455 51.5427 39.041 52.5469 39.05C53.3386 39.0546 54.1347 39.0727 54.9309 39.0953C54.8223 39.5929 54.8947 40.1402 54.9083 40.6424C54.9264 41.2893 54.9535 41.9361 54.9807 42.583C54.9807 42.6418 55.0033 42.6871 55.0304 42.7233C54.3428 42.7368 53.6507 42.7549 52.9631 42.7866H52.9586ZM55.4828 42.7187C55.5054 42.6826 55.5235 42.6373 55.5235 42.583C55.5507 41.9361 55.5778 41.2893 55.5959 40.6424C55.6095 40.1402 55.6773 39.6065 55.5778 39.1089C56.6906 39.1405 57.808 39.1722 58.9253 39.1858C58.9163 39.2038 58.9027 39.2219 58.8982 39.2446C58.6222 40.3664 58.7489 41.6376 59.0701 42.773C57.8804 42.7233 56.6861 42.7006 55.4828 42.7187ZM64.0371 43.1892C62.6031 42.9947 61.1329 42.868 59.6536 42.7956C59.527 41.6331 59.5812 40.5248 59.6129 39.3441C59.6129 39.2898 59.5993 39.24 59.5812 39.1948C60.1648 39.1948 60.7529 39.1948 61.3319 39.1767C61.3048 40.3076 61.3817 41.4521 61.4133 42.583C61.4269 43.0083 62.0602 43.0083 62.0738 42.583C62.1055 41.4431 62.1824 40.2895 62.1552 39.1496C62.7433 39.1269 63.3314 39.0908 63.9149 39.041C63.9602 39.1722 64.0506 39.2853 64.1773 39.3396C64.2406 40.7283 64.3085 42.1171 64.3809 43.5059C64.3537 43.3521 64.2451 43.2209 64.0371 43.1892ZM64.607 38.1001C64.5256 38.0232 64.4125 37.9644 64.2678 37.9463C60.4272 37.5075 56.4192 37.7789 52.5515 37.7518C48.8059 37.7246 45.0105 37.5527 41.2649 37.7608C38.0169 34.7978 35.7913 30.8532 36.6191 26.3114C37.4288 21.8827 40.6361 19.354 44.0379 16.8117C48.8466 13.2154 51.9679 8.49265 52.3208 2.58926C52.4112 3.11401 52.5243 3.63423 52.6736 4.14541C52.9179 4.96872 53.2481 5.76036 53.6371 6.52486C54.4016 8.02672 55.4421 9.36572 56.6182 10.5735C59.0565 13.0797 62.015 14.9841 64.607 17.3138C67.5972 19.9963 69.8862 23.2896 69.9269 27.4378C69.9676 31.6629 67.9093 35.5487 64.607 38.1001ZM83.7738 52.4265C83.6743 51.074 83.5748 49.7169 83.4707 48.3643C87.0671 49.4952 90.8353 50.7528 94.5447 51.4042C90.9665 51.4766 87.3159 51.9561 83.7693 52.4265H83.7738Z" fill="white"/>
<path d="M18.7235 66.1649C17.769 64.5726 16.0454 63.2924 14.1048 63.6588C8.91162 64.6495 10.0154 72.2719 12.2365 75.2937C12.4537 75.5878 12.9286 75.3344 12.7386 74.9997C11.8022 73.3395 11.2458 71.4079 11.3589 69.4898C11.4901 67.219 12.7658 64.161 15.5478 64.9255C19.773 66.0835 18.2666 72.005 18.7099 75.1716C18.7958 75.7732 19.7594 75.6149 19.7549 75.0313C19.7277 72.1769 20.257 68.7434 18.7189 66.1695L18.7235 66.1649Z" fill="white"/>
<path d="M90.0573 65.3642C86.9676 66.8525 88.4016 72.4528 89.3878 74.7644C89.5326 75.1082 90.0754 74.8594 89.9804 74.5156C89.4104 72.4709 88.5735 69.44 89.5959 67.4089C90.5549 65.509 92.5725 66.1875 93.3777 67.8296C93.8843 68.87 93.7984 70.0191 94.1015 71.1047C94.2055 71.4802 94.8479 71.5345 94.9157 71.1047C95.3138 68.567 93.4365 63.7312 90.0528 65.3597L90.0573 65.3642Z" fill="white"/>
<path d="M40.6272 34.2595C40.0617 33.8478 39.5732 33.2688 39.2067 32.6762C38.872 32.1289 38.7318 31.5227 38.4558 30.9572C38.3065 30.6496 37.8315 30.8079 37.8315 31.1246C37.8361 32.6446 39.1751 33.9609 40.401 34.644C40.6588 34.7888 40.8534 34.4269 40.6272 34.2595Z" fill="white"/>
<path d="M39.6772 31.2874C39.0936 30.3962 38.9579 29.4734 38.9579 28.4284C38.9579 28.1118 38.4558 28.0258 38.3925 28.3515C38.1572 29.5141 38.587 30.6676 39.3198 31.5633C39.4872 31.7669 39.8265 31.5 39.6817 31.2829L39.6772 31.2874Z" fill="white"/>
<path d="M56.9124 11.7044C55.9533 11.2837 55.1119 10.8539 54.551 9.92658C54.3655 9.6235 53.9041 9.89492 54.076 10.207C54.6189 11.1977 55.6186 12.0934 56.7947 12.1613C57.0254 12.1748 57.1385 11.8039 56.9169 11.7089L56.9124 11.7044Z" fill="white"/>
<path d="M57.9799 13.894C56.9169 13.2923 55.8809 12.6771 54.9264 11.9081C54.7681 11.7814 54.5374 11.9986 54.6957 12.1388C55.6276 12.9621 56.6454 13.713 57.7764 14.2378C58.0071 14.3463 58.2061 14.0206 57.9799 13.894Z" fill="white"/>
<path d="M71.2117 31.3463C71.171 31.1428 70.8544 31.1518 70.8046 31.3463C70.5468 32.441 70.4246 33.3774 69.6873 34.2912C69.5063 34.5129 69.8094 34.8341 70.0084 34.6124C70.7729 33.771 71.4424 32.5134 71.2072 31.3418L71.2117 31.3463Z" fill="white"/>
<path d="M72.9261 28.6455C72.8311 28.4148 72.528 28.4555 72.4963 28.7043C72.4104 29.4145 72.5415 30.1474 72.4782 30.8711C72.3968 31.7849 72.157 32.6444 71.7906 33.4858C71.6911 33.7165 72.0168 33.9201 72.1344 33.6894C72.8401 32.3006 73.5548 30.179 72.9261 28.65V28.6455Z" fill="white"/>
<path d="M80.6253 26.3566C80.4127 26.2752 80.277 26.6099 80.4715 26.7185C81.3672 27.2071 81.9643 28.0666 82.2719 29.0256C82.3489 29.2653 82.765 29.2382 82.7334 28.9623C82.5886 27.7273 81.7653 26.7999 80.6208 26.3566H80.6253Z" fill="white"/>
<path d="M83.1044 40.9635C82.2721 41.7461 81.5302 42.3749 80.3088 42.2708C80.0691 42.2482 80.0103 42.6553 80.25 42.696C81.4488 42.8815 83.0185 42.4246 83.4844 41.1851C83.5704 40.959 83.2583 40.8187 83.1044 40.9635Z" fill="white"/>
<path d="M83.4075 39.7331C83.1995 40.3845 82.4938 40.9138 81.8016 40.6197C81.5755 40.5247 81.3719 40.8369 81.6026 40.959C82.4983 41.443 83.8328 40.8776 83.8599 39.7919C83.8644 39.5295 83.489 39.4933 83.4121 39.7331H83.4075Z" fill="white"/>
<path d="M22.2248 42.3749C21.1572 42.1804 20.3882 41.4475 19.9584 40.4704C19.8408 40.2035 19.4563 40.4026 19.5106 40.6604C19.7639 41.9089 20.9265 42.7549 22.1615 42.8272C22.4193 42.8408 22.4781 42.4201 22.2248 42.3749Z" fill="white"/>
<path d="M22.3199 41.5291C21.379 40.6832 20.8407 39.5839 20.5783 38.358C20.524 38.1002 20.0943 38.1499 20.1124 38.4214C20.2074 39.8282 20.9538 41.0179 22.0666 41.8593C22.2566 42.0041 22.5054 41.6829 22.3244 41.5246L22.3199 41.5291Z" fill="white"/>
<path d="M25.1698 23.0181C25.0612 23.9229 24.4008 24.6919 23.487 24.8231C23.3106 24.8502 23.3513 25.1443 23.5277 25.1307C24.6224 25.0493 25.5905 24.1445 25.5407 23.0136C25.5317 22.7693 25.1969 22.7829 25.1698 23.0136V23.0181Z" fill="white"/>
<path d="M34.2713 23.2126C33.4842 24.0902 32.9233 25.4156 33.3078 26.5918C33.3756 26.8044 33.7058 26.7727 33.7058 26.5375C33.7058 25.384 33.7692 24.4023 34.5065 23.4478C34.6332 23.285 34.4161 23.0452 34.2713 23.2126Z" fill="white"/>
<path d="M26.6265 22.3849C26.2963 23.1041 26.0701 23.8596 25.8258 24.6105C25.7444 24.8684 26.1244 24.9588 26.2239 24.7191C26.5134 24.0043 26.8165 23.2941 27.0201 22.5477C27.0834 22.3215 26.7305 22.1542 26.6265 22.3803V22.3849Z" fill="white"/>
<path d="M30.7656 35.1326C30.5575 34.1645 30.4398 33.2055 30.5213 32.2193C30.5439 31.9253 30.096 31.9344 30.0644 32.2193C29.9513 33.2507 30.0011 34.2686 30.3268 35.2547C30.4172 35.5352 30.8289 35.4221 30.7656 35.1326Z" fill="white"/>
<path d="M56.2158 25.0403C55.9715 24.5744 55.6911 24.1311 55.4151 23.6832C55.2568 23.4254 54.8632 23.6561 55.008 23.923C55.2568 24.3844 55.5011 24.8503 55.7815 25.2982C55.9534 25.5741 56.3651 25.3298 56.2158 25.0449V25.0403Z" fill="white"/>
<path d="M74.7492 35.0601C74.5908 34.852 74.2832 35.1144 74.4008 35.3315C74.7311 35.9377 74.5818 36.7972 73.9982 37.1953C73.7313 37.3762 73.9711 37.806 74.2561 37.6341C75.1608 37.0777 75.4006 35.9015 74.7492 35.0646V35.0601Z" fill="white"/>
<path d="M46.7795 47.1339C45.8793 47.0796 44.9745 47.1203 44.0743 47.1339C43.7893 47.1384 43.7893 47.5682 44.0743 47.5727C44.9745 47.5862 45.8793 47.627 46.7795 47.5727C47.0645 47.5546 47.0645 47.1475 46.7795 47.1339Z" fill="white"/>
<path d="M47.8606 46.3738C46.6935 46.2471 45.5219 46.1567 44.3502 46.0888C44.1467 46.0752 44.1557 46.3829 44.3502 46.4009C45.5219 46.5367 46.689 46.6498 47.8606 46.7267C48.0913 46.7402 48.0823 46.3964 47.8606 46.3738Z" fill="white"/>
<path d="M34.9771 57.3301C34.9499 57.1989 34.7237 57.226 34.7373 57.3618C34.8323 58.2801 34.8232 59.1577 34.5744 60.0533C34.5383 60.1845 34.7373 60.2343 34.7735 60.1076C35.0494 59.2074 35.1535 58.2574 34.9725 57.3256L34.9771 57.3301Z" fill="white"/>
<path d="M35.6014 57.1899C35.4385 56.9818 35.1581 57.2487 35.2531 57.4568C35.6376 58.2801 35.8864 59.0944 35.7507 60.0081C35.7145 60.2479 36.0628 60.3565 36.1216 60.1122C36.3659 59.0989 36.2528 58.0222 35.5969 57.1899H35.6014Z" fill="white"/>
<path d="M16.5387 54.2271C15.9325 54.0597 15.2223 54.1547 14.6025 54.1818C14.3402 54.1909 14.3402 54.5754 14.6025 54.5889C15.2223 54.6161 15.9325 54.7111 16.5387 54.5437C16.697 54.4985 16.697 54.2678 16.5387 54.2271Z" fill="white"/>
<path d="M15.4574 55.8644C14.3898 55.611 13.2996 55.4708 12.2184 55.2989C11.9606 55.2582 11.8475 55.6427 12.1098 55.697C13.2046 55.9051 14.2948 56.1448 15.4031 56.2715C15.6383 56.2986 15.6835 55.9141 15.4574 55.8644Z" fill="white"/>
<path d="M85.009 58.6781C84.9547 58.4927 84.629 58.5153 84.6561 58.7279C84.7692 59.6507 85.0542 60.56 85.2668 61.4647C85.3075 61.6366 85.5564 61.5597 85.5247 61.3923C85.3664 60.4966 85.2668 59.5557 85.009 58.6826V58.6781Z" fill="white"/>
<path d="M86.1262 56.7737C86.081 56.5611 85.7507 56.6109 85.7507 56.8235C85.7643 57.7418 85.9498 58.6601 86.0855 59.5648C86.1126 59.7322 86.3976 59.696 86.384 59.5241C86.3207 58.6058 86.3071 57.6739 86.1217 56.7737H86.1262Z" fill="white"/>
<path d="M91.6135 62.8537C91.4687 62.8944 91.5321 63.098 91.6723 63.0754C92.6539 62.9125 93.4003 63.9349 93.242 64.8441C93.1922 65.1201 93.5541 65.2151 93.6582 64.9572C94.1513 63.763 92.7625 62.5461 91.6135 62.8537Z" fill="white"/>
<path d="M78.0288 55.9189C77.9202 55.747 77.6262 55.8556 77.6895 56.0637C77.9835 56.9684 78.1147 57.7736 77.7845 58.6965C77.7302 58.8457 77.97 58.9453 78.0378 58.805C78.4585 57.9184 78.5626 56.792 78.0288 55.9235V55.9189Z" fill="white"/>
<path d="M78.2775 53.3494C78.074 53.2408 77.7799 53.476 77.9337 53.6932C78.3273 54.2496 78.8159 54.6929 79.1189 55.3217C79.4718 56.05 79.6211 56.8236 79.5804 57.6288C79.5713 57.8142 79.888 57.864 79.9151 57.674C80.1232 56.2083 79.707 54.1184 78.273 53.3494H78.2775Z" fill="white"/>
<path d="M70.7322 67.7981C70.0039 68.3952 69.8637 69.4085 70.3749 70.1911C70.5151 70.4037 70.8317 70.2182 70.7141 69.9921C70.3975 69.3723 70.5196 68.5671 70.981 68.0559C71.1394 67.8795 70.9041 67.6579 70.7277 67.8026L70.7322 67.7981Z" fill="white"/>
<path d="M72.0351 66.6625C71.4017 67.1827 71.3384 68.1417 71.7636 68.8112C71.9084 69.0374 72.2477 68.8384 72.121 68.6031C71.8315 68.0603 71.9717 67.4496 72.3698 67.0063C72.5779 66.771 72.2658 66.4725 72.0305 66.667L72.0351 66.6625Z" fill="white"/>
<path d="M49.1135 53.4761C48.367 54.2496 47.9961 55.2087 47.9871 56.2808C47.9871 56.4527 48.2404 56.4481 48.2494 56.2808C48.3082 55.3172 48.6928 54.4125 49.3215 53.6842C49.4437 53.5439 49.2446 53.3404 49.1135 53.4761Z" fill="white"/>
<path d="M53.6191 57.2803C53.5331 57.1899 53.402 57.3256 53.4834 57.416C54.0896 58.1217 54.3112 58.9405 54.4424 59.8452C54.4741 60.0579 54.8269 60.0081 54.8179 59.7955C54.7771 58.8319 54.2795 57.9679 53.6236 57.2848L53.6191 57.2803Z" fill="white"/>
<path d="M48.6702 72.3578C47.7655 72.299 46.8698 72.3397 45.9651 72.3668C45.7887 72.3713 45.7887 72.6337 45.9651 72.6382C46.8698 72.6699 47.7655 72.7061 48.6702 72.6473C48.8602 72.6337 48.8602 72.3668 48.6702 72.3532V72.3578Z" fill="white"/>
<path d="M34.4659 69.4988C34.1854 68.2594 33.1178 67.3591 31.9281 67.0153C31.8195 66.9837 31.7381 67.1556 31.8467 67.2053C32.9278 67.6939 33.5928 68.6032 34.0497 69.6707C34.1538 69.915 34.5156 69.7341 34.4614 69.4988H34.4659Z" fill="white"/>
<path d="M31.9689 68.3408C31.8422 68.2413 31.6793 68.4539 31.7969 68.5624C32.6564 69.3676 32.8736 70.5438 32.575 71.6566C32.5162 71.8828 32.8645 72.0457 32.9641 71.8195C33.5159 70.5528 33.05 69.1641 31.9689 68.3363V68.3408Z" fill="white"/>
<path d="M13.4309 69.9647C13.1098 69.5349 13.1414 68.9875 13.4219 68.5442C13.5486 68.3452 13.2636 68.1371 13.1007 68.2954C12.5533 68.8247 12.6076 69.6751 13.0917 70.227C13.25 70.4125 13.5847 70.1637 13.4355 69.9647H13.4309Z" fill="white"/>
</svg>
