<svg width="51" height="80" viewBox="0 0 51 80" fill="none" xmlns="http://www.w3.org/2000/svg">
<path d="M49.9169 72.533C46.2309 67.8374 43.9387 62.064 43.055 56.1505C43.8849 55.8559 44.589 55.2056 45.0776 54.5014C47.2727 51.3363 45.383 46.576 41.9843 45.2611C38.4635 36.8399 35.6074 28.1205 33.5092 19.243C32.4063 14.5618 31.5728 9.84818 30.8291 5.09867C29.8663 -1.05556 23.6474 0.133609 18.9661 0.0294212C17.0225 -0.0136908 15.4058 1.7036 15.3914 3.60412C15.3268 12.6972 14.7447 21.8656 13.2286 30.8401C12.5856 34.6376 11.7556 38.5428 10.103 42.0457C9.39886 43.5366 8.55817 44.9557 7.57737 46.2742C5.88882 46.2958 4.2326 47.4598 4.18949 49.619L4.12482 52.7662C4.0853 54.7062 5.53315 55.8774 7.11033 56.0894C6.96662 62.355 6.10797 68.8433 0.923757 72.9857C-1.63781 75.0299 1.65666 79.1004 4.38349 77.4693C4.89365 77.164 5.37148 76.8406 5.82775 76.5029C6.21575 80.3507 12.37 81.6153 13.3364 77.2394C14.6406 71.3295 19.1996 66.5548 25.0377 64.913C27.7358 64.1549 31.4973 63.7058 33.6889 65.7968C36.3798 68.3583 38.2587 72.3246 39.5377 75.7556C40.2347 77.6274 41.9304 78.7591 43.9675 78.2705C44.9088 78.0442 45.5447 78.1879 46.4428 78.504C47.9158 79.0286 49.7193 78.1555 50.4774 76.8622C51.3432 75.382 50.9121 73.7976 49.9205 72.533H49.9169ZM18.0105 47.1436C20.4499 43.2672 22.3253 38.8123 23.1372 34.2747C24.9048 34.8136 26.7442 35.1334 28.4508 35.1908C29.0471 35.2088 29.622 35.0364 30.1249 34.731C31.3967 38.5715 32.8159 42.3582 34.3715 46.0946C28.9034 46.1197 23.439 46.4718 18.0141 47.1472L18.0105 47.1436Z" fill="#7780A1"/>
<path d="M49.1517 72.8241C46.8919 70.6433 45.3075 67.9596 44.4525 64.9382C43.5399 61.7084 43.7591 58.5145 43.4142 55.2452C43.6118 55.2488 43.8094 55.2524 44.007 55.2596C44.1291 55.2596 44.2297 55.2308 44.3088 55.1733C44.4345 55.2272 44.5782 55.2129 44.6896 55.0763C46.353 53.0608 46.4751 49.558 44.589 47.6144C44.8081 47.3808 44.7076 46.9354 44.2872 46.8922C43.7196 46.8312 43.1483 46.7952 42.5735 46.7629C38.4707 39.7572 35.3738 32.6329 33.5308 24.6896C32.611 20.7233 31.9392 16.6995 31.4111 12.6613C30.9081 8.83154 30.9333 4.75027 30.0818 0.988748C29.974 0.518109 29.2914 0.647445 29.2699 1.10012C29.2519 1.48454 29.2483 1.87614 29.2483 2.26774C27.2364 2.96471 25.2245 3.66528 23.2198 4.38022C21.6319 3.43176 20.0619 2.45096 18.5098 1.42346C18.4487 1.38394 18.3877 1.38753 18.341 1.41268C18.0859 1.12527 17.4536 1.23664 17.4212 1.75039C16.85 10.4554 15.9554 19.1389 14.7016 27.7757C13.7208 34.5227 12.9951 42.0996 7.58453 46.9138C7.39412 47.0827 7.45878 47.3485 7.61686 47.503C6.96659 47.5533 6.31632 47.6036 5.66604 47.6611C5.40378 47.5317 5.06248 47.5964 5.00499 47.9629C4.64932 50.2729 4.76069 52.5184 5.46485 54.7494C5.28163 54.9075 5.32474 55.256 5.64089 55.2667C6.08998 55.2847 6.53906 55.2883 6.98455 55.2991C6.98455 55.3027 6.98455 55.3063 6.98455 55.3134C6.99892 58.0223 7.10311 60.5336 6.50314 63.1491C6.37739 63.2712 6.25524 63.4005 6.1295 63.5227C5.96064 63.6915 6.12231 63.8963 6.30913 63.8891C6.28039 63.9897 6.26243 64.0867 6.23009 64.1873C5.30318 67.2591 3.66493 70.0075 1.59915 72.4433C1.30095 72.7954 1.77159 73.2876 2.1129 72.957C2.2099 72.86 2.3069 72.7594 2.4039 72.6588C4.25413 71.775 6.11153 70.8913 7.95816 69.9859C9.0683 71.4158 10.3473 72.7415 11.7736 73.6145C12.0179 73.7654 12.2586 73.6073 12.3268 73.3917C12.4167 73.3774 12.5029 73.3343 12.5568 73.2373C14.1304 70.3092 15.1183 67.2663 17.7985 65.1035C20.1876 63.1742 23.2845 62.1287 26.3598 62.2221C29.3705 62.312 32.2087 63.4688 34.4361 65.5023C36.7749 67.6363 37.7809 70.205 38.6395 73.1654C38.7761 73.6324 39.5449 73.5642 39.5126 73.0469C39.5018 72.86 39.4838 72.6732 39.4623 72.4864C40.3389 71.6277 41.2586 70.6218 42.0562 69.5296C43.8776 70.9128 45.7171 72.2744 47.5817 73.575C47.8978 73.7977 48.3002 73.2876 47.9984 73.0361C46.2524 71.5667 44.4273 70.1583 42.5663 68.7931C43.0765 68.0063 43.5076 67.1836 43.795 66.3465C44.8369 69.1308 46.4572 71.6241 48.7421 73.3558C49.0475 73.5857 49.4139 73.09 49.1481 72.8313L49.1517 72.8241ZM41.6358 46.7234C41.0466 46.7054 40.4574 46.7018 39.8646 46.7018C38.9701 45.8216 38.0144 44.9809 37.03 44.1726C37.5869 43.5726 38.2659 42.8289 38.6611 42.0421C39.5521 43.6732 40.5329 45.2468 41.6358 46.7234ZM38.8587 46.709C37.5761 46.7234 36.2935 46.7557 35.0253 46.7665C35.0145 46.7485 35.0074 46.7306 34.993 46.709C34.8672 46.5258 34.7451 46.3426 34.6229 46.1593C35.2912 45.7282 35.9163 45.2468 36.4947 44.7007C37.2779 45.3797 38.0611 46.0551 38.8587 46.709ZM38.2767 41.3308C37.6695 42.096 37.2492 43.0193 36.5989 43.7702C36.5917 43.781 36.5809 43.7882 36.5702 43.799C35.2768 42.7571 33.9403 41.7655 32.629 40.8099C32.435 40.6697 32.1835 40.9895 32.3703 41.144C33.617 42.1823 34.8421 43.2636 36.0708 44.3343C35.5498 44.866 34.9822 45.3474 34.3786 45.7821C33.3475 44.1762 32.4889 42.5307 31.7237 40.835C32.4458 40.1919 33.1428 39.5093 33.8038 38.7872C35.2552 39.5919 36.7354 40.35 38.1509 41.0973C38.1905 41.1763 38.2336 41.2482 38.2731 41.3272L38.2767 41.3308ZM22.7025 35.0221C23.9815 35.3418 25.1167 35.3634 26.4748 35.4604C27.5418 35.5394 27.6316 34.7993 28.7346 36.1933C29.18 36.7573 29.3345 38.0255 29.5968 38.7153C30.6818 41.5679 32.1081 44.248 33.8074 46.7737C30.8111 46.7881 27.8148 46.8204 24.8185 46.8743C22.3827 46.9174 19.9397 46.9605 17.4967 47.0252C20.5972 43.8097 22.2821 39.4375 22.7025 35.0185V35.0221ZM16.8069 46.5545C16.4872 45.7318 16.0381 44.9235 15.5279 44.1439C16.9362 43.5151 18.305 42.8325 19.6164 42.0853C18.8475 43.6409 17.9099 45.1282 16.8069 46.5545ZM29.6902 35.7478C29.6651 35.6831 29.6435 35.622 29.6183 35.5538C29.4351 35.0436 29.3273 34.7095 29.0543 34.4832C28.4471 33.3838 27.7969 32.3132 27.1071 31.2677C28.0376 30.5779 28.9429 29.8522 29.8231 29.1014C31.6841 31.1097 33.4086 33.2401 35.0073 35.4783C35.1151 35.6292 35.2804 35.6616 35.4205 35.6185C34.896 36.3514 34.3643 37.0699 33.811 37.7705C32.4566 37.016 31.0806 36.3154 29.6902 35.7442V35.7478ZM33.2469 38.4746C32.7009 39.1357 32.1368 39.7859 31.5332 40.4111C30.9584 39.1069 30.4375 37.7741 29.9345 36.4053C30.9836 37.1417 32.1045 37.8243 33.2505 38.4746H33.2469ZM28.1849 34.167C27.434 34.088 26.5179 34.458 25.7634 34.458C24.8042 34.458 23.888 34.2892 22.9827 34.0377C24.2365 33.2796 25.4473 32.4749 26.6257 31.6234C27.1646 32.4569 27.6927 33.3048 28.1885 34.1706L28.1849 34.167ZM22.7671 33.6102C22.1492 32.4533 21.0678 31.4689 20.1086 30.6103C21.348 29.5864 22.5156 28.4942 23.536 27.3302C24.5132 28.5445 25.4185 29.8019 26.2772 31.0917C25.1347 31.9683 23.9671 32.809 22.7671 33.6102ZM22.1276 33.858C21.9121 33.9155 21.7504 34.1275 21.7324 34.361C21.7001 34.8209 21.6534 35.2736 21.5923 35.719C20.3385 36.4555 19.0667 37.1453 17.7841 37.8136C16.8213 36.6927 15.8369 35.5933 14.8453 34.5119C16.4045 33.4269 18.0392 32.2737 19.5912 31.027C20.493 31.936 21.2977 32.8773 22.124 33.858H22.1276ZM21.4558 36.5885C21.1935 38.0507 20.7732 39.4446 20.2199 40.7811C19.5768 39.9512 18.905 39.1357 18.2188 38.3273C19.3146 37.7776 20.3924 37.1956 21.4522 36.5885H21.4558ZM37.6013 39.9979C36.5558 39.3692 35.4888 38.7297 34.4074 38.1118C34.9499 37.4759 35.46 36.8148 35.9199 36.125C36.4336 37.4363 36.9905 38.7333 37.6013 39.9979ZM35.4241 34.8209C33.8864 32.6294 32.1656 30.5923 30.283 28.7062C31.1668 27.9337 32.029 27.1326 32.8661 26.2955C33.5631 29.1301 34.3966 32.0078 35.4241 34.8173V34.8209ZM32.2661 23.7088C30.8219 22.8932 29.3525 22.1136 27.8651 21.3735C29.1154 20.7089 30.301 19.9832 31.3823 19.1964C31.6482 20.7089 31.9392 22.2142 32.2661 23.7124V23.7088ZM30.495 13.4589C30.6315 14.4577 30.7788 15.4564 30.9369 16.4516C29.0507 14.7558 26.9741 13.1823 24.815 11.7129C26.5287 10.9368 28.2244 10.1321 29.895 9.35248C30.0962 10.7428 30.3153 12.1188 30.495 13.4553V13.4589ZM29.2591 3.04375C29.3058 4.67482 29.4854 6.34182 29.7082 7.99804C29.683 7.97289 29.6579 7.94774 29.6219 7.92978C27.6963 6.95976 25.8173 5.92866 23.9707 4.84368C25.7383 4.25448 27.5023 3.65091 29.2627 3.04735L29.2591 3.04375ZM18.4452 1.8438C19.7673 2.8246 21.1253 3.75869 22.5192 4.64249C21.0498 5.1742 19.5804 5.70951 18.1218 6.26637C18.2404 4.79338 18.3517 3.3168 18.4488 1.84021L18.4452 1.8438ZM18.0823 6.73701C19.8032 6.20889 21.5169 5.65203 23.227 5.08798C25.1994 6.30949 27.2256 7.44118 29.2986 8.47946C29.4962 8.58005 29.6794 8.46149 29.7513 8.30342C29.7656 8.41479 29.78 8.52616 29.7944 8.63753C29.7477 8.63035 29.6938 8.63753 29.6399 8.65909C27.7466 9.45666 25.8137 10.2578 23.8916 11.0985C21.9516 9.81593 19.972 8.60879 18.0248 7.46273C18.0464 7.22202 18.0607 6.98132 18.0823 6.74061V6.73701ZM17.9817 8.0196C19.6451 9.15847 21.2834 10.3405 22.9108 11.5332C21.0283 12.3739 19.1709 13.2649 17.3961 14.2457C17.6081 12.1727 17.8057 10.0962 17.9817 8.0196ZM17.3422 14.7451C19.5086 14.0122 21.6606 13.1248 23.791 12.1763C26.1442 13.9008 28.4974 15.6253 30.9225 17.2312C30.9728 17.2635 31.0231 17.2743 31.0734 17.2743C31.138 17.6731 31.1991 18.0719 31.2674 18.4707C29.7477 19.2036 28.2891 20.0478 26.7981 20.8418C23.6473 19.3149 20.4175 17.9533 17.1338 16.7534C17.2093 16.0851 17.2739 15.4169 17.3458 14.7451H17.3422ZM17.0907 17.109C20.1014 18.4132 23.0617 19.8035 25.9862 21.2658C25.397 21.5675 24.797 21.8585 24.1862 22.128C21.5492 23.2884 18.8332 24.1507 16.1063 25.056C16.4656 22.4118 16.7925 19.764 17.0871 17.1126L17.0907 17.109ZM16.0453 25.5267C19.5948 24.8189 23.536 23.5507 27.046 21.7975C28.7274 22.6489 30.4016 23.5184 32.0614 24.4201C32.1943 24.492 32.32 24.4704 32.4206 24.4057C32.5033 24.7758 32.5859 25.1458 32.6757 25.5159C31.738 26.4464 30.7752 27.3445 29.7872 28.2176C29.0723 27.5206 28.3322 26.8452 27.5741 26.1913C27.3622 26.0081 27.0532 26.3063 27.2616 26.5039C27.9765 27.1865 28.6699 27.8834 29.3453 28.5948C28.4974 29.3313 27.6352 30.0498 26.7514 30.7396C25.8604 29.4283 24.912 28.1529 23.906 26.9242C23.9132 26.917 23.9168 26.9098 23.924 26.9062C24.1072 26.6871 23.8593 26.2703 23.5899 26.4715C22.142 27.5601 20.7588 28.7565 19.3864 29.9672C18.1254 28.8319 16.9291 27.7218 15.9411 26.3422C15.9806 26.0727 16.0129 25.7997 16.0524 25.5302L16.0453 25.5267ZM15.5064 29.3169C15.6177 28.5696 15.7219 27.8188 15.8297 27.0679C16.6057 28.2391 17.6584 29.2235 18.6966 30.172C18.7721 30.2402 18.8368 30.3085 18.9122 30.3768C17.5506 31.5875 16.1926 32.8018 14.7878 33.9443C15.0609 32.3743 15.2836 30.8115 15.5064 29.3133V29.3169ZM14.601 34.9682C15.4273 36.0424 16.268 37.113 17.1302 38.1692C15.8584 38.8231 14.5687 39.4446 13.2681 40.0554C13.8501 38.4207 14.2669 36.6963 14.601 34.9682ZM13.0526 40.6338C14.5794 40.0482 16.0776 39.3908 17.547 38.6722C18.2871 39.5632 19.0379 40.4434 19.814 41.2913C19.814 41.2913 19.8068 41.2913 19.8032 41.2913C18.2116 42.0026 16.6309 42.7319 15.0537 43.4541C14.3854 42.5164 13.6561 41.6218 12.9843 40.7991C13.0059 40.7416 13.031 40.6877 13.0526 40.6338ZM12.8262 41.1835C13.4046 42.0098 13.9687 42.8505 14.5004 43.7091C13.0562 44.3666 11.6011 45.0097 10.1353 45.6348C11.2778 44.3127 12.1508 42.8038 12.8262 41.1835ZM9.24793 46.5617C11.1377 45.9366 13.0526 45.2288 14.9243 44.4169C15.4201 45.2899 15.862 46.2168 16.4476 47.0216C16.4369 47.0359 16.4261 47.0503 16.4153 47.0647C13.6741 47.1473 10.9329 47.2659 8.20247 47.4635C8.5761 47.1797 8.91741 46.8743 9.24793 46.5617ZM6.21572 54.6237C5.76664 52.5615 5.64808 50.4777 5.95705 48.3868C12.2442 48.3616 18.5314 48.0275 24.8221 47.9126C27.9262 47.8551 31.0303 47.8191 34.1343 47.8084C37.3354 47.794 40.6191 48.0167 43.8166 47.794C43.7914 47.891 43.8022 47.9988 43.8633 48.103C45.074 50.219 45.3506 52.1303 44.2513 54.3039C44.183 54.2644 44.104 54.2392 44.007 54.2392C37.6156 54.0704 31.2171 53.9878 24.8221 54.0524C18.6607 54.1135 12.3484 53.9806 6.21213 54.6237H6.21572ZM42.4657 55.8308C42.225 58.2702 42.3687 60.9108 42.94 63.4544C41.7184 62.1934 40.4538 60.9719 39.182 59.7504C40.3389 58.4966 41.4346 57.1852 42.4657 55.8308ZM38.5461 59.136C37.1522 57.8032 35.7582 56.4667 34.411 55.0907C36.8827 55.1194 39.3509 55.159 41.8226 55.2164C40.7628 56.5565 39.6706 57.8606 38.5461 59.136ZM33.1499 55.0799C31.871 56.1505 30.6243 57.2499 29.374 58.3421C28.501 57.2319 27.6101 56.1326 26.7263 55.044C28.8675 55.044 31.0087 55.0584 33.1499 55.0799ZM24.7251 55.044C23.7228 56.1218 22.7815 57.2715 21.8151 58.3852C20.069 57.1349 18.1326 56.0715 16.268 55.22C19.0918 55.141 21.9121 55.0512 24.7251 55.044ZM8.04798 56.2332C8.7737 57.2786 9.5066 58.3564 10.2575 59.4199C9.49942 60.16 8.74855 60.9072 8.00487 61.6545C8.32102 59.8294 8.35695 57.99 8.04798 56.2332ZM8.07672 55.3314C10.3401 55.3602 12.6143 55.317 14.8848 55.2596C13.5555 56.3302 12.2622 57.4978 10.9976 58.7085C10.0204 57.5625 9.02519 56.4415 8.07672 55.335V55.3314ZM3.35237 71.617C4.4122 70.3488 5.36067 68.8973 6.1295 67.3345C6.52828 67.9776 6.97018 68.6386 7.44441 69.2925C6.07561 70.0577 4.71039 70.8374 3.35237 71.617ZM6.4241 66.7166C6.99533 65.4627 7.45519 64.1478 7.76775 62.8149C8.80244 62.003 9.84791 61.1551 10.8718 60.2821C12.1724 62.082 13.5412 63.8245 15.0716 65.3011C12.7256 66.4184 10.4155 67.6399 8.13421 68.9081C7.53782 68.2003 6.97018 67.4674 6.4241 66.7202V66.7166ZM12.0179 72.7738C11.1341 71.8577 10.1102 71.0673 9.22997 70.1404C9.06111 69.9643 8.90304 69.7811 8.74137 69.6015C11.0191 68.4734 13.2753 67.295 15.4668 66.034C13.9076 67.9956 13.0238 70.32 12.0179 72.7702V72.7738ZM11.7125 59.5564C13.1532 58.2846 14.5256 56.9517 15.7291 55.5542C17.5793 56.7038 19.3146 57.9684 21.0534 59.2402C20.9205 59.3875 20.784 59.5384 20.6475 59.6821C18.9876 61.4425 17.2488 63.1095 15.4776 64.755C14.4286 62.9479 13.11 61.2234 11.7161 59.5528L11.7125 59.5564ZM17.7266 63.864C17.1087 64.3131 16.5698 64.8017 16.0848 65.3154C16.0453 65.2184 15.9698 65.1358 15.8728 65.0891C17.8631 63.4868 19.9433 61.7299 21.8402 59.8222C22.5408 60.336 23.2486 60.8462 23.9635 61.3491C21.7217 61.6796 19.5517 62.5383 17.7266 63.864ZM25.9969 61.1982C25.6449 61.1982 25.2892 61.2126 24.9371 61.2413C24.9335 61.1551 24.9048 61.0653 24.8365 60.9935C24.1755 60.2857 23.4282 59.6282 22.6342 59.0031C23.8198 57.7457 24.9084 56.4236 25.8353 55.0404C25.9035 55.0404 25.9682 55.0404 26.0365 55.0404C26.0436 55.062 26.0472 55.0799 26.0616 55.1015C26.9382 56.3661 27.8184 57.6415 28.7238 58.9025C27.8292 59.6785 26.9238 60.4474 26.0005 61.1946L25.9969 61.1982ZM27.0999 61.2378C27.8256 60.724 28.5477 60.1959 29.2591 59.6426C29.9165 60.5444 30.5812 61.4354 31.2746 62.3048C29.9273 61.7192 28.5118 61.3491 27.0999 61.2378ZM34.1667 63.7885C34.1236 63.8317 34.1056 63.8748 34.0912 63.9215C33.6385 63.5945 33.1715 63.2892 32.6865 63.0161C32.6973 62.9443 32.6865 62.8652 32.6362 62.7898C31.7955 61.5324 30.8902 60.3037 29.9561 59.0965C31.3572 57.9684 32.6973 56.7649 33.8721 55.4679C33.8936 55.4464 33.9044 55.4212 33.9188 55.3997C35.1726 56.8942 36.4947 58.4139 37.8815 59.8725C36.6779 61.209 35.4421 62.5132 34.1595 63.7885H34.1667ZM43.3926 65.4124C42.8286 66.3357 42.4154 67.3417 41.8873 68.2937C39.8036 66.7848 37.6731 65.337 35.5498 63.9394C35.3522 63.8101 35.1008 64.1227 35.2912 64.2736C37.3246 65.8687 39.3653 67.4746 41.431 69.0518C40.8131 70.0075 40.1161 70.902 39.3581 71.7535C38.794 68.7716 36.9402 66.1238 34.4972 64.2269C34.5223 64.2161 34.5439 64.2053 34.5655 64.1873C35.9343 63.0269 37.242 61.7874 38.4851 60.4905C39.9437 61.9778 41.4777 63.3898 43.0908 64.6113C43.1447 64.6508 43.195 64.6652 43.2453 64.6688C43.31 64.8951 43.3783 65.1214 43.4501 65.3442C43.4286 65.3657 43.407 65.3837 43.3926 65.4088V65.4124Z" fill="white"/>
<path d="M11.073 53.1327C9.9341 53.0392 8.77726 53.1039 7.63839 53.1327C7.45875 53.1362 7.45875 53.4057 7.63839 53.4093C8.77726 53.4416 9.93769 53.5063 11.073 53.4093C11.2526 53.3949 11.2526 53.1434 11.073 53.1291V53.1327Z" fill="white"/>
<path d="M12.219 51.3759C10.8826 51.3579 9.5461 51.3759 8.20963 51.4298C8.04796 51.437 8.04796 51.6777 8.20963 51.6848C9.5461 51.7423 10.8826 51.7603 12.219 51.7387C12.4526 51.7387 12.4526 51.3795 12.219 51.3759Z" fill="white"/>
<path d="M37.4146 48.7928C36.2721 48.764 35.1224 48.8107 33.98 48.8323C33.7896 48.8323 33.7896 49.1269 33.98 49.1305C35.1224 49.152 36.2721 49.1988 37.4146 49.17C37.6553 49.1628 37.6553 48.8036 37.4146 48.7964V48.7928Z" fill="white"/>
<path d="M28.6088 24.808C28.0627 24.4739 27.4843 24.1937 26.9167 23.9027C26.7227 23.8021 26.5502 24.0931 26.7442 24.1973C27.3083 24.499 27.8687 24.8152 28.4543 25.0739C28.634 25.1529 28.7849 24.9122 28.6124 24.8044L28.6088 24.808Z" fill="white"/>
<path d="M29.1621 25.8752C28.3214 25.6165 27.4484 25.4728 26.5861 25.2968C26.3634 25.2537 26.27 25.5878 26.4927 25.6381C27.3657 25.8429 28.2316 26.0728 29.119 26.1878C29.3058 26.2129 29.3273 25.9219 29.1621 25.8716V25.8752Z" fill="white"/>
<path d="M21.2835 14.4541C20.6224 14.7523 19.965 15.0576 19.3111 15.3666C19.1674 15.4349 19.2716 15.6828 19.4189 15.6253C20.0943 15.3666 20.7697 15.0971 21.4415 14.8277C21.711 14.7199 21.5565 14.3319 21.2835 14.4577V14.4541Z" fill="white"/>
<path d="M24.143 13.8684C23.2628 14.3103 22.4114 14.7953 21.5671 15.3018C21.3803 15.4132 21.5455 15.6862 21.7359 15.5892C22.6125 15.1438 23.482 14.6875 24.3263 14.1773C24.5238 14.0588 24.3514 13.7642 24.1466 13.8684H24.143Z" fill="white"/>
<path d="M25.7562 8.18111C25.1131 7.75717 24.4377 7.38713 23.7695 7.0099C23.597 6.9129 23.4461 7.17157 23.615 7.27576C24.2725 7.67813 24.9227 8.08411 25.6089 8.44337C25.7778 8.53319 25.9215 8.29248 25.7598 8.1847L25.7562 8.18111Z" fill="white"/>
<path d="M20.4823 22.1996C19.5195 22.3541 18.5746 22.5805 17.6262 22.8068C17.4465 22.8499 17.5256 23.1086 17.7016 23.0799C18.6609 22.9074 19.6201 22.735 20.5614 22.4907C20.7518 22.4404 20.6692 22.1709 20.4823 22.1996Z" fill="white"/>
<path d="M35.7799 58.9204C35.1691 58.2665 34.3141 57.8893 33.459 57.6702C33.3476 57.6414 33.3045 57.8031 33.4123 57.8426C34.2386 58.1408 34.9104 58.6258 35.6182 59.1324C35.7439 59.2222 35.8769 59.0282 35.7799 58.924V58.9204Z" fill="white"/>
<path d="M36.1571 60.537C35.532 59.8401 34.7739 59.2401 34.0733 58.6221C33.944 58.5072 33.75 58.694 33.8793 58.8161C34.5655 59.47 35.2338 60.1778 35.9954 60.749C36.1247 60.846 36.2541 60.6448 36.1571 60.537Z" fill="white"/>
<path d="M40.0299 65.4483C39.3832 65.2687 38.8084 64.9058 38.4168 64.3562C38.3054 64.1981 38.0432 64.3454 38.151 64.5106C38.5749 65.1465 39.1928 65.6028 39.9437 65.7537C40.1413 65.7932 40.2275 65.5022 40.0299 65.4483Z" fill="white"/>
<path d="M11.3282 66.0302C10.3187 66.4182 9.29478 66.6446 8.2062 66.6302C8.00142 66.6302 8.00501 66.9356 8.2062 66.95C9.33789 67.029 10.4408 66.8458 11.4576 66.3356C11.6228 66.253 11.5079 65.9656 11.3318 66.0338L11.3282 66.0302Z" fill="white"/>
<path d="M11.9101 64.356C11.2347 64.5213 10.5773 64.7476 9.91621 64.9632C9.79406 65.0027 9.84435 65.1931 9.9701 65.1572C10.6383 64.9704 11.3138 64.7979 11.9676 64.5644C12.097 64.5177 12.0467 64.3273 11.9101 64.3596V64.356Z" fill="white"/>
<path d="M18.2621 58.7012C17.813 57.9971 17.098 57.512 16.2717 57.3899C16.1172 57.3683 16.0454 57.5911 16.2071 57.6306C16.9471 57.8066 17.5795 58.2198 18.0142 58.8485C18.1184 58.9994 18.3662 58.8629 18.2657 58.7012H18.2621Z" fill="white"/>
<path d="M12.7148 68.7105C12.6035 69.4074 12.219 70.0218 11.5975 70.3667C11.4897 70.4278 11.5867 70.5858 11.6945 70.5284C12.3879 70.1727 12.8514 69.5152 12.9052 68.7356C12.9124 68.6278 12.7328 68.6027 12.7148 68.7105Z" fill="white"/>
<path d="M41.8263 61.2198C41.7329 61.0258 41.643 60.8354 41.5496 60.6414C41.4526 60.4366 41.1329 60.6162 41.2407 60.821C41.3413 61.0078 41.4383 61.1982 41.5389 61.3886C41.6394 61.579 41.9197 61.4102 41.8263 61.2198Z" fill="white"/>
</svg>
