<svg width="443" height="300" viewBox="0 0 443 300" fill="none" xmlns="http://www.w3.org/2000/svg">
<path d="M203.693 151.21C208.232 146.656 217.382 138.915 217.669 144.379C218.027 151.21 209.068 168.827 217.669 160.917C226.269 153.008 236.661 138.987 237.378 144.379C238.095 149.772 239.17 151.21 249.204 141.503" stroke="#7780A1" stroke-width="2" stroke-linecap="round"/>
<path d="M29.5597 229.092C31.2337 231.369 36.5902 235.801 44.6252 235.319" stroke="#ffffff" stroke-width="2" stroke-linecap="round"/>
<path d="M130.398 239.136C122.456 243.473 99.2167 247.585 69.6293 229.475C69.4618 229.373 69.2459 229.401 69.1212 229.552C63.6772 236.169 47.3541 250.448 25.9441 252.193C19.717 252.7 15.2979 249.581 22.5292 246.97C26.5468 245.519 29.5599 244.559 30.9658 243.153" stroke="#ffffff" stroke-width="2" stroke-linecap="round"/>
<path d="M19.3152 248.778C15.2978 250.652 10.0751 251.911 9.27159 248.376C8.26725 243.957 15.4986 244.76 18.3108 242.55" stroke="#ffffff" stroke-width="2" stroke-linecap="round"/>
<path d="M8.6692 248.577C1.83959 250.585 -1.32996 244.537 4.65181 241.546C10.2762 238.734 15.0971 239.738 18.7128 235.52" stroke="#ffffff" stroke-width="2" stroke-linecap="round"/>
<path d="M2.64287 242.952C1.10285 241.613 -0.731784 238.171 4.24986 235.118C10.4769 231.301 39.6035 218.445 35.9877 208.201C34.9244 205.188 29.158 205.389 24.3371 199.162C20.7563 194.536 24.3371 189.118 28.7563 192.131C29.8946 193.002 36.9117 197.555 40.6076 195.948C45.2167 193.944 60.4208 192.14 71.2629 205.892C71.3131 205.956 71.3794 206.003 71.4573 206.026C80.3533 208.637 100.186 212.477 109.306 207.197" stroke="#ffffff" stroke-width="2" stroke-linecap="round"/>
<path d="M41.0096 214.629C43.4868 216.973 50.4503 217.843 54.8696 213.625" stroke="#ffffff" stroke-width="2" stroke-linecap="round"/>
<path d="M412.588 226.703C410.916 228.979 405.559 233.412 397.525 232.93" stroke="#ffffff" stroke-width="2" stroke-linecap="round"/>
<path d="M311.752 236.747C319.693 241.085 342.933 245.196 372.52 227.086C372.688 226.984 372.904 227.012 373.028 227.164C378.472 233.78 394.794 248.059 416.207 249.803C422.433 250.311 426.851 247.192 419.62 244.581C415.603 243.13 412.588 242.171 411.185 240.764" stroke="#ffffff" stroke-width="2" stroke-linecap="round"/>
<path d="M422.834 246.388C426.851 248.263 432.076 249.522 432.879 245.987C433.884 241.568 426.649 242.371 423.84 240.162" stroke="#ffffff" stroke-width="2" stroke-linecap="round"/>
<path d="M433.479 246.188C440.308 248.197 443.48 242.148 437.499 239.157C431.873 236.345 427.054 237.349 423.438 233.131" stroke="#ffffff" stroke-width="2" stroke-linecap="round"/>
<path d="M439.506 240.563C441.045 239.224 442.88 235.782 437.901 232.729C431.671 228.912 402.547 216.057 406.163 205.812C407.227 202.799 412.993 203 417.812 196.773C421.393 192.148 417.812 186.729 413.394 189.743C412.257 190.613 405.24 195.166 401.542 193.559C396.933 191.555 381.729 189.751 370.887 203.503C370.836 203.567 370.77 203.614 370.692 203.637C361.796 206.248 341.963 210.088 332.843 204.808" stroke="#ffffff" stroke-width="2" stroke-linecap="round"/>
<path d="M401.141 212.24C398.663 214.584 391.701 215.454 387.28 211.236" stroke="#ffffff" stroke-width="2" stroke-linecap="round"/>
<path d="M199.583 68.7117C201.099 86.0038 208.86 116.501 227.705 117.683C247.556 118.928 255.827 78.6717 255.827 68.2964" stroke="#ffffff" stroke-width="2" stroke-linecap="round"/>
<path d="M203.199 67.8947L197.574 67.0913" stroke="#ffffff" stroke-width="2" stroke-linecap="round"/>
<path d="M257.959 67.0913C264.051 68.6233 268.842 75.2805 254.22 87.9822" stroke="#ffffff" stroke-width="2" stroke-linecap="round"/>
<path d="M196.945 67.0913C191.635 67.7875 186.046 75.8653 202.395 87.9822" stroke="#ffffff" stroke-width="2" stroke-linecap="round"/>
<path d="M213.644 73.9211C215.641 73.9211 217.26 72.3922 217.26 70.5063C217.26 68.6203 215.641 67.0914 213.644 67.0914C211.647 67.0914 210.028 68.6203 210.028 70.5063C210.028 72.3922 211.647 73.9211 213.644 73.9211Z" fill="#ffffff"/>
<path d="M241.163 73.9211C243.049 73.9211 244.578 72.3922 244.578 70.5063C244.578 68.6203 243.049 67.0914 241.163 67.0914C239.277 67.0914 237.749 68.6203 237.749 70.5063C237.749 72.3922 239.277 73.9211 241.163 73.9211Z" fill="#ffffff"/>
<path d="M214.046 81.7852C220.386 81.7852 225.526 76.6454 225.526 70.3051C225.526 63.9649 220.386 58.8251 214.046 58.8251C207.705 58.8251 202.566 63.9649 202.566 70.3051C202.566 76.6454 207.705 81.7852 214.046 81.7852Z" stroke="#ffffff" stroke-width="2"/>
<path d="M252.04 70.3052C252.04 76.6605 246.976 81.7854 240.762 81.7854C234.547 81.7854 229.482 76.6605 229.482 70.3052C229.482 63.9503 234.547 58.8253 240.762 58.8253C246.976 58.8253 252.04 63.9503 252.04 70.3052Z" stroke="#ffffff" stroke-width="2"/>
<path d="M224.893 69.1001H229.714" stroke="#ffffff" stroke-width="2" stroke-linecap="round"/>
<path d="M222.943 76.7334C221.898 82.525 221.782 92.1409 232.124 86.8457" stroke="#ffffff" stroke-width="2" stroke-linecap="round"/>
<path d="M220.474 99.2307C222.683 98.0182 228.428 96.3203 233.731 99.2307" stroke="#ffffff" stroke-width="2" stroke-linecap="round"/>
<path d="M251.006 67.0913H257.836" stroke="#ffffff" stroke-width="2" stroke-linecap="round"/>
<path d="M196.219 33.5559C175.14 43.4817 184.966 60.8521 192.514 68.2968C193.832 67.304 198.003 67.0558 199.925 67.0558C196.302 40.5869 209.943 33.5557 215.981 31.9014C232.862 29.0063 252.212 33.5559 255.506 46.7906C259.44 62.6003 259.564 67.883 262.622 68.2968C274.245 59.0326 272.531 41.2761 270.221 33.5559C273.235 24.9325 266.504 17.1506 262.622 12.4634C258.741 7.77612 248.095 -0.771426 229.156 0.0559598C191.69 3.77818 194.161 26.9386 196.219 33.5559Z" fill="#47BDFF"/>
<path d="M206.814 53.8337C208.521 53.5305 213.644 53.1063 220.474 53.8337" stroke="#ffffff" stroke-width="2" stroke-linecap="round"/>
<path d="M234.937 54.637C236.543 54.0307 241.364 53.1818 247.792 54.637" stroke="#ffffff" stroke-width="2" stroke-linecap="round"/>
<path d="M209.14 115.8C169.367 112.988 159.564 107.324 130.799 176.263" stroke="#ffffff" stroke-width="2" stroke-linecap="round"/>
<path d="M247.674 114.35C281.822 120.375 298.294 99.4848 320.791 168.384" stroke="#ffffff" stroke-width="2" stroke-linecap="round"/>
<path d="M154.703 219.852C150.477 240.042 137.017 241.419 130.318 239.497C130.06 239.423 129.975 239.102 130.135 238.887C145.354 218.439 121.77 203.327 109.682 207.268C109.473 207.336 109.245 207.218 109.186 207.006C106.917 198.921 120.093 197.58 121.359 186.507C122.001 180.883 122.765 178.005 125.978 177.87C140.24 177.267 160.127 193.939 154.703 219.852Z" stroke="#ffffff" stroke-width="2" stroke-linecap="round"/>
<path d="M323.604 170.995C326.983 186.698 337.837 194.337 333.78 204.811C333.708 204.998 333.491 205.096 333.298 205.04C307.749 197.579 302.233 227.124 312.712 236.216C312.988 236.455 312.844 236.925 312.48 236.928C295.129 237.084 281.903 208.13 285.84 197.108C296.887 166.174 322.436 165.572 323.604 170.995Z" stroke="#ffffff" stroke-width="2" stroke-linecap="round"/>
<path d="M290.861 222.217C290.728 248.8 291.223 276.493 295.08 298.348" stroke="#ffffff" stroke-width="2" stroke-linecap="round"/>
<path d="M155.507 217.442C155.775 243.689 154.985 273.806 150.485 300" stroke="#ffffff" stroke-width="2" stroke-linecap="round"/>
<path d="M244.025 124.152C245.813 119.134 244.178 115.758 242.591 115.114C233.033 123.606 218.535 120.453 213.164 115.307C211.251 117.005 212.364 122.029 213.164 123.573C223.516 134.689 238.25 128.462 244.025 124.152Z" fill="#B476E5"/>
</svg>
